<?xml version="1.0" encoding="utf-8"?>
<!-- Generator: Adobe Illustrator 28.0.0, SVG Export Plug-In . SVG Version: 6.00 Build 0)  -->
<svg version="1.1" id="Layer_2_00000016765452648883523910000009504798530831824021_"
	 xmlns="http://www.w3.org/2000/svg" xmlns:xlink="http://www.w3.org/1999/xlink" x="0px" y="0px" viewBox="0 0 812.1 812"
	 style="enable-background:new 0 0 812.1 812;" xml:space="preserve">
<style type="text/css">
	.st0{fill:#E6E6E6;stroke:#212121;stroke-width:12;stroke-miterlimit:10;}
	.st1{fill:#F2F2F2;stroke:#212121;stroke-width:12;stroke-miterlimit:10;}
	
		.st2{fill:url(#Monitor_00000078752803004097621260000005227198494191149459_);stroke:#212121;stroke-width:12;stroke-miterlimit:10;}
	.st3{fill:#FBB000;stroke:#000000;stroke-width:8;stroke-miterlimit:10;}
	.st4{fill:#2F272A;}
	.st5{fill:#192A2C;}
	.st6{fill:#4C7B6F;}
	.st7{fill:#28C840;}
	.st8{fill:#FEBC2F;}
	.st9{fill:#FE5F57;}
	.st10{fill:#212121;}
</style>
<g id="Icon">
	<g id="Base">
		<path id="Bottom" class="st0" d="M639.1,714c6.8,0,44.1,4.3,64.3,27.3c11.3,12.9,23.8,37.7,11.5,53c-9.8,12.1-28.5,12-31.8,11.5
			H121.6c-2.7-0.2-21.8-2-27.9-14.8c-6.3-13.4,6-29.5,12.6-38.2c21.5-28.2,55.6-36.3,72.8-38.9L639.1,714L639.1,714z"/>
		<rect id="Neck" x="312" y="634" class="st1" width="188" height="80"/>
	</g>
	<path id="Speaker" class="st1" d="M6,561.9h800v53.2c0,14.8-12,26.8-26.8,26.8H32.8C18,642,6,629.9,6,615.1L6,561.9
		C6,561.9,6,561.9,6,561.9z"/>
	<g id="Screen">
		
			<linearGradient id="Monitor_00000155845632766343517610000001594413021710110866_" gradientUnits="userSpaceOnUse" x1="406" y1="1450.224" x2="406" y2="1939.3149" gradientTransform="matrix(1 0 0 1 0 -1377.3721)">
			<stop  offset="1.000000e-03" style="stop-color:#D6562B"/>
			<stop  offset="7.200000e-02" style="stop-color:#DF642D"/>
			<stop  offset="0.182" style="stop-color:#E97530"/>
			<stop  offset="0.263" style="stop-color:#ED7C31"/>
			<stop  offset="0.721" style="stop-color:#F4BB3A"/>
		</linearGradient>
		
			<rect id="Monitor" x="6" y="72.9" style="fill:url(#Monitor_00000155845632766343517610000001594413021710110866_);stroke:#212121;stroke-width:12;stroke-miterlimit:10;" width="800" height="489.1"/>
		<g id="Display">
			<path id="Sun" class="st3" d="M677.5,525.5c6.2-23.7,9.6-48.6,9.6-74.3c0-158.5-125.8-286.9-281-286.9S125,292.9,124.9,451.3
				c0,25.2,3.2,49.6,9.2,72.9c0.2,0.8,1,1.4,1.8,1.4l545.3-0.2"/>
			<g id="Forground">
				<g id="Birds">
					<path id="Bird1" class="st4" d="M509.3,330.7l44.1-0.3c0.9,0,1.7-0.7,1.8-1.5c0.9-5.3,4-23.9,6.9-43.1c0.3-1.9-2.1-2.9-3.3-1.4
						c-14.5,18-16.4,27.3-16.6,30.4c0,0.8-0.5,1.4-1.3,1.6l-32.3,10.7C506.7,327.7,507.2,330.7,509.3,330.7L509.3,330.7L509.3,330.7
						z"/>
					<path id="Bird2" class="st4" d="M375.1,232.6l14.6,40.7c0.3,0.8,1.1,1.4,2,1.2c5.4-0.9,24.4-4,44.1-7.5c1.9-0.3,2.1-3,0.3-3.6
						c-22.2-7.5-31.8-6.2-34.8-5.4c-0.7,0.2-1.5-0.1-1.9-0.6l-21.1-26.6C377,229.1,374.4,230.6,375.1,232.6L375.1,232.6L375.1,232.6
						z"/>
					<path id="Bird3" class="st4" d="M492,248.3l21,3.9c0.9,0.2,1.7-0.3,2.1-1.2c1.3-3.3,4.6-12,8-21.5c0.7-1.8-1.5-3.3-3-2
						c-8.2,7.3-10.5,11.9-11.1,13.8c-0.2,0.7-0.8,1.2-1.5,1.3l-15.3,2C490,244.8,490,247.9,492,248.3L492,248.3L492,248.3z"/>
				</g>
				<g id="Mountains">
					<path class="st5" d="M800,556.3c-3.9,0-14.2,0.1-18.2,0.2c-190,1.7-327,1.4-447.5,1.4c-77.4,0-187.6,0-322.7,0.3
						c-0.2-59.9-0.4-136.3-0.4-136.3c0,0,0,0,0-0.1c0,0,0,0,0,0c0-0.2,0.1-0.7,0.2-1.3c0,0,0,0,0,0s0.8-4.5,3.2-8.8
						c15.5-27.2,20.1-43.4,84.8-117.9c0,0,0,0,0,0c0,0,0,0,0,0c2.6,3.4,17.6,23,18,23.3c0,0,0.7,0.3,0.7,0.3c0.2,0,0.5-0.1,0.6-0.3
						L200.7,200c1-1.4,3.1-1.4,4.1,0l89.5,130.8c0.7,1.1,2.3,1.1,3,0c0.2-0.3,0.4-0.6,0.6-0.9c0,0,3.7-5.7,5.9-8.1
						c0.1-0.1,0.4-0.4,0.8-0.4c0.4,0,0.7,0.5,0.7,0.5c0.5,0.7,8.2,8.5,19.6,20.1c1.2,1.2,3.3,0.8,4-0.8
						c7.4-17.7,14.8-35.4,22.3-53.1c1-2.4,4.2-2.7,5.7-0.6l81.1,115.8c4.6-4.6,16-16.1,16.2-16.3c0.1-0.1,0.2-0.1,0.2-0.1
						s0.1,0,0.2,0.1c0.2,0.2,38.5,38.9,41.4,39.2c0.9,0.1,1.9,0,1.9,0s0.7-0.1,1.3-0.2c1.2-0.3,21.5-23.3,48.8-55.1v0l10.1,12.9
						c1.4,1.7,4,1.7,5.3-0.1l54.5-77.8c0.3-0.5,0.9-0.8,1.5-0.8h5.3c0.6,0,1.2,0.3,1.5,0.8c28.3,39.8,39,54.9,67.4,95
						c0.1,0.2,0.2,0.4,0.3,0.7c0.1,0.3,0.2,0.6,0.5,0.9c0,0,0.4,0.4,1.1,0.5c2.6,0.3,24.3-27.4,27.1-30.8c0.4-0.5,2.4-3,5.3-6.6
						c3.2-4,5.9-7.4,8-10c0.8-1,2.2-0.9,3,0.1c0,0,0,0,0,0c0,0,11.7,20,61.9,105.6C800.5,492.9,800.2,524.6,800,556.3L800,556.3z"/>
					<path class="st6" d="M548,441.5h1.8c0.6,0,1.2-0.3,1.5-0.8c7.1-10.7,5.1-19.2,11.1-34.6c0.1-0.4,0.3-0.7,0.4-1.1
						c0.4-1.5,2.3-1.9,3.2-0.7l5.1,6.5c0.8,1,2.3,0.9,3-0.1L616,351c1.1-1.6,3.5-0.6,3.4,1.3c-1.2,13-1,27.3,2.5,40.6
						c10.2,38.6-9.7,49.8,2.1,60.1c11.8,10.3-5.7,28.2,5.3,35.2c11,6.9,25-45.5,38.4-35.2c9.2,7,22.1-19.7,33-35.5
						c0.7-1.1,2.3-1.1,3,0l8.7,12.4c0.7,1.1,2.3,1,3,0l3.1-4.4c1-1.4,3.2-0.9,3.4,0.9c0.5,4.3,1.4,8.3,2.7,12.1
						c10.2,27.5-17.8,33.1-10.2,43.6c4.4,6,9.9,28.5,16.5,46.2c0.5,1.3-0.5,2.6-1.9,2.5l-118.8-11.2c-0.4,0-0.8-0.2-1.1-0.5
						C586.7,497,557,470,545.1,476.2c-4.9,2.6-11,0.1-17.6-5.3c-0.7-0.6-0.9-1.7-0.4-2.5c8.9-14,17.6-29.6,23.6-26.9"/>
					<path class="st6" d="M34.8,466.4c29.1-38.5,49.7-73.1,66.2-68.2c0.9,0.3,1.8-0.1,2.2-1l5.9-12.9c0-0.1,0.1-0.2,0.2-0.3
						c11.2-16.1,1.3-14.1,10.3-37.2c0.4-1,0.7-2.2,1-3.4c0.3-1.5,2.3-2,3.3-0.7l9.3,11.9c0.8,1,2.3,0.9,3-0.1l64.1-91.1
						c1.1-1.6,3.6-0.6,3.4,1.3c-2.1,20-2.1,42.2,3.3,62.8c14.9,56.7-14.3,73.1,3.1,88.2c17.4,15.1-8.4,41.4,7.8,51.6
						c16.2,10.2,36.7-66.7,56.3-51.6c13.7,10.5,33-30.1,49.1-53.1c0.7-1.1,2.3-1.1,3,0l14.3,20.3c0.7,1.1,2.3,1,3,0l6.5-9.5
						c1-1.4,3.2-0.8,3.4,0.9c0.6,7.1,2,13.9,4.3,20c14.9,40.3-26.1,48.5-15,63.9c4.1,5.5,61.6,33.4,74.6,77.1
						c0.4,1.4-0.9,2.7-2.3,2.3L327.5,513c-0.1,0-0.1,0-0.2,0L246.5,499c-0.2,0-0.4,0-0.5,0l-111.7,13.9c-0.4,0.1-0.8,0-1.2-0.3
						l-69.1-42.9c-0.4-0.3-0.9-0.3-1.4-0.2l-37.7,13.7c-1.7,0.4-5-5.6-3.9-6.9C28.9,465.8,25.2,458.9,34.8,466.4"/>
				</g>
			</g>
		</g>
	</g>
	<g id="ToolBar">
		<path id="Navbar" class="st1" d="M777.7,6h-744C31.8,6,22,6.2,14.1,15.6S6,36.6,6,38.7C6.2,52,6.4,65.2,6.6,78.4H806
			c-0.2-13.2-0.4-26.4-0.6-39.7C805.4,20.7,793,6,777.7,6z"/>
		<g id="Navitems">
			<g id="Buttons">
				<circle class="st7" cx="158.2" cy="41.4" r="16"/>
				<circle class="st8" cx="105.9" cy="41.4" r="16"/>
				<circle class="st9" cx="53.6" cy="41.4" r="16"/>
			</g>
			<path id="SearchBar" class="st10" d="M273.5,32.4h304c4.4,0,8,3.6,8,8v2c0,4.4-3.6,8-8,8h-304c-4.4,0-8-3.6-8-8v-2
				C265.5,35.9,269,32.4,273.5,32.4z"/>
			<g id="Menu">
				<path class="st10" d="M732.4,22.5h35.2c3.2,0,5.8,2.6,5.8,5.8v1.4c0,3.2-2.6,5.8-5.8,5.8h-35.2c-3.2,0-5.8-2.6-5.8-5.8v-1.4
					C726.6,25.1,729.2,22.5,732.4,22.5z"/>
				<path class="st10" d="M732.4,47.3h35.2c3.2,0,5.8,2.6,5.8,5.8v1.4c0,3.2-2.6,5.8-5.8,5.8h-35.2c-3.2,0-5.8-2.6-5.8-5.8v-1.4
					C726.6,49.9,729.2,47.3,732.4,47.3z"/>
			</g>
		</g>
	</g>
</g>
</svg>
