<?xml version="1.0" encoding="UTF-8"?><svg id="Layer_2" xmlns="http://www.w3.org/2000/svg" width="472.5" height="472.4" viewBox="0 0 472.5 472.4"><g id="Layer_1-2"><g id="freepik--Floor--inject-142"><ellipse id="freepik--floor--inject-142" cx="236.3" cy="336" rx="236.3" ry="136.4" fill="#f5f5f5" stroke-width="0"/></g><g id="freepik--Shadows--inject-142"><path id="freepik--Shadow--inject-142" d="m107.4,436.6l-9.8-5.8c-1.7-.9-3.8-.9-5.5,0l-15.2,8.8c-1.7.9-3.8.9-5.5,0l-51.4-29.7c-1.5-.9-1.5-2.3,0-3.2l170.4-98.4c1.7-.9,3.8-.9,5.5,0l51.4,29.7c1.5.9,1.5,2.3,0,3.2l-15.2,8.9c-1.5.9-1.5,2.3,0,3.2l9.8,5.6c1.5.9,1.5,2.3,0,3.2l-129,74.5c-1.7.9-3.7.9-5.5,0Z" fill="#4c7b6e" opacity=".1" stroke-width="0"/><ellipse id="freepik--shadow--inject-142" cx="360.2" cy="398.8" rx="82.1" ry="47.4" fill="#4c7b6e" opacity=".1" stroke-width="0"/></g><g id="freepik--Plants--inject-142"><g id="freepik--plants--inject-142"><path d="m426.4,375c.7-10.7,0-21.6,6.6-36.3,5.6-12.4,14.8-22.1,25.4-22.9,4.4-.3,7.5.7,9.3,3.8,3.2,5.5-1.6,11.3-6.7,14.6-2.2,1.5-20.8,11.1-25.9,32.4l-2.2,12.1-.7-.4-5.7-3.3Z" fill="#dd6d1f" stroke-width="0"/><path d="m426.4,375c.7-10.7,0-21.6,6.6-36.3,5.6-12.4,14.8-22.1,25.4-22.9,4.4-.3,7.5.7,9.3,3.8,3.2,5.5-1.6,11.3-6.7,14.6-2.2,1.5-20.8,11.1-25.9,32.4l-2.2,12.1-.7-.4-5.7-3.3Z" fill="#4c7b6e" isolation="isolate" stroke-width="0"/><path d="m429.8,371.4c.2,0,.4-.2.4-.4,3.3-25.9,13.2-41.4,31.1-47.5.2,0,.3-.4.3-.6,0,0,0,0,0,0-.1-.2-.4-.3-.6-.2-18.1,5.8-28.3,22-31.6,48.2,0,.3.1.5.4.5,0,0,0,0,0,0h.1Z" fill="#fff" stroke-width="0"/><path d="m436.3,380.8c.8-3.7,2.8-8,10.3-16.3,6.5-7.1,16.7-11.1,18.7-15.6,2.4-5.3-1.9-10.2-10.1-9.2-9.8,1.3-19.9,15.9-23.5,38.3l4.6,2.7Z" fill="#4c7b6e" opacity=".8" stroke-width="0"/><path d="m434,377.6c.2,0,.3-.2.4-.3,5.3-19.4,17.8-30.1,24.4-31.5.2,0,.4-.4.3-.6,0-.2-.3-.3-.5-.3-7.3,1.5-19.7,12.3-25.1,32.2,0,.3,0,.5.3.6,0,0,0,0,0,0,0,0,.1,0,.2,0Z" fill="#fff" stroke-width="0"/></g><g id="freepik--plants--inject-142-2"><g id="freepik--Leaves--inject-142"><path d="m44.1,320.8s-5.6-7.7-3.7-20.9c1.5-10.6,6-14.9,7.1-14.6s2.2,4.9.6,16.7c-.6,4.9-4,18.8-4,18.8Z" fill="#4c7b6e" stroke-width="0"/><path d="m46.4,339.1c-.2-1.1.4-11.8,4.3-22.4,2.1-5.7,4.8-8,5.8-7,.6.5,1.2,5.2-1.9,13.8s-8,16.7-8.2,15.6Z" fill="#4c7b6e" stroke-width="0"/><path d="m44.8,329.5c0-1.1-2-4.5-6.1-9.4-2.8-3.3-5.7-7.4-7-6.8s-.3,6.1,2.9,9.9,10.3,7.3,10.2,6.2Z" fill="#4c7b6e" stroke-width="0"/><path d="m47.4,344.7c-.4-1.2-6.3-6-9-8.1s-6.3-4.1-8-3.4.5,5,5.3,8.2,12.1,4.6,11.7,3.4Z" fill="#4c7b6e" stroke-width="0"/><path d="m51.5,356.4c-.7-.8.3-7.2,1.8-13.1s4.7-12.6,6.3-11.2,1.5,5.9-.7,11.9c-2.4,6.7-6.8,13.1-7.5,12.3Z" fill="#4c7b6e" stroke-width="0"/><path d="m53.5,360.9c0-.7-4.9-3.1-9.6-6.1s-6.8-4.1-8-3-.2,4.7,5.4,7.5,12.3,2.3,12.3,1.6Z" fill="#4c7b6e" stroke-width="0"/><path d="m45.5,291.6c-1.6,8.1-2.3,16.3-2.2,24.5.1,8.2,1,16.4,2.5,24.5,1.6,8.1,3.9,16.1,7.8,23.5,2.5,4.8,5.8,9.2,9.6,13,2,2,2.3,1.1.3-1.1-3.3-3.9-6.2-8.1-8.4-12.7-3.6-7.3-6.3-15-8-22.9-1.7-8-2.7-16.1-3-24.2-.4-8.2,0-16.4,1.5-24.4,0,0,0,0,0-.1,0,0,0,0-.1,0,0,0,0,0,0,0Z" fill="#263238" stroke-width="0"/></g><path d="m35.2,371.3c-.7-.3-1.4-.4-2.1-.3-8.6.3-17,2.2-24.9,5.5,3,3.9,5.8,7.6,6.6,12.7.1.7.3,1.6.9,2,.4.2.8.2,1.2.2,4,0,7.9-.4,11.9-.9-3.2,2.1-6.8,3.6-10.6,4.5-.6,0-1.1.3-1.5.8-.2.4-.2.8-.1,1.1.2,2.7.7,5.4,1.4,8,.5,2.5,1.2,4.9,2.2,7.3.5,1.2,1.2,2.2,2,3.2,2.4,2.3,5.9,1.5,8.8.9,3.3-.7,6.4-2,9.3-3.9-1.8,4.6-7,7.5-11.5,8.8-.2,0-.4.2-.6.3-.1.2-.2.4-.2.7,0,1.2.6,2.4,1.4,3.3,4.1,5.2,10.2,8.4,16.8,9,4.9.4,9.8-.3,14.3-2.1,4.1-1.5,7.4-4.7,9.1-8.7.2-.9.4-1.7.8-2.5.3-.4,1.3-.4,1.9-.6,4.6-1.6,8.4-4.9,10.5-9.3,3.7-8,.8-18.6-5.6-24.4-1.2-1.1-3.5-3.5-4.7-1.4-.5,1.1-.9,2.3-1.3,3.5-.3.8-1.5,2.2-1.6,3,.6-10-6.2-19-16.1-21-3.7-.8-7.5-.5-11.2-.1-.8,0-1.7.2-2,1,0,.3-.1.6-.1.9,0,2.2-.3,4.4-1.1,6.4-.2-1.9-.9-3.8-1.9-5.4-.5-1-1.2-1.8-2.2-2.4Z" fill="#dd6d1f" stroke-width="0"/><path d="m35.2,371.3c-.7-.3-1.4-.4-2.1-.3-8.6.3-17,2.2-24.9,5.5,3,3.9,5.8,7.6,6.6,12.7.1.7.3,1.6.9,2,.4.2.8.2,1.2.2,4,0,7.9-.4,11.9-.9-3.2,2.1-6.8,3.6-10.6,4.5-.6,0-1.1.3-1.5.8-.2.4-.2.8-.1,1.1.2,2.7.7,5.4,1.4,8,.5,2.5,1.2,4.9,2.2,7.3.5,1.2,1.2,2.2,2,3.2,2.4,2.3,5.9,1.5,8.8.9,3.3-.7,6.4-2,9.3-3.9-1.8,4.6-7,7.5-11.5,8.8-.2,0-.4.2-.6.3-.1.2-.2.4-.2.7,0,1.2.6,2.4,1.4,3.3,4.1,5.2,10.2,8.4,16.8,9,4.9.4,9.8-.3,14.3-2.1,4.1-1.5,7.4-4.7,9.1-8.7.2-.9.4-1.7.8-2.5.3-.4,1.3-.4,1.9-.6,4.6-1.6,8.4-4.9,10.5-9.3,3.7-8,.8-18.6-5.6-24.4-1.2-1.1-3.5-3.5-4.7-1.4-.5,1.1-.9,2.3-1.3,3.5-.3.8-1.5,2.2-1.6,3,.6-10-6.2-19-16.1-21-3.7-.8-7.5-.5-11.2-.1-.8,0-1.7.2-2,1,0,.3-.1.6-.1.9,0,2.2-.3,4.4-1.1,6.4-.2-1.9-.9-3.8-1.9-5.4-.5-1-1.2-1.8-2.2-2.4Z" fill="#4c7b6e" stroke-width="0"/><path d="m32.3,401c.1,0,.2,0,.3-.1,7-4.3,15.6-5.2,23.4-2.5.3,0,.6-.1.6-.4,0-.2,0-.5-.3-.6-8.1-2.8-17-1.8-24.3,2.6-.2.2-.3.5-.1.7,0,0,0,0,0,0,0,.1.3.2.4.2Z" fill="#fff" stroke-width="0"/><path d="m69.3,420.3c-.3,0-.5-.1-.6-.4-4.8-21.3-30.3-37.3-45.8-40.9-.3,0-.4-.3-.4-.6,0-.3.3-.4.6-.4,15.8,3.6,41.7,19.9,46.6,41.6,0,.3-.1.5-.4.6,0,0,0,0,0,0h0Z" fill="#fff" stroke-width="0"/></g></g><g id="freepik--Wrench--inject-142"><g id="freepik--wrench--inject-142"><path d="m48.3,38.9c0-2.5,2.1-5.9,1.4-7.8l-4.6-2.6-9.1,23-9.3,5.3-4.7-6.7,13.8-20.6-4.5-2.6c-.6.3-1.2.6-1.8.9-10.4,5.9-18.9,20.5-19,32.6,0,6.1,2.1,10.4,5.5,12.4h0l4.5,2.6.5-1.4h.3v107c-6.4,7.1-10.9,17.1-11,25.9,0,4.5,1.1,8,3.1,10.4l4.6,2.6,4.6-25.6,9.3-5.3,4.6,6.7-9.2,23.2,4.6,2.6s16.1-24.1,16.2-36.1c.1-3-.6-6-2-8.7l1.1-1-4.5-2.6h0c-1.7-1-3.6-1.5-5.6-1.3v-107c6.4-7.1,10.9-17.2,11-25.9Z" fill="#dd6d1f" stroke-width="0"/><path d="m48.3,38.9c0-2.5,2.1-5.9,1.4-7.8l-4.6-2.6-9.1,23-9.3,5.3-4.7-6.7,13.8-20.6-4.5-2.6c-.6.3-1.2.6-1.8.9-10.4,5.9-18.9,20.5-19,32.6,0,6.1,2.1,10.4,5.5,12.4h0l4.5,2.6.5-1.4h.3v107c-6.4,7.1-10.9,17.1-11,25.9,0,4.5,1.1,8,3.1,10.4l4.6,2.6,4.6-25.6,9.3-5.3,4.6,6.7-9.2,23.2,4.6,2.6s16.1-24.1,16.2-36.1c.1-3-.6-6-2-8.7l1.1-1-4.5-2.6h0c-1.7-1-3.6-1.5-5.6-1.3v-107c6.4-7.1,10.9-17.2,11-25.9Z" fill="#fff" isolation="isolate" opacity=".2" stroke-width="0"/><path d="m41.9,174.4v-107c6.4-7.1,10.9-17.1,10.9-25.9,0-4.5-1.1-8-3.1-10.4l-9.1,23-9.3,5.3-4.6-6.7,9.2-23.2c-.6.3-1.2.6-1.8.9-10.4,5.9-18.9,20.5-19,32.6,0,8.8,4.4,13.9,10.9,13.6v107c-6.4,7.1-10.9,17.2-10.9,25.9,0,4.5,1.1,8.1,3.1,10.4l9.1-23,9.3-5.3,4.6,6.7-9.2,23.2c.6-.3,1.2-.6,1.8-.9,10.4-5.9,18.9-20.5,19-32.6,0-8.9-4.4-13.9-10.9-13.6Z" fill="#dd6d1f" stroke-width="0"/><path d="m41.9,174.4v-107c6.4-7.1,10.9-17.1,10.9-25.9,0-4.5-1.1-8-3.1-10.4l-9.1,23-9.3,5.3-4.6-6.7,9.2-23.2c-.6.3-1.2.6-1.8.9-10.4,5.9-18.9,20.5-19,32.6,0,8.8,4.4,13.9,10.9,13.6v107c-6.4,7.1-10.9,17.2-10.9,25.9,0,4.5,1.1,8.1,3.1,10.4l9.1-23,9.3-5.3,4.6,6.7-9.2,23.2c.6-.3,1.2-.6,1.8-.9,10.4-5.9,18.9-20.5,19-32.6,0-8.9-4.4-13.9-10.9-13.6Z" fill="#fff" isolation="isolate" opacity=".6" stroke-width="0"/><path d="m34.7,192.7l2,3-9.2,23.2,4.6,2.6,9.2-23.2-4.6-6.7-2,1.1Zm5.8-138.6l9.2-23-4.6-2.6-9.1,23-7.3,4.2,2.6,3.8,9.3-5.3Z" fill="#dd6d1f" stroke-width="0"/><path d="m34.7,192.7l2,3-9.2,23.2,4.6,2.6,9.2-23.2-4.6-6.7-2,1.1Zm5.8-138.6l9.2-23-4.6-2.6-9.1,23-7.3,4.2,2.6,3.8,9.3-5.3Z" fill="#fff" isolation="isolate" opacity=".2" stroke-width="0"/><path d="m34.7,192.7l2,3-9.2,23.2,4.6,2.6,9.2-23.2-4.6-6.7-2,1.1Zm5.8-138.6l9.2-23-4.6-2.6-9.1,23-7.3,4.2,2.6,3.8,9.3-5.3Z" isolation="isolate" opacity=".1" stroke-width="0"/></g></g><g id="freepik--Gears--inject-142"><g id="freepik--gears--inject-142"><path d="m432.6,174h0l-7.7-4.4h0c-.2-.1-.5-.1-.8,0l-5.3,2.4c0-.4,0-.9.2-1.3l6.1-12.3c.3-.6,0-1.4-.5-1.8l-6.6-3.8h0l-7.7-4.4c-.6-.3-1.4-.2-1.8.4l-7.6,11.4c-.3.3-.6.6-1,.8l-.6-5.8c0-.3-.2-.5-.4-.7h0l-7.7-4.4h0c-.3-.1-.6,0-.8,0l-10.2,5.9c-.7.4-1.1,1.1-1.2,1.9l-1,11.4c-.1.8-.5,1.6-1.1,2.1-2,1.9-3.9,3.9-5.7,6-.5.5-1.3.8-2,.6l-6.6-2.3c-.7-.2-1.5,0-1.8.7l-7.5,13c-.4.7-.2,1.5.3,2l5.3,4.6c.5.5.7,1.3.5,2-1,2.6-1.8,5.3-2.4,8-.2.8-.7,1.5-1.3,2l-9.4,6.6c-.6.5-1,1.2-1,2v11.8c0,.3.1.6.4.8h0l7.7,4.4h0c.3.1.5.1.8,0l5.3-2.4c0,.4,0,.9-.2,1.3l-6.1,12.3c-.3.6,0,1.4.5,1.8l9.3,5.3h0l5,2.9c.6.3,1.4.2,1.8-.4l7.6-11.4c.3-.3.6-.6,1-.8l.6,5.8c0,.3.2.5.4.7h0l7.7,4.4h0c.3.1.6.1.8,0l10.2-5.9c.7-.4,1.1-1.1,1.2-1.9l1-11.4c.1-.8.5-1.5,1.1-2.1,2-1.9,3.9-3.9,5.7-6,.5-.5,1.3-.8,2-.6l6.6,2.3c.7.2,1.5,0,1.9-.7l7.5-13.1c.3-.7.2-1.4-.3-1.9l-5.3-4.6c-.5-.5-.7-1.3-.5-2,1-2.6,1.8-5.2,2.4-7.9.2-.8.7-1.5,1.3-2l9.4-6.6c.6-.5,1-1.2,1-2v-11.8c0-.3,0-.6-.3-.8Zm-57.1,39.8c0-11.1,7.8-24.5,17.3-30,3.7-2.2,7.2-2.8,10-2.1,1.5,2,2.2,5.1,2.2,9.2,0,11.1-7.8,24.5-17.3,30-3.8,2.2-6.9,2.9-9.4,2.3-1.8-2.1-2.8-5.3-2.8-9.4Z" fill="#dd6d1f" stroke-width="0"/><path d="m432.6,174h0l-7.7-4.4h0c-.2-.1-.5-.1-.8,0l-5.3,2.4c0-.4,0-.9.2-1.3l6.1-12.3c.3-.6,0-1.4-.5-1.8l-6.6-3.8h0l-7.7-4.4c-.6-.3-1.4-.2-1.8.4l-7.6,11.4c-.3.3-.6.6-1,.8l-.6-5.8c0-.3-.2-.5-.4-.7h0l-7.7-4.4h0c-.3-.1-.6,0-.8,0l-10.2,5.9c-.7.4-1.1,1.1-1.2,1.9l-1,11.4c-.1.8-.5,1.6-1.1,2.1-2,1.9-3.9,3.9-5.7,6-.5.5-1.3.8-2,.6l-6.6-2.3c-.7-.2-1.5,0-1.8.7l-7.5,13c-.4.7-.2,1.5.3,2l5.3,4.6c.5.5.7,1.3.5,2-1,2.6-1.8,5.3-2.4,8-.2.8-.7,1.5-1.3,2l-9.4,6.6c-.6.5-1,1.2-1,2v11.8c0,.3.1.6.4.8h0l7.7,4.4h0c.3.1.5.1.8,0l5.3-2.4c0,.4,0,.9-.2,1.3l-6.1,12.3c-.3.6,0,1.4.5,1.8l9.3,5.3h0l5,2.9c.6.3,1.4.2,1.8-.4l7.6-11.4c.3-.3.6-.6,1-.8l.6,5.8c0,.3.2.5.4.7h0l7.7,4.4h0c.3.1.6.1.8,0l10.2-5.9c.7-.4,1.1-1.1,1.2-1.9l1-11.4c.1-.8.5-1.5,1.1-2.1,2-1.9,3.9-3.9,5.7-6,.5-.5,1.3-.8,2-.6l6.6,2.3c.7.2,1.5,0,1.9-.7l7.5-13.1c.3-.7.2-1.4-.3-1.9l-5.3-4.6c-.5-.5-.7-1.3-.5-2,1-2.6,1.8-5.2,2.4-7.9.2-.8.7-1.5,1.3-2l9.4-6.6c.6-.5,1-1.2,1-2v-11.8c0-.3,0-.6-.3-.8Zm-57.1,39.8c0-11.1,7.8-24.5,17.3-30,3.7-2.2,7.2-2.8,10-2.1,1.5,2,2.2,5.1,2.2,9.2,0,11.1-7.8,24.5-17.3,30-3.8,2.2-6.9,2.9-9.4,2.3-1.8-2.1-2.8-5.3-2.8-9.4Z" fill="#fff" isolation="isolate" opacity=".2" stroke-width="0"/><path d="m364.6,230.2c-.2-.6-.7-.9-1.3-.8,0,0-.1,0-.2,0l-3.8,1.7c0,.4,0,.9-.2,1.3l-6.1,12.3c-.3.6,0,1.4.5,1.8l9.3,5.3-1.5-.9c-.6-.4-.9-1.1-.5-1.8l6.1-12.3c.3-.7.2-1.5-.1-2.2-.9-1.4-1.6-2.9-2.1-4.5Zm22.2,22.9c-.2-.2-.3-.4-.3-.6l-1-10c0-.6-.5-1.1-1.1-1,0,0-.2,0-.2,0-1.6.4-3.3.5-4.9.5-.3,0-.7,0-1,.2l.6,5.8c0,.3.2.5.4.7h0l7.6,4.5Z" isolation="isolate" opacity=".1" stroke-width="0"/><path d="m410.2,193.8c0,11-7.7,24.5-17.3,30-6,3.5-11.4,3-14.5-.6,2.5.6,5.7-.1,9.4-2.3,9.6-5.5,17.3-18.9,17.3-30s-.8-7.1-2.2-9.2c4.4,1.1,7.3,5.4,7.3,12.1Z" isolation="isolate" opacity=".1" stroke-width="0"/><path d="m410.2,148.4c-.6-.3-1.4-.2-1.8.4l-7.6,11.4c-.1.2-.3.4-.5.5l7.7,4.4c.2-.1.4-.3.5-.5l7.6-11.4c.4-.5,1.1-.7,1.7-.5l-7.6-4.3Zm14.7,21.2h0c-.2-.1-.5-.1-.8,0l-5.3,2.4c0,.3.2.6.3.9.8,1.4,1.5,2.8,2,4.3,0,0,0,.2,0,.2,0,.2.1.3.3.5h.1c0,.2.2.2.3.3.2,0,.4,0,.6,0,0,0,.2,0,.2,0l9.1-4.1c0,0,.2,0,.2,0,.1,0,.2,0,.3,0,0,0,.2,0,.3,0h0l-7.7-4.4Zm-33.8-19.5c-.3-.1-.6,0-.8,0l-10.2,5.9c-.4.3-.8.7-1,1.2l7.7,4.4c.2-.5.5-.9,1-1.2l10.2-5.9c.2-.2.5-.2.8-.1l-7.7-4.4Zm-34.9,57.2c-.2.3-.4.5-.7.8l-9.4,6.6c-.2.2-.5.4-.6.7l7.7,4.4c.2-.3.4-.5.6-.7l9.4-6.6c.3-.2.5-.5.7-.8l-7.7-4.4Zm5.7-31.5c-.5,0-1,.3-1.3.8l-7.5,13c-.2.3-.2.7-.2,1l7.7,4.4c0-.3,0-.7.2-1l7.5-13c.3-.4.7-.7,1.2-.8l-7.6-4.4Z" fill="#dd6d1f" stroke-width="0"/><path d="m410.2,148.4c-.6-.3-1.4-.2-1.8.4l-7.6,11.4c-.1.2-.3.4-.5.5l7.7,4.4c.2-.1.4-.3.5-.5l7.6-11.4c.4-.5,1.1-.7,1.7-.5l-7.6-4.3Zm14.7,21.2h0c-.2-.1-.5-.1-.8,0l-5.3,2.4c0,.3.2.6.3.9.8,1.4,1.5,2.8,2,4.3,0,0,0,.2,0,.2,0,.2.1.3.3.5h.1c0,.2.2.2.3.3.2,0,.4,0,.6,0,0,0,.2,0,.2,0l9.1-4.1c0,0,.2,0,.2,0,.1,0,.2,0,.3,0,0,0,.2,0,.3,0h0l-7.7-4.4Zm-33.8-19.5c-.3-.1-.6,0-.8,0l-10.2,5.9c-.4.3-.8.7-1,1.2l7.7,4.4c.2-.5.5-.9,1-1.2l10.2-5.9c.2-.2.5-.2.8-.1l-7.7-4.4Zm-34.9,57.2c-.2.3-.4.5-.7.8l-9.4,6.6c-.2.2-.5.4-.6.7l7.7,4.4c.2-.3.4-.5.6-.7l9.4-6.6c.3-.2.5-.5.7-.8l-7.7-4.4Zm5.7-31.5c-.5,0-1,.3-1.3.8l-7.5,13c-.2.3-.2.7-.2,1l7.7,4.4c0-.3,0-.7.2-1l7.5-13c.3-.4.7-.7,1.2-.8l-7.6-4.4Z" fill="#fff" isolation="isolate" opacity=".7" stroke-width="0"/><path d="m433,186.6v-11.8c0-.4-.2-.8-.6-.9-.2,0-.4,0-.5.1l-9.1,4.1c-.5.3-1.2,0-1.4-.5,0,0,0-.1,0-.2-.5-1.6-1.2-3.1-2-4.5-.4-.7-.4-1.5-.1-2.2l6.1-12.3c.3-.6,0-1.4-.5-1.8l-6.6-3.8c-.6-.3-1.4-.2-1.8.4l-7.6,11.4c-.5.6-1.2,1-2,1-1.7,0-3.3.1-4.9.5-.6.2-1.2-.2-1.3-.7,0,0,0-.2,0-.3l-1-10c0-.4-.3-.8-.7-.8-.2,0-.4,0-.5.2l-10.2,5.9c-.7.4-1.1,1.1-1.2,1.9l-1,11.4c-.1.8-.5,1.6-1.1,2.1-2,1.9-3.9,3.9-5.7,6-.5.6-1.3.8-2,.6l-6.6-2.3c-.7-.2-1.5,0-1.9.7l-7.5,13.1c-.4.6-.2,1.4.3,1.9l5.3,4.6c.5.5.7,1.3.5,2-1,2.6-1.8,5.2-2.4,7.9-.2.8-.7,1.5-1.3,2l-9.4,6.6c-.6.5-1,1.2-1,2v11.8c0,.4.2.8.7.9.2,0,.4,0,.5-.1l9.1-4.1c.5-.3,1.2,0,1.5.5,0,0,0,.1,0,.2.5,1.6,1.2,3.1,2,4.5.4.7.4,1.5.1,2.2l-6.1,12.3c-.3.6,0,1.4.5,1.8l6.6,3.8c.6.3,1.4.2,1.8-.4l7.6-11.4c.5-.6,1.2-1,2-1,1.7,0,3.3-.1,4.9-.5.6-.2,1.2.2,1.3.7,0,0,0,.2,0,.3l1,10c0,.4.3.8.7.8.2,0,.4,0,.5-.2l10.2-5.9c.7-.4,1.1-1.1,1.2-1.9l1-11.4c.1-.8.5-1.5,1.1-2.1,2-1.9,3.9-3.9,5.7-6,.5-.5,1.3-.8,2-.6l6.6,2.3c.7.2,1.5,0,1.9-.7l7.5-13.1c.3-.7.2-1.4-.3-1.9l-5.3-4.6c-.5-.5-.7-1.3-.5-2,1-2.6,1.8-5.2,2.4-7.9.2-.8.7-1.5,1.3-2l9.4-6.6c.6-.5,1-1.2,1-2Zm-40.1,37.2c-9.6,5.5-17.3,1-17.3-10s7.8-24.5,17.3-30,17.3-1.1,17.3,10-7.8,24.5-17.3,30h0Z" fill="#dd6d1f" stroke-width="0"/><g opacity=".6"><path d="m433,186.6v-11.8c0-.4-.2-.8-.6-.9-.2,0-.4,0-.5.1l-9.1,4.1c-.5.3-1.2,0-1.4-.5,0,0,0-.1,0-.2-.5-1.6-1.2-3.1-2-4.5-.4-.7-.4-1.5-.1-2.2l6.1-12.3c.3-.6,0-1.4-.5-1.8l-6.6-3.8c-.6-.3-1.4-.2-1.8.4l-7.6,11.4c-.5.6-1.2,1-2,1-1.7,0-3.3.1-4.9.5-.6.2-1.2-.2-1.3-.7,0,0,0-.2,0-.3l-1-10c0-.4-.3-.8-.7-.8-.2,0-.4,0-.5.2l-10.2,5.9c-.7.4-1.1,1.1-1.2,1.9l-1,11.4c-.1.8-.5,1.6-1.1,2.1-2,1.9-3.9,3.9-5.7,6-.5.6-1.3.8-2,.6l-6.6-2.3c-.7-.2-1.5,0-1.9.7l-7.5,13.1c-.4.6-.2,1.4.3,1.9l5.3,4.6c.5.5.7,1.3.5,2-1,2.6-1.8,5.2-2.4,7.9-.2.8-.7,1.5-1.3,2l-9.4,6.6c-.6.5-1,1.2-1,2v11.8c0,.4.2.8.7.9.2,0,.4,0,.5-.1l9.1-4.1c.5-.3,1.2,0,1.5.5,0,0,0,.1,0,.2.5,1.6,1.2,3.1,2,4.5.4.7.4,1.5.1,2.2l-6.1,12.3c-.3.6,0,1.4.5,1.8l6.6,3.8c.6.3,1.4.2,1.8-.4l7.6-11.4c.5-.6,1.2-1,2-1,1.7,0,3.3-.1,4.9-.5.6-.2,1.2.2,1.3.7,0,0,0,.2,0,.3l1,10c0,.4.3.8.7.8.2,0,.4,0,.5-.2l10.2-5.9c.7-.4,1.1-1.1,1.2-1.9l1-11.4c.1-.8.5-1.5,1.1-2.1,2-1.9,3.9-3.9,5.7-6,.5-.5,1.3-.8,2-.6l6.6,2.3c.7.2,1.5,0,1.9-.7l7.5-13.1c.3-.7.2-1.4-.3-1.9l-5.3-4.6c-.5-.5-.7-1.3-.5-2,1-2.6,1.8-5.2,2.4-7.9.2-.8.7-1.5,1.3-2l9.4-6.6c.6-.5,1-1.2,1-2Zm-40.1,37.2c-9.6,5.5-17.3,1-17.3-10s7.8-24.5,17.3-30,17.3-1.1,17.3,10-7.8,24.5-17.3,30h0Z" fill="#fff" stroke-width="0"/><path d="m368.5,255.5c-.3,0-.6,0-.9-.2l-6.6-3.8c-.8-.5-1.2-1.6-.7-2.4l6.1-12.3c.2-.6.2-1.2-.1-1.7-.9-1.5-1.6-3-2.1-4.6,0-.2-.2-.3-.4-.4-.2,0-.3,0-.5,0l-9.1,4.2c-.4.2-.9.2-1.3,0-.4-.3-.6-.7-.6-1.2v-11.9c0-1,.5-1.8,1.3-2.4l9.4-6.6c.5-.4.9-1,1.1-1.7.6-2.7,1.4-5.4,2.4-8,.2-.5,0-1.1-.4-1.5l-5.3-4.6c-.7-.7-.9-1.7-.4-2.6l7.5-13.1c.5-.8,1.5-1.2,2.5-.9l6.6,2.3c.5.1,1.1,0,1.5-.4,1.8-2.2,3.7-4.2,5.7-6.1.5-.5.8-1.1.9-1.8l1-11.4c.1-.9.7-1.8,1.5-2.3l10.3-5.9c.4-.3.9-.3,1.3,0,.4.2.7.6.7,1.1l1,10c0,.2,0,.3.2.4.2.1.3.1.5,0,1.7-.4,3.4-.6,5.1-.5.6,0,1.2-.3,1.5-.8l7.6-11.4c.6-.8,1.6-1.1,2.5-.6l6.6,3.8c.8.5,1.2,1.6.7,2.4l-6.1,12.3c-.2.6-.2,1.2.1,1.7.9,1.5,1.6,3,2.1,4.6,0,.2.2.3.3.4.2,0,.3,0,.5,0l9.1-4.1c.6-.3,1.4-.1,1.7.5.1.2.2.5.2.7v11.8c0,1-.5,1.8-1.3,2.4l-9.4,6.6c-.5.4-.9,1-1.1,1.7-.6,2.7-1.4,5.4-2.4,8-.2.5,0,1.1.4,1.5l5.3,4.6c.7.7.9,1.7.4,2.6l-7.5,13.1c-.5.8-1.5,1.2-2.4.9l-6.6-2.3c-.5-.1-1.1,0-1.5.4-1.8,2.2-3.7,4.2-5.7,6.1-.5.5-.8,1.1-.9,1.8l-1,11.4c-.1.9-.7,1.8-1.5,2.3l-10.3,5.9c-.4.3-.9.3-1.3,0-.4-.2-.7-.6-.7-1.1l-1-10c0-.2,0-.3-.2-.4-.2-.1-.3-.1-.5,0-1.7.4-3.4.5-5,.5h0c-.6,0-1.2.3-1.5.8l-7.6,11.4c-.4.5-1,.8-1.6.8Zm-4.9-26.6c.7,0,1.3.5,1.5,1.2.5,1.5,1.2,3,2,4.4.5.8.5,1.8.2,2.7l-6.1,12.3c-.2.4,0,.9.3,1.1l6.6,3.8c.4.2.9,0,1.2-.3l7.6-11.4c.6-.7,1.5-1.2,2.4-1.2,1.6,0,3.2-.1,4.8-.5.5-.1.9,0,1.3.2.4.3.6.7.6,1.1l1,10c0,.1,0,.2.1.3.1,0,.2,0,.3,0l10.2-5.9c.5-.3.9-.9,1-1.5l1-11.4c.1-.9.6-1.8,1.2-2.5,2-1.9,3.9-3.9,5.6-6,.6-.7,1.6-1,2.6-.7l6.6,2.3c.5.2,1,0,1.2-.5l7.5-13.1c.2-.4.1-1-.2-1.3l-5.3-4.6c-.7-.7-1-1.7-.7-2.6,1-2.6,1.7-5.2,2.4-7.9.2-.9.8-1.7,1.5-2.3l9.4-6.6c.5-.4.8-1,.8-1.6v-11.9c0-.1,0-.2-.1-.3h-.4l-9.1,4.1c-.4.2-.9.2-1.3,0-.4-.2-.8-.6-.9-1-.5-1.5-1.2-3-2-4.4-.5-.8-.5-1.8-.2-2.7l6.1-12.3c.2-.4,0-.9-.3-1.1l-6.6-3.8c-.4-.2-.9-.1-1.1.3l-7.6,11.4c-.6.8-1.5,1.2-2.4,1.2-1.6,0-3.2.1-4.8.5-.5.1-1,0-1.3-.3-.4-.3-.6-.7-.6-1.1l-1-10c0-.1,0-.2-.1-.3-.1,0-.2,0-.3,0l-10.3,5.9c-.5.4-.9.9-1,1.5l-1,11.4c-.1.9-.6,1.8-1.2,2.4-2,1.9-3.9,3.9-5.6,6-.6.7-1.6,1-2.6.7l-6.6-2.3c-.5-.1-1,0-1.2.5l-7.5,13.1c-.2.4-.1,1,.2,1.3l5.3,4.6c.7.7,1,1.7.7,2.6-1,2.6-1.7,5.2-2.4,7.9-.2.9-.8,1.7-1.5,2.3l-9.4,6.6c-.5.4-.8,1-.8,1.6v11.8c0,.1,0,.2.1.3.1,0,.2,0,.3,0l9.1-4.1c.2,0,.4-.1.7-.2Zm21.6-2.2c-1.7,0-3.3-.4-4.8-1.2-3.4-2-5.3-6.1-5.3-11.6,0-11.2,7.9-24.9,17.6-30.4,4.8-2.8,9.3-3.2,12.8-1.2s5.3,6.1,5.3,11.6c0,11.2-7.9,24.8-17.6,30.4-2.4,1.5-5.2,2.3-8,2.4Zm15.5-44.7c-2.7.1-5.2.9-7.5,2.3-9.4,5.4-17.1,18.7-17.1,29.6s1.7,9,4.8,10.8,7.3,1.4,11.8-1.2c9.4-5.4,17.1-18.7,17.1-29.6s-1.7-9-4.8-10.8c-1.3-.7-2.8-1.1-4.3-1.1h0Z" fill="#fff" stroke-width="0"/></g><path d="m444.4,95.2c.1-.9.5-1.7,1.2-2.4l4.8-4.4c.6-.6.9-1.5.8-2.4l-.9-5.3c0-.3-.2-.6-.5-.7h0l-5.7-3.3h0c-.3-.2-.7-.1-1,0l-2.1,1.4,2-5.4c.2-.6,0-1.2-.6-1.5h0l-5.7-3.3h0c-.1,0-.2-.1-.4-.2l-3.6-.8c-.8-.1-1.7.3-2.1,1l-3.4,6.5c-.3.5-.8,1-1.4,1.3v-.6c-.2-.3-.4-.5-.6-.6h0l-5.8-3.3h0c-.4-.2-.8-.1-1.1.2l-5.5,4.3c-.7.6-1,1.4-1,2.3l.2,5.2c0,.9-.3,1.8-.8,2.5-.9,1.1-1.8,2.2-2.5,3.3-.5.7-1.3,1.1-2.2,1.1l-3.5-.2c-.8,0-1.6.5-2,1.2l-3.3,7.4c-.3.7,0,1.4.6,1.8h0l3.9,2.2c.1.3.2.7,0,1-.3,1.2-.5,2.3-.6,3.5-.1.9-.6,1.7-1.2,2.4l-4.8,4.4c-.6.6-.9,1.5-.8,2.4l.9,5.3c0,.3.2.6.4.7h0l5.8,3.3h0c.3.2.7.1,1-.1l2.1-1.4-2,5.4c-.2.5,0,1.2.5,1.5h0l5.8,3.3h0c.1,0,.3.1.4.2l3.6.8c.8.1,1.7-.3,2.1-1l3.4-6.5c.3-.5.8-.9,1.3-1.2l.2.5c0,.3.2.5.5.6h0l5.7,3.3h0c.3.1.7,0,1-.2l5.5-4.3c.7-.6,1-1.4,1-2.3l-.3-5.2c0-.9.3-1.8.9-2.5.9-1.1,1.7-2.2,2.5-3.4.5-.7,1.3-1.1,2.2-1.1l3.5.2c.8,0,1.6-.5,2-1.2l3.3-7.4c.3-.7,0-1.5-.7-1.9,0,0,0,0,0,0l-2.8-1.2c-.8-.3-1.2-1.2-1-2,.3-1.1.6-2.3.8-3.4Zm-29.1,16.1c-1.1-6.2,2.9-15,8.8-19.7,1.8-1.5,3.9-2.5,6.2-2.8.3.7.6,1.5.7,2.3,1.1,6.2-2.9,15-8.8,19.7-1.8,1.5-3.9,2.5-6.2,2.8-.3-.7-.6-1.5-.7-2.3Z" fill="#dd6d1f" stroke-width="0"/><path d="m444.4,95.2c.1-.9.5-1.7,1.2-2.4l4.8-4.4c.6-.6.9-1.5.8-2.4l-.9-5.3c0-.3-.2-.6-.5-.7h0l-5.7-3.3h0c-.3-.2-.7-.1-1,0l-2.1,1.4,2-5.4c.2-.6,0-1.2-.6-1.5h0l-5.7-3.3h0c-.1,0-.2-.1-.4-.2l-3.6-.8c-.8-.1-1.7.3-2.1,1l-3.4,6.5c-.3.5-.8,1-1.4,1.3v-.6c-.2-.3-.4-.5-.6-.6h0l-5.8-3.3h0c-.4-.2-.8-.1-1.1.2l-5.5,4.3c-.7.6-1,1.4-1,2.3l.2,5.2c0,.9-.3,1.8-.8,2.5-.9,1.1-1.8,2.2-2.5,3.3-.5.7-1.3,1.1-2.2,1.1l-3.5-.2c-.8,0-1.6.5-2,1.2l-3.3,7.4c-.3.7,0,1.4.6,1.8h0l3.9,2.2c.1.3.2.7,0,1-.3,1.2-.5,2.3-.6,3.5-.1.9-.6,1.7-1.2,2.4l-4.8,4.4c-.6.6-.9,1.5-.8,2.4l.9,5.3c0,.3.2.6.4.7h0l5.8,3.3h0c.3.2.7.1,1-.1l2.1-1.4-2,5.4c-.2.5,0,1.2.5,1.5h0l5.8,3.3h0c.1,0,.3.1.4.2l3.6.8c.8.1,1.7-.3,2.1-1l3.4-6.5c.3-.5.8-.9,1.3-1.2l.2.5c0,.3.2.5.5.6h0l5.7,3.3h0c.3.1.7,0,1-.2l5.5-4.3c.7-.6,1-1.4,1-2.3l-.3-5.2c0-.9.3-1.8.9-2.5.9-1.1,1.7-2.2,2.5-3.4.5-.7,1.3-1.1,2.2-1.1l3.5.2c.8,0,1.6-.5,2-1.2l3.3-7.4c.3-.7,0-1.5-.7-1.9,0,0,0,0,0,0l-2.8-1.2c-.8-.3-1.2-1.2-1-2,.3-1.1.6-2.3.8-3.4Zm-29.1,16.1c-1.1-6.2,2.9-15,8.8-19.7,1.8-1.5,3.9-2.5,6.2-2.8.3.7.6,1.5.7,2.3,1.1,6.2-2.9,15-8.8,19.7-1.8,1.5-3.9,2.5-6.2,2.8-.3-.7-.6-1.5-.7-2.3Z" fill="#fff" isolation="isolate" opacity=".2" stroke-width="0"/><path d="m409.9,122.9c-.4-.7-1.3-.9-1.9-.4,0,0,0,0,0,0l-2.8,1.8-2,5.4c-.2.5,0,1.2.5,1.5l5.7,3.3c-.5-.3-.6-.9-.4-1.4l2.5-6.7c.2-.8,0-1.7-.6-2.3-.3-.4-.7-.7-1-1.1Zm16.8,8.3c-.2-.1-.4-.4-.5-.6l-1.2-4.1c-.2-.7-.9-1-1.5-.9,0,0-.1,0-.2,0-.7.3-1.5.6-2.2.7-.2,0-.5.2-.7.3l.2.5c0,.3.2.5.5.6h0l5.7,3.3Z" isolation="isolate" opacity=".1" stroke-width="0"/><path d="m427.9,114.1c-5.1,4-10,3.6-12-.6,2.3-.3,4.4-1.3,6.2-2.8,5.9-4.7,9.9-13.5,8.8-19.7-.1-.8-.4-1.6-.7-2.3,3.2-.3,5.8,1.7,6.4,5.6,1.1,6.2-2.8,15-8.7,19.7Z" isolation="isolate" opacity=".1" stroke-width="0"/><path d="m407.7,89.9c-.3.1-.7.2-1,.2l-3.5-.2c-.5,0-1.1.2-1.5.5l5.8,3.3c.4-.3.9-.5,1.5-.5l3.5.2c.3,0,.7,0,1-.2l-5.8-3.3Zm11.8-18.7c-.4-.2-.8-.1-1.1.2l-5.5,4.3c-.4.4-.7.9-.9,1.4l5.8,3.3c.2-.6.5-1.1.9-1.4l5.5-4.3c.3-.2.7-.3,1-.1h0l-5.7-3.3Zm-19,38.4l-4.8,4.4c-.4.4-.6.9-.7,1.4l5.7,3.3c.1-.5.4-1,.8-1.4l4.8-4.4-5.8-3.3Zm36.2-41.7c-.1,0-.3-.1-.4-.2l-3.6-.8c-.8-.1-1.7.3-2.1,1l-3.4,6.5c-.2.3-.5.6-.8.9l5.8,3.3c.3-.2.6-.5.8-.9l3.4-6.5c.4-.7,1.2-1.1,2.1-1l3.6.8c.1,0,.3,0,.4.1l-5.7-3.3Zm7.3,8.8h0c-.3-.2-.7-.1-1,0l-2.1,1.4-.5,1.2c-.2.8,0,1.7.6,2.3.3.4.7.7.9,1.2,0,0,.2.2.2.3l.2.2c.1,0,.3.2.5.2.2,0,.4,0,.6,0,.1,0,.2,0,.4-.2l4.8-3.2c.1,0,.2-.1.4-.2.1,0,.3,0,.4,0,0,0,.1,0,.2,0l-5.7-3.3Z" fill="#dd6d1f" stroke-width="0"/><path d="m407.7,89.9c-.3.1-.7.2-1,.2l-3.5-.2c-.5,0-1.1.2-1.5.5l5.8,3.3c.4-.3.9-.5,1.5-.5l3.5.2c.3,0,.7,0,1-.2l-5.8-3.3Zm11.8-18.7c-.4-.2-.8-.1-1.1.2l-5.5,4.3c-.4.4-.7.9-.9,1.4l5.8,3.3c.2-.6.5-1.1.9-1.4l5.5-4.3c.3-.2.7-.3,1-.1h0l-5.7-3.3Zm-19,38.4l-4.8,4.4c-.4.4-.6.9-.7,1.4l5.7,3.3c.1-.5.4-1,.8-1.4l4.8-4.4-5.8-3.3Zm36.2-41.7c-.1,0-.3-.1-.4-.2l-3.6-.8c-.8-.1-1.7.3-2.1,1l-3.4,6.5c-.2.3-.5.6-.8.9l5.8,3.3c.3-.2.6-.5.8-.9l3.4-6.5c.4-.7,1.2-1.1,2.1-1l3.6.8c.1,0,.3,0,.4.1l-5.7-3.3Zm7.3,8.8h0c-.3-.2-.7-.1-1,0l-2.1,1.4-.5,1.2c-.2.8,0,1.7.6,2.3.3.4.7.7.9,1.2,0,0,.2.2.2.3l.2.2c.1,0,.3.2.5.2.2,0,.4,0,.6,0,.1,0,.2,0,.4-.2l4.8-3.2c.1,0,.2-.1.4-.2.1,0,.3,0,.4,0,0,0,.1,0,.2,0l-5.7-3.3Z" fill="#fff" isolation="isolate" opacity=".7" stroke-width="0"/><path d="m451.3,86l-.9-5.3c0-.5-.4-.9-.9-.8-.2,0-.4,0-.5.2l-4.8,3.2c-.7.4-1.5.2-1.9-.4,0,0,0,0,0,0-.3-.4-.6-.8-.9-1.2-.6-.6-.8-1.5-.6-2.3l2.5-6.7c.3-.6,0-1.3-.7-1.6,0,0-.1,0-.2,0l-3.6-.8c-.8-.1-1.7.3-2.1,1l-3.4,6.5c-.5.8-1.2,1.3-2.1,1.6-.8.2-1.5.4-2.2.7-.6.3-1.3,0-1.6-.6,0,0,0-.1,0-.2l-1.3-4.1c0-.5-.6-.8-1.1-.7-.2,0-.4.1-.5.3l-5.5,4.3c-.7.6-1,1.4-1,2.3l.3,5.2c0,.9-.3,1.8-.9,2.5-.9,1.1-1.7,2.2-2.5,3.3-.5.7-1.3,1.1-2.2,1.1l-3.5-.2c-.8,0-1.6.5-2,1.2l-3.3,7.4c-.3.7,0,1.5.7,1.9,0,0,0,0,0,0l2.8,1.2c.8.3,1.2,1.2,1,2-.3,1.2-.5,2.3-.6,3.5-.1.9-.6,1.7-1.2,2.4l-4.8,4.4c-.6.6-.9,1.5-.8,2.4l.9,5.3c0,.5.4.9.9.8.2,0,.4,0,.5-.2l4.8-3.2c.7-.4,1.5-.2,1.9.4.3.4.6.8.9,1.1.6.6.8,1.5.6,2.3l-2.5,6.7c-.3.6,0,1.3.7,1.6,0,0,.2,0,.2,0l3.6.8c.8.1,1.7-.3,2.1-1l3.4-6.5c.5-.8,1.2-1.3,2.1-1.6.8-.2,1.5-.4,2.2-.7.6-.3,1.4,0,1.6.6,0,0,0,.1,0,.2l1.2,4.1c0,.5.6.8,1.1.7.2,0,.4-.1.5-.3l5.5-4.3c.7-.6,1-1.4,1-2.3l-.3-5.2c0-.9.3-1.8.9-2.5.9-1.1,1.7-2.2,2.5-3.4.5-.7,1.3-1.1,2.2-1.1l3.5.2c.8,0,1.6-.5,2-1.2l3.3-7.4c.3-.7,0-1.5-.7-1.9,0,0,0,0,0,0l-2.8-1.2c-.8-.3-1.2-1.2-1-2,.3-1.2.5-2.3.6-3.5.1-.9.5-1.7,1.2-2.4l4.8-4.4c.6-.6.9-1.4.8-2.3Zm-23.3,28.1c-5.9,4.6-11.6,3.4-12.7-2.8s2.9-15,8.8-19.7,11.6-3.4,12.6,2.8-2.9,15-8.8,19.7Z" fill="#dd6d1f" stroke-width="0"/><g opacity=".6"><path d="m451.3,86l-.9-5.3c0-.5-.4-.9-.9-.8-.2,0-.4,0-.5.2l-4.8,3.2c-.7.4-1.5.2-1.9-.4,0,0,0,0,0,0-.3-.4-.6-.8-.9-1.2-.6-.6-.8-1.5-.6-2.3l2.5-6.7c.3-.6,0-1.3-.7-1.6,0,0-.1,0-.2,0l-3.6-.8c-.8-.1-1.7.3-2.1,1l-3.4,6.5c-.5.8-1.2,1.3-2.1,1.6-.8.2-1.5.4-2.2.7-.6.3-1.3,0-1.6-.6,0,0,0-.1,0-.2l-1.3-4.1c0-.5-.6-.8-1.1-.7-.2,0-.4.1-.5.3l-5.5,4.3c-.7.6-1,1.4-1,2.3l.3,5.2c0,.9-.3,1.8-.9,2.5-.9,1.1-1.7,2.2-2.5,3.3-.5.7-1.3,1.1-2.2,1.1l-3.5-.2c-.8,0-1.6.5-2,1.2l-3.3,7.4c-.3.7,0,1.5.7,1.9,0,0,0,0,0,0l2.8,1.2c.8.3,1.2,1.2,1,2-.3,1.2-.5,2.3-.6,3.5-.1.9-.6,1.7-1.2,2.4l-4.8,4.4c-.6.6-.9,1.5-.8,2.4l.9,5.3c0,.5.4.9.9.8.2,0,.4,0,.5-.2l4.8-3.2c.7-.4,1.5-.2,1.9.4.3.4.6.8.9,1.1.6.6.8,1.5.6,2.3l-2.5,6.7c-.3.6,0,1.3.7,1.6,0,0,.2,0,.2,0l3.6.8c.8.1,1.7-.3,2.1-1l3.4-6.5c.5-.8,1.2-1.3,2.1-1.6.8-.2,1.5-.4,2.2-.7.6-.3,1.4,0,1.6.6,0,0,0,.1,0,.2l1.2,4.1c0,.5.6.8,1.1.7.2,0,.4-.1.5-.3l5.5-4.3c.7-.6,1-1.4,1-2.3l-.3-5.2c0-.9.3-1.8.9-2.5.9-1.1,1.7-2.2,2.5-3.4.5-.7,1.3-1.1,2.2-1.1l3.5.2c.8,0,1.6-.5,2-1.2l3.3-7.4c.3-.7,0-1.5-.7-1.9,0,0,0,0,0,0l-2.8-1.2c-.8-.3-1.2-1.2-1-2,.3-1.2.5-2.3.6-3.5.1-.9.5-1.7,1.2-2.4l4.8-4.4c.6-.6.9-1.4.8-2.3Zm-23.3,28.1c-5.9,4.6-11.6,3.4-12.7-2.8s2.9-15,8.8-19.7,11.6-3.4,12.6,2.8-2.9,15-8.8,19.7Z" fill="#fff" stroke-width="0"/><path d="m413.8,136.1c-.2,0-.3,0-.5,0l-3.6-.8c-1-.2-1.6-1.1-1.4-2.1,0-.1,0-.2,0-.3l2.5-6.7c.2-.6,0-1.3-.5-1.7-.4-.4-.7-.8-1-1.2-.2-.4-.8-.5-1.2-.3l-4.8,3.1c-.4.3-1,.4-1.5.2-.5-.2-.8-.7-.9-1.2l-.9-5.3c-.1-1.1.2-2.1,1-2.9l4.8-4.4c.5-.6.9-1.2,1-2,.1-1.2.3-2.4.6-3.6.1-.5-.2-1.1-.6-1.3l-2.8-1.2c-.5-.2-.9-.6-1.1-1.1-.2-.5-.2-1,0-1.5l3.3-7.4c.5-1,1.5-1.6,2.5-1.6l3.5.2c.7,0,1.3-.3,1.7-.9.8-1.2,1.7-2.3,2.6-3.4.5-.6.7-1.3.7-2.1l-.3-5.2c0-1.1.4-2.1,1.2-2.8l5.5-4.3c.4-.3.9-.5,1.4-.3.5.2.9.6,1,1.1l1.3,4c0,.2.2.3.3.4.2,0,.4,0,.6,0,.8-.3,1.5-.6,2.3-.8.7-.2,1.3-.7,1.7-1.3l3.4-6.5c.5-.9,1.6-1.4,2.7-1.2l3.6.8c.5.1,1,.4,1.2.9.3.5.3,1,0,1.5l-2.5,6.7c-.2.6,0,1.3.5,1.7.4.4.7.8,1,1.2.2.4.7.5,1.1.3,0,0,0,0,0,0l4.8-3.2c.4-.3,1-.4,1.5-.2.5.2.8.7.9,1.2l.9,5.3c.1,1.1-.2,2.1-1,2.9l-4.8,4.4c-.5.6-.9,1.2-1,2-.1,1.2-.3,2.4-.6,3.6-.1.5.2,1.1.6,1.3l2.8,1.2c1,.5,1.4,1.6,1,2.6l-3.3,7.4c-.5,1-1.5,1.6-2.6,1.6l-3.5-.2c-.7,0-1.3.3-1.7.9-.8,1.2-1.7,2.3-2.6,3.4-.5.6-.7,1.4-.7,2.1l.3,5.2c0,1.1-.4,2.1-1.2,2.8l-5.5,4.3c-.4.3-.9.5-1.4.3-.5-.2-.9-.6-1-1.1l-1.2-4.1c0-.2-.2-.3-.4-.4-.2,0-.4,0-.6,0-.8.3-1.5.6-2.3.8-.7.2-1.3.7-1.7,1.3l-3.4,6.5c-.4.8-1.3,1.3-2.2,1.3Zm-5.1-14.4c.7,0,1.3.3,1.7.9.3.4.6.7.9,1.1.7.8,1,1.9.7,2.9l-2.5,6.7c0,.2,0,.4,0,.6.1.2.3.3.5.3l3.6.8c.6,0,1.1-.2,1.4-.7l3.4-6.5c.5-.9,1.4-1.6,2.4-1.8.7-.2,1.5-.4,2.2-.7.5-.2,1-.2,1.5,0,.5.2.8.6.9,1.1l1.2,4.1c0,.2.1.3.3.3.1,0,.3,0,.4-.1l5.5-4.3c.5-.5.8-1.1.8-1.8l-.3-5.2c0-1.1.3-2.1,1-2.9.9-1,1.7-2.2,2.5-3.3.6-.9,1.6-1.4,2.7-1.4l3.5.2c.6,0,1.2-.4,1.5-.9l3.3-7.4c0-.2,0-.4,0-.7,0-.2-.2-.4-.5-.5l-2.8-1.2c-1-.5-1.5-1.5-1.3-2.6.3-1.1.5-2.3.6-3.5.2-1,.6-2,1.4-2.8l4.8-4.4c.5-.5.7-1.2.6-1.9l-.9-5.3c0-.2-.1-.3-.2-.3-.1,0-.3,0-.4,0l-4.8,3.2c-.9.6-2.1.3-2.7-.6-.3-.4-.6-.8-.9-1.1-.7-.8-1-1.9-.7-2.9l2.5-6.7c0-.2,0-.4,0-.6,0-.2-.3-.3-.5-.3l-3.6-.8c-.6,0-1.1.2-1.4.7l-3.4,6.5c-.6.9-1.4,1.6-2.4,1.8-.7.2-1.5.4-2.2.7-.5.2-1,.2-1.5,0-.5-.2-.8-.6-.9-1.1l-1.2-4.1c0-.1-.1-.3-.2-.3-.1,0-.3,0-.4.1l-5.5,4.3c-.5.5-.8,1.1-.8,1.8l.3,5.2c0,1.1-.3,2.1-1,2.9-.9,1-1.7,2.2-2.5,3.3-.6.9-1.6,1.4-2.7,1.4l-3.5-.2c-.6,0-1.2.3-1.5.9l-3.3,7.4c0,.2,0,.4,0,.7,0,.2.2.4.5.5l2.8,1.2c1,.5,1.5,1.5,1.3,2.6-.3,1.1-.5,2.3-.6,3.5-.2,1-.6,2-1.4,2.8l-4.8,4.4c-.5.5-.7,1.2-.6,1.9l.9,5.3c0,.1,0,.3.2.4.1,0,.3,0,.4-.1l4.8-3.2c.3-.2.7-.3,1-.3h0Zm12.5-4.2c-.8,0-1.6-.1-2.3-.4-2.1-.8-3.6-2.9-4.1-5.7-1.1-6.4,2.9-15.5,9-20.2,3.3-2.6,6.8-3.5,9.5-2.5,2.1.8,3.6,2.8,4.1,5.7,1.1,6.4-2.9,15.5-9,20.2h0c-2,1.7-4.5,2.7-7.2,2.9h0Zm9.7-28.1c-2.4.2-4.7,1.1-6.5,2.7-5.8,4.5-9.6,13.1-8.6,19.1.4,2.5,1.6,4.1,3.4,4.8,2.3.9,5.3,0,8.4-2.4h0c5.8-4.5,9.6-13.1,8.6-19.1-.4-2.5-1.6-4.1-3.4-4.8-.6-.2-1.3-.4-1.9-.4h0Z" fill="#fff" stroke-width="0"/></g></g><path d="m377.7,69.6c-.1,0-.3,0-.4,0l-2.9-.6c-.4,0-.8-.3-1-.7-.2-.4-.2-.8,0-1.2l2-5.3c.1-.5,0-1-.4-1.4-.3-.3-.5-.6-.8-1-.2-.3-.6-.4-.9-.3l-3.8,2.5c-.5.4-1.2.3-1.6-.2-.1-.2-.2-.4-.2-.6l-.7-4.2c-.1-.8.2-1.7.8-2.3l3.8-3.5c.4-.5.7-1,.8-1.6.1-1,.3-1.9.5-2.8,0-.4-.2-.8-.5-1l-2.2-1c-.4-.2-.7-.5-.8-.8-.2-.4-.2-.8,0-1.2l2.6-5.8c.4-.8,1.2-1.2,2-1.2h2.8c.5.1,1-.1,1.4-.6.6-.9,1.3-1.8,2-2.7.4-.5.6-1.1.6-1.7l-.2-4.1c0-.8.4-1.7,1-2.2l4.3-3.4c.3-.3.7-.4,1.1-.2.4.1.7.5.8.8l1,3.2c0,.3.4.5.7.4,0,0,0,0,.1,0,.6-.2,1.2-.4,1.8-.6.6-.2,1-.5,1.4-1l2.7-5.1c.4-.8,1.3-1.2,2.1-1l2.9.7c.8.2,1.2.9,1.1,1.7,0,0,0,.1,0,.2l-1.9,5.3c-.1.5,0,1,.4,1.4.3.3.6.6.8,1,.2.3.6.4.9.2,0,0,0,0,0,0l3.8-2.5c.3-.2.8-.3,1.1-.2.4.2.6.5.7.9l.7,4.2h0c.1.8-.2,1.7-.8,2.3l-3.8,3.5c-.4.4-.7,1-.8,1.6-.1,1-.3,1.9-.5,2.8,0,.4.1.8.5,1l2.2,1c.4.2.7.5.8.9.2.4.2.8,0,1.2l-2.6,5.8c-.4.8-1.2,1.2-2,1.2h-2.8c-.5-.1-1,.1-1.4.6-.6.9-1.3,1.8-2,2.7-.4.5-.6,1.1-.6,1.7l.3,4.1c0,.8-.4,1.7-1,2.2l-4.3,3.4c-.3.3-.7.4-1.1.2-.4-.1-.7-.5-.8-.8l-1-3.2c0-.1-.1-.3-.3-.3-.2,0-.3,0-.5,0-.6.2-1.2.4-1.8.6-.6.2-1,.5-1.4,1l-2.7,5.2c-.4.6-1,1-1.8,1Zm-4.1-11.4c.5,0,1,.3,1.3.7.2.3.4.6.7.9.6.6.8,1.5.5,2.3l-1.9,5.3c0,.1,0,.3,0,.5,0,.1.2.2.4.3l2.9.7c.5,0,.9-.1,1.1-.5l2.7-5.2c.4-.7,1.1-1.2,1.9-1.4.6-.2,1.2-.3,1.7-.6.4-.2.8-.2,1.2,0,.4.2.6.5.7.9l1,3.2c0,.1,0,.2.2.3.1,0,.2,0,.3,0l4.3-3.4c.4-.4.6-.9.6-1.5l-.3-4.1c0-.8.3-1.6.8-2.3.7-.8,1.4-1.7,2-2.6.5-.7,1.3-1.1,2.1-1.1h2.8c.5.1.9-.2,1.2-.6l2.6-5.8c0-.2,0-.4,0-.5,0-.2-.2-.3-.4-.4l-2.2-1c-.8-.4-1.2-1.2-1-2,.2-.9.4-1.8.5-2.7.1-.8.5-1.6,1.1-2.2l3.8-3.5c.4-.4.6-.9.5-1.5l-.7-4.2c0-.1,0-.2-.1-.3-.1,0-.2,0-.3,0l-3.8,2.5c-.7.5-1.7.3-2.1-.4,0,0,0,0,0,0-.2-.3-.4-.6-.7-.9-.6-.6-.8-1.5-.5-2.3l2-5.3c.1-.3,0-.6-.3-.7,0,0,0,0-.1,0l-2.9-.7c-.5,0-.9.1-1.1.5l-2.8,5.2c-.4.7-1.1,1.2-1.9,1.5-.6.1-1.2.3-1.7.6-.4.2-.8.2-1.2,0-.4-.2-.6-.5-.7-.9l-1-3.2c0-.1,0-.2-.2-.3-.1,0-.2,0-.3,0l-4.3,3.4c-.4.4-.6.9-.6,1.5l.2,4.1c0,.8-.3,1.6-.8,2.3-.7.8-1.4,1.7-2,2.6-.5.7-1.3,1.1-2.1,1.1h-2.8c-.5-.1-1,.1-1.2.6l-2.6,5.8c0,.2,0,.4,0,.5,0,.2.2.3.4.4l2.2,1c.8.4,1.2,1.2,1,2-.2.9-.4,1.8-.5,2.7-.1.8-.5,1.6-1.1,2.2l-3.8,3.5c-.4.4-.6.9-.5,1.5l.7,4.2c0,.1,0,.2.2.3.1,0,.2,0,.3,0l3.8-2.5c.2-.2.5-.3.9-.3Zm9.9-3.3c-.6,0-1.2-.1-1.8-.3-1.8-.8-3-2.5-3.2-4.5-.9-5,2.3-12.2,7.1-16,2.6-2.1,5.4-2.8,7.5-2,1.8.8,3,2.5,3.2,4.5.9,5-2.3,12.2-7.1,16-1.6,1.4-3.6,2.2-5.6,2.3Zm7.7-22.2c-1.9.1-3.7.9-5.1,2.1-4.6,3.6-7.6,10.4-6.8,15.1.1,1.7,1.2,3.1,2.7,3.8,1.8.7,4.2,0,6.6-1.9h0c4.6-3.6,7.6-10.4,6.8-15.1-.3-2-1.3-3.3-2.7-3.8-.5-.2-1-.3-1.5-.3Z" fill="#e0e0e0" stroke-width="0"/></g><g id="freepik--Device--inject-142"><g id="freepik--Mobile--inject-142"><path d="m224.1,9.7L84.5,90.3c-2.8,1.8-4.5,4.9-4.7,8.2v328.8c0,3,2.1,4.2,4.7,2.7l139.6-80.6c2.8-1.8,4.5-4.9,4.7-8.2V12.5c0-3-2.1-4.2-4.7-2.7Zm-2.1,307.2c0,2.6-1.8,4.2-4.1,5.5l-127.8,73.8c-2.2,1.3-4.1.2-4.1-2.3V120.5h0c0-2.9,1.5-5.5,4-7l127.9-73.8c1.3-.7,2.9-.3,3.7,1,.2.4.4.9.4,1.4h0v274.9Z" fill="#dd6d1f" stroke-width="0"/><path d="m224.1,9.7L84.5,90.3c-2.8,1.8-4.5,4.9-4.7,8.2v328.8c0,3,2.1,4.2,4.7,2.7l139.6-80.6c2.8-1.8,4.5-4.9,4.7-8.2V12.5c0-3-2.1-4.2-4.7-2.7Zm-2.1,307.2c0,2.6-1.8,4.2-4.1,5.5l-127.8,73.8c-2.2,1.3-4.1.2-4.1-2.3V120.5h0c0-2.9,1.5-5.5,4-7l127.9-73.8c1.3-.7,2.9-.3,3.7,1,.2.4.4.9.4,1.4h0v274.9Z" isolation="isolate" opacity="0" stroke-width="0"/><path d="m222.1,317c0,2.6-1.8,4.2-4.1,5.5l-127.8,73.8c-2.2,1.3-4.1.2-4.1-2.3V120.5h0c0-2.9,1.5-5.5,4-7l127.9-73.8c1.3-.7,2.9-.3,3.7,1,.2.4.4.9.4,1.4h0v274.9Z" fill="#dd6d1f" stroke-width="0"/><path d="m222.1,317c0,2.6-1.8,4.2-4.1,5.5l-127.8,73.8c-2.2,1.3-4.1.2-4.1-2.3V120.5h0c0-2.9,1.5-5.5,4-7l127.9-73.8c1.3-.7,2.9-.3,3.7,1,.2.4.4.9.4,1.4h0v274.9Z" isolation="isolate" opacity=".5" stroke-width="0"/><path d="m90.2,396.3l127.8-73.8c.9-.5,1.7-1.1,2.4-1.8l-134.3-75.7v148.9c0,2.6,1.8,3.6,4.1,2.3Z" fill="#dd6d1f" stroke-width="0"/><path d="m90.2,396.3l127.8-73.8c.9-.5,1.7-1.1,2.4-1.8l-134.3-75.7v148.9c0,2.6,1.8,3.6,4.1,2.3Z" isolation="isolate" opacity=".4" stroke-width="0"/><path d="m211.7,312.1V43.3l-121.5,70.2c-2.5,1.5-4,4.1-4,7v267.3l121.5-70.2c2.2-1.3,4-2.9,4-5.5Z" fill="#37474f" stroke-width="0"/><path d="m83.9,430.4c-2.9,1.2-6.1,1.1-8.9-.3l-5.4-3.1c-2.8-1.8-4.6-4.9-4.7-8.2V90c0-1.2.3-2.4.8-3.5.2-.4.3-.8.6-1.1h0l14.9,8.6h0c-.3.6-.6,1.1-.8,1.7-.4.9-.6,1.9-.6,2.9v328.8c0,2.8,1.8,4,4.2,3Z" fill="#dd6d1f" stroke-width="0"/><path d="m83.9,430.4c-2.9,1.2-6.1,1.1-8.9-.3l-5.4-3.1c-2.8-1.8-4.6-4.9-4.7-8.2V90c0-1.2.3-2.4.8-3.5.2-.4.3-.8.6-1.1h0l14.9,8.6h0c-.3.6-.6,1.1-.8,1.7-.4.9-.6,1.9-.6,2.9v328.8c0,2.8,1.8,4,4.2,3Z" isolation="isolate" opacity=".5" stroke-width="0"/><path d="m158.5,364.1h0c3,0,3.4,3.4,3.4,4.9,0,5.3-3.9,12-8.4,14.6-1,.6-2.1.9-3.3,1-3,0-3.4-3.4-3.4-4.9,0-5.3,3.9-12,8.4-14.6,1-.6,2.1-1,3.3-1" fill="#dd6d1f" stroke-width="0"/><path d="m154.3,55.3c1.3-.7,2.3-.1,2.3,1.3,0,1.6-.9,3.1-2.3,4-1.3.7-2.3.1-2.3-1.3,0-1.6.9-3.1,2.3-4Z" fill="#263238" stroke-width="0"/><path d="m139.3,74.8c1.1-.7,2-.1,2,1.2,0,1.4-.8,2.7-2,3.5-1.1.7-2,.1-2-1.2,0-1.4.8-2.8,2-3.6Z" fill="#263238" stroke-width="0"/><path d="m146.2,70.7l22.9-13.2c1.2-.7,2.3-.2,2.3,1.2-.1,1.5-1,3-2.3,3.8l-22.9,13.2c-1.2.7-2.3.2-2.3-1.2.1-1.5,1-3,2.3-3.8Z" fill="#263238" stroke-width="0"/><path d="m228.8,11.7c-.3-2.5-2.3-3.3-4.7-2L84.5,90.3c-1.4.9-2.5,2.1-3.3,3.5l-14.9-8.6c.8-1.4,2-2.6,3.3-3.5L209.3,1.1c3-1.5,6.5-1.5,9.4,0l5.4,3.1c2.6,1.7,4.3,4.4,4.7,7.5Z" fill="#dd6d1f" stroke-width="0"/><path d="m228.8,11.7c-.3-2.5-2.3-3.3-4.7-2L84.5,90.3c-1.4.9-2.5,2.1-3.3,3.5l-14.9-8.6c.8-1.4,2-2.6,3.3-3.5L209.3,1.1c3-1.5,6.5-1.5,9.4,0l5.4,3.1c2.6,1.7,4.3,4.4,4.7,7.5Z" isolation="isolate" opacity=".4" stroke-width="0"/><g id="freepik--device--inject-142"><g id="freepik--mobile--inject-142"><path d="m192.2,21.7c-1.5.8-3.2.8-4.7,0-.5-.2-.9-.7-.9-1.3v-2c0-.6.5-1.1,1-1.4l15-8.6c1.5-.8,3.2-.8,4.7,0,.5.2.8.7.9,1.2v2c0,.6-.5,1.2-1.1,1.4l-15,8.6Z" fill="#dd6d1f" stroke-width="0"/><path d="m192.2,21.7c-1.5.8-3.2.8-4.7,0-.5-.2-.9-.7-.9-1.3v-2c0-.6.5-1.1,1-1.4l15-8.6c1.5-.8,3.2-.8,4.7,0,.5.2.8.7.9,1.2v2c0,.6-.5,1.2-1.1,1.4l-15,8.6Z" isolation="isolate" opacity=".2" stroke-width="0"/><path d="m192.2,19.7l15-8.6c1.4-.8,1.4-2,.1-2.7-1.5-.7-3.3-.7-4.7,0l-15,8.6c-1.4.8-1.4,2-.1,2.7,1.5.7,3.3.7,4.7,0Z" fill="#dd6d1f" stroke-width="0"/><path d="m192.2,19.7l15-8.6c1.4-.8,1.4-2,.1-2.7-1.5-.7-3.3-.7-4.7,0l-15,8.6c-1.4.8-1.4,2-.1,2.7,1.5.7,3.3.7,4.7,0Z" isolation="isolate" opacity=".3" stroke-width="0"/></g></g><g id="freepik--device--inject-142-2"><g id="freepik--mobile--inject-142-2"><path d="m74.3,139.5c0-1.7-.9-3.2-2.3-4.1-.5-.3-1.1-.4-1.6-.1l-1.7,1c-.5.4-.8,1-.7,1.6v36.7c0,1.7.9,3.2,2.3,4.1.4.3,1,.4,1.5.2.3-.2,1.5-.8,1.8-1,.5-.4.8-1,.7-1.7v-36.6Z" fill="#dd6d1f" stroke-width="0"/><path d="m74.3,139.5c0-1.7-.9-3.2-2.3-4.1-.5-.3-1.1-.4-1.6-.1l-1.7,1c-.5.4-.8,1-.7,1.6v36.7c0,1.7.9,3.2,2.3,4.1.4.3,1,.4,1.5.2.3-.2,1.5-.8,1.8-1,.5-.4.8-1,.7-1.7v-36.6Z" isolation="isolate" opacity=".3" stroke-width="0"/><path d="m72.6,140.5v36.6c0,1.6-1,2.2-2.3,1.5-1.4-.9-2.2-2.5-2.3-4.1v-36.6c0-1.6,1-2.2,2.3-1.5,1.4.9,2.2,2.5,2.3,4.1Z" fill="#dd6d1f" stroke-width="0"/><path d="m72.6,140.5v36.6c0,1.6-1,2.2-2.3,1.5-1.4-.9-2.2-2.5-2.3-4.1v-36.6c0-1.6,1-2.2,2.3-1.5,1.4.9,2.2,2.5,2.3,4.1Z" isolation="isolate" opacity=".4" stroke-width="0"/><path d="m74.3,188.6c0-1.7-.9-3.2-2.3-4.1-.5-.3-1.1-.4-1.6-.1l-1.7,1c-.5.4-.8,1-.7,1.6v17.3c0,1.7.9,3.2,2.3,4.1.4.3,1,.4,1.5.2.3-.2,1.5-.8,1.8-1,.5-.4.8-1,.7-1.6v-17.3Z" fill="#dd6d1f" stroke-width="0"/><path d="m74.3,188.6c0-1.7-.9-3.2-2.3-4.1-.5-.3-1.1-.4-1.6-.1l-1.7,1c-.5.4-.8,1-.7,1.6v17.3c0,1.7.9,3.2,2.3,4.1.4.3,1,.4,1.5.2.3-.2,1.5-.8,1.8-1,.5-.4.8-1,.7-1.6v-17.3Z" isolation="isolate" opacity=".3" stroke-width="0"/><path d="m72.6,189.6v17.3c0,1.6-1,2.2-2.3,1.5-1.4-.9-2.2-2.5-2.3-4.1v-17.3c0-1.6,1-2.2,2.3-1.5,1.4.9,2.2,2.5,2.3,4.1Z" fill="#dd6d1f" stroke-width="0"/><path d="m72.6,189.6v17.3c0,1.6-1,2.2-2.3,1.5-1.4-.9-2.2-2.5-2.3-4.1v-17.3c0-1.6,1-2.2,2.3-1.5,1.4.9,2.2,2.5,2.3,4.1Z" isolation="isolate" opacity=".4" stroke-width="0"/></g></g></g></g><g id="freepik--Screen--inject-142"><g id="freepik--Wintow--inject-142"><path d="m233.7,49L104.7,123.4c-1.7,1.1-2.8,3-2.9,5v272.9c.1,2,1.2,3.9,2.9,5l1.8,1c1.8.9,4,.9,5.8,0l129-74.5c1.7-1.1,2.8-3,2.9-5V55.1c-.1-2-1.2-3.9-2.9-5l-1.8-1c-1.8-.9-4-1-5.8,0Z" fill="#e0e0e0" stroke-width="0"/><path d="m244.2,328.1c0,2.6-1.8,4.2-4,5.5l-126.8,73.2c-2.2,1.3-4,.2-4-2.3V134.1h0c0-2.9,1.5-5.5,4-6.9l126.8-73.3c1.3-.7,2.9-.3,3.7,1,.2.4.3.8.3,1.3h0v271.9Z" fill="#fafafa" stroke-width="0"/><path d="m109.4,193.4v211.1c0,2.6,1.8,3.6,4,2.3l126.8-73.2c2.2-1.3,4-2.9,4-5.5V115.5l-134.8,77.8Z" fill="#f5f5f5" stroke-width="0"/><path d="m241.5,54.7c.9,0,1.6.7,1.6,1.6v271.9c0,1.7-1.1,3.1-3.4,4.5l-126.8,73.2c-.4.2-.8.4-1.2.4-1,0-1.1-1.2-1.1-1.8V134.1c0-2.5,1.3-4.8,3.4-6l126.8-73.2c.2-.1.5-.2.8-.2m0-1.1c-.5,0-.9.1-1.3.4l-126.8,73.2c-2.5,1.4-4,4.1-4,6.9v270.4c0,1.8.9,2.9,2.2,2.9.6,0,1.3-.2,1.8-.5l126.8-73.2c2.2-1.3,4-2.9,4-5.5V56.2c0-1.5-1.2-2.7-2.7-2.7,0,0,0,0,0,0h0Z" fill="#e0e0e0" stroke-width="0"/><path d="m244.2,55.1v1.1c0-1.5-1.2-2.7-2.7-2.7-.5,0-.9.1-1.3.3l-126.8,73.2c-1.2.7-2.2,1.8-2.9,3,0,0,0,0,0,0l-7.8-4.5c.5-.9,1.2-1.7,2.1-2.2L233.7,49.1c1.8-.9,4-.9,5.8,0l1.8,1c1.7,1.1,2.8,3,2.9,5.1Z" fill="#f0f0f0" stroke-width="0"/><g opacity=".2"><path d="m126.2,191.6l26.5-15.3c1.3-.8,2.4-.2,2.4,1.2-.1,1.6-1,3.1-2.4,4l-26.5,15.3c-1.3.8-2.4.2-2.4-1.2.1-1.6,1-3.1,2.4-4Z" stroke-width="0"/></g><path d="m119.3,209.2c-.2,0-.4,0-.5-.3-.2-.3,0-.6.2-.8l118.1-68.2c.3-.2.6,0,.8.2s0,.6-.2.8h0l-118.1,68.1c0,0-.2,0-.3.1Z" fill="#e0e0e0" stroke-width="0"/><path d="m219.6,137.9c1.1-.7,2.1-.1,2.1,1.2,0,1.4-.8,2.8-2.1,3.5-1.1.6-2.1.1-2.1-1.2,0-1.4.9-2.8,2.1-3.5Z" fill="#455a64" stroke-width="0"/><path d="m218.3,144.6c-.4,0-.7,0-1.1-.3-.8-.5-1.2-1.4-1.1-2.3.2-2.4,1.5-4.6,3.5-5.9l6.9-4c.8-.6,1.9-.7,2.8-.3.8.5,1.2,1.4,1.1,2.3-.2,2.4-1.5,4.6-3.5,5.9l-6.9,4c-.5.3-1.1.5-1.8.5Zm-1.4-2.6c0,.6.2,1.3.7,1.6.7.3,1.5.2,2.1-.3l6.9-4c1.8-1.1,3-3.1,3.1-5.2,0-.6-.2-1.2-.7-1.6-.7-.3-1.5-.2-2.1.3l-6.9,4c-1.8,1.1-3,3.1-3.1,5.2h0Z" fill="#455a64" stroke-width="0"/><g opacity=".2"><path d="m126.2,212.6l40.6-23.4c1.3-.8,2.4-.2,2.4,1.2-.1,1.6-1,3.1-2.4,4l-40.6,23.4c-1.3.8-2.4.2-2.4-1.2.1-1.6,1-3.1,2.4-4Z" stroke-width="0"/></g><path d="m119.3,230.2c-.3,0-.5-.3-.5-.6,0-.2,0-.3.2-.4l118.1-68.2c.3-.2.6,0,.8.2s0,.6-.2.8l-118.1,68.1c0,0-.2,0-.3,0Z" fill="#e0e0e0" stroke-width="0"/><path d="m218.3,165.5c-.4,0-.7,0-1.1-.3-.8-.5-1.2-1.4-1.1-2.3.2-2.4,1.5-4.6,3.5-5.9l6.9-4c.8-.6,1.9-.7,2.8-.3.8.5,1.2,1.4,1.1,2.3-.2,2.4-1.5,4.6-3.5,5.9l-6.9,4c-.5.3-1.1.5-1.8.5Z" fill="#dd6d1f" stroke-width="0"/><path d="m227,154.5c1.1-.6,2.1-.1,2.1,1.2,0,1.4-.8,2.8-2.1,3.5-1.1.6-2.1.1-2.1-1.2,0-1.4.9-2.8,2.1-3.5Z" fill="#fafafa" stroke-width="0"/><path d="m218.3,207.4c-.4,0-.7,0-1.1-.3-.8-.5-1.2-1.4-1.1-2.3.2-2.4,1.5-4.6,3.5-5.9l6.9-4c.8-.6,1.9-.7,2.8-.2.8.5,1.2,1.4,1.1,2.3-.2,2.4-1.5,4.6-3.5,5.9l-6.9,4c-.5.3-1.1.5-1.8.5Z" fill="#dd6d1f" stroke-width="0"/><path d="m227,196.4c1.1-.6,2.1-.1,2.1,1.2,0,1.4-.8,2.8-2.1,3.5-1.1.6-2.1.1-2.1-1.2,0-1.4.9-2.8,2.1-3.5Z" fill="#fafafa" stroke-width="0"/><path d="m218.3,228.4c-.4,0-.7,0-1.1-.3-.8-.5-1.2-1.4-1.1-2.3.2-2.4,1.5-4.6,3.5-5.9l6.9-4c.8-.6,1.9-.7,2.8-.3.8.5,1.2,1.4,1.1,2.3-.2,2.4-1.5,4.6-3.5,5.9l-6.9,4c-.5.3-1.1.5-1.8.6Z" fill="#dd6d1f" stroke-width="0"/><path d="m227,217.3c1.1-.6,2.1-.1,2.1,1.2,0,1.4-.8,2.8-2.1,3.5-1.1.6-2.1.1-2.1-1.2,0-1.4.9-2.8,2.1-3.5Z" fill="#fafafa" stroke-width="0"/><g opacity=".2"><path d="m126.2,233.5l26.5-15.3c1.3-.8,2.4-.2,2.4,1.2-.1,1.6-1,3.1-2.4,4l-26.5,15.3c-1.3.8-2.4.2-2.4-1.2.1-1.6,1-3.1,2.4-4Z" stroke-width="0"/></g><path d="m119.3,251.1c-.3,0-.5-.3-.5-.6,0-.2,0-.3.2-.4l118.1-68.2c.3-.2.6,0,.8.2.2.3,0,.6-.2.8,0,0,0,0,0,0l-118.1,68.2c0,0-.2,0-.3,0Z" fill="#e0e0e0" stroke-width="0"/><path d="m219.6,179.8c1.1-.7,2.1-.1,2.1,1.2,0,1.4-.9,2.8-2.1,3.5-1.1.6-2.1.1-2.1-1.2,0-1.4.9-2.8,2.1-3.5Z" fill="#455a64" stroke-width="0"/><path d="m218.3,186.5c-.4,0-.7,0-1.1-.3-.8-.5-1.2-1.4-1.1-2.3.2-2.4,1.5-4.6,3.5-5.9l6.9-4c.8-.6,1.9-.7,2.8-.3.8.5,1.2,1.4,1.1,2.3-.2,2.4-1.5,4.6-3.5,5.9l-6.9,4c-.5.3-1.1.5-1.8.5Zm-1.4-2.6c0,.6.2,1.3.7,1.6.7.3,1.5.2,2.1-.3l6.9-4c1.8-1.1,3-3.1,3.1-5.2,0-.6-.2-1.2-.7-1.6-.7-.3-1.5-.2-2.1.3l-6.9,4c-1.8,1.1-3,3.1-3.1,5.2h0Z" fill="#455a64" stroke-width="0"/><g opacity=".2"><path d="m126.2,254.5l36-20.8c1.3-.8,2.4-.2,2.4,1.2-.1,1.6-1,3.1-2.4,4l-36,20.8c-1.3.8-2.4.2-2.4-1.2.1-1.6,1-3.1,2.4-4Z" stroke-width="0"/></g><path d="m119.3,272.1c-.3,0-.5-.3-.5-.6,0-.2,0-.3.2-.4l118.1-68.2c.3-.2.6,0,.7.2,0,0,0,0,0,0,.2.3,0,.6-.2.8,0,0,0,0,0,0l-118.1,68.1c0,0-.2,0-.3,0Z" fill="#e0e0e0" stroke-width="0"/><g opacity=".2"><path d="m126.2,275.4l26.5-15.3c1.3-.8,2.4-.2,2.4,1.2-.1,1.6-1,3.1-2.4,4l-26.5,15.3c-1.3.8-2.4.2-2.4-1.2.1-1.6,1-3.1,2.4-4Z" stroke-width="0"/></g><g opacity=".2"><path d="m121.7,301.7l45.1-26c1.3-.8,2.4-.2,2.4,1.2-.1,1.6-1,3.1-2.4,4l-45.1,26c-1.3.8-2.4.2-2.4-1.2.1-1.6,1-3.1,2.4-4Z" stroke-width="0"/></g><g opacity=".2"><path d="m126.2,317.5l49.7-28.7c1.3-.8,2.4-.2,2.4,1.2-.1,1.6-1,3.1-2.4,4l-49.7,28.8c-1.3.8-2.4.2-2.4-1.2.1-1.6,1-3.1,2.4-4Z" stroke-width="0"/></g><path d="m119.3,314.1c-.3,0-.5-.3-.5-.6,0-.2,0-.3.2-.4l118.1-68.2c.3-.2.6,0,.8.2s0,.6-.2.8l-118.1,68.2c0,0-.2,0-.3,0Z" fill="#e0e0e0" stroke-width="0"/><path d="m119.3,335.1c-.2,0-.4-.1-.5-.3-.2-.3,0-.6.2-.8l118.1-68.2c.3-.2.6,0,.8.2.2.3,0,.6-.2.8,0,0,0,0,0,0l-118.1,68.2c0,0-.2,0-.3,0Z" fill="#e0e0e0" stroke-width="0"/><g opacity=".2"><path d="m126.2,338.4l40.6-23.4c1.3-.8,2.4-.2,2.4,1.2-.1,1.6-1,3.1-2.4,4l-40.6,23.4c-1.3.8-2.4.2-2.4-1.2.1-1.6,1-3.1,2.4-4Z" stroke-width="0"/></g><path d="m203.9,272.6l24.1-13.9c1.3-.8,2.4-.2,2.4,1.2-.1,1.6-1,3.1-2.4,4l-24.1,13.9c-1.3.8-2.4.2-2.4-1.2.1-1.6,1-3.1,2.4-4Z" fill="#e0e0e0" stroke-width="0"/><path d="m232.8,257.1h-.1c0-.1,0-.2,0-.3v-.7s0-.1,0-.1c0,0,0,0,0-.1h0l2,.9c0,0,0,0,.1,0,0,0,0,.1,0,.2v.4c0,0,0,.2,0,.2,0,0,0,.2-.1.2l-2,3.3h0s0,0,0,0h0v-.9c0,0,0-.2,0-.3,0,0,0-.2.1-.2l1.3-2.1-1.4-.6Z" fill="#dd6d1f" stroke-width="0"/><path d="m203.9,293.6l24.1-13.9c1.3-.8,2.4-.2,2.4,1.2-.1,1.6-1,3.1-2.4,4l-24.1,13.9c-1.3.8-2.4.2-2.4-1.2.1-1.6,1-3.1,2.4-4Z" fill="#e0e0e0" stroke-width="0"/><path d="m232.8,278.1h-.1c0-.1,0-.2,0-.3v-.7c0,0,0-.1,0-.2,0,0,0,0,0-.1h0l2,.9s0,0,.1,0c0,0,0,.1,0,.2v.4c0,0,0,.2,0,.2,0,0,0,.2-.1.2l-2,3.2h0c0,0,0,0,0,0s0,0,0,0c0,0,0,0,0-.1v-.8c0,0,0-.2,0-.3v-.2c.1,0,1.4-2.1,1.4-2.1l-1.4-.6Z" fill="#dd6d1f" stroke-width="0"/><path d="m125.1,383.9c-.3,0-.6,0-.9-.2-.7-.4-1.1-1.2-1-2v-10.2c0-1.9,1.1-3.6,2.7-4.7l31.5-18.2c.7-.5,1.5-.5,2.3-.2.7.4,1.1,1.2,1,2v10.1c0,1.9-1.1,3.6-2.7,4.7l-31.5,18.2c-.4.3-.9.4-1.4.4Zm33.7-34.6c-.3,0-.6.1-.8.2l-31.5,18.2c-1.3.8-2.1,2.2-2.1,3.7v10.1c0,.4.1.8.4,1.1.4.1.8,0,1.2-.2l31.5-18.2c1.3-.8,2-2.2,2.1-3.7v-10.1c0-.4-.1-.8-.4-1.1-.1,0-.2,0-.4,0h0Z" fill="#e0e0e0" stroke-width="0"/><path d="m133.3,370.1c0,0,0,.2,0,.3v.8c0,0,0,.2,0,.3,0,.1,0,.2,0,.3,0,0,0,.2.1.2,0,0,.1,0,.2,0,.1,0,.2,0,.3,0,.1,0,.2-.1.3-.2,0,0,.1-.2.2-.3,0,0,0-.2.1-.3v-.2c0,0,0-.1.1-.2,0,0,0,0,.1-.1l.7-.4s0,0,0,0c0,0,0,0,0,.1,0,.3,0,.6-.1.9,0,.3-.2.6-.4.9-.1.3-.3.5-.5.7-.2.2-.4.4-.7.5-.2.1-.4.2-.7.2-.2,0-.4,0-.5-.2-.2-.1-.3-.3-.3-.5,0-.3-.1-.5-.1-.8v-1.5c0-.3,0-.6.1-.9,0-.3.2-.6.3-.9.1-.3.3-.5.5-.8.2-.2.4-.4.7-.6.2-.1.4-.2.7-.2.2,0,.4,0,.5.1.2.1.3.3.4.4,0,.2.1.5.1.7,0,0,0,.1,0,.1,0,0,0,0,0,.1l-.7.4h-.1s0,0,0-.1v-.2c0,0-.1-.1-.2-.1,0,0-.1,0-.2,0-.1,0-.2,0-.3.1-.1,0-.2.1-.3.2,0,0-.2.2-.2.3,0,.1,0,.2-.1.4,0,.1,0,.3,0,.4Z" fill="#e0e0e0" stroke-width="0"/><path d="m136.3,370.7c0-.3.1-.7.3-1,.2-.4.5-.7.9-1l.6-.5c0-.1,0-.2,0-.3,0,0-.1,0-.2,0,0,0-.1.1-.2.2h0c0,.1,0,.3,0,.3h-.1c0,0-.7.5-.7.5,0,0,0,0,0,0,0,0,0,0,0-.1,0-.2,0-.3.1-.5,0-.2.2-.4.3-.5.1-.2.2-.4.4-.5.1-.2.3-.3.5-.4.2-.1.4-.2.6-.2.1,0,.3,0,.4.1.1.1.2.2.2.4,0,.2,0,.4,0,.6v2.4c0,0,0,.1,0,.2,0,0,0,0-.1.1l-.7.4h-.1s0,0,0-.1v-.2c0,.2-.2.4-.3.6-.1.2-.3.3-.5.4-.1,0-.3.1-.4.1-.1,0-.2,0-.3-.1,0,0-.2-.2-.2-.3,0-.2,0-.3,0-.5Zm1.2-.5c0,0,.2-.1.2-.2,0,0,.1-.2.2-.3,0-.1,0-.2.1-.3,0-.1,0-.2,0-.3l-.5.4c0,0-.2.2-.2.3,0,0,0,.2,0,.3,0,.1,0,.2,0,.2,0,0,.1,0,.2,0h0Z" fill="#e0e0e0" stroke-width="0"/><path d="m142.7,368c0,0,0,.1,0,.2,0,0,0,0-.1.1l-.7.4s0,0-.1,0c0,0,0,0,0-.1v-2.1c0-.2,0-.3-.1-.5,0-.1-.2-.1-.4,0-.2,0-.3.2-.4.4,0,.2-.1.4-.1.6v2.1c0,0,0,.1,0,.2,0,0,0,0-.1.1l-.7.4s0,0-.1,0c0,0,0,0,0-.1v-3.8c0,0,0-.1,0-.2,0,0,0,0,.1-.1l.6-.4s0,0,0,0c0,0,0,0,0,0h0v.3c0-.2.2-.3.3-.5,0,0,.1-.2.2-.2,0,0,.2-.1.3-.2.1,0,.3-.1.5-.2.1,0,.3,0,.4.1.1.1.2.3.2.4,0,.3,0,.5,0,.8v2.2Z" fill="#e0e0e0" stroke-width="0"/><path d="m144.4,364.8v.6c0,.1,0,.3.1.4.1,0,.2,0,.3,0,.1,0,.2-.1.3-.2,0,0,.1-.2.1-.3h0c0-.2,0-.2.1-.3l.7-.4s0,0,.1,0h0c0,.3,0,.4,0,.6,0,.2-.1.4-.2.6-.1.2-.3.5-.4.7-.2.2-.4.4-.7.6-.2.1-.4.2-.6.2-.2,0-.3,0-.4-.1-.1-.1-.3-.3-.3-.4,0-.2-.1-.5-.1-.7v-.7c0-.3,0-.6.1-.9,0-.3.2-.5.3-.8.1-.2.3-.5.4-.6.2-.2.4-.3.6-.5.2-.1.4-.2.7-.2.2,0,.3,0,.4.2.1.1.2.2.2.4,0,.1,0,.2,0,.3,0,0,0,.1,0,.2,0,0,0,0-.1.1l-.7.4h-.2c0-.1,0-.2-.1-.2,0,0-.1,0-.3,0-.1,0-.3.2-.3.4,0,.2-.1.4-.1.6Z" fill="#e0e0e0" stroke-width="0"/><path d="m147.9,363.6c0,0,0,.2,0,.3,0,0,0,0,.1.1,0,0,.1,0,.2,0,0,0,.1,0,.2,0,.2,0,.3-.2.4-.4h0c0-.2,0-.2,0-.2l.7-.4c0,0,.1,0,.1.1,0,.1,0,.2,0,.4,0,.2-.1.4-.2.5-.1.2-.3.4-.4.6-.2.2-.4.4-.6.5-.2.1-.4.2-.6.2-.2,0-.3,0-.4-.2-.1-.2-.2-.3-.3-.5,0-.3,0-.6,0-.9,0-.3,0-.6,0-.9,0-.3.2-.6.3-.9.1-.3.3-.5.4-.7.2-.2.4-.4.6-.5.2-.1.4-.2.7-.2.2,0,.3.1.4.3.1.2.2.4.2.6,0,.2,0,.5,0,.8v.2c0,0,0,.1,0,.2,0,0,0,0-.1.1l-1.8,1Zm.5-1.9c-.2,0-.3.2-.3.4,0,.2-.1.4-.1.5l1-.6c0-.1,0-.3-.1-.4-.1,0-.2,0-.4,0Z" fill="#e0e0e0" stroke-width="0"/><path d="m151.5,362.9c0,0,0,.1,0,.2,0,0,0,0-.1.1l-.7.4s0,0-.1,0c0,0,0,0,0-.1v-5.4c0,0,0-.1,0-.2,0,0,0,0,.1-.1l.7-.4s0,0,.1,0c0,0,0,0,0,.1v5.4Z" fill="#e0e0e0" stroke-width="0"/><path d="m198.7,338.4v-10.1c0-1.7,1-3.3,2.4-4.2l31.5-18.2c1.3-.8,2.4-.1,2.4,1.4v10.1c0,1.7-1,3.3-2.4,4.2l-31.5,18.2c-1.3.8-2.4.1-2.4-1.4Z" fill="#dd6d1f" stroke-width="0"/><path d="m210.9,323.1h.2s0,0,0,.1l1.2,4.5s0,0,0,.1c0,0,0,.1,0,.1,0,0,0,0,0,.1l-.7.4c0,0-.1,0-.1,0,0,0,0,0,0-.1v-.6c-.1,0-1.6.8-1.6.8v.8c-.2,0-.2.1-.2.2,0,0,0,.1-.1.2l-.7.4s0,0,0,0c0,0,0,0,0-.1,0,0,0,0,0-.1l1.2-5.9c0,0,0-.1,0-.2,0,0,0-.2.2-.2l.8-.5Zm-.9,4.1l.9-.5-.4-1.7-.4,2.2Z" fill="#fafafa" stroke-width="0"/><path d="m214.7,326.8c0,0-.2,0-.3.1h-.2c0,0-.1,0-.1,0,0,0,0,0,0-.1v1.8c0,0,0,.1,0,.2,0,0,0,0-.1.1l-.7.4s0,0-.1,0c0,0,0,0,0-.1v-5.4c0,0,0-.1,0-.2,0,0,0,0,.1-.1l.6-.4s0,0,.1,0c0,0,0,0,0,.1v.2c0,0,0-.1.1-.2s0-.2.1-.2c0,0,.1-.2.2-.2,0,0,.2-.2.3-.2.1,0,.3-.1.5-.1.1,0,.3,0,.4.1.1.1.2.3.3.4,0,.2.1.5.1.8v.6c0,.3,0,.6-.1.9,0,.3-.1.5-.3.7,0,.2-.2.4-.4.6-.1.2-.3.3-.5.4Zm.2-2.1c0-.2,0-.3,0-.5,0-.2,0-.3-.1-.4,0-.1-.2-.1-.4,0,0,0-.1.1-.2.2,0,0-.1.1-.1.2,0,0,0,.2,0,.3,0,0,0,.2,0,.3,0,0,0,.2,0,.3,0,0,0,.2,0,.3,0,0,0,.1,0,.2,0,0,0,.1,0,.2,0,0,0,0,.1,0,0,0,.1,0,.2,0,.2,0,.3-.2.4-.4,0-.2.1-.4.1-.6h0Z" fill="#fafafa" stroke-width="0"/><path d="m218.3,324.6c0,0-.2,0-.3.1h-.2c0,0,0,0-.1,0,0,0,0,0-.1-.1v1.8c0,0,0,.1,0,.2,0,0,0,0-.1.1l-.7.4s0,0-.1,0h0v-5.5c0,0,0-.1,0-.2,0,0,0,0,.1-.1l.6-.4s0,0,.1,0c0,0,0,0,0,.1v.2-.2c.1,0,.2-.2.2-.2,0,0,.1-.2.2-.2,0,0,.2-.2.3-.2.1,0,.3-.1.4-.1.1,0,.3,0,.4.1.1.1.2.3.3.4,0,.2.1.5.1.8,0,.1,0,.2,0,.3,0,.1,0,.2,0,.3,0,.3,0,.6-.1.9,0,.3-.1.5-.3.7,0,.2-.2.4-.4.6-.1.1-.3.3-.4.4Zm.2-2.1c0-.2,0-.3,0-.5,0-.2,0-.3-.1-.4,0-.1-.2-.1-.4,0,0,0-.2,0-.2.2,0,0,0,.1-.1.2,0,0,0,.2,0,.3,0,.2,0,.4,0,.6,0,0,0,.2,0,.3,0,0,0,.1,0,.2,0,0,0,.1,0,.2,0,0,0,0,.1,0,0,0,.1,0,.2,0,.2,0,.3-.2.4-.4,0-.2.1-.4.1-.6h0Z" fill="#fafafa" stroke-width="0"/><path d="m221.3,322.6c0,0,0,.1,0,.2,0,0,0,0-.1.1l-.7.4h-.1s0,0,0-.1v-5.4c0,0,0-.1,0-.2,0,0,0,0,.1-.1l.7-.4s0,0,.1,0c0,0,0,0,0,.1v5.4Z" fill="#fafafa" stroke-width="0"/><path d="m223.6,322.9c0,0,0,.1,0,.2,0,0,0,0-.1.1l-.7.4s0,0,0,0c0,0,0,0,0-.1h0c0,0,.4-1.8.4-1.8l-1.1-3.2s0,0,0,0c0,0,0-.1,0-.2,0,0,0,0,0-.1l.7-.4h.1s0,0,0,.1l.6,1.8.6-2.5c0,0,0-.1,0-.2,0,0,0,0,.1-.1l.7-.4s0,0,0,0c0,0,0,0,0,.1h0c0,0-1.5,6.3-1.5,6.3Z" fill="#fafafa" stroke-width="0"/><path d="m119,156.4l1.3.6h.1c0,.1,0,.2,0,.3v.8c0,0,0,.1,0,.2,0,0,0,0,0,.1h0l-2-.9s0,0-.1,0c0,0,0-.1,0-.2v-.4c0,0,0-.2,0-.2,0,0,0-.2.1-.2l2-3.3h0s0,0,0,0c0,0,0,0,0,.1v.8c0,0,0,.2,0,.3,0,0,0,.2-.1.2l-1.2,2.1Z" fill="#455a64" stroke-width="0"/><path d="m121.5,158.1s0,0-.1,0c0,0,0,0,0-.1v-5.8c0,0,0-.1,0-.2,0,0,0-.1.1-.1l1.7-1c.2-.1.4-.2.6-.2.2,0,.3,0,.4.2.1.1.2.3.2.4,0,.2,0,.4,0,.5,0,.2,0,.3,0,.5,0,.1,0,.3-.1.4,0,.1,0,.2-.1.3,0,0,0,.1-.1.2.1,0,.3.2.3.3.1.2.2.5.1.8,0,.2,0,.5,0,.7,0,.3-.1.5-.2.7-.1.2-.2.4-.4.6-.1.2-.3.4-.5.5l-1.9,1.1Zm2.2-5.7c0-.2,0-.4-.1-.4s-.2,0-.4,0l-1,.6v1.4l1-.6c.2,0,.3-.2.4-.4,0-.2.1-.4.1-.6h0Zm-1.6,4.2l1.1-.6c.2-.1.4-.3.5-.5,0-.2.1-.4.1-.6,0-.2,0-.3-.1-.5-.1,0-.2,0-.5,0l-1.1.6v1.5Z" fill="#455a64" stroke-width="0"/><path d="m125.3,152.4c0-.2,0-.3.1-.5,0-.2.1-.4.2-.5.1-.2.2-.4.4-.5.2-.2.3-.3.5-.4.2,0,.3-.2.5-.2.1,0,.3,0,.4.1.1.1.2.3.3.4,0,.2.1.5.1.8v2.6c0,0,0,.1,0,.2,0,0,0,0-.1.1l-.4.2s0,0-.1,0c0,0,0-.1,0-.1v-.3c0,.2-.2.4-.4.6-.2.2-.4.4-.6.5-.1,0-.3.1-.4.1-.1,0-.2,0-.3,0,0,0-.2-.2-.2-.3,0-.2,0-.3,0-.5,0-.4,0-.8.3-1.1.2-.3.4-.7.8-.9l.9-.8c0-.2,0-.4-.2-.4-.1,0-.3,0-.4,0,0,0-.2.1-.2.2,0,0-.1.2-.2.3,0,0,0,.1,0,.1,0,0,0,0-.1,0l-.5.3s0,0-.1,0c0,0,0,0,0-.1Zm1,2c.1,0,.3-.2.4-.3.1-.1.2-.2.3-.4,0-.1.1-.3.1-.4,0-.1,0-.3,0-.4h0c0,0-.8.6-.8.6-.1.1-.3.2-.3.4,0,.1-.1.2-.1.4,0,.1,0,.2.1.2,0,0,.2,0,.2-.1h0Z" fill="#455a64" stroke-width="0"/><path d="m129.1,151c0,.1,0,.2,0,.3,0,0,0,.2,0,.3,0,.1,0,.3,0,.4,0,0,0,.2.2.2,0,0,.1,0,.2,0,0,0,.2,0,.2,0,0,0,.2-.1.2-.2,0,0,.1-.1.2-.2,0,0,0-.1.1-.2v-.2c0,0,.2-.2.2-.2,0,0,0-.1.1-.1l.4-.2s0,0,.1,0c0,0,0,.1,0,.1,0,.2,0,.3,0,.5,0,.2-.1.5-.2.7-.1.2-.3.5-.4.7-.2.2-.4.4-.6.5-.2.1-.4.2-.6.2-.2,0-.3,0-.4-.2-.1-.1-.2-.3-.3-.5,0-.2-.1-.5-.1-.7v-.7c0-.3,0-.6.1-.9,0-.3.2-.6.3-.8.1-.3.3-.5.4-.7.2-.2.4-.4.6-.5.2-.1.4-.2.6-.2.2,0,.3,0,.4.2.1,0,.2.2.2.4,0,.1,0,.3,0,.4,0,0,0,.1,0,.2,0,0,0,.1-.1.1l-.4.2s0,0-.1,0h0c0-.2,0-.2,0-.2,0,0,0,0-.1,0,0,0-.1,0-.2,0,0,0-.2,0-.2.1,0,0-.2.1-.2.2,0,0-.1.2-.2.3,0,.1-.1.3-.2.4,0,.2,0,.3,0,.5Z" fill="#455a64" stroke-width="0"/><path d="m132.6,149.9v1.5c0,0,0,.1,0,.2,0,0,0,.1-.1.1l-.4.2s0,0-.1,0c0,0,0,0,0-.1v-5.8c0,0,0-.1,0-.2,0,0,0-.1.1-.1l.4-.2h.1s0,0,0,.1v2.8l1-1.8c0,0,0-.1,0-.1,0,0,0-.1.1-.1l.6-.3s0,0,.1,0h0c0,.2,0,.2,0,.2,0,0,0,0,0,.1l-1.4,2.4,1.5,1.3s0,0,0,0c0,0,0,0,0,0,0,0,0,.1,0,.2,0,0,0,0-.1.1l-.6.3s-.1,0-.1,0h0c0,0-1.1-1-1.1-1Z" fill="#455a64" stroke-width="0"/><path d="m226.1,91.6c-.1,0-.2,0-.3-.2,0-.1,0-.3.1-.4l7.4-4.2c.1,0,.3,0,.4.1,0,.1,0,.3-.1.4,0,0,0,0,0,0l-7.4,4.3s0,0-.1,0Z" fill="#455a64" stroke-width="0"/><path d="m226.1,94.9c-.1,0-.2,0-.3-.2,0-.1,0-.3.1-.4,0,0,0,0,0,0l7.4-4.2c.1-.1.3,0,.4,0,.1.1,0,.3,0,.4,0,0,0,0,0,0l-7.4,4.2s0,0-.1,0Z" fill="#455a64" stroke-width="0"/><path d="m226.1,98.1c-.1,0-.2,0-.3-.2,0-.1,0-.3.1-.4l7.4-4.2c.1,0,.3,0,.4.1,0,.1,0,.3-.1.4,0,0,0,0,0,0l-7.4,4.2s0,0-.1,0Z" fill="#455a64" stroke-width="0"/><path d="m226.1,90.2c.5-.3.9,0,.9.5,0,.7-.4,1.3-.9,1.6-.5.3-.9,0-.9-.5,0-.7.4-1.3.9-1.6Z" fill="#455a64" stroke-width="0"/><path d="m231.8,90.2c.5-.3.9,0,.9.5,0,.7-.4,1.3-.9,1.6-.5.3-.9,0-.9-.5,0-.7.4-1.2.9-1.6Z" fill="#455a64" stroke-width="0"/><path d="m229.3,94.9c.5-.3.9,0,.9.5,0,.7-.4,1.3-.9,1.6-.5.3-.9,0-.9-.5,0-.7.4-1.2.9-1.6Z" fill="#455a64" stroke-width="0"/><path d="m158.3,138.8c0,0,0-.2,0-.3l1.4-9.6c0-.3.3-.6.6-.7l.6-.3c.3-.2.5-.2.6,0l1.4,8v.2c0,.2-.2.4-.4.5l-.5.3c-.3.2-.4.2-.5,0l-.2-1.6-1.4.8-.2,1.8c0,.2-.2.4-.4.5l-.5.3c-.3.2-.4.1-.4,0Zm2.8-5l-.4-2.7c0-.3,0-.6-.1-1h0c0,.4,0,.8-.1,1.1l-.4,3.2,1-.6Z" fill="#455a64" stroke-width="0"/><path d="m163.4,136c0,0,0-.2,0-.4v-8.6c0-.2,0-.3,0-.5,0-.1.1-.2.2-.3l1.7-1c.8-.4,1.4-.4,1.7.2.5,1,.7,2.2.6,3.3,0,1.4-.1,2.7-.6,4-.3.9-.9,1.7-1.7,2.2l-1.7,1c-.1,0-.2,0-.2,0Zm1.9-2.8c.4-.3.6-.6.7-1.1.2-.8.2-1.6.2-2.5,0-.7,0-1.5-.2-2.2-.1-.4-.4-.5-.7-.3l-.6.3v6.1l.6-.3Z" fill="#455a64" stroke-width="0"/><path d="m169.3,132.5l-1.4-8.1c0,0,0-.2,0-.2,0-.2.2-.4.5-.6l.3-.2c.3-.2.5-.1.5.1l.8,5.8v.9h0v-1c0,0,.9-6.7.9-6.7,0-.3.2-.6.5-.7l.3-.2c.3-.2.5-.2.5,0,0,0,0,.2,0,.3l-1.4,9.7c0,.3-.2.5-.5.6l-.7.4c-.3.2-.5.2-.5,0Z" fill="#455a64" stroke-width="0"/><path d="m172.3,130.8c0,0,0-.2,0-.3l1.4-9.6c0-.3.3-.6.6-.7l.6-.3c.3-.2.5-.2.6,0l1.4,8v.2c0,.2-.2.4-.4.5l-.5.3c-.3.2-.4.2-.5,0l-.2-1.6-1.4.8-.2,1.8c0,.2-.2.4-.4.5l-.5.3c-.3.2-.4.1-.4,0Zm2.8-5l-.4-2.7c0-.3,0-.6-.1-1h0c0,.4,0,.8-.1,1.1l-.4,3.2,1-.6Z" fill="#455a64" stroke-width="0"/><path d="m177.3,127.7v-8.9c0-.3.2-.6.5-.7h.2c0-.2.2-.2.3-.2,0,0,.1,0,.2.2l1.6,3.6c0,.2.2.5.3.9h0c0-.3,0-.7,0-1.1v-4.4c0-.3.2-.6.5-.8h.2c.3-.3.5-.3.5,0v8.9c0,.3-.2.6-.5.7h-.2c0,.2-.2.2-.3.2,0,0-.1,0-.2-.2l-1.7-3.7c0-.2-.2-.5-.2-.8h0c0,.4,0,.7,0,1v4.6c0,.3-.2.6-.5.7h-.2c-.4.3-.5.2-.5,0Z" fill="#455a64" stroke-width="0"/><path d="m183,123.7c-.5-1.1-.7-2.3-.6-3.5,0-1.4.2-2.8.6-4.1.3-1,1-1.8,1.9-2.3.2-.2.5-.3.8-.3.2,0,.3.1.3.4,0,.3,0,.7-.1,1,0,.3-.2.5-.3.5-.2,0-.4,0-.6.2-.4.3-.7.7-.8,1.2-.2.8-.3,1.6-.3,2.5,0,.7,0,1.5.3,2.2,0,.3.3.5.6.4,0,0,.2,0,.2-.1.1,0,.2-.1.3-.2l.3-.3h0c.1-.1.2,0,.3.1,0,.3.1.6,0,.9,0,.1,0,.3,0,.4,0,.1-.1.2-.2.4-.1.1-.3.3-.4.4-.2.1-.3.3-.5.4-.8.5-1.4.4-1.8-.1Z" fill="#455a64" stroke-width="0"/><path d="m186.8,122.5c0-.1,0-.2,0-.4v-8.6c0-.2,0-.3,0-.5,0-.1.1-.2.2-.3l2.7-1.5c0,0,.2,0,.2,0,0,.2,0,.3,0,.5v.4c0,.2,0,.4,0,.6,0,.1,0,.2-.2.3l-1.6.9v2l1.4-.8c0,0,.2,0,.2,0,0,.2,0,.3,0,.5v.5c0,.2,0,.4,0,.6,0,.1,0,.2-.2.3l-1.4.8v2.2l1.6-.9c0,0,.1,0,.2,0,0,.2,0,.3,0,.5v.5c0,.2,0,.4,0,.6,0,.1,0,.2-.2.3l-2.7,1.5c-.1,0-.2,0-.2,0Z" fill="#455a64" stroke-width="0"/><path d="m190.9,120.1c0-.1,0-.2,0-.4v-8.6c0-.2,0-.3,0-.5,0-.1.1-.2.3-.3l1.7-1c.8-.4,1.4-.4,1.7.2.5,1,.7,2.2.6,3.3,0,1.4-.1,2.7-.6,4-.3.9-.9,1.7-1.7,2.2l-1.7,1c-.1,0-.2,0-.3,0Zm1.9-2.8c.4-.3.6-.6.7-1.1.2-.8.2-1.6.2-2.5,0-.7,0-1.5-.2-2.2-.1-.4-.4-.5-.7-.3l-.6.3v6.1l.6-.3Z" fill="#455a64" stroke-width="0"/><path d="m149.2,159.9c-.5-1.1-.7-2.3-.6-3.5,0-1.4.2-2.7.6-4.1.3-1,1-1.8,1.9-2.3.2-.1.5-.2.8-.3.2,0,.3.1.3.4,0,.3,0,.7-.1,1,0,.3-.2.5-.3.5-.2,0-.4,0-.6.2-.4.3-.7.7-.8,1.2-.2.8-.3,1.6-.3,2.5,0,.7,0,1.5.3,2.2,0,.3.3.5.6.4,0,0,.2,0,.2-.1.1,0,.2-.1.3-.2l.3-.3h0c.1-.1.2,0,.3.1,0,.3.1.6,0,.9,0,.1,0,.3,0,.4,0,.1-.1.2-.2.3-.1.1-.3.3-.4.4-.2.1-.3.3-.5.4-.9.5-1.5.4-1.8-.1Z" fill="#455a64" stroke-width="0"/><path d="m153.4,157.8c-.5-.5-.7-1.2-.6-1.9v-6.4c0-.3.2-.6.5-.7l.4-.2c.4-.2.5-.1.5.1v6.3c0,.3,0,.6.2.8.1.1.3.2.6,0,.3-.2.4-.4.6-.7.1-.3.2-.7.2-1v-6.3c0-.3.2-.6.5-.7l.4-.2c.4-.2.5-.1.5.1v6.4c0,.9-.2,1.7-.6,2.5-.4.7-.9,1.3-1.6,1.7-.6.4-1.2.4-1.6.1Z" fill="#455a64" stroke-width="0"/><path d="m158.6,155.4c-.2,0-.5,0-.6-.2,0-.1-.1-.3-.1-.4,0-.3,0-.6.1-.9.1-.3.2-.5.3-.6,0,0,.2,0,.2,0h.2c.2.1.4,0,.6,0,.2-.1.4-.3.5-.5.1-.3.2-.5.2-.8,0-.2,0-.4-.1-.6,0-.1-.2-.2-.3-.3-.1,0-.3-.1-.4-.1-.4,0-.8-.3-1-.7-.2-.5-.4-1.1-.3-1.6,0-.8.2-1.6.5-2.2.3-.6.8-1.1,1.4-1.5.2-.1.4-.2.6-.2.2,0,.4,0,.5,0,.1,0,.2.2.2.4,0,.3,0,.6-.1.8,0,.3-.2.5-.3.6,0,0-.2,0-.3,0-.2,0-.4,0-.6.1-.2.1-.4.3-.5.5,0,.2-.1.4-.1.6,0,.2,0,.5.2.7.2.1.3.2.6.3h.2c.4.2.7.4.9.7.2.5.3,1,.3,1.5,0,.5,0,1.1-.2,1.6-.1.5-.4,1-.7,1.4-.3.4-.7.8-1.1,1-.3.2-.5.3-.9.4Z" fill="#455a64" stroke-width="0"/><path d="m162.9,152.6v-7.5l-1,.6c0,0-.1,0-.2,0,0-.2,0-.3,0-.5v-.4c0-.2,0-.4,0-.6,0-.1.1-.2.2-.3l3.4-2c.1,0,.2,0,.2,0,0,.2,0,.3,0,.5v.4c0,.2,0,.4,0,.6,0,.1-.1.2-.2.3l-1,.6v7.5c0,.3-.2.6-.5.7l-.4.2c-.4.3-.5.2-.5,0Z" fill="#455a64" stroke-width="0"/><path d="m165.8,146.5c0-3.3.8-5.4,2.4-6.3.8-.4,1.4-.4,1.8.2.5,1.1.7,2.2.6,3.4,0,1.4-.2,2.8-.6,4.1-.3.9-.9,1.7-1.8,2.2-1.6.9-2.4-.3-2.4-3.6Zm2.9,1.2c.2-.4.3-.7.3-1.1,0-.7.1-1.3.1-2,0-.6,0-1.2-.1-1.8,0-.3-.1-.6-.3-.8-.1-.1-.3-.1-.5,0-.2.1-.4.3-.5.6-.2.4-.3.7-.3,1.1,0,.6-.1,1.3-.1,1.9,0,.6,0,1.2.1,1.8,0,.3.1.6.3.8.2.1.4.1.5,0,.2-.1.4-.3.5-.5h0Z" fill="#455a64" stroke-width="0"/><path d="m173.7,143.7c0,0-.1,0-.1-.2l-.7-1.5c0,0,0-.2-.1-.3v-.2h0v5.5c0,.1,0,.3-.1.4-.1.1-.2.2-.4.3l-.3.2c-.1,0-.3.1-.4.1,0,0-.1,0-.1-.3v-8.9c0-.1,0-.3.1-.4.1-.1.2-.3.4-.3l.3-.2c.1,0,.2-.1.4-.1,0,0,.2,0,.2.2l1.1,2.6c0,.2.1.4.2.6,0-.3,0-.5.2-.8l1.1-3.9c0-.2.1-.3.2-.4,0-.1.2-.2.3-.3l.3-.2c.1,0,.3-.1.4-.1,0,0,.1,0,.1.3v8.9c0,.1,0,.3-.1.4-.1.1-.2.2-.4.3l-.3.2c-.1,0-.3.1-.4.1,0,0-.1,0-.1-.3v-4.8c0-.3,0-.5,0-.8h0c0,.2-.1.5-.2.8l-.7,2.3c0,.1,0,.2-.1.3,0,0-.1.2-.2.2h-.1c0,.2-.1.2-.2.2Z" fill="#455a64" stroke-width="0"/><path d="m177.5,144.1v-8.9c0-.3.2-.6.5-.8l.4-.2c.4-.2.5-.1.5.2v8.9c0,.3-.2.6-.5.8l-.4.2c-.4.2-.5.2-.5-.2Z" fill="#455a64" stroke-width="0"/><path d="m179.8,142.9c0-.2-.1-.5-.1-.7,0,0,0-.1,0-.1l2.3-7.8-1.9,1.1c0,0-.1,0-.2,0,0-.2,0-.3,0-.5v-.4c0-.2,0-.4,0-.6,0-.1,0-.2.2-.3l3.3-1.9c0,0,.1,0,.2.4,0,.2.1.5.1.7h0c0,0-2.3,7.9-2.3,7.9l2-1.2c0,0,.1,0,.2,0,0,.2,0,.3,0,.5v.4c0,.2,0,.4,0,.6,0,.1,0,.2-.2.3l-3.5,2c0,0,0,0-.2-.3Z" fill="#455a64" stroke-width="0"/><path d="m184,140.6c0,0,0-.2,0-.3l1.4-9.6c0-.3.3-.6.6-.7l.6-.3c.3-.2.5-.2.6,0l1.4,8v.2c0,.2-.2.4-.4.5l-.5.3c-.3.2-.4.2-.5,0l-.2-1.6-1.4.8-.2,1.8c0,.2-.2.4-.4.5l-.5.3c-.3.2-.4.1-.4,0Zm2.8-5l-.4-2.7c0-.3,0-.6-.1-1h0c0,.4,0,.8-.1,1.1l-.4,3.2,1-.6Z" fill="#455a64" stroke-width="0"/><path d="m189.6,137.2v-7.5l-1,.6c0,0-.1,0-.2,0,0-.2,0-.3,0-.5v-.4c0-.2,0-.4,0-.6,0-.1.1-.2.2-.3l3.4-2c.1,0,.2,0,.2,0,0,.2,0,.3,0,.5v.4c0,.2,0,.4,0,.6,0,.1-.1.2-.2.3l-1,.6v7.5c0,.3-.2.6-.5.7l-.4.2c-.4.2-.5.2-.5-.1Z" fill="#455a64" stroke-width="0"/><path d="m192.9,135.3v-8.9c0-.3.2-.6.5-.8l.4-.2c.3-.2.5-.1.5.2v8.9c0,.3-.2.6-.5.8l-.4.2c-.3.2-.5.1-.5-.2Z" fill="#455a64" stroke-width="0"/><path d="m195.1,129.6c0-3.3.8-5.4,2.4-6.3.8-.4,1.4-.4,1.8.2.5,1.1.7,2.2.6,3.4,0,1.4-.2,2.8-.6,4.1-.3.9-.9,1.7-1.8,2.2-1.6.9-2.4-.3-2.4-3.6Zm2.9,1.2c.2-.4.3-.7.3-1.1,0-.7.1-1.3.1-2,0-.6,0-1.2-.1-1.8,0-.3-.1-.6-.3-.8-.1-.1-.3-.1-.5,0-.2.1-.4.3-.5.6-.2.4-.3.7-.3,1.1,0,.6-.1,1.3-.1,1.9,0,.6,0,1.2.1,1.8,0,.3.1.6.3.8.2.1.4.1.5,0,.2-.1.4-.3.5-.6Z" fill="#455a64" stroke-width="0"/><path d="m200.6,130.9v-8.9c0-.3.2-.6.5-.7h.2c0-.2.2-.2.3-.2,0,0,.1,0,.2.2l1.6,3.6c.1.3.2.6.3.9h0c0-.5,0-.9,0-1.1v-4.4c0-.3.2-.6.5-.7h.2c.4-.3.5-.3.5,0v8.9c0,.3-.2.6-.5.8h-.2c0,.2-.2.2-.3.2,0,0-.1,0-.2-.2l-1.7-3.7c-.1-.2-.2-.5-.2-.7h0c0,.4,0,.7,0,1v4.6c0,.3-.2.6-.5.8h-.2c-.4.3-.5.2-.5,0Z" fill="#455a64" stroke-width="0"/><path d="m134.2,131.2c0,0,0-.1,0-.2v-.9l-1.5.9c0,0-.1,0-.1-.1v-.5c0,0,0-.1,0-.2l1.6-4.2c0,0,0-.1,0-.2,0,0,0,0,.1,0h.2c0-.1.1-.1.1-.1,0,0,0,.1,0,.2v3.3l.3-.2h.1c0,0,0,.1,0,.2v.2c0,0,0,.2,0,.2,0,0,0,.1-.1.1l-.3.2v.9c0,0,0,.2,0,.2,0,0,0,.1-.1.1h-.2c0,.1-.2.1-.2,0Zm0-2v-2.3l-1.1,2.9,1.1-.6Z" fill="#455a64" stroke-width="0"/><path d="m135.9,129.7c-.3-.6-.5-1.2-.4-1.9,0-.8.1-1.6.4-2.4.2-.6.7-1.1,1.2-1.5.2-.1.4-.2.6-.2.2,0,.3,0,.5,0,0,0,0,0,0,0,0,0,0,0,0,.1v.5c-.1,0-.1,0-.2.1h0c-.3,0-.5,0-.8.1-.4.2-.7.6-.8,1-.2.6-.3,1.2-.3,1.8,0,.5,0,1,.3,1.4.2.2.5.3.8,0,.1,0,.2-.2.4-.3.1,0,.2-.2.3-.3v-1.5l-.6.4h-.1c0,0,0-.1,0-.2v-.2c0,0,0-.2,0-.2,0,0,0-.1.1-.1l1-.6h.1c0,0,0,.2,0,.2v2.2c0,0,0,.1,0,.2,0,0,0,0,0,.1-.3.5-.7.9-1.1,1.1-.5.3-.9.3-1.2,0Z" fill="#455a64" stroke-width="0"/><path d="m148.3,122.2c0,.7-.3,1.4-.9,1.8-.5.3-.9,0-.9-.8,0-.7.3-1.4.9-1.8.4-.2.9.1.9.8Z" fill="#455a64" stroke-width="0"/><path d="m147.4,119.2c-1,.7-1.7,1.8-2,3,0,.3,0,.5.1.6h0c.2.1.4-.1.5-.4.2-.8.7-1.6,1.4-2.1.4-.3,1-.2,1.3.2,0,0,.1.2.1.3.1.2.3.2.5-.1h0c.1-.2.2-.5,0-.7-.2-.7-.9-1.1-1.6-.9-.1,0-.3,0-.4.2Z" fill="#455a64" stroke-width="0"/><path d="m147.4,117.1c-1.5,1.1-2.5,2.6-3,4.3-.1.3,0,.6,0,.6h0c.2.1.4,0,.5-.4.4-1.4,1.3-2.7,2.5-3.5.7-.5,1.8-.4,2.3.4,0,0,.1.2.2.3.1.2.3.1.5-.1h0c.1-.2.2-.5,0-.7-.4-1-1.6-1.5-2.6-1.1-.2,0-.3.2-.5.3Z" fill="#455a64" stroke-width="0"/><path d="m169.6,107.4c0,0,0-.1,0-.2,0,0,0-.1,0-.2l1.2-2.2v-.2c.1,0,.1,0,.2-.1l.4-.2s0,0,.1,0c0,0,0,0,0,.1v5.6c0,0,0,.1,0,.2,0,0,0,.1-.1.1l-.4.3h-.1s0,0,0-.1v-4.3l-.8,1.4s0,0-.1.1c0,0,0,0-.1,0l-.3-.4Z" fill="#455a64" stroke-width="0"/><path d="m172.4,105.8c0,0,0-.1,0-.2,0,0,0-.1,0-.2l1.2-2.2v-.2c.1,0,.2,0,.2,0l.4-.3h.1s0,0,0,.1v5.6c0,0,0,.1,0,.2,0,0,0,.1-.1.1l-.4.3s0,0-.1,0c0,0,0,0,0-.1v-4.3l-.8,1.4c0,0,0,0-.1.1,0,0,0,0-.1,0l-.3-.4Z" fill="#455a64" stroke-width="0"/><path d="m176.2,103.4s0,0,.1,0c0,0,0,0,0,.1v.8c0,0,0,.1,0,.2,0,0,0,.1-.1.1l-.5.3s0,0-.1,0c0,0,0,0,0-.1v-.8c0,0,0-.1,0-.2,0,0,0,0,.1-.1l.5-.3Zm0,3s0,0,.1,0c0,0,0,0,0,.1v.8c0,0,0,.1,0,.2,0,0,0,.1-.1.1l-.5.3s0,0-.1,0c0,0,0,0,0-.1v-.8c0,0,0-.1,0-.2,0,0,0,0,.1-.1l.5-.3Z" fill="#455a64" stroke-width="0"/><path d="m179.2,106h-.1s0,0,0-.1v-1l-1.7,1s0,0-.1,0c0,0,0,0,0-.1v-.6c0,0,0-.2,0-.2,0,0,0-.2,0-.2l1.7-4.3c0-.2.1-.3.2-.3l.4-.2s0,0,.1,0c0,0,0,0,0,.1v3.5l.5-.3s0,0,0,0c0,0,0,0,0,0,0,0,0,0,0,.1v.6c0,0,0,.1,0,.2,0,0,0,0-.1.1l-.5.3v1c0,0,0,.1,0,.2,0,0,0,0-.1.1l-.4.3Zm-.2-2.3v-1.9l-1,2.4,1-.6Z" fill="#455a64" stroke-width="0"/><path d="m181.4,98.9c0,0,0-.1,0-.2,0,0,0,0,.1-.1l2.1-1.2s0,0,.1,0c0,0,0,0,0,.1v.7c0,0,0,.1,0,.2,0,0,0,.1-.1.1l-1.6.9v1.2c0-.1.1-.2.2-.3l.2-.2c.2-.1.4-.2.6-.2.2,0,.3,0,.5.1.1.1.3.3.3.4,0,.3.1.5.1.8,0,.3,0,.7-.1,1,0,.3-.2.6-.3.8-.2.5-.6.8-1,1.1-.2.1-.4.2-.7.2-.2,0-.3,0-.5-.1-.1,0-.2-.2-.3-.4,0-.2-.1-.4-.1-.6,0,0,0-.1,0-.2,0,0,0,0,.1-.1l.4-.3s0,0,.1,0c0,0,0,0,0,.1,0,0,0,.2.1.3,0,0,.1,0,.2.1,0,0,.1,0,.2,0,0,0,.2,0,.2-.1.2-.1.4-.3.5-.6.1-.3.2-.6.2-.8,0-.2,0-.4-.2-.5-.2-.1-.4-.1-.5,0,0,0-.2.1-.3.2,0,0-.1.1-.2.2v.2c-.2,0-.2,0-.2.1l-.5.3s0,0-.1,0c0,0,0,0,0-.1v-3.1Z" fill="#455a64" stroke-width="0"/><polygon points="118 141.3 118 139.5 119.6 138.6 119.6 140.4 118 141.3" fill="#455a64" stroke-width="0"/><polygon points="120.3 139.9 120.3 136.3 121.9 135.4 121.9 139 120.3 139.9" fill="#455a64" stroke-width="0"/><polygon points="122.7 138.6 122.7 133.1 124.2 132.2 124.2 137.7 122.7 138.6" fill="#455a64" stroke-width="0"/><polygon points="125 137.2 125 130 126.6 129.1 126.6 136.3 125 137.2" fill="#455a64" stroke-width="0"/><path d="m234.7,68c-.2-.2-.4-.3-.6-.2l-5.9,3.3c-.5.5-.7,1.1-.7,1.8v3.3c0,.3,0,.7.2,1,0,0,.1.2.2.2.1,0,.2,0,.3,0l5.8-3.3c.5-.5.7-1.1.7-1.8v-3.3c0-.4,0-.7-.2-1Zm-6.7,8.8c0-.1-.1-.3,0-.5v-3.2c0-.5.2-1,.5-1.3l5.8-3.4c0,0,.1,0,.2,0h0c0,.2.1.4,0,.6v3.3c0,.5-.2,1-.5,1.3l-5.8,3.3c0,0-.2,0-.2,0h0Z" fill="#455a64" stroke-width="0"/><path d="m229.6,71.7v3.9l-.9.5c0,0-.1,0-.2,0,0,0,0,0,0,0v-2.8c0-.4.1-.7.4-1l.7-.5Z" fill="#455a64" stroke-width="0"/><polygon points="230 71.4 231.1 70.8 231.1 74.7 230 75.3 230 71.4" fill="#455a64" stroke-width="0"/><polygon points="231.5 70.6 232.6 69.9 232.6 73.8 231.5 74.4 231.5 70.6" fill="#455a64" stroke-width="0"/><path d="m234.1,69.3v2.8c0,.5-.3,1-.7,1.2l-.4.2v-3.9l.9-.5c0,0,.2,0,.2,0,0,0,0,0,0,0Z" fill="#455a64" stroke-width="0"/><path d="m235.2,68.9c.2,0,.3.4.3,1v.6c0,.5,0,1-.3,1.4l-.3.2v-3l.3-.2Z" fill="#455a64" stroke-width="0"/><polygon points="218.8 78.9 224.4 73.8 222.7 81.2 221.9 78.1 218.8 78.9" fill="#455a64" stroke-width="0"/></g></g><g id="freepik--Controls--inject-142"><g id="freepik--controls--inject-142"><path d="m262.3,51.6l75-43.5c1.4-.8,2.5-.2,2.5,1.3-.1,1.7-1.1,3.3-2.5,4.2l-75,43.6c-1.4.8-2.5.2-2.5-1.3.1-1.8,1.1-3.3,2.5-4.3Z" fill="#dd6d1f" stroke-width="0"/><path d="m262.3,51.6l75-43.5c1.4-.8,2.5-.2,2.5,1.3-.1,1.7-1.1,3.3-2.5,4.2l-75,43.6c-1.4.8-2.5.2-2.5-1.3.1-1.8,1.1-3.3,2.5-4.3Z" fill="#fff" isolation="isolate" opacity=".9" stroke-width="0"/><path d="m283.1,39.6l-20.8,12c-1.5.9-2.4,2.5-2.5,4.2,0,1.5,1.1,2.1,2.5,1.3l20.8-12v-5.5Z" fill="#dd6d1f" isolation="isolate" opacity=".3" stroke-width="0"/><path d="m274.7,47.4c0,.8.1,1.6.4,2.3l7.9-4.6v-5.5l-7.8,4.5c-.3,1-.5,2.1-.5,3.2Z" fill="#dd6d1f" isolation="isolate" opacity=".3" stroke-width="0"/><path d="m283.1,35.4c3.3-1.9,6-.4,6,3.5-.2,4.3-2.5,8.2-6,10.5-3.4,1.9-6.1.4-6.1-3.5.2-4.3,2.5-8.2,6.1-10.5Z" fill="#dd6d1f" stroke-width="0"/><path d="m283.1,35.4c3.3-1.9,6-.4,6,3.5-.2,4.3-2.5,8.2-6,10.5-3.4,1.9-6.1.4-6.1-3.5.2-4.3,2.5-8.2,6.1-10.5Z" fill="#fff" isolation="isolate" opacity=".3" stroke-width="0"/><path d="m262.3,72.6l75-43.5c1.4-.8,2.5-.2,2.5,1.3-.1,1.7-1.1,3.3-2.5,4.2l-75,43.5c-1.4.8-2.5.2-2.5-1.3.1-1.7,1.1-3.3,2.5-4.2Z" fill="#dd6d1f" stroke-width="0"/><path d="m262.3,72.6l75-43.5c1.4-.8,2.5-.2,2.5,1.3-.1,1.7-1.1,3.3-2.5,4.2l-75,43.5c-1.4.8-2.5.2-2.5-1.3.1-1.7,1.1-3.3,2.5-4.2Z" fill="#fff" isolation="isolate" opacity=".9" stroke-width="0"/><path d="m317.6,40.6l-55.2,32c-1.5.9-2.4,2.5-2.5,4.2,0,1.5,1.1,2.1,2.5,1.3l55.2-32v-5.5Z" fill="#dd6d1f" isolation="isolate" opacity=".3" stroke-width="0"/><path d="m309.5,48.1c0,.8.1,1.6.4,2.3l7.6-4.3v-5.6l-7.5,4.4c-.4,1-.5,2.1-.6,3.2Z" fill="#dd6d1f" isolation="isolate" opacity=".3" stroke-width="0"/><path d="m317.8,36.2c3.4-1.9,6.1-.4,6.1,3.5-.2,4.2-2.5,8.1-6.1,10.5-3.3,1.9-6,.4-6-3.5.2-4.2,2.5-8.1,6-10.5Z" fill="#dd6d1f" stroke-width="0"/><path d="m317.8,36.2c3.4-1.9,6.1-.4,6.1,3.5-.2,4.2-2.5,8.1-6.1,10.5-3.3,1.9-6,.4-6-3.5.2-4.2,2.5-8.1,6-10.5Z" fill="#fff" isolation="isolate" opacity=".3" stroke-width="0"/><path d="m262.3,93.6l75-43.5c1.4-.8,2.5-.2,2.5,1.3-.1,1.7-1.1,3.3-2.5,4.2l-75,43.5c-1.4.8-2.5.2-2.5-1.3.1-1.7,1.1-3.3,2.5-4.2Z" fill="#dd6d1f" stroke-width="0"/><path d="m262.3,93.6l75-43.5c1.4-.8,2.5-.2,2.5,1.3-.1,1.7-1.1,3.3-2.5,4.2l-75,43.5c-1.4.8-2.5.2-2.5-1.3.1-1.7,1.1-3.3,2.5-4.2Z" fill="#fff" isolation="isolate" opacity=".9" stroke-width="0"/><path d="m283.1,81.6l-20.8,12c-1.5.9-2.4,2.5-2.5,4.2,0,1.5,1.1,2.1,2.5,1.3l20.8-12v-5.5Z" fill="#dd6d1f" isolation="isolate" opacity=".3" stroke-width="0"/><path d="m274.7,89.4c0,.8.1,1.6.4,2.3l7.9-4.5v-5.5l-7.8,4.5c-.4,1.1-.5,2.2-.5,3.3Z" fill="#dd6d1f" isolation="isolate" opacity=".3" stroke-width="0"/><path d="m283.1,77.4c3.3-1.9,6-.4,6,3.5-.2,4.3-2.5,8.2-6,10.5-3.4,1.9-6.1.4-6.1-3.5.2-4.3,2.5-8.2,6.1-10.5Z" fill="#dd6d1f" stroke-width="0"/><path d="m283.1,77.4c3.3-1.9,6-.4,6,3.5-.2,4.3-2.5,8.2-6,10.5-3.4,1.9-6.1.4-6.1-3.5.2-4.3,2.5-8.2,6.1-10.5Z" fill="#fff" isolation="isolate" opacity=".3" stroke-width="0"/></g></g><g id="freepik--Boxes--inject-142"><g id="freepik--Box--inject-142"><g opacity=".2"><path d="m233.1,134.5l111.2-64.2c.7-.4,1.3,0,1.3.8v34.6c0,.9-.5,1.8-1.3,2.2l-111.2,64.2c-.7.4-1.3,0-1.3-.8v-34.6c0-.9.5-1.7,1.3-2.2Z" stroke-width="0"/></g><g id="freepik--speech-bubble--inject-142"><path d="m241.5,141.5c0-.1.1-.2.2-.4h0c0,.1-.1.2-.2.4Z" fill="#ebebeb" stroke-width="0"/><path d="m353.6,77.3c0-.3-.4-.6-.7-.6-.2,0-.5,0-.6.2l-109.5,63.3c-.4.3-.8.6-1,1.1l-5.4-3.1c.2-.4.6-.8,1-1l109.5-63.3c.9-.5,2-.5,2.9,0l2.4,1.4c.7.5,1.2,1.2,1.4,2Z" fill="#37474f" isolation="isolate" opacity=".5" stroke-width="0"/><g opacity=".9"><path d="m242.7,177.6c-.9.4-2,.4-2.9,0l-2.5-1.5c-.9-.5-1.4-1.5-1.5-2.5v-34c0-.5.2-1,.5-1.5l5.3,3.1c-.3.4-.4.9-.4,1.4v34.1c0,.8.6,1.3,1.5.8Z" fill="#263238" stroke-width="0"/></g><g opacity=".9"><path d="m352.8,76.7c-.2,0-.5,0-.6.2l-109.5,63.3c-.9.6-1.4,1.5-1.5,2.5v34.1c0,.7.3,1,.8,1,.2,0,.5,0,.7-.2l109.5-63.2c.9-.6,1.4-1.5,1.5-2.5v-34.1c0-.7-.3-1-.8-1h0Z" fill="#37474f" stroke-width="0"/><path d="m352.8,77.3c.1,0,.1.3.1.4v34.1c0,.8-.5,1.5-1.1,2l-109.5,63.2c0,0-.2.1-.3.1-.1,0-.2-.3-.2-.4v-34.1c0-.8.5-1.5,1.1-2l109.5-63.2c0,0,.2-.1.3-.1m0-.7c-.2,0-.5,0-.6.2l-109.5,63.3c-.9.6-1.4,1.5-1.5,2.5v34.1c0,.7.3,1,.8,1,.2,0,.5,0,.7-.2l109.5-63.2c.9-.6,1.4-1.5,1.5-2.5v-34.1c0-.7-.3-1-.8-1h0Z" fill="#455a64" stroke-width="0"/></g></g><ellipse cx="257.3" cy="150.4" rx="9.8" ry="5.5" transform="translate(18.1 328.3) rotate(-66.9)" fill="#dd6d1f" stroke-width="0"/><ellipse cx="257.3" cy="150.4" rx="9.8" ry="5.5" transform="translate(18.1 328.3) rotate(-66.9)" fill="#fff" isolation="isolate" opacity=".7" stroke-width="0"/><ellipse cx="277.4" cy="138.9" rx="9.8" ry="5.5" transform="translate(41 339.7) rotate(-66.9)" fill="#dd6d1f" stroke-width="0"/><ellipse cx="277.4" cy="138.9" rx="9.8" ry="5.5" transform="translate(41 339.7) rotate(-66.9)" fill="#fff" isolation="isolate" opacity=".4" stroke-width="0"/><path d="m303.8,123.6c0,4.7-2.9,10.1-6.4,12.2s-6.4-.1-6.4-4.8,2.9-10.1,6.4-12.2,6.4.1,6.4,4.8Z" fill="#dd6d1f" stroke-width="0"/><path d="m303.8,123.6c0,4.7-2.9,10.1-6.4,12.2s-6.4-.1-6.4-4.8,2.9-10.1,6.4-12.2,6.4.1,6.4,4.8Z" fill="#fff" isolation="isolate" opacity=".2" stroke-width="0"/><ellipse cx="317.5" cy="115.7" rx="9.8" ry="5.5" transform="translate(86.7 362.5) rotate(-66.9)" fill="#dd6d1f" stroke-width="0"/><path d="m343.9,100.4c0,4.7-2.9,10.1-6.4,12.2s-6.4-.1-6.4-4.8,2.9-10.1,6.4-12.2,6.4.1,6.4,4.8Z" fill="#dd6d1f" stroke-width="0"/><path d="m343.9,100.4c0,4.7-2.9,10.1-6.4,12.2s-6.4-.1-6.4-4.8,2.9-10.1,6.4-12.2,6.4.1,6.4,4.8Z" isolation="isolate" opacity=".2" stroke-width="0"/></g><g id="freepik--box--inject-142"><g opacity=".2"><path d="m233.1,277l111.2-64.2c.7-.4,1.3,0,1.3.8v34.6c0,.9-.5,1.8-1.3,2.2l-111.2,64.2c-.7.4-1.3,0-1.3-.8v-34.6c0-.9.5-1.8,1.3-2.2Z" stroke-width="0"/></g><g id="freepik--speech-bubble--inject-142-2"><path d="m241.5,284.1c0-.1.1-.2.2-.4h0c0,.1-.1.2-.2.4Z" fill="#ebebeb" stroke-width="0"/><path d="m353.6,219.8c0-.3-.4-.6-.7-.6-.2,0-.5,0-.6.2l-109.5,63.2c-.4.3-.8.6-1,1.1l-5.4-3.1c.3-.4.6-.7,1-1l109.5-63.2c.9-.5,2-.5,2.9,0l2.4,1.4c.7.4,1.2,1.2,1.4,2Z" fill="#37474f" isolation="isolate" opacity=".5" stroke-width="0"/><g opacity=".9"><path d="m242.7,320.1c-.9.4-2,.4-2.9,0l-2.5-1.4c-.9-.5-1.4-1.5-1.5-2.5v-34.1c0-.5.2-1,.5-1.5l5.3,3.1c-.2.4-.3.9-.3,1.4v34.1c0,.9.6,1.4,1.4.9Z" fill="#263238" stroke-width="0"/></g><g opacity=".9"><path d="m352.8,219.2c-.2,0-.5,0-.6.2l-109.5,63.2c-.8.6-1.4,1.5-1.4,2.5v34.1c0,.7.3,1,.8,1,.2,0,.5,0,.6-.2l109.5-63.2c.9-.6,1.4-1.5,1.5-2.5v-34.1c0-.7-.3-1-.8-1h0Z" fill="#37474f" stroke-width="0"/><path d="m352.8,219.9c.1,0,.1.3.1.4v34.1c0,.8-.5,1.5-1.1,2l-109.5,63.2c0,0-.2.1-.3.1-.1,0-.2-.3-.2-.4v-34.2c0-.8.5-1.5,1.1-2l109.5-63.2c0,0,.2-.1.3-.1m0-.6c-.2,0-.5,0-.6.2l-109.5,63.3c-.8.6-1.4,1.5-1.4,2.5v34.1c0,.7.3,1,.8,1,.2,0,.5,0,.6-.2l109.5-63.2c.9-.6,1.4-1.5,1.5-2.5v-34.1c0-.7-.3-1-.8-1h0Z" fill="#455a64" stroke-width="0"/></g></g><path d="m287.2,284.8l1.5-1.2,3.9-19.9,1.5-.9,3.9,15.5,1.3-.5v1.4l-5.4,3.1v-1.3l1.6-1.3-.9-3.8-4.1,2.4-.9,4.7,1.6-.6v1.4l-4.2,2.4v-1.4Zm3.8-8.2l3.4-2-1.7-7-1.7,9Z" fill="#f0f0f0" stroke-width="0"/><path d="m305.4,273.8c-.9,2-1.5,3.1-2.7,3.8-1.4.8-2.5.2-2.5-2.2s.7-3.6,3.4-6.5c.5-.5,1.1-1.2,1.8-1.9v-.8c0-2.7-.4-3.2-1.7-2.5-.3.2-.5.4-.8.6l-.2,1.7c-.1,1.5-.6,2.4-1.2,2.7s-1,0-1.1-.7c.3-2.6,1.8-4.8,4-6.1,2.2-1.2,3.1-.3,3.1,3.4v6.3c0,.9.2,1.2.5,1,.3-.3.5-.6.6-1l.4.3c-.2,1.2-.9,2.3-1.9,2.9-1,.5-1.7.1-1.9-1.1Zm-1.7,1.1c.5-.3.8-.8,1.6-2.1v-4.6c-.5.6-1,1.1-1.3,1.5-1,1-1.6,2.4-1.6,3.9,0,1.5.6,1.8,1.3,1.4h0Z" fill="#f0f0f0" stroke-width="0"/><path d="m256,284.7c.2-.1.3-.1.4,0,.1.2.2.4.2.6l4.4,14.9c0,0,0,.1,0,.2,0,.2,0,.4-.1.6,0,.2-.2.3-.3.4l-1.3.8c-.2.1-.4.2-.5,0,0,0-.2-.2-.2-.3l-.8-2.6-5.7,3.3-.8,3.5c0,.2-.1.4-.2.6-.1.2-.3.4-.5.5l-1.3.8c0,0-.2,0-.3,0-.1-.1-.2-.3-.1-.4,0,0,0-.1,0-.2l4.4-20c0-.3.1-.6.2-.8,0-.2.2-.4.4-.5l2-1.1Zm1,11.5l-2-6.7-2,9,4-2.3Z" fill="#f0f0f0" stroke-width="0"/><path d="m262.6,289.4c0-.5.2-1,.3-1.4.2-.6.4-1.1.7-1.7.3-.6.7-1.1,1.2-1.6.5-.5,1-.9,1.6-1.3.5-.3,1.1-.5,1.6-.6.5,0,.9,0,1.3.4.4.4.7.8.8,1.3.2.8.3,1.5.3,2.3v8.1c0,.2,0,.4-.1.6,0,.2-.2.3-.3.4l-1.4.8c0,0-.2,0-.3,0-.1-.1-.2-.3-.1-.4v-.9c-.3.7-.6,1.4-1.1,2-.5.7-1.1,1.2-1.8,1.6-.4.3-.9.4-1.4.5-.4,0-.7,0-1-.3-.3-.3-.5-.6-.6-1-.2-.5-.2-1.1-.2-1.6,0-1.2.3-2.4.9-3.5.6-1.1,1.4-2,2.3-2.8l2.9-2.5c0-.7-.2-1.2-.5-1.3-.4-.1-.9,0-1.2.2-.3.2-.5.4-.7.6-.2.3-.3.5-.5.8,0,.2-.2.3-.3.5,0,0-.2.2-.3.2l-1.7,1c0,0-.2,0-.3,0-.1-.1-.1-.3-.1-.5Zm3,6c.4-.2.8-.5,1.1-.9.3-.4.6-.7.8-1.2.2-.4.4-.8.5-1.3.1-.4.2-.8.2-1.2v-.3l-2.4,2.1c-.4.3-.8.7-1.1,1.2-.2.4-.3.8-.3,1.2,0,.4.1.6.4.6.3,0,.6,0,.9-.2h0Z" fill="#f0f0f0" stroke-width="0"/><path d="m335.9,255.2c.2.5.3,1,.3,1.5,0,.6-.3,1.2-.8,1.5h-.1c-.6.4-.8-.3-.9-.9l-.5-2.3-.4-1.6c-.9.6-1.9,1.1-2.8,1.8l-1.8,1.2-.4.3c-.3,1.4-.7,2.9-1,4.4-.2.9-.3,2.1-1,2.5s-.9-.1-.9-.7c0-.3,0-.7.2-1l1-4.4c-.1-.2-.2-.5-.2-.8,0-.7.3-1.3.8-1.8.4-1.5.7-3,1.1-4.6.6-2.4,1.3-5,1.8-7.3v-.7c.2-.6.5-1.2.9-1.5,0,0,.2-.1.3-.2s.4-.1.5,0,.2.2.3.6c.3,1.5.7,3,1,4.5.7,2.8,1.5,5.6,2.2,8.4l.4,1.1Zm-2.9-4l-.2-.7-1-4-.4-1.4v.5c-.1,0-1.6,5.8-1.6,5.8-.2.8-.4,1.5-.5,2.2,1.3-.8,2.5-1.6,3.7-2.5h0Z" fill="#f0f0f0" stroke-width="0"/><path d="m345.9,250.6c0,.8-.3,1.5-.9,2-.4.2-.7-.2-.9-.7-.7,1.2-1.7,2.3-2.9,3-2.1,1.2-4.2,0-4.2-4,0-1.6.3-3.1.9-4.6.7-2.2,2.1-4,3.9-5.3.6-.4,1.4-.6,2.1-.5,0-.4.2-.8.5-1.2.1-.2.3-.4.6-.5.6-.3.6.5.6.9s0,.6,0,.8c-.1,1.2-.2,4.4-.2,5.2s0,3.1,0,3.8.4.6.4,1.1Zm-2.1-1.6c0-.1,0-.3.1-.5v-4.7l-.2-.2c-.6-.4-1.4-.4-2,0-1.6.9-3.1,3.6-3.1,6.5s.8,3.4,2.6,2.4c1.3-.8,2.2-2.1,2.6-3.6h0Z" fill="#f0f0f0" stroke-width="0"/><path d="m278.8,294c-.3,0-.5-.2-.5-.5v-26.2c0-.3.2-.5.5-.5s.5.2.5.5v26.2c0,.3-.2.5-.5.5Z" fill="#f0f0f0" stroke-width="0"/><path d="m317.6,271.6c-.3,0-.5-.2-.5-.5v-26.2c0-.3.2-.5.5-.5s.5.2.5.5v26.2c0,.3-.2.5-.5.5Z" fill="#f0f0f0" stroke-width="0"/></g><g id="freepik--box--inject-142-2"><g opacity=".2"><path d="m256.8,183.6l116.5-67.2c.7-.4,1.3,0,1.3.8v51.6c0,.9-.5,1.8-1.3,2.2l-116.5,67.2c-.7.4-1.3,0-1.3-.8v-51.6c0-.9.5-1.8,1.3-2.2Z" stroke-width="0"/></g><g id="freepik--speech-bubble--inject-142-3"><path d="m265.1,190.6c0-.1.1-.2.2-.4h0c0,.1-.1.2-.2.4Z" fill="#ebebeb" stroke-width="0"/><path d="m382.6,123.3c0-.3-.4-.6-.7-.6-.2,0-.5,0-.6.2l-114.8,66.3c-.4.3-.8.6-1,1.1l-5.3-3.1c.2-.4.6-.8,1-1l114.8-66.3c.9-.5,2-.5,2.9,0l2.5,1.4c.7.5,1.2,1.2,1.4,2.1Z" fill="#37474f" isolation="isolate" opacity=".5" stroke-width="0"/><g opacity=".9"><path d="m266.3,243.7c-.9.4-2,.4-2.9,0l-2.4-1.5c-.9-.5-1.4-1.5-1.5-2.5v-51.1c0-.5.2-1,.5-1.5l5.4,3.1c-.3.4-.4.9-.4,1.4v51.1c0,.8.6,1.3,1.5.8Z" fill="#263238" stroke-width="0"/></g><g opacity=".9"><path d="m381.8,122.7c-.2,0-.5,0-.6.2l-114.8,66.2c-.9.6-1.4,1.5-1.5,2.5v51.2c0,.7.3,1,.8,1,.2,0,.5,0,.6-.2l114.8-66.3c.9-.6,1.4-1.5,1.5-2.5v-51.1c0-.7-.3-1-.8-1h0Z" fill="#37474f" stroke-width="0"/><path d="m381.8,123.3c.1,0,.1.3.1.4v51.1c0,.8-.5,1.5-1.1,2l-114.8,66.3c0,0-.2.1-.3.1-.1,0-.1-.3-.1-.4v-51.2c0-.8.5-1.5,1.1-2l114.8-66.3c0,0,.2-.1.3-.1m0-.6c-.2,0-.5,0-.6.2l-114.8,66.3c-.9.6-1.4,1.5-1.5,2.5v51.2c0,.7.3,1,.8,1,.2,0,.5,0,.6-.2l114.8-66.3c.9-.6,1.4-1.5,1.5-2.5v-51.1c0-.7-.3-1-.8-1h0Z" fill="#455a64" stroke-width="0"/></g></g><path d="m273,229v-15.8c0-.9.5-1.7,1.3-2.2l17.7-10.2c.7-.4,1.3,0,1.3.8v15.8c0,.9-.5,1.7-1.3,2.2l-17.8,10.2c-.7.4-1.3,0-1.3-.7Z" fill="#fafafa" stroke-width="0"/><path d="m274,213.2c0-.6.3-1.1.8-1.4l17.5-10.1v15.5c0,.6-.3,1.1-.8,1.4l-17.5,10.1v-15.5Z" fill="#dd6d1f" stroke-width="0"/><path d="m274,213.2c0-.6.3-1.1.8-1.4l17.5-10.1v15.5c0,.6-.3,1.1-.8,1.4l-17.5,10.1v-15.5Z" fill="#fff" isolation="isolate" opacity=".7" stroke-width="0"/><path d="m284.8,216.6l1,1.8-6.1-4.9-5.7,11.2v4.1l17.5-10.1c.5-.3.7-.8.8-1.4v-2l-4.6-2.9-2.9,4.3Z" fill="#dd6d1f" stroke-width="0"/><path d="m285.2,208.5c.8-.4,1.4,0,1.4.8,0,1-.6,1.9-1.4,2.5-.8.4-1.4,0-1.4-.8,0-1,.6-1.9,1.4-2.5Z" fill="#dd6d1f" stroke-width="0"/><path d="m301.4,212v-22.1c0-1.3.7-2.5,1.8-3.1l24.8-14.3c1-.6,1.8-.1,1.8,1v22.1c0,1.3-.7,2.5-1.8,3.1l-24.8,14.4c-1,.6-1.8.1-1.8-1.1Z" fill="#fafafa" stroke-width="0"/><path d="m302.8,189.9c0-.8.5-1.5,1.1-1.9l24.5-14.1v21.7c0,.8-.5,1.5-1.1,1.9l-24.5,14.2v-21.8Z" fill="#dd6d1f" stroke-width="0"/><path d="m302.8,189.9c0-.8.5-1.5,1.1-1.9l24.5-14.1v21.7c0,.8-.5,1.5-1.1,1.9l-24.5,14.2v-21.8Z" fill="#fff" isolation="isolate" opacity=".7" stroke-width="0"/><path d="m318,194.7l1.3,2.5-8.6-6.8-8,15.6v5.7l24.5-14.2c.6-.4,1.1-1.2,1.1-1.9v-2.8l-6.5-4-3.9,5.9Z" fill="#dd6d1f" stroke-width="0"/><path d="m318.5,183.4c1.1-.6,2-.1,2,1.1,0,1.4-.8,2.7-2,3.4-1.1.6-2,.1-2-1.1,0-1.4.8-2.7,2-3.4Z" fill="#dd6d1f" stroke-width="0"/><path d="m338,190.2v-28.4c0-1.6,1-3.1,2.3-4.1l31.9-18.4c1.3-.8,2.3-.1,2.3,1.4v28.4c0,1.6-1,3.1-2.3,4.1l-31.9,18.4c-1.3.8-2.4.1-2.4-1.3Z" fill="#fafafa" stroke-width="0"/><path d="m339.8,161.9c0-1,.6-1.9,1.4-2.5l31.5-18.2v27.9c0,1-.6,1.9-1.4,2.5l-31.5,18.2v-27.9Z" fill="#dd6d1f" stroke-width="0"/><path d="m339.8,161.9c0-1,.6-1.9,1.4-2.5l31.5-18.2v27.9c0,1-.6,1.9-1.4,2.5l-31.5,18.2v-27.9Z" fill="#fff" isolation="isolate" opacity=".7" stroke-width="0"/><path d="m359.3,168l1.7,3.2-11-8.8-10.2,20.1v7.3l31.5-18.2c.8-.6,1.4-1.5,1.4-2.5v-3.6l-8.3-5.2-5.1,7.7Z" fill="#dd6d1f" stroke-width="0"/><path d="m359.9,153.5c1.4-.8,2.6-.2,2.6,1.5,0,1.8-1,3.5-2.6,4.4-1.4.8-2.6.1-2.6-1.5,0-1.8,1-3.4,2.6-4.4Z" fill="#dd6d1f" stroke-width="0"/></g></g><g id="freepik--Character--inject-142"><g id="freepik--character--inject-142"><path d="m348.2,405.2c1.5,2.7,4.8,1.8,6.4,4.6,1.1,2,1.5,4.3.9,6.5-.4,1.1-.6,2.2-.6,3.4.1,1.4.3,2.8.4,4.2.2,2.2.6,4.4,1.2,6.6,1.2,5.3-1,10.9-4.3,15.1-1.6,2.1-3.5,3.9-5.8,5.2-1.6,1-4.1,1.8-5.8.6s-2.2-3.4-2.3-5.4c0-2.4.9-4.6,1.3-6.9s1.1-5.5.3-7.6c-.7-1.8-1.2-3.7-1.7-5.5-1-3.4-1.9-6.8-2.8-10.3,0-.4-.2-.7-.3-1-1.1-3-2.4-6-3.9-8.8l15.4-4.5c.4,1.4.9,2.7,1.6,3.9Z" fill="#c8856a" stroke-width="0"/><path d="m355.6,409.8c1.2.6,2.2,1.5,2.8,2.7,0,2.3-.3,4.6-1.1,6.8-1.1,3-1.5,4.3-.6,6.6,1.3,3,1.8,6.2,1.7,9.5-.3,4.3-2.2,9.8-8.4,14.5-5.1,3.9-9.6,3.7-11.3,3.4s-2.1-2.7-2.1-2.7l19.1-40.9Z" fill="#263238" stroke-width="0"/><path d="m347.3,403.4c.5,1.3.9,2.6,1.1,3.9.4,3.4-3.1,7.8-4.1,9-.7-.7-1.7-1-2.7-.9-2.2,0-6.1.4-6.5,1.4s3,8,3.5,13.1c.5,4.1-.3,8.3-2.1,12.1-1.3,2.7-3.5,6.3.2,9.6,2.2.6,11.3-.6,16.6-8.4,4.7-6.9,2.5-13.9,1.3-17.5s-.2-5.8.8-10.2c.4-2,.9-3.4,0-5.6-1.8-2.2-4.5-3.2-6-4.5-1.2-1.1-1.4-2.3-2.3-1.8Z" fill="#37474f" stroke-width="0"/><path d="m353.6,443.2c-.7-2.1-4-4.9-8.3-5.7-5.2-1-7,0-8.1,1.8-1,1.5-6.1,9.8-.4,12.4,1.8,1.1,10.7,1,16.9-8.5Z" fill="#fafafa" stroke-width="0"/><path d="m344.4,416.3c-.3.3-.6.7-.6,1.1,0,.4,0,.9.2,1.3.2.8.4,1.6.6,2.5.4,1.6.8,3.3,1.2,4.9.3,1.7.6,3.3.8,5,.2,1.7.1,3.3,0,5,.5-1.6.7-3.4.7-5.1,0-1.7-.2-3.4-.6-5.1-.3-1.7-.8-3.4-1.3-5-.3-.8-.6-1.6-.9-2.4-.2-.4-.3-.8-.4-1.2,0-.4.2-.8.4-1.1Z" fill="#263238" stroke-width="0"/><path d="m347.4,434.9c-2-.8-7.6-1-8.8.7v.6c-.3-.6-.3-1.2-.1-1.8.4-1.1,4.1-2.3,8.9-.8.5.5.6,1.5,0,1.3Z" fill="#fafafa" stroke-width="0"/><path d="m347.2,430.5c-2-1-7.1-1.3-8.3.4v.5c-.3-.5-.4-1.1-.1-1.6.4-1.1,3.9-2.3,8.6-.5.5.5.5,1.5-.1,1.3Z" fill="#fafafa" stroke-width="0"/><path d="m346.5,426.1c-2.1-.8-7.2-.9-8.3.9v.6c-.2-.4-.4-1-.3-1.6.2-1.2,3.9-2.6,8.6-1.2.5.4.6,1.4,0,1.3Z" fill="#fafafa" stroke-width="0"/><path d="m345.8,422.3c-2-.8-7.6-1-8.6.8v.6c-.2-.5-.4-1.1-.3-1.6.2-1.2,4.2-2.4,9-1.1.5.5.6,1.5,0,1.3Z" fill="#fafafa" stroke-width="0"/><path d="m367.7,348.1c-1.7,2.4-4.7,1.2-13.3,0-16.8-2.4-24.1-3.6-31.7-2.2-4.3.8-8.2,1.9-11,6.1-2,3.1-3.5,8.1-1.7,15.2,4,15.6,12.2,28.1,18.5,41.2,0,0,11.7-6.1,19.9-5.8l-5.3-20.7,27.3,8-2.7-41.8Z" fill="#455a64" stroke-width="0"/><path d="m328.8,397.6c-2.8-1.6-12.5-16.7-17.4-26.1,4.3,13.7,11.5,25.1,17.2,37,0,0,11.7-6.1,19.9-5.8l-.8-3.2c-5.1,0-16.3-.4-18.9-1.9Z" fill="#37474f" stroke-width="0"/><path d="m370.5,390l-2.2-4.4s-8-2.2-15.3-5.1c-6.2-2.5-8.8-7.8-10.5-11.9s-4.4-7.6-7.4-8.8c3.7,3.2,5.7,13.9,8.1,22.2l27.3,8Z" fill="#37474f" stroke-width="0"/><path d="m321.1,400.6c-2.9-1.1-2.4-4.5-5.5-5.7-2.1-.8-4.4-.8-6.5,0-1,.5-2.1.9-3.2,1.1-1.4,0-2.8,0-4.2.2-2.2,0-4.5,0-6.7-.2-5.4-.5-10.6,2.6-14.3,6.4-1.9,1.9-3.3,4.1-4.3,6.5-.7,1.8-1.1,4.3.3,5.9s3.7,1.7,5.6,1.5c2.3-.2,4.5-1.5,6.6-2.3s5.3-1.9,7.5-1.3c1.9.4,3.8.7,5.7.9,3.5.5,7,.9,10.5,1.3h1.1c3.2.8,6.2,1.7,9.3,2.8l2.2-15.9c-1.4-.2-2.8-.5-4.1-1Z" fill="#c8856a" stroke-width="0"/><path d="m315.6,393.9c-.7-1.1-1.8-1.9-3.1-2.3-2.3.3-4.6,1-6.6,2.1-2.9,1.5-4,2-6.5,1.6-3.1-.8-6.4-.9-9.6-.3-4.2.9-9.4,3.5-13.2,10.4-3.1,5.6-2.3,10-1.8,11.7s2.9,1.7,2.9,1.7l37.8-24.8Z" fill="#263238" stroke-width="0"/><path d="m323.1,401.2c-1.3-.3-2.7-.5-4-.5-3.4,0-7.3,4.2-8.3,5.3.8.6,1.3,1.5,1.3,2.5.3,2.2.5,6.1-.4,6.6s-8.3-1.8-13.5-1.6c-4.2.1-8.2,1.4-11.7,3.8-2.5,1.7-5.8,4.4-9.5,1.1-.9-2.1-1-11.3,6-17.6,6.1-5.6,13.4-4.5,17.2-3.8s5.8-.6,10-2.3c1.9-.7,3.2-1.4,5.6-.7,2.5,1.5,3.8,4,5.3,5.3,1.2,1.1,2.4,1.1,2.1,2Z" fill="#37474f" stroke-width="0"/><path d="m282.8,400.7c2.1.4,5.4,3.3,6.8,7.4,1.7,5,.9,6.9-.6,8.3-1.3,1.1-8.9,7.4-12.2,2.2-1.4-1.7-2.5-10.4,6.1-17.9Z" fill="#fafafa" stroke-width="0"/><path d="m310.7,406c-.2.4-.6.6-1,.8-.4,0-.9,0-1.3,0-.9-.1-1.7-.2-2.5-.3-1.7-.2-3.4-.4-5-.5-1.7,0-3.3,0-5,0-1.7,0-3.4.4-5,.8,1.6-.7,3.2-1.2,4.9-1.4,1.7-.2,3.4-.3,5.1-.2,1.7,0,3.4.3,5.1.6.8.1,1.7.3,2.5.5.4.1.8.2,1.2.2.4,0,.7-.3,1-.6Z" fill="#263238" stroke-width="0"/><path d="m291.9,405.6c1.1,1.9,2.1,7.4.6,8.8l-.6.2c.6.1,1.2,0,1.8-.3,1-.5,1.7-4.4-.5-8.9-.5-.4-1.6-.4-1.3.2Z" fill="#fafafa" stroke-width="0"/><path d="m296.3,405.2c1.2,1.9,2.3,6.9.8,8.3h-.5c.5.3,1.2.2,1.6-.1,1-.6,1.7-4.2-.7-8.6-.6-.4-1.6-.2-1.3.3Z" fill="#fafafa" stroke-width="0"/><path d="m300.7,405.2c1.1,1.9,1.9,7,.3,8.4h-.6c.5.2,1.1.3,1.6.2,1.1-.4,2-4.2,0-8.7-.5-.4-1.6-.4-1.3.2Z" fill="#fafafa" stroke-width="0"/><path d="m304.5,405.4c1,1.9,2,7.4.4,8.7h-.6c.5.2,1.1.3,1.7.1,1.1-.4,1.8-4.5-.2-9-.6-.5-1.6-.4-1.3.2Z" fill="#fafafa" stroke-width="0"/><path d="m370.5,390l-10.9,11.7c-3.8-1.2-7.8-1.7-11.8-1.6-6.3.2-20,1.3-24,.8-4.8,2.2-8.7,9.5-4.9,15.7,8.9,2.8,23.9,7.4,33.3,9.4,11.3,2.4,18.8,3.5,28.1-2.1s27.3-19.5,32.7-25.9,7.1-18.1,7.5-26c-13.6,2.3-44.6-3.3-50.3-22.9-8.1,9.1-3.7,25.5.4,41.1Z" fill="#455a64" stroke-width="0"/><path d="m373.7,386s-8.5-4.9-8.4-14.1c-2.4,9,2.1,13.9,5.1,18.1l3.3-4Z" fill="#37474f" stroke-width="0"/><path d="m418.8,372.1h-.1c-.5,0-1.1.1-1.7.1h0c-.8,8.9-1.9,17-10.5,27.1-11.8,13.9-27.5,24.9-28.6,25.7.8-.4,1.6-.8,2.4-1.3,9.3-5.7,27.3-19.5,32.7-25.9.7-.8,1.3-1.7,1.9-2.6,1.2-2,2.1-4.1,2.8-6.3,1.7-5.5,2.6-11.2,2.8-17-.5,0-1.1.1-1.6.2Z" fill="#37474f" stroke-width="0"/><g id="freepik--Top--inject-142"><g id="freepik--Arm--inject-142"><path d="m306,307.2c6.4,1.4,29.2,2.1,29.2,2.1,0,0,9.4-5,14.7-8,18.3-10.6,25.1-15,31.4-12.9l-10.1,25.2s-15.8,7-27.5,11.4c-6.1,2.3-8.1,2.5-12.2,1.4-5-1.3-6.2-1.7-13.5-3.4l-13.3-3.1s-5.2-14.2,1.2-12.7Z" fill="#c8856a" stroke-width="0"/><path d="m381.3,287.8c-4.5-1-7.4-.8-17.7,5.1s-20.7,12-20.7,12c0,0,2.7,12,9,17.4l20.5-8.4,9.4-25.3-.5-.9Z" fill="#dd6d1f" stroke-width="0"/><path d="m309.7,307.9c-6-1.2-8.3-1.2-9.9-4.9s-2.3-4.4-3-5.1c-2.2-1.5-4.5-2.9-6.8-4.2-1.4-.7-2.6-.6-5.1-1.2-1.2-.3-2.6-.7-3.9-1-1-.4-2-.7-3.1-.9-1.4,0-1.1,2-.1,2.9,1.1.9,2.4,1.7,3.8,2.1,1,.4,3.4,1.3,3.4,1.3-.4.8-1.3,2.3-1.3,3.3s.2,1.4,2,3.1c-.4.5-.6,1.1-.6,1.7.3.8.8,1.5,1.4,2.1-.3.4-.5.9-.5,1.4,0,.8,1.4,2.3,2.7,3.5,1.4,1.5,2.6,3.9,3.9,5.1s3.1,1.6,6.2,1.8c3.7.5,7.4,1.3,11,2.2,0,0,5.6-12-.2-13.2Z" fill="#c8856a" stroke-width="0"/><path d="m294.8,299.9c-1.6-.3-3.1-1.2-4.2-2.4-1-1.3-2.1-2.8-2.6-2.6-.8.3-1.7,2.6-.1,4.8s3.8,4.3,4.1,5c.4,1.3.6,2.6.6,3.9.3,2.9,2.4,5.3,5.2,6-1.7,0-3.2-.7-4.4-1.9-2.2-2.1-1.9-5.3-2.1-6.7s-.3-1.6-2-3.4-3.5-3.7-2.8-6.5,1.9-2.1,2.5-1.6,3.1,4.8,5.9,5.4Z" fill="#af6152" stroke-width="0"/><path d="m285.1,297.1l1.6.4-.3.6c-.9-.1-1.8.3-2.3,1,.2-.5.7-1.4,1-2Z" fill="#af6152" stroke-width="0"/><path d="m285.8,303.5c.6.6,2.4,2.3,2.8,2.6s1.1-.1,1.2-1.2c.2-.8,0-1.7-.5-2.4.6.7.9,1.5.9,2.4-.1,1.3-.8,1.8-1.4,1.9s-1.9-2.1-3.1-3.3Z" fill="#af6152" stroke-width="0"/><path d="m286.5,307.2c.4.4,1.1,1,2.3,2.1.7.7,1.1,1.2,1.6.9.7-.8.8-1.9.3-2.8-.3-.6-.7-1.1-1.2-1.5l.3-.4c.7.7,1.3,1.6,1.6,2.6.3,1.3-.4,2.8-1.1,2.7s-1-.5-2-1.5-1.9-2.1-1.9-2.1Z" fill="#af6152" stroke-width="0"/><path d="m290.1,310.5c.2.3.4,1.2-.2,1.5-.4.2-.8.2-1.1,0,.3.4.9.5,1.3.3.7-.4.7-1.2.5-1.9h-.6Z" fill="#af6152" stroke-width="0"/></g><g id="freepik--top--inject-142"><path d="m397.3,290.7c7.7,2.1,11.7,3.7,20.9,9.5,2.2,2.1,6.4,7.5,6.4,17.1.1,14.4,1.1,18.8-.6,35.8-.8,7.8-2.1,15.5-3.8,23.1-26.5,7-55.2-14.3-56.8-26.6,2.6-3.7,2.4-9.5,3.8-35.7.8-15.4,5.2-26.6,14.1-26.1,2.5.6,8.3.8,16,2.9Z" fill="#263238" stroke-width="0"/><g id="freepik--mobile--inject-142-3"><path d="m340.9,302.7c.1,0,.3,0,.5,0l15.4,6.8c.5.2.9.7,1.1,1.1l11.2,30.4c0,.2,0,.4,0,.5l-1.9,1.4c0,0-.2,0-.5,0l-15.4-6.8c-.5-.2-.9-.7-1.1-1.1l-11.2-30.4c0-.2,0-.4,0-.5l1.8-1.4Z" fill="#455a64" stroke-width="0"/><path d="m355.5,311.3c.2.2.3.4.5.7l11.2,30.4c0,.2,0,.4,0,.5l1.8-1.3c.1,0,.1-.2,0-.5l-11.2-30.4c-.1-.3-.3-.5-.5-.7l-1.8,1.3Z" fill="#37474f" stroke-width="0"/><path d="m366.7,342.8l-15.4-6.8c-.5-.2-.9-.7-1.1-1.1l-11.2-30.4c-.2-.5,0-.6.5-.5l15.4,6.8c.5.2.9.7,1.1,1.1l11.2,30.4c.2.5,0,.6-.5.5Z" fill="#263238" stroke-width="0"/><path d="m355.9,317l-1.1-3.1c-.2-.6-.7-1-1.2-1.3l-.6-.3c-.8-.4-1.2,0-.9.8l1.1,3.1c.2.6.7,1,1.2,1.3l.6.3c.8.3,1.2,0,.9-.8Z" fill="#37474f" stroke-width="0"/><path d="m355.3,316.6c-.2-.5-.7-1-1.2-1.2-.5-.2-.7,0-.6.4.2.5.7,1,1.2,1.2.5.2.8,0,.6-.4Z" fill="#455a64" stroke-width="0"/><path d="m354.9,316.4c-.1-.3-.3-.5-.6-.6-.2-.1-.4,0-.3.2.1.3.3.5.6.6.2.1.4,0,.3-.2Z" fill="#fff" isolation="isolate" opacity=".2" stroke-width="0"/><path d="m354.4,314.3c-.2-.5-.7-.9-1.2-1.2-.5-.2-.7,0-.6.4.2.5.7,1,1.2,1.2.5.2.7,0,.6-.5Z" fill="#455a64" stroke-width="0"/><path d="m354,314.1c-.1-.3-.3-.5-.6-.6-.2-.1-.4,0-.3.2.1.3.3.5.6.6.2,0,.4,0,.3-.2Z" fill="#fff" isolation="isolate" opacity=".2" stroke-width="0"/><path d="m357.7,314.1l.2-.2c0,0,.2,0,.3,0h.3c0,.2.1.2.1.3l1,2.8c0,.2,0,.4-.1.5l-.2.2c0,0-.2,0-.3,0h-.3c0-.2-.1-.2-.1-.3l-1-2.8c0-.2,0-.4.1-.5Z" fill="#263238" stroke-width="0"/><path d="m358.8,317.6l-1-2.8c0-.2,0-.4.2-.5l.3-.2c.1,0,.3,0,.4,0,0,0,0,0,0,0l1,2.8c0,.2,0,.4-.1.5l-.2.2c0,.1-.3.1-.4,0,0,0,0,0,0-.2Z" fill="#455a64" stroke-width="0"/><path d="m359.4,318.7l.2-.2c0,0,.2,0,.2,0h.3c0,.2.1.2.1.3l1,2.8c0,.2,0,.4-.2.5l-.2.2c0,0-.2,0-.3,0h-.3c0-.2-.1-.2-.1-.3l-1-2.8c0-.2,0-.4.2-.5Z" fill="#263238" stroke-width="0"/><path d="m360.5,322.1l-1-2.8c0-.2,0-.4.2-.5l.2-.2c.1,0,.3,0,.4,0,0,0,0,0,0,0l1,2.8c0,.2,0,.4-.2.5l-.2.2c-.1,0-.3,0-.4,0,0,0,0,0,0,0Z" fill="#455a64" stroke-width="0"/></g><path d="m361.7,321.1l-.5-1.4c0-2.3,1.6-3.3,2.7-.7.9,2.1,4.4,5.5,5.2,8.1s.7,5.2,3.8,8.1c3.3,3.1,25.5,10.3,25.5,10.3l9.4-24.8s3.4-15.7,10.4-19.7c6.5,3.3,7.7,7.7,8.6,12.4,1.2,6-.1,12.9-4.9,24.9-4.6,11.5-7.8,18.8-10.4,22.8-3.2,5-6.9,6-16.4,2.3s-18.5-10.8-28.5-17.1c-4.8-3-8-4.6-11.6-7.9-1.4-1.2-2.6-2.6-3.6-4.2-.9-1.4-1.5-3-1.7-4.7,0-.3,0-.6-.1-.9-.1-.3-.2-.6-.4-.8-.3-.5-.6-1-.7-1.6,0-.6,0-1.2,0-1.8,0-.3,0-.6,0-.9,0-.3-.1-.6-.2-.9-.3-.7-.5-1.5-.5-2.2,0-.4.2-.8.6-1,0,0-.5-.9-.6-1.2-.2-.4-.3-.9-.4-1.4,0-.2,0-.4,0-.5,0,0,.2-.1.3-.2,1.7-.6,3,.6,4.1,1.7,2.8,2.9,4,5.3,7.1,7.9,4.3,3.6,5.2,1.4,5.2,1.4l-2.2-6Z" fill="#c8856a" stroke-width="0"/><path d="m398.4,345.6c2.4.8,4.6,2,6.7,3.5-1.4-2.3-3.5-4.1-6.1-5.1l-.6,1.6Z" fill="#af6152" stroke-width="0"/><path d="m348.3,319.6c.4.9.9,1.8,1.4,2.6s1,1.7,1.6,2.6c.3.4.5.9.8,1.3s.6.8.9,1.2c.6.8,1.3,1.6,2,2.3l-.9-1.2c-.3-.4-.6-.8-.9-1.2s-.6-.8-.8-1.2-.5-.9-.8-1.3c-.5-.9-1.1-1.7-1.6-2.5l-1.7-2.5Z" fill="#af6152" stroke-width="0"/><path d="m348.3,323.4c.2.8.5,1.5.8,2.2.3.7.7,1.4,1.1,2.1s.8,1.3,1.2,2c.4.6.9,1.3,1.4,1.9-.4-.7-.8-1.3-1.1-2l-1.1-2-1.1-2c-.3-.7-.7-1.4-1.1-2.1Z" fill="#af6152" stroke-width="0"/><path d="m418.2,300.3c3.6,2.1,8.6,6.1,9.4,15.7s-7.7,27.8-7.7,27.8c0,0-12.5-1.6-18.6-7.9,0,0,3.8-11.3,6.2-18.8s6.4-15.2,10.7-16.8Z" fill="#dd6d1f" stroke-width="0"/><path d="m375.3,263.2c-1.5-1-2.7-2.5-3.3-4.2-.7-1.9-1-3.9-.8-5.9,0-.7.3-1.4.5-2,.6-.7,1.4-1.1,2.3-1.1.5,0,1.1-.1,1.6-.2-1.1-1-1.9-2.2-2.5-3.5-.4-1-.4-2.1-.2-3.2,0-.3.2-.6.4-.8.5-.4,1.2-.5,1.9-.2,3.8,1,7.8,1.3,11.7,1,3.1-.2,4.7-.5,8.9-.9s11.9,1.6,13.2,9.7c5.7,1,6.4,10.2,4.8,14.1-3,7.1-6,11.9-7.5,17-.3-.2-19.4-11.4-23.8-14.5l-4.9-3.5c-.8-.6-1.6-1.1-2.3-1.7Z" fill="#263238" stroke-width="0"/><path d="m411.9,277.6c-3.4,2.5-5.6,0-5.6,0v16.4c-7,9.2-26.1,7.7-17.9-1.6v-3.1c-1.7,0-3.5,0-5.2-.2-1.1-.2-2.1-.6-3-1.1-2.1-1.3-3.5-3.3-4.1-5.6-1.1-4.1-1.6-8.3-1.6-12.5,0-5,.5-11.6,2.2-15,3-2.7,12-2.9,19.6-.8.1,1.9,0,3.5,1.5,5.6.8,1,1.8,1.7,2.9,2.3.2,3.7.4,4.7,1,6.3.4.9,1.1,2.3,3,1.7.9-.3,1.5-2.3,2.5-3.6,1.2-1.8,5.1-2.6,7,1.2,1.6,3.4.8,7.4-2,9.9Z" fill="#c8856a" stroke-width="0"/><path d="m388.4,289.4c3.8-.4,10.6-1.8,12.6-4.2s3.5-7.7,3.5-7.7c0,0-.8,6-2.2,8.7s-4.8,3.7-7.2,4.4c-2.2.5-4.4.9-6.6,1.1v-2.3Z" fill="#af6152" stroke-width="0"/><path d="m391,263.6l3.6,1.6c.4-1,0-2.2-1.1-2.7-1-.4-2.1,0-2.5,1,0,0,0,0,0,0Z" fill="#263238" stroke-width="0"/><path d="m380.4,263.4l-3.5,1.9c-.5-1-.1-2.2.9-2.8.9-.5,2.1-.1,2.6.8,0,0,0,0,0,.1Z" fill="#263238" stroke-width="0"/><path d="m392.2,276.7l-6.6,2.5c.8,1.8,2.8,2.8,4.7,2.1,1.8-.7,2.7-2.7,2-4.5,0,0,0,0,0-.1Z" fill="#af6152" stroke-width="0"/><path d="m392,278.1c-1.9,0-3.4,1.5-3.5,3.4.6,0,1.2,0,1.8-.2,1.3-.5,2.2-1.8,2.2-3.2-.2,0-.3,0-.5,0Z" fill="#f28f8f" stroke-width="0"/><polygon points="386.8 264 385.6 275.9 379.4 273.3 386.8 264" fill="#af6152" stroke-width="0"/><path d="m393.3,267.9c0,.9-.7,1.7-1.6,1.7-.9,0-1.7-.7-1.7-1.6,0-.9.7-1.7,1.6-1.7,0,0,0,0,0,0,.9,0,1.6.7,1.7,1.6,0,0,0,0,0,0Z" fill="#263238" stroke-width="0"/><path d="m381.2,267.6c0,.9-.7,1.6-1.6,1.6-.9,0-1.6-.7-1.6-1.6,0-.9.7-1.6,1.6-1.6.9,0,1.6.7,1.7,1.6Z" fill="#263238" stroke-width="0"/></g></g></g></g></g></svg>