<?xml version="1.0" encoding="UTF-8"?><svg id="Layer_2" xmlns="http://www.w3.org/2000/svg" width="378.9" height="361.5" viewBox="0 0 378.9 361.5"><g id="Layer_1-2"><g id="freepik--background-simple--inject-17"><path d="m229.7,322.3s77.9,3.6,127.1-84.4-8.7-168.9-98.2-186.4S124.5-31.7,44.7,18.6C-35.1,68.9,9.2,336.6,229.7,322.3Z" fill="#e56318" stroke-width="0"/><path d="m229.7,322.3s77.9,3.6,127.1-84.4-8.7-168.9-98.2-186.4S124.5-31.7,44.7,18.6C-35.1,68.9,9.2,336.6,229.7,322.3Z" fill="#ffefe9" isolation="isolate" opacity=".9" stroke-width="0"/></g><g id="freepik--Shadow--inject-17"><ellipse cx="191.3" cy="349.8" rx="187.6" ry="11.6" fill="#e56318" stroke-width="0"/><ellipse cx="191.3" cy="349.8" rx="187.6" ry="11.6" fill="#fff" isolation="isolate" opacity=".7" stroke-width="0"/></g><g id="freepik--Graphics--inject-17"><path d="m232.4,43.5l-.5,4.6,2.5.9c0,1.6.3,3.1.6,4.7l-2.1,1.6,1.8,4.3,2.6-.5c.8,1.3,1.8,2.6,2.9,3.7l-1.1,2.4,3.7,2.8,2-1.7c1.4.8,2.8,1.3,4.4,1.8l.3,2.6,4.6.6.9-2.5c1.6,0,3.1-.3,4.6-.6l1.6,2.1,4.3-1.8-.5-2.6c1.3-.8,2.6-1.8,3.7-2.9l2.4,1.1,2.8-3.7-1.7-2c.8-1.4,1.4-2.8,1.8-4.3l2.6-.3.5-4.6-2.5-.9c0-1.6-.2-3.1-.6-4.6l2.2-1.6-1.8-4.2-2.6.5c-.8-1.3-1.8-2.6-2.9-3.7l1.1-2.4-3.7-2.7-2,1.7c-1.4-.7-2.8-1.3-4.3-1.8l-.3-2.7-4.6-.5-.9,2.5c-1.6,0-3.1.3-4.6.7l-1.6-2.2-4.2,1.8.5,2.6c-1.3.8-2.6,1.8-3.7,2.8l-2.4-1.1-2.8,3.7,1.7,2c-.8,1.4-1.3,2.8-1.8,4.3l-2.7.3Zm10.6,3.7c.7-6.3,6.4-10.8,12.7-10,6.3.7,10.8,6.4,10,12.7-.7,6.3-6.4,10.8-12.7,10,0,0,0,0,0,0h0c-6.3-.8-10.7-6.5-10-12.7Z" fill="none" stroke="#263238" stroke-linejoin="round" stroke-width="1.6"/><path d="m112.9,156.2l-.5,4.1,2.2.8c0,1.4.2,2.8.6,4.2l-2,1.4,1.6,3.9,2.4-.4c.7,1.2,1.6,2.3,2.6,3.4l-1,2.2,3.4,2.5,1.8-1.6c1.2.7,2.6,1.2,3.9,1.6l.2,2.4,4.1.5.8-2.3c1.4,0,2.8-.2,4.2-.6l1.4,1.9,3.8-1.6-.4-2.4c1.2-.7,2.3-1.6,3.4-2.6l2.2,1,2.5-3.3-1.6-1.8c.7-1.2,1.2-2.6,1.6-3.9l2.4-.3.5-4.1-2.2-.8c0-1.4-.2-2.8-.6-4.2l2-1.4-1.6-3.9-2.4.4c-.7-1.2-1.6-2.3-2.6-3.3l1-2.2-3.4-2.5-1.8,1.6c-1.2-.7-2.6-1.2-3.9-1.6l-.2-2.4-4.1-.5-.8,2.3c-1.4,0-2.8.2-4.2.6l-1.4-1.9-3.9,1.6.4,2.4c-1.2.7-2.3,1.6-3.4,2.6l-2.2-1-2.5,3.4,1.6,1.8c-.7,1.2-1.2,2.6-1.6,3.9l-2.4.2Zm9.6,3.3c.7-5.7,5.8-9.8,11.5-9.1,5.7.7,9.8,5.8,9.1,11.5-.7,5.7-5.8,9.8-11.5,9.1h0c-5.7-.7-9.8-5.8-9.1-11.5Z" fill="#263238" stroke-width="0"/><path d="m324.4,258v-9.4l-5.2-1.2c-.4-3.2-1.3-6.3-2.4-9.3l4-3.7-4.7-8.2-5.2,1.6c-2-2.5-4.2-4.8-6.7-6.8l1.6-5.2-8.2-4.7-3.6,3.9c-3-1.2-6.1-2-9.2-2.5l-1.2-5.3h-9.4l-1.2,5.3c-3.2.4-6.3,1.3-9.3,2.4l-3.7-4-8.1,4.7,1.6,5.2c-2.5,2-4.8,4.2-6.8,6.7l-5.2-1.6-4.7,8.1,3.9,3.7c-1.2,3-2,6.1-2.5,9.2l-5.3,1.2v9.4l5.2,1.2c.5,3.2,1.3,6.3,2.4,9.2l-4,3.7,4.7,8.2,5.1-1.6c2,2.5,4.2,4.8,6.8,6.8l-1.6,5.2,8.2,4.7,3.6-4c3,1.2,6,2,9.2,2.5l1.2,5.3h9.4l1.2-5.2c3.2-.5,6.3-1.3,9.3-2.5l3.7,4,8.2-4.7-1.6-5.1c2.5-2,4.8-4.2,6.8-6.7l5.2,1.6,4.7-8.2-4-3.7c1.2-3,2-6.1,2.5-9.2l5.3-1.1Zm-16.3-4.9c0,16.3-13.2,29.5-29.5,29.5-16.3,0-29.5-13.2-29.5-29.5,0-16.3,13.2-29.5,29.5-29.5h0c16.3,0,29.5,13.2,29.5,29.5h0Z" fill="#fff" stroke-width="0"/><rect x="136.6" y="24.4" width="24.2" height="5.6" fill="#e56318" stroke-width="0"/><rect x="136.6" y="32.5" width="15.9" height="5.6" fill="#e56318" stroke-width="0"/><rect x="136.6" y="40.6" width="9.2" height="5.6" fill="#e56318" stroke-width="0"/><rect x="136.6" y="24.4" width="24.2" height="5.6" isolation="isolate" opacity=".2" stroke-width="0"/><rect x="136.6" y="32.5" width="15.9" height="5.6" isolation="isolate" opacity=".2" stroke-width="0"/><rect x="136.6" y="40.6" width="9.2" height="5.6" isolation="isolate" opacity=".2" stroke-width="0"/><rect x="94.6" y="86.3" width="8.2" height="16.8" fill="#e56318" stroke-width="0"/><rect x="106.4" y="92.1" width="8.2" height="11.1" fill="#e56318" stroke-width="0"/><rect x="118.3" y="96.8" width="8.2" height="6.4" fill="#e56318" stroke-width="0"/><rect x="94.6" y="86.3" width="8.2" height="16.8" isolation="isolate" opacity=".2" stroke-width="0"/><rect x="106.4" y="92.1" width="8.2" height="11.1" isolation="isolate" opacity=".2" stroke-width="0"/><rect x="118.3" y="96.8" width="8.2" height="6.4" isolation="isolate" opacity=".2" stroke-width="0"/><path d="m192.2,115.9h-99.5c-5.7,0-10.4-4.6-10.4-10.4,0,0,0,0,0,0V23.4c0-5.7,4.7-10.4,10.4-10.4h99.5c5.7,0,10.4,4.6,10.4,10.4v82.2c0,5.7-4.7,10.4-10.4,10.4ZM92.7,13.9c-5.2,0-9.5,4.2-9.5,9.5v82.2c0,5.2,4.2,9.5,9.5,9.5h99.5c5.2,0,9.5-4.2,9.5-9.5V23.4c0-5.2-4.2-9.5-9.5-9.5h-99.5Z" fill="#263238" stroke-width="0"/><rect x="155.5" y="86.8" width="35.5" height=".9" fill="#263238" stroke-width="0"/><rect x="155.5" y="90.6" width="35.5" height=".9" fill="#263238" stroke-width="0"/><rect x="155.5" y="94.4" width="35.5" height=".9" fill="#263238" stroke-width="0"/><rect x="155.5" y="98.2" width="35.5" height=".9" fill="#263238" stroke-width="0"/><rect x="155.5" y="102" width="35.5" height=".9" fill="#263238" stroke-width="0"/><rect x="93.5" y="24.8" width="35.5" height=".9" fill="#263238" stroke-width="0"/><rect x="93.5" y="28.6" width="35.5" height=".9" fill="#263238" stroke-width="0"/><rect x="93.5" y="32.4" width="35.5" height=".9" fill="#263238" stroke-width="0"/><rect x="93.5" y="36.2" width="35.5" height=".9" fill="#263238" stroke-width="0"/><rect x="93.5" y="40" width="35.5" height=".9" fill="#263238" stroke-width="0"/><path d="m184,55.5l6.4,3.3-.7-17.9-15.2,9.6,6.4,3.3-4.8,9.1h0c-.8,0-1.7.3-2.3.8l-8.4-3.9h0c0-2.2-1.6-4-3.7-4.1-2.1,0-3.9,1.5-4,3.6h0c0,.1,0,.3,0,.4,0,.6.1,1.1.4,1.6l-11,12c-.4-.1-.7-.2-1.1-.2-.2,0-.4,0-.6,0l-15.8-20.1c.8-2-.2-4.2-2.2-5-1.9-.7-4,0-4.9,1.9-.2.5-.3,1-.3,1.5,0,.4,0,.8.2,1.2l-18,18.5c-2-.7-4.2.3-5,2.3s.3,4.2,2.3,5c2,.7,4.2-.3,4.9-2.3h0c.2-.4.2-.9.2-1.3,0-.3,0-.6-.1-.9l18.2-18.7c.4.1.7.2,1.1.2.2,0,.5,0,.7,0l15.8,20c-1,1.9-.3,4.3,1.6,5.3,1.9,1,4.3.3,5.3-1.6.3-.5.4-1.1.5-1.6,0-.1,0-.3,0-.4,0-.4,0-.8-.2-1.2l11.3-12.3c.2,0,.4,0,.6,0,.8,0,1.5-.2,2.2-.7l8.6,4c0,2.1,1.9,3.8,4,3.7s3.8-1.9,3.7-4c0,0,0,0,0-.1,0-.7-.3-1.4-.7-2l4.8-9.2Z" fill="#263238" stroke-width="0"/><g id="freepik--chart-1--inject-2--inject-17"><path d="m192.5,126.5c-3.3,0-5.9,2.6-5.9,5.9v51.2c0,3.3,2.6,5.9,5.9,5.9h62c3.3,0,5.9-2.6,5.9-5.9v-51.2c0-3.3-2.6-5.9-5.9-5.9h-62Z" fill="none" stroke="#263238" stroke-linejoin="round"/><rect x="191.5" y="133.5" width="4.7" height=".6" fill="#263238" stroke-width="0"/><rect x="191.5" y="138.6" width="4.7" height=".6" fill="#263238" stroke-width="0"/><rect x="191.5" y="143.8" width="4.7" height=".6" fill="#263238" stroke-width="0"/><rect x="191.5" y="148.9" width="4.7" height=".6" fill="#263238" stroke-width="0"/><rect x="191.3" y="138.6" width="4.7" height=".6" fill="#263238" stroke-width="0"/><rect x="191.5" y="154.1" width="4.7" height=".6" fill="#263238" stroke-width="0"/></g><path d="m227.1,181.9c12.5.3,22.8-9.6,23.1-22.1.3-12.5-9.6-22.8-22.1-23.1-12.5-.3-22.8,9.6-23.1,22.1,0,0,0,0,0,0-.2,12.5,9.7,22.7,22.1,23Zm.8-38.5c8.8.2,15.9,7.5,15.7,16.3-.2,8.8-7.5,15.9-16.3,15.7-8.8-.2-15.9-7.5-15.7-16.3,0,0,0,0,0,0,.2-8.8,7.5-15.8,16.3-15.7h0Z" fill="#e56318" stroke-width="0"/><path d="m227.1,181.9c12.5.3,22.8-9.6,23.1-22.1.3-12.5-9.6-22.8-22.1-23.1-12.5-.3-22.8,9.6-23.1,22.1,0,0,0,0,0,0-.2,12.5,9.7,22.7,22.1,23Zm.8-38.5c8.8.2,15.9,7.5,15.7,16.3-.2,8.8-7.5,15.9-16.3,15.7-8.8-.2-15.9-7.5-15.7-16.3,0,0,0,0,0,0,.2-8.8,7.5-15.8,16.3-15.7h0Z" isolation="isolate" opacity=".2" stroke-width="0"/><path d="m211.3,175.5c8.9,9,23.5,9.1,32.5.1,0,0,0,0,0,0,.2-.2.2-.5,0-.6l-4.7-4.7c0,0-.2-.1-.3-.1-.1,0-.2,0-.3.1-3,3-7.1,4.6-11.3,4.5h-1.1c-3.4-.2-6.6-1.5-9.2-3.7-.2-.2-.5-.4-.7-.6-5.4-5.4-6.2-14-1.8-20.3,0,0,0,0,0,0,.1-.1.2-.3.3-.4,3.1-4,8-6.1,13-5.9.2,0,.5-.2.5-.4h0s.1-6.6.1-6.6c0-.3-.2-.5-.4-.5h0c-12.7-.2-23.2,9.9-23.4,22.6-.1,6.2,2.3,12.2,6.7,16.6Z" fill="#263238" stroke-width="0"/><path d="m228,136.3c13,0,23.5,10.6,23.5,23.5,0,13-10.6,23.5-23.5,23.5s-23.5-10.6-23.5-23.5c0-13,10.5-23.5,23.5-23.5h0Zm-.9,45.2c12.2.3,22.3-9.5,22.6-21.7.3-12.2-9.5-22.3-21.7-22.6-12.2-.3-22.3,9.5-22.6,21.7,0,0,0,0,0,0h0c-.2,12.2,9.5,22.3,21.7,22.6h0Zm.8-38.5c9.1.2,16.3,7.7,16.1,16.8-.2,9.1-7.7,16.3-16.8,16.1-9.1-.2-16.3-7.7-16.1-16.8,0,0,0,0,0,0,.2-9.1,7.7-16.3,16.8-16.1Zm-.6,31.9c8.6.2,15.6-6.6,15.8-15.2.2-8.6-6.6-15.6-15.2-15.8-8.6-.2-15.6,6.6-15.8,15.2,0,0,0,0,0,0h0c-.2,8.6,6.6,15.6,15.2,15.8h0Z" fill="#263238" stroke-width="0"/><line x1="111" y1="208.4" x2="111" y2="269" fill="none" stroke="#263238" stroke-linecap="round" stroke-linejoin="round" stroke-width=".9"/><rect x="115.6" y="231.3" width="5.1" height="34.7" fill="#263238" stroke-width="0"/><rect x="122.9" y="245.4" width="5.1" height="20.5" fill="#e56318" stroke-width="0"/><rect x="131.6" y="220" width="5.1" height="46" fill="#fff" stroke="#263238" stroke-linejoin="round" stroke-width=".9"/><rect x="145.9" y="213.4" width="5.1" height="52.6" fill="#263238" stroke-width="0"/><rect x="153.3" y="253" width="5.1" height="13" fill="#e56318" stroke-width="0"/><rect x="162" y="235" width="5.1" height="31" fill="#fff" stroke="#263238" stroke-linejoin="round" stroke-width=".9"/><rect x="182.9" y="239.7" width="5.1" height="26.3" fill="#263238" stroke-width="0"/><rect x="190.3" y="219.3" width="5.1" height="46.7" fill="#e56318" stroke-width="0"/><rect x="199" y="229.6" width="5.1" height="36.4" fill="#fff" stroke="#263238" stroke-linejoin="round" stroke-width=".9"/><line x1="105.4" y1="258" x2="108.3" y2="258" fill="none" stroke="#263238" stroke-linecap="round" stroke-linejoin="round" stroke-width=".9"/><line x1="105.4" y1="250.5" x2="108.3" y2="250.5" fill="none" stroke="#263238" stroke-linecap="round" stroke-linejoin="round" stroke-width=".9"/><line x1="105.4" y1="243" x2="108.3" y2="243" fill="none" stroke="#263238" stroke-linecap="round" stroke-linejoin="round" stroke-width=".9"/><line x1="105.4" y1="235.5" x2="108.3" y2="235.5" fill="none" stroke="#263238" stroke-linecap="round" stroke-linejoin="round" stroke-width=".9"/><line x1="105.4" y1="228" x2="108.3" y2="228" fill="none" stroke="#263238" stroke-linecap="round" stroke-linejoin="round" stroke-width=".9"/><line x1="105.4" y1="220.5" x2="108.3" y2="220.5" fill="none" stroke="#263238" stroke-linecap="round" stroke-linejoin="round" stroke-width=".9"/><line x1="105.4" y1="213" x2="108.3" y2="213" fill="none" stroke="#263238" stroke-linecap="round" stroke-linejoin="round" stroke-width=".9"/><line x1="107.6" y1="266" x2="207.7" y2="266" fill="none" stroke="#263238" stroke-linecap="round" stroke-linejoin="round" stroke-width=".9"/><rect x="122.9" y="245.4" width="5.1" height="20.5" isolation="isolate" opacity=".3" stroke-width="0"/><rect x="153.3" y="253" width="5.1" height="13" isolation="isolate" opacity=".3" stroke-width="0"/><rect x="190.3" y="219.3" width="5.1" height="46.7" isolation="isolate" opacity=".3" stroke-width="0"/><path d="m101.4,200c-3.6,0-6.5,2.9-6.5,6.5v59.5c0,3.6,2.9,6.5,6.5,6.5h110.4c3.6,0,6.5-2.9,6.5-6.5v-59.5c0-3.6-2.9-6.5-6.5-6.5h-110.4Z" fill="none" stroke="#263238" stroke-linejoin="round"/></g><g id="freepik--character-1--inject-17"><path d="m14,333s2.3,15.4-3.3,17-9.5-.5-10.2-2.8,4.2-18.8,4.2-18.8l9.2,4.6Z" fill="#fff" stroke-width="0"/><path d="m111.2,336.4l24.3,5.8s1.8,1,1.6,2.6-11.3,5.9-14.4,6.4-21.1,2.9-23.6.7,2.8-19.6,2.8-19.6l9.2,4.1Z" fill="#fff" stroke-width="0"/><path d="m67.2,55.2s3.4,5.2,3.5,7.8-.3,5.6,1.3,7.1,2.8,3.2,2.2,4-1.9,2.3-1.9,2.3c0,0,1.6,8.8-.5,10.4s-8.6,0-8.6,0v5.7s-9.1-3-15.4-2.4l-1.1-12.2s13.7-26.4,20.6-22.7Z" fill="#f1dbcb" stroke-width="0"/><path d="m123.4,91.1s-.8-6.2,2.2-10c0,0-3.6-.6-3.2-1.9s6,.4,6,.4l-1.5-3s-5.2-1.7-4.6-3.4,8.4,2.4,8.4,2.4c0,0-4.6-3.8-3.9-5.4s5.3-1.6,7.8,6.7l1.3-1.6s.4-9.4,1.7-9.9c0,0,2,1.1,2,6.5,0,0,2,2.4.7,4.4s-4.3,6.6-6.8,8.4-2.5,8.4-2.5,8.4l-7.5-2Z" fill="#f1dbcb" stroke-width="0"/><path d="m42.9,39.8l1.2-1.5s12.9-5.7,12.6-7.5-7.6.7-9-.3c0,0,1.3-16.9,0-17.5s-2.8,7.9-2.8,7.9c0,0-1.9-8.7-3.3-8.5s-.8,9-.8,9c0,0-2.8-5.6-3.8-5.1s.5,7.4.5,7.4c0,0-2-2.3-2.8-1.6.3,3.5,1.2,7,2.8,10.1l-2.8,4.7,8.3,2.9Z" fill="#f1dbcb" stroke-width="0"/><path d="m122,91.2l8.9,1.2s-6.5,55-8.4,61.8-3.6,11.7-10.1,12-29.8-19.2-29.8-19.2l-1.1,27,1.5,11.2s-28.4,14.9-57.3,1.9l.7-13.1-10.4-60.1-8.2-28.5,26.4-50.1,9.6,5-16.9,45.6,4.7,15.2,5.3-2.1,5.8-7.5s9.9-5.1,22.5,2l2,6.3s14.7,1.1,39.6,35.6l15.2-44.2Z" fill="#e56318" stroke-width="0"/><path d="m58.6,91.2l1.1,7.7s8.3,5.5,11.6,7.4c0,0,8.1,51.3,2.1,61.4l-6.3,9.9s6.5,0,9.4-4.5c0,0-3.7,12.4-13.3,15.7,0,0,14.8-1.5,19.9-3.5l-1.5-11.2,2.4-62.4s2.3-4.2-16.8-11.7l-2.8-6.8-5.8-2Z" isolation="isolate" opacity=".2" stroke-width="0"/><path d="m67.2,55.9s3.1,4.5,3.5,7.1-.7,5.3,1.3,7.1,3,3,2.2,4-1.9,2.3-1.9,2.3c0,0,.8,8.6-.5,10.4s-8.6,0-8.6,0v5.7" fill="none" stroke="#263238" stroke-linecap="round" stroke-linejoin="round"/><path d="m63.2,76s-2.9-7.5-5.1-5.7-.2,11.7,5.1,9.5" fill="none" stroke="#263238" stroke-linecap="round" stroke-linejoin="round"/><path d="m62.4,74.3s3.4-.3,1.3-8.4,2.5-7,7.6-9.3c5.1-2.3,6.3-6.5,5.2-9.1s-2.9-3.9-9.3-2.7c0,0-7-8.1-13.8.8,0,0-15.2-.2-19.3,7s1.3,25.7,9.3,31.9,15.8,1.2,17.4-4.6c0,0-5.4-2.9-2.7-9.7,0,0,2.5-.9,4.3,3.9Z" fill="#263238" stroke-width="0"/><path d="m15.2,109.3s36.8-26.7,68.9,0l-2.6,64.6,1.5,11.2s-27.1,12.7-57.3,1.9l.7-13.1-11.2-64.6Z" fill="none" stroke="#263238" stroke-linecap="round" stroke-linejoin="round"/><path d="m36.4,99.6l6.3-8.1s12.4-4.3,22.5,2l2,6.3" fill="none" stroke="#263238" stroke-linecap="round" stroke-linejoin="round"/><line x1="84.1" y1="109.3" x2="116.2" y2="146.2" fill="none" stroke="#263238" stroke-linecap="round" stroke-linejoin="round"/><path d="m82.6,146.3s21.2,19.8,29.7,20,9.9-10,9.9-10l8.7-63.8-8.9-1.2-15.3,44.2" fill="none" stroke="#263238" stroke-linecap="round" stroke-linejoin="round"/><path d="m130.7,92.3s1.1-7.2,4-8.9,6.3-8,5.2-9.8-4.5,4.1-7.5,5.3-5.5,6.7-5.9,9.2" fill="none" stroke="#263238" stroke-linecap="round" stroke-linejoin="round"/><path d="m139,73.3s0-8.3-1.5-7.9-1.7,10.9-1.7,10.9" fill="none" stroke="#263238" stroke-linecap="round" stroke-linejoin="round"/><path d="m134.6,77.4s-1-4.7-3.8-6.9-4.5-1.1-4.2-.3,5,7,4.9,9.1" fill="none" stroke="#263238" stroke-linecap="round" stroke-linejoin="round"/><path d="m129.9,75.1s-7.6-3.5-7.6-1.4,4.6,2.9,4.6,2.9l1.5,3s-6.4-2-6-.4,3.2,1.9,3.2,1.9c0,0-3.1,3.1-2.2,10" fill="none" stroke="#263238" stroke-linecap="round" stroke-linejoin="round"/><path d="m78.6,185.9l1.9,13.5s17.8,53.3,20.5,63.7,4.2,34,5,44.8,7,29,7,29c0,0-.8,7.3-13.9,6.2,0,0-5.4-21.6-11.2-34.4s-6.6-32.1-6.6-32.1l-28.2-51.8s-5.8,30.1-9.7,41.3c-4,11.5-31.3,75.6-29.4,71.1,0,0-3.9,2.3-12-3.5,0,0,5.8-19.3,7.3-29.7s9.7-34.4,9.7-34.4c0,0,1.9-45.2,5-59.1,0,0-2-15.3,2.3-26.1,16.9,5.5,35.1,6,52.3,1.4Z" fill="#263238" stroke-width="0"/><polyline points="37.7 215.8 50.3 219.5 52.2 224" fill="none" stroke="#fff" stroke-linecap="round" stroke-linejoin="round"/><path d="m99.4,341.6s-1.7,8.6-.3,10.3c.7.9,2.9.8,4,.8,2.4,0,4.9-.1,7.3-.3,4.9-.3,9.9-.3,14.6-1.8,4-1.2,7.8-2.9,11.3-5.1,1.9-1.3,0-3.4,0-3.4l-23.2-5.2" fill="none" stroke="#263238" stroke-linecap="round" stroke-linejoin="round"/><path d="m99.3,348.9s26.1,4.3,37-6.7" fill="none" stroke="#263238" stroke-linecap="round" stroke-linejoin="round"/><path d="m3.1,333s-3,10.3-2.6,13.5,3.7,4,7.5,3.9c3.8,0,5.4-1.8,5.9-4.4s0-10.9,0-10.9" fill="none" stroke="#263238" stroke-linecap="round" stroke-linejoin="round"/><line x1=".5" y1="345" x2="14" y2="346.1" fill="none" stroke="#263238" stroke-linecap="round" stroke-linejoin="round"/><path d="m35.6,35.6c1.1-2.1,1.8-3.3,1.8-3.3,0,0-3.7-9-2.8-10.1s3.1,2,3.1,2c0,0-2.2-7.1-.8-7.7s3.9,6,3.9,6c0,0-.7-9.6.8-10s3.2,9.1,3.2,9.1c0,0,1.9-8.5,3-8.6s0,17.5,0,17.5c2.3,1.1,9.1-1.6,9,.6s-13,7.4-13,7.4c-.2.3-.4.6-.6.9" fill="none" stroke="#263238" stroke-linecap="round" stroke-linejoin="round"/><polyline points="15.2 109.3 7.8 85.4 34.2 35.3 43.8 40.3 26.9 85.9 31.6 101.1" fill="none" stroke="#263238" stroke-linecap="round" stroke-linejoin="round"/><path d="m16,81.6s9.5,0,10.8,4.3c-4.2-.2-8.3.9-11.7,3.2" fill="none" stroke="#263238" stroke-linecap="round" stroke-linejoin="round"/><line x1="47.3" y1="90.5" x2="47.3" y2="83.6" fill="none" stroke="#263238" stroke-linecap="round" stroke-linejoin="round"/><path d="m83.9,128.7l2.4,15.8s1.9-10.3,3.1-10.3,0,12.1,0,12.1c0,0,19.9,18,28.5,18.1,0,0-4.8,3.4-9.6.9s-25.8-19-25.8-19l1.4-17.5Z" isolation="isolate" opacity=".2" stroke-width="0"/><path d="m42.1,39.4l-18.2,44.2s-6.3-.1-8.7,5.6l9.7-1.7,3.3,15,3.4-1.3-4.7-15.2,16.9-45.6-1.7-.8Z" isolation="isolate" opacity=".2" stroke-width="0"/></g><g id="freepik--character-2--inject-17"><polygon points="292.6 117.1 285.5 101.8 257.3 120.4 280.5 161.5 298.6 151.2 292.6 117.1" fill="#fff" stroke-width="0"/><path d="m315.8,249.3s4.5,12.6,5.2,18.8-1.4,32-.9,39.2,4.3,28.5,4.3,28.5c0,0-18.9,13.8-24.9,9.3,0,0,13.3-10.8,14.7-15.1l-4.3-29.2-4.3-34.5s-1.1-7.2-2.6-10.9-1.3-11.6-1.3-11.6l14.2,5.6Z" fill="#f1dbcb" stroke-width="0"/><path d="m315.4,248.2s4.9,13.3,6.1,22.9-2.3,31.2-1.2,41.6,2.3,16.2,4.3,21.7l-1,16.1h-2.6l-1-9.1s-4.1-1.7-6.5,4.2-11.5,6.6-15.9,3.2c0,0,0-2.6,3.2-4.9s11.7-9.5,13.2-13.8c0,0-4.6-30-5.7-39.7s-2.8-27.4-4.9-33.1-2.1-13.9-2.1-13.9" fill="none" stroke="#263238" stroke-linecap="round" stroke-linejoin="round"/><path d="m323.6,331.4s-12.7,13.8-23.3,13.7" fill="none" stroke="#263238" stroke-linecap="round" stroke-linejoin="round"/><path d="m299.4,345.1c1.8.2,3.5,0,5.2-.6,2.9-1,13.2-6,18.3-12.3l1.6,1.8-.8,16.2-2.6.4-1-9.1s-3.3-1.5-5.5,2.2-3.7,6.3-7.5,7.2-9.4-2-9.4-2c0,0-1-1.5,1.8-3.7Z" fill="#263238" stroke-width="0"/><path d="m324.7,249.7c1.2,4.4,2.6,8.7,4.3,12.9,2.3,5.2,21.9,57.9,21.9,57.9,0,0,1.5,28.5,9.8,28.4s-.3-19.9-.3-19.9l-5.1-10.9s-1.9-31.9-4.3-43.7l-10.2-27.5-16.1,2.8Z" fill="#f1dbcb" stroke-width="0"/><path d="m340.9,247.9s8.4,19.1,10.1,26.6,3.5,41.4,4.3,43.7,14.8,26.9,6.4,31.8-10.4-28.3-10.4-28.3c0,0-19.4-53.8-22.3-59s-6.1-20.2-6.1-20.2l17.9,5.5Z" fill="none" stroke="#263238" stroke-linecap="round" stroke-linejoin="round"/><path d="m363.3,337.4s-.6,6.7-2.8,7.6-7.1-6.6-7.1-6.6" fill="none" stroke="#263238" stroke-linecap="round" stroke-linejoin="round"/><path d="m353.5,339.6s3,11.4,7,10.9,4.7-6.8,2.8-11.7c0,0-.7,5-2.8,6.2-2.1,0-7-5.4-7-5.4Z" fill="#263238" stroke-width="0"/><path d="m318.1,148.6s10.1,13.8,17.1,36c7,22.2,6.3,64.7,6.3,64.7,0,0-26.1,8.4-51.4-2.3l4.6-95.8s16.3.3,23.3-2.6Z" fill="#263238" stroke-width="0"/><path d="m305,48.5s-7.9,7.4-8.8,12.2c-.8,3.4-2,6.6-3.6,9.7.8,1.3,2.1,2.2,3.5,2.8,0,0,.5,9.9,3.4,10.6l6.9-1.8.7,4.2,9.8-3.7v-5.7l7.5-4.9-2.7-12.8-12.2-5.7-4.6-4.8Z" fill="#f5e0cd" stroke-width="0"/><path d="m294.7,150.5l-.9-13.8s-6.4-12-4.4-16.4c2.2-4.8,15.7-22.5,15.7-22.5l-1.3-9.7,18.9-8.1.9,8.1-2.3,1.7,2.5,5.4s.2-1.6,4.5,6.6,20.9,37.2,22.2,42.8-25.7,25.2-34.8,29.9c0,0-1-2.2-11.9,6-2.8-.5-6.5-2.9-7.4-4.5s3.1-5.2,3.1-5.2c0,0,2.4-4.5,6.5-.9h4.4l25.4-23.7-12.9-18.9-5.1,21.2s-16.5,5-23.4,1.9Z" fill="none" stroke-width="0"/><polygon points="303.8 88.1 305.2 98 323.6 88.1 322.7 80 303.8 88.1" fill="#fff" stroke="#263238" stroke-linecap="round" stroke-linejoin="round"/><path d="m305.2,98s-16.8,20.5-16.3,24.5,4.9,14.1,4.9,14.1l.9,14.6s13.5.4,23.3-2.6l5.1-21.2" fill="#fff" stroke="#263238" stroke-linecap="round" stroke-linejoin="round"/><path d="m336.1,146.3l-26-39.1s-2.5-9,3.6-12.2,11.5.9,13.4,3,22.5,41.8,23.5,46.6-20.8,23.9-33.4,29c0,0-5.7,3.4-5.7-3.6l24.6-23.6Z" fill="#fff" stroke="#263238" stroke-linecap="round" stroke-linejoin="round"/><line x1="323.6" y1="95.2" x2="321.2" y2="89.4" fill="none" stroke="#263238" stroke-linecap="round" stroke-linejoin="round"/><path d="m311.4,169.9h-5.2s-4.1-3.6-6,0-4.4,4.4-3.6,6.1,4.9,5.1,7.4,4.5,9.4-6.2,9.4-6.2" fill="#f1dbcb" stroke="#263238" stroke-linecap="round" stroke-linejoin="round"/><path d="m303.1,51.1s-6.1,5.4-6.8,8.3-.4,8-3.7,10.9c0,0,.2,2.4,3.5,2.8,0,0,1.7,9.5,3.4,10.6s11.8-4.1,15.8-6.2c1-.7,1.8-1.7,2.1-2.9" fill="none" stroke="#263238" stroke-linecap="round" stroke-linejoin="round"/><path d="m298.4,76c1.9-.3,3.6-1.3,4.8-2.8" fill="none" stroke="#263238" stroke-linecap="round" stroke-linejoin="round"/><path d="m298.4,62.3s2.4-1.4,3.8.9" fill="none" stroke="#263238" stroke-linecap="round" stroke-linejoin="round"/><path d="m300,67.4c0,.8-.2,1.5-.6,1.5s-.7-.6-.8-1.4.2-1.5.6-1.5.7.6.8,1.4Z" fill="#263238" stroke-width="0"/><line x1="306.4" y1="82" x2="307.2" y2="86.6" fill="none" stroke="#263238" stroke-linecap="round" stroke-linejoin="round"/><path d="m314.2,66.7s1.5-2.9,3.2-1.2,4.8,9.6-3.7,7.7c0,0-.6,4.8,3.7,6s12.4-5.4,12.7-16.7-10.6-18.9-16.4-16.7c0,0-8.4-13.1-16.6-7.5s-2.7,14.2-4.5,16.1-5.5.1-5.6,5.3,8.6,4.7,8.6,4.7l1-5.7,7.2-7.5s-1.7,5.4,1.2,10.2c2.6,4.3,9.2,5.5,9.2,5.5Z" fill="#263238" stroke-width="0"/><path d="m330.1,62.5s4,.9,3.6,6.3-9.5,18.7-8.8,26.4l23.3,43.4s10.5-2,10-12.8-13.3-19.9-10.8-27.9,12.2-28.2-1.6-39.8-35.2,6.2-35.2,6.2l10.5-3.4,9,1.6Z" fill="#263238" stroke-width="0"/><polyline points="291.7 116.2 285.5 101.8 257.3 120.4 280.5 161.5 294.6 153.8" fill="none" stroke="#263238" stroke-linecap="round" stroke-linejoin="round"/><path d="m266.1,140.7s-1.5-3.1.5-4.9,9-6.9,9-5.6c0,.6,0,1.2-.5,1.7-2,2.7-6.8,7-6.5,7.4,0,0,8.7-5.8,9.6-5.2.2.1,0,.9-.6,1.6-2.4,2.1-4.9,4.1-7.6,5.9,0,0,9.2-3.6,10.4-3,.3.2.3.7-.8,1.3-2.7,1.5-5.4,2.8-8.2,3.9l2.3,3.9s-4.4.8-7.6-7Z" fill="#f1dbcb" stroke="#263238" stroke-linecap="round" stroke-linejoin="round"/><line x1="316.3" y1="76" x2="317" y2="82.5" fill="none" stroke="#263238" stroke-linejoin="round"/></g></g></svg>