<?xml version="1.0" encoding="UTF-8"?>
<svg id="Layer_2" data-name="Layer 2" xmlns="http://www.w3.org/2000/svg" width="323.024" height="323" xmlns:xlink="http://www.w3.org/1999/xlink" viewBox="0 0 323.024 323">
  <defs>
    <linearGradient id="linear-gradient" x1="-125.5" y1="-3325.903" x2="-125.5" y2="-3499.227" gradientTransform="translate(287 -3281.314) scale(1 -1)" gradientUnits="userSpaceOnUse">
      <stop offset=".01" stop-color="#d6562b"/>
      <stop offset=".15" stop-color="#da642d"/>
      <stop offset=".42" stop-color="#e58a32"/>
      <stop offset=".72" stop-color="#f4bb3a"/>
    </linearGradient>
  </defs>
  <g id="Icons">
    <g id="Icon">
      <g id="Base">
        <path id="Bottom" d="m250.313,289.972c2.591,0,16.801,1.451,24.496,9.212,4.305,4.354,9.067,12.721,4.381,17.882-3.733,4.081-10.858,4.047-12.115,3.879H53.168c-1.029-.067-8.305-.673-10.629-4.993-2.4-4.522,2.286-9.953,4.8-12.889,8.191-9.515,21.182-12.246,27.735-13.125l175.239.034h0Z" style="fill: #e6e6e6; stroke: #000; stroke-miterlimit: 10; stroke-width: 4px;"/>
        <rect id="Neck" x="137.575" y="259.962" width="47.85" height="30.092" style="fill: #ccc; stroke: #000; stroke-miterlimit: 10; stroke-width: 4px;"/>
      </g>
      <path id="Speaker" d="m2,230.353h319v18.657c0,5.19-4.785,9.399-10.686,9.399H12.686c-5.901.035-10.686-4.208-10.686-9.399v-18.657h0Z" style="fill: #f2f2f2; stroke: #000; stroke-miterlimit: 10; stroke-width: 4px;"/>
      <g id="Screen">
        <rect id="Monitor" x="2" y="33.651" width="319" height="196.39" style="fill: url(#linear-gradient); stroke: #000; stroke-miterlimit: 10; stroke-width: 4px;"/>
        <g id="Display">
          <path id="Sun" d="m269.894,215.657c2.473-9.178,3.829-18.821,3.827-28.774-.012-61.383-50.243-111.119-112.202-111.13-61.959-.011-112.212,49.783-112.24,111.127.002,9.759,1.281,19.209,3.678,28.233.08.31.399.542.719.542l217.696-.037" style="fill: #fbb000; stroke: #000; stroke-miterlimit: 10; stroke-width: 4px;"/>
          <g id="Forground">
            <g id="Birds">
              <path id="Bird1" d="m190.248,143.138l20.575-.24c.419-.002.793-.322.835-.682.406-2.399,1.806-10.826,3.112-19.523.135-.86-.985-1.308-1.544-.627-6.723,8.183-7.586,12.397-7.671,13.799.002.36-.228.636-.603.727l-15.044,4.921c-.885.276-.646,1.634.336,1.629h0l.004-.004Z" style="fill: #2f272a; stroke-width: 0px;"/>
              <path id="Bird2" d="m143.294,96.434l5.914,15.732c.121.309.442.54.801.461,2.154-.359,9.733-1.599,17.59-2.994.758-.12.832-1.166.112-1.395-8.878-2.86-12.708-2.337-13.904-2.021-.279.079-.599-.036-.76-.229l-8.479-10.259c-.523-.656-1.557-.07-1.274.704h0Z" style="fill: #2f272a; stroke-width: 0px;"/>
              <path id="Bird3" d="m189.861,109.3l10.514,1.84c.452.095.85-.151,1.047-.586.642-1.607,2.268-5.836,3.944-10.453.347-.877-.759-1.599-1.506-.964-4.085,3.564-5.223,5.801-5.517,6.724-.098.341-.396.583-.747.635l-7.648,1.011c-1.101.102-1.093,1.609-.09,1.797h0l.004-.004Z" style="fill: #2f272a; stroke-width: 0px;"/>
            </g>
            <g id="Mountains">
              <path d="m276.488,167.784c5.679-5.856,11.362-11.712,17.041-17.567,8.455,13.723,16.915,27.442,25.37,41.164.072,12.266.143,24.533.215,36.799-105.076-.141-210.152-.282-315.227-.424.005-1.29.029-51.194.029-51.233,0-.016.002-1.565.002-1.565,10.834-17.116,21.673-34.228,32.507-51.344,3.412,3.776,6.821,7.548,10.233,11.324,11.324-15.627,22.652-31.25,33.976-46.877,12.143,17.604,24.29,35.208,36.432,52.812,1.252-1.719,2.504-3.438,3.756-5.157,5.694,5.619,8.841,8.771,8.952,8.973.008.016.071.147.171.155,0,0,.088.008.188-.119.297-.379,10.97-21.488,11.062-21.666.02-.039.08-.155.156-.15.072,0,.127.109.155.182,10.966,15.079,21.928,30.162,32.894,45.241.064-.062,6.571-6.329,6.571-6.329l17.021,15.82c6.794-7.296,13.588-14.593,20.383-21.893,1.646,1.954,3.296,3.907,4.942,5.857,0,0,24.29-31.43,25.024-32.377l28.147,38.374Z" style="fill: #192a2c; stroke-width: 0px;"/>
              <path d="m218.512,182.819c1.733-5.043,3.467-10.083,5.196-15.126,1.718,1.049,3.437,2.097,5.159,3.146,5.881-8.074,11.762-16.151,17.643-24.225,0,0,1.402,17.223,1.402,17.235,4.153,14.928-3.768,19.306.964,23.271,4.732,3.965-2.217,10.933,2.189,13.621,4.406,2.65,9.885-17.671,15.256-13.71,2.363,2.095,5.956-6.738,13.469-14.189,1.631,1.874,3.262,3.748,4.893,5.622,4.564-5.104,2.684-.474,4.323,2.84,3.684,9.485-4.812,12.278-4.511,15.65,2.856,5.527,6.232,17.822,7.649,19.283,1.033.634,2.313.972,2.995,1.565-31.435-2.954-51.63-4.854-51.634-4.854-24.683-30.183-45.784-5.197-24.995-30.12v-.008Z" style="fill: #4c7b6f; stroke-width: 0px;"/>
              <path d="m16.019,193.936c3.917-4.419,7.893-8.862,11.925-13.321,5.315-6.382,12.098-11.544,15.311-19.175,1.711-2.472,2.161-3.555,2.354-5.442.465-4.735,2.682-11.241,2.496-10.899,0,0,4.079,4.29,4.963,5.215.135-.051.455-.053.587-.003,8.559-11.921,17.118-23.843,25.677-35.76.436-.622,1.436-.24,1.36.497-.797,7.75-.75,16.347,1.449,24.314,6.067,21.928-5.556,28.338,1.422,34.151s-3.267,16.05,3.222,19.967c5.992,3.618,13.29-21.531,20.56-20.836,3.599,1.082,4.567,2.912,21.656-20.373,2.774,2.112,5.522,5.243,6.896,9.035,1.572-1.615,3.148-3.23,4.721-4.846,0,0,1.491,3.981,1.866,8.464.743,8.911,1.407,7.797,1.041,9.433-1.762,7.894-10.269,10.853-6.896,15.344,1.648,2.122,24.662,12.81,29.943,29.707.163.541-.354,1.047-.913.895-16.644-5.132-50.296-12.738-67.588-14.606-14.998,1.703-30.091,4.177-45.043,5.496-9.276-5.514-18.548-11.028-27.824-16.543-3.538,1.242-9.389,2.29-13.613,2.269-.19-1.885,2.317-4.121,4.431-2.989v.004Z" style="fill: #4c7b6f; stroke-width: 0px;"/>
            </g>
          </g>
        </g>
      </g>
      <g id="ToolBar">
        <path id="Navbar" d="m309.715,2H13.045c-.758,0-4.665.1-7.816,4.79-3.15,4.689-3.23,10.472-3.23,11.52.08,6.635.16,13.216.239,19.801h318.761c-.08-6.585-.16-13.165-.239-19.801,0-8.978-4.945-16.31-11.045-16.31Z" style="fill: #fff; stroke: #000; stroke-miterlimit: 10; stroke-width: 4px;"/>
        <g id="Navitems">
          <g id="Buttons">
            <circle cx="60.5" cy="19.235" r="6" style="fill: #00ca4e; stroke: #333; stroke-miterlimit: 10; stroke-width: 2px;"/>
            <circle cx="40.5" cy="19.235" r="6" style="fill: #ffbd44; stroke: #333; stroke-miterlimit: 10; stroke-width: 2px;"/>
            <path d="m20.5,13.235c3.314,0,6.032,2.686,6.032,6s-2.686,6-6,6-6-2.686-6-6,2.654-6,5.968-6Z" style="fill: #ff605c; stroke: #333; stroke-miterlimit: 10; stroke-width: 2px;"/>
          </g>
          <path id="SearchBar" d="m103.584,14.735h137.75c1.994,0,3.625,1.8,3.625,4.001v.998c0,2.201-1.631,4.001-3.625,4.001H103.584c-1.994,0-3.625-1.8-3.625-4.001v-.998c0-2.25,1.586-4.001,3.625-4.001Z" style="fill: #333; stroke-width: 0px;"/>
          <g id="Menu">
            <path d="m294.953,12.237h13.537c1.23,0,2.231,1.001,2.231,2.231v.538c0,1.23-1.001,2.231-2.231,2.231h-13.537c-1.23,0-2.231-1.001-2.231-2.231v-.538c0-1.23,1.001-2.231,2.231-2.231Z" style="fill: #333; stroke-width: 0px;"/>
            <path d="m294.953,21.255h13.537c1.23,0,2.231,1.001,2.231,2.231v.538c0,1.23-1.001,2.231-2.231,2.231h-13.537c-1.23,0-2.231-1.001-2.231-2.231v-.538c0-1.23,1.001-2.231,2.231-2.231Z" style="fill: #333; stroke-width: 0px;"/>
          </g>
        </g>
      </g>
    </g>
  </g>
</svg>