<?xml version="1.0" encoding="UTF-8"?>
<svg id="Layer_2" data-name="Layer 2" xmlns="http://www.w3.org/2000/svg" width="404.52" height="324.486" xmlns:xlink="http://www.w3.org/1999/xlink" viewBox="0 0 404.52 324.486">
  <defs>
    <linearGradient id="linear-gradient" x1="-84.757" y1="-3324.793" x2="-84.757" y2="-3498.661" gradientTransform="translate(287 -3279.828) scale(1 -1)" gradientUnits="userSpaceOnUse">
      <stop offset=".01" stop-color="#d6562b"/>
      <stop offset=".15" stop-color="#da642d"/>
      <stop offset=".42" stop-color="#e58a32"/>
      <stop offset=".72" stop-color="#f4bb3a"/>
    </linearGradient>
  </defs>
  <g id="Icons">
    <g id="Icon">
      <g id="Base">
        <path id="Bottom" d="m313.607,291.118c3.248,0,21.067,1.456,30.716,9.241,5.398,4.367,11.369,12.761,5.494,17.938-4.682,4.094-13.615,4.06-15.191,3.891H66.404c-1.29-.068-10.414-.676-13.328-5.009-3.01-4.536,2.866-9.984,6.019-12.929,10.271-9.545,26.56-12.284,34.777-13.166l219.735.034h0Z" style="fill: #e6e6e6; stroke: #000; stroke-miterlimit: 10; stroke-width: 4.486px;"/>
        <rect id="Neck" x="172.243" y="261.014" width="60" height="30.187" style="fill: #ccc; stroke: #000; stroke-miterlimit: 10; stroke-width: 4.486px;"/>
      </g>
      <path id="Speaker" d="m2.243,231.312h400v18.715c0,5.207-6,9.428-13.4,9.428H15.643c-7.4.035-13.4-4.222-13.4-9.428v-18.715h0Z" style="fill: #f2f2f2; stroke: #000; stroke-miterlimit: 10; stroke-width: 4.486px;"/>
      <g id="Screen">
        <rect id="Monitor" x="2.243" y="33.993" width="400" height="197.006" style="fill: url(#linear-gradient); stroke: #000; stroke-miterlimit: 10; stroke-width: 4.486px;"/>
        <g id="Display">
          <path id="Sun" d="m338.248,215.346c3.102-10.104,4.802-20.72,4.8-31.677-.014-67.577-63.017-122.331-140.729-122.343-77.712-.013-140.741,54.806-140.777,122.341.002,10.744,1.607,21.147,4.613,31.082.1.341.501.597.901.597l273.044-.041" style="fill: #fbb000; stroke: #000; stroke-miterlimit: 10; stroke-width: 4.7px;"/>
          <g id="Forground">
            <g id="Birds">
              <path id="Bird1" d="m238.351,135.509l25.806-.264c.526-.002.994-.354,1.047-.751.51-2.641,2.265-11.918,3.904-21.493.169-.947-1.236-1.44-1.937-.691-8.432,9.008-9.515,13.648-9.621,15.191.002.396-.286.701-.756.801l-18.869,5.418c-1.11.303-.81,1.799.422,1.793h0l.005-.004Z" style="fill: #2f272a; stroke-width: 0px;"/>
              <path id="Bird2" d="m179.46,84.093l7.417,17.32c.152.34.554.594,1.005.507,2.702-.396,12.207-1.76,22.062-3.296.951-.132,1.044-1.284.141-1.536-11.136-3.148-15.939-2.572-17.439-2.225-.35.087-.751-.039-.953-.252l-10.635-11.294c-.655-.722-1.953-.077-1.598.775h0Z" style="fill: #2f272a; stroke-width: 0px;"/>
              <path id="Bird3" d="m237.811,97.63l12.446,2.65c.535.136,1.005-.214,1.238-.834.757-2.29,2.672-8.32,4.646-14.902.408-1.25-.902-2.283-1.785-1.379-4.827,5.075-6.169,8.262-6.515,9.579-.115.487-.468.831-.883.904l-9.049,1.424c-1.303.144-1.29,2.292-.103,2.564h0l.005-.006Z" style="fill: #2f272a; stroke-width: 0px;"/>
            </g>
            <g id="Mountains">
              <path d="m346.518,162.642c7.123-6.447,14.251-12.893,21.373-19.34,10.605,15.108,21.215,30.211,31.821,45.318.09,13.504.18,27.008.27,40.512-131.791-.155-263.582-.311-395.373-.466.006-1.42.036-56.36.036-56.402,0-.017.002-1.723.002-1.723,13.589-18.843,27.183-37.682,40.772-56.524,4.28,4.157,8.555,8.309,12.835,12.466,14.203-17.204,28.411-34.403,42.615-51.607,15.23,19.381,30.465,38.761,45.695,58.141,1.57-1.893,3.141-3.785,4.711-5.678,7.141,6.186,11.088,9.656,11.228,9.878.01.017.089.162.215.171,0,0,.11.009.236-.131.372-.417,13.759-23.656,13.875-23.852.025-.043.101-.17.196-.166.09,0,.16.12.194.201,13.754,16.601,27.503,33.205,41.257,49.806.08-.068,8.242-6.968,8.242-6.968l21.348,17.416c8.522-8.033,17.043-16.066,25.565-24.103,2.065,2.151,4.134,4.301,6.199,6.448,0,0,30.466-34.602,31.386-35.644,11.768,14.082,23.536,28.164,35.304,42.246Z" style="fill: #192a2c; stroke-width: 0px;"/>
              <path d="m273.801,179.194c2.174-5.552,4.348-11.1,6.517-16.653,2.155,1.154,4.31,2.309,6.471,3.463,7.376-8.888,14.752-17.781,22.129-26.669,0,0,1.759,18.961,1.759,18.974,5.209,16.434-4.726,21.254,1.209,25.619,5.935,4.365-2.78,12.036,2.746,14.996,5.526,2.917,12.399-19.455,19.135-15.093,2.963,2.306,7.47-7.418,16.894-15.62,2.046,2.063,4.091,4.126,6.137,6.189,5.724-5.619,3.367-.522,5.422,3.127,4.621,10.442-6.036,13.517-5.657,17.229,3.583,6.085,7.817,19.62,9.594,21.228,1.296.698,2.901,1.07,3.756,1.723-39.427-3.252-64.757-5.344-64.762-5.343-30.959-33.229-57.424-5.722-31.349-33.159v-.009Z" style="fill: #4c7b6f; stroke-width: 0px;"/>
              <path d="m19.826,191.433c4.912-4.865,9.9-9.757,14.957-14.665,6.667-7.026,15.174-12.709,19.203-21.109,2.146-2.721,2.71-3.913,2.953-5.991.584-5.213,3.364-12.375,3.131-11.999,0,0,5.116,4.723,6.224,5.741.17-.056.57-.058.736-.003,10.735-13.124,21.47-26.249,32.205-39.369.547-.685,1.801-.264,1.706.547-.999,8.532-.941,17.997,1.817,26.767,7.609,24.141-6.969,31.198,1.783,37.597,8.752,6.399-4.097,17.67,4.041,21.982,7.515,3.983,16.669-23.703,25.787-22.938,4.514,1.191,5.728,3.206,27.162-22.428,3.479,2.325,6.926,5.772,8.649,9.947,1.972-1.778,3.949-3.556,5.921-5.335,0,0,1.87,4.383,2.341,9.318.932,9.811,1.765,8.583,1.306,10.385-2.21,8.691-12.88,11.949-8.649,16.893,2.067,2.336,30.932,14.102,37.556,32.705.204.596-.444,1.153-1.146.986-20.875-5.65-63.083-14.023-84.772-16.08-18.811,1.875-37.742,4.598-56.495,6.05-11.634-6.071-23.263-12.141-34.898-18.212-4.438,1.367-11.777,2.521-17.075,2.498-.238-2.075,2.906-4.537,5.558-3.291v.004Z" style="fill: #4c7b6f; stroke-width: 0px;"/>
            </g>
          </g>
        </g>
      </g>
      <g id="ToolBar">
        <path id="Navbar" d="m388.093,2.243H16.093c-.95,0-5.85.101-9.8,4.805-3.95,4.704-4.05,10.505-4.05,11.556.1,6.656.2,13.257.3,19.863h399.7c-.1-6.606-.2-13.207-.3-19.863,0-9.006-6.2-16.361-13.85-16.361Z" style="fill: #fff; stroke: #000; stroke-miterlimit: 10; stroke-width: 4.486px;"/>
        <g id="Navitems">
          <g id="Buttons">
            <circle cx="74.597" cy="19.533" r="6" style="fill: #00ca4e; stroke: #333; stroke-miterlimit: 10; stroke-width: 3px;"/>
            <circle cx="49.519" cy="19.533" r="6" style="fill: #ffbd44; stroke: #333; stroke-miterlimit: 10; stroke-width: 3px;"/>
            <path d="m25.449,13.533c3.314,0,6.032,2.686,6.032,6s-2.686,6-6,6-6-2.686-6-6,2.654-6,5.968-6Z" style="fill: #ff605c; stroke: #333; stroke-miterlimit: 10; stroke-width: 3px;"/>
          </g>
          <path id="SearchBar" d="m139.984,14.533h152c2.2,0,4,2,4,4.445v1.109c0,2.445-1.8,4.445-4,4.445h-152c-2.2,0-4-2-4-4.445v-1.109c0-2.5,1.75-4.445,4-4.445Z" style="fill: #333; stroke-width: 0px;"/>
          <g id="Menu">
            <path d="m369.045,11.771h18.05c1.64,0,2.975,1.201,2.975,2.677v.646c0,1.476-1.335,2.677-2.975,2.677h-18.05c-1.64,0-2.975-1.201-2.975-2.677v-.646c0-1.476,1.335-2.677,2.975-2.677Z" style="fill: #333; stroke-width: 0px;"/>
            <path d="m369.045,21.771h18.05c1.64,0,2.975,1.201,2.975,2.677v.646c0,1.476-1.335,2.677-2.975,2.677h-18.05c-1.64,0-2.975-1.201-2.975-2.677v-.646c0-1.476,1.335-2.677,2.975-2.677Z" style="fill: #333; stroke-width: 0px;"/>
          </g>
        </g>
      </g>
    </g>
  </g>
</svg>