<?xml version="1.0" encoding="UTF-8"?>
<svg id="Layer_2" data-name="Layer 2" xmlns="http://www.w3.org/2000/svg" width="812.092" height="812.008" xmlns:xlink="http://www.w3.org/1999/xlink" viewBox="0 0 812.092 812.008">
  <defs>
    <linearGradient id="linear-gradient" x1="406" y1="2662.914" x2="406" y2="3095.359" gradientTransform="translate(0 -2563.372)" gradientUnits="userSpaceOnUse">
      <stop offset=".013" stop-color="#d6562b"/>
      <stop offset=".154" stop-color="#da642d"/>
      <stop offset=".424" stop-color="#e58a32"/>
      <stop offset=".721" stop-color="#f4bb3a"/>
    </linearGradient>
  </defs>
  <g id="Icon">
    <g id="Base">
      <path id="Bottom" d="m639.124,713.851c6.8,0,44.098,4.309,64.298,27.355,11.3,12.926,23.799,37.776,11.5,53.107-9.8,12.124-28.499,12.024-31.799,11.523H121.643c-2.7-.2-21.799-2.004-27.899-14.83-6.3-13.427,6-29.56,12.6-38.277,21.499-28.257,55.598-36.373,72.797-38.979l459.984.1h0Z" style="fill: #e6e6e6; stroke: #000; stroke-miterlimit: 10; stroke-width: 12.016px;"/>
      <rect id="Neck" x="312" y="633.8" width="188" height="80" style="fill: #ccc; stroke: #000; stroke-miterlimit: 10; stroke-width: 12px;"/>
    </g>
    <path id="Speaker" d="m6,561.7h800v53.2c0,14.8-12,26.8-26.8,26.8H32.8c-14.8.1-26.8-12-26.8-26.8v-53.2h0Z" style="fill: #ccc; stroke: #000; stroke-miterlimit: 10; stroke-width: 12px;"/>
    <g id="Screen">
      <rect id="Monitor" x="6" y="72.25" width="800" height="490" style="fill: url(#linear-gradient); stroke: #212121; stroke-miterlimit: 10; stroke-width: 12px;"/>
      <g id="Display">
        <path id="Sun" d="m677.5,525.3c6.2-23.7,9.6-48.6,9.6-74.3,0-158.5-125.8-286.9-281-286.9S125,292.7,124.9,451.1c0,25.2,3.2,49.6,9.2,72.9.2.8,1,1.4,1.8,1.4l545.3-.2" style="fill: #fbb000; stroke: #000; stroke-miterlimit: 10; stroke-width: 9px;"/>
        <g id="Forground">
          <g id="Birds">
            <path id="Bird1" d="m477.742,338.469l51.541-.351c1.052,0,1.987-.818,2.104-1.753,1.052-6.194,4.675-27.932,8.064-50.372.351-2.221-2.454-3.389-3.857-1.636-16.946,21.037-19.167,31.906-19.401,35.529,0,.935-.584,1.636-1.519,1.87l-37.75,12.505c-2.221.701-1.636,4.207.818,4.207h0Z" style="fill: #2f272a; stroke-width: 0px;"/>
            <path id="Bird2" d="m360.756,217.259l14.6,40.7c.3.8,1.1,1.4,2,1.2,5.4-.9,24.4-4,44.1-7.5,1.9-.3,2.1-3,.3-3.6-22.2-7.5-31.8-6.2-34.8-5.4-.7.2-1.5-.1-1.9-.6l-21.1-26.6c-1.3-1.7-3.9-.2-3.2,1.8h0Z" style="fill: #2f272a; stroke-width: 0px;"/>
            <path id="Bird3" d="m477.233,251.086l26.315,4.887c1.128.251,2.13-.376,2.631-1.504,1.629-4.135,5.764-15.037,10.025-26.941.877-2.256-1.88-4.135-3.759-2.506-10.275,9.147-13.157,14.912-13.909,17.292-.251.877-1.002,1.504-1.88,1.629l-19.172,2.506c-2.757.251-2.757,4.135-.251,4.636h0Z" style="fill: #2f272a; stroke-width: 0px;"/>
          </g>
          <g id="Mountains">
            <path d="m693.571,400.806c14.173-15.171,28.346-30.342,42.519-45.512,21.303,35.357,42.607,70.714,63.91,106.071,0,31.594,0,63.189,0,94.783-262.87.634-525.741,1.267-788.611,1.901-.01-3.331-.388-132.188-.388-132.293,0-.038-.012-4.043-.012-4.043,26.983-44.286,53.966-88.573,80.95-132.859,8.577,9.715,17.155,19.43,25.732,29.146,28.224-40.446,56.449-80.893,84.673-121.339,30.574,45.351,61.148,90.702,91.723,136.053,3.119-4.45,6.239-8.9,9.359-13.351,14.31,14.462,22.222,22.567,22.496,23.086.021.039.182.383.433.401,0,0,.222.016.469-.313.737-.98,27.28-55.583,27.512-56.04.051-.101.202-.396.391-.391.18.005.316.282.391.469,27.596,38.845,55.191,77.689,82.787,116.534.159-.159,16.404-16.404,16.404-16.404h0s42.771,40.701,42.771,40.701h0c16.952-18.902,33.903-37.804,50.854-56.706,4.144,5.028,8.288,10.056,12.432,15.084h0s60.554-81.37,62.378-83.821c23.61,32.948,47.219,65.897,70.829,98.845Z" style="fill: #192a2c; stroke-width: 0px;"/>
            <path d="m548,441.3c4.408-12.996,8.816-25.992,13.224-38.988,4.292,2.729,8.584,5.459,12.876,8.188,14.841-20.774,29.681-41.548,44.522-62.322,0,0,3.276,44.493,3.278,44.522,10.2,38.6-9.7,49.8,2.1,60.1,11.8,10.3-5.7,28.2,5.3,35.2,11,6.9,25-45.5,38.4-35.2,5.886,5.445,15.008-17.32,33.931-36.464,4.061,4.86,8.121,9.72,12.181,14.579,11.501-13.124,6.729-1.189,10.788,7.385,9.102,24.541-12.217,31.641-11.509,40.347,7.081,14.308,15.366,46.103,18.896,49.892,2.582,1.649,5.776,2.543,7.478,4.075-78.698-8.045-129.256-13.213-129.266-13.214-61.42-78.255-114.613-14.016-62.2-78.1Z" style="fill: #4c7b6f; stroke-width: 0px;"/>
            <path d="m40.639,467.346c9.87-11.362,19.887-22.776,30.052-34.237,13.396-16.412,30.455-29.645,38.609-49.309,4.315-6.36,5.463-9.146,5.973-14.018,1.226-12.22,6.87-28.986,6.4-28.111,0,0,10.159,11.126,12.356,13.533.341-.133,1.143-.129,1.471,0,21.6-30.668,43.2-61.336,64.8-92.004,1.1-1.6,3.6-.6,3.4,1.3-2.1,20-2.1,42.2,3.3,62.8,14.9,56.7-14.3,73.1,3.1,88.2s-8.4,41.4,7.8,51.6c14.958,9.418,33.581-55.418,51.777-53.531,9.003,2.837,11.402,7.581,54.518-52.318,6.919,5.492,13.763,13.615,17.149,23.419,3.965-4.149,7.929-8.298,11.894-12.447,0,.001,3.684,10.299,4.561,21.877,1.743,23.017,3.42,20.152,2.483,24.375-4.516,20.365-25.87,27.89-17.483,39.525,4.1,5.5,61.6,33.4,74.6,77.1.4,1.4-.9,2.7-2.3,2.3-41.617-13.469-125.813-33.55-169.101-38.597-37.588,4.197-75.427,10.388-112.899,13.598-23.157-14.36-46.314-28.72-69.471-43.079-8.882,3.159-23.548,5.795-34.129,5.681-.449-4.866,5.861-10.609,11.139-7.658Z" style="fill: #4c7b6f; stroke-width: 0px;"/>
          </g>
        </g>
      </g>
    </g>
    <g id="ToolBar">
      <path id="Navbar" d="m777.7,6H33.7c-1.9,0-11.7.199-19.6,9.547-7.9,9.348-8.1,20.884-8.1,22.972.2,13.227.4,26.354.6,39.481h799.4c-.2-13.127-.4-26.254-.6-39.481,0-17.901-12.4-32.519-27.7-32.519Z" style="fill: #fff; stroke: #212121; stroke-miterlimit: 10; stroke-width: 12px;"/>
      <g id="Navitems">
        <g id="Buttons">
          <circle cx="158.2" cy="41.2" r="16" style="fill: #00ca4e; stroke: #000; stroke-miterlimit: 10; stroke-width: 4px;"/>
          <circle cx="105.9" cy="41.2" r="16" style="fill: #ffbd44; stroke: #000; stroke-miterlimit: 10; stroke-width: 4px;"/>
          <circle cx="53.6" cy="41.2" r="16" style="fill: #ff605c; stroke: #000; stroke-miterlimit: 10; stroke-width: 4px;"/>
        </g>
        <path id="SearchBar" d="m273.5,30.2h304c4.4,0,8,4.4,8,9.778v2.444c0,5.378-3.6,9.778-8,9.778h-304c-4.4,0-8-4.4-8-9.778v-2.444c0-5.5,3.5-9.778,8-9.778Z" style="fill: #212121; stroke-width: 0px;"/>
        <g id="Menu">
          <path d="m731.949,24.417h36.103c3.282,0,5.949,2.4,5.949,5.354v1.292c0,2.954-2.667,5.354-5.949,5.354h-36.103c-3.282,0-5.949-2.4-5.949-5.354v-1.292c0-2.954,2.667-5.354,5.949-5.354Z" style="fill: #212121; stroke-width: 0px;"/>
          <path d="m731.949,45.983h36.103c3.282,0,5.949,2.4,5.949,5.354v1.292c0,2.954-2.667,5.354-5.949,5.354h-36.103c-3.282,0-5.949-2.4-5.949-5.354v-1.292c0-2.954,2.667-5.354,5.949-5.354Z" style="fill: #212121; stroke-width: 0px;"/>
        </g>
      </g>
    </g>
  </g>
</svg>