<?xml version="1.0" encoding="UTF-8"?>
<svg id="Layer_2" data-name="Layer 2" xmlns="http://www.w3.org/2000/svg" width="685" height="500" xmlns:xlink="http://www.w3.org/1999/xlink" viewBox="0 0 685 500">
  <defs>
    <linearGradient id="linear-gradient" x1="340.93" y1="-76.34" x2="340.93" y2="367.85" gradientUnits="userSpaceOnUse">
      <stop offset=".02" stop-color="#573734"/>
      <stop offset=".03" stop-color="#5f3933"/>
      <stop offset=".05" stop-color="#7f4031"/>
      <stop offset=".08" stop-color="#9a472f"/>
      <stop offset=".11" stop-color="#b04c2d"/>
      <stop offset=".15" stop-color="#c1502c"/>
      <stop offset=".19" stop-color="#cd532b"/>
      <stop offset=".25" stop-color="#d4552b"/>
      <stop offset=".43" stop-color="#d6562b"/>
      <stop offset=".74" stop-color="#ed7c31"/>
      <stop offset="1" stop-color="#f4bb3a"/>
    </linearGradient>
  </defs>
  <g id="Layer">
    <g id="Icon">
      <g id="Display">
        <rect id="Background" x="12.95" y="79.8" width="655.97" height="405.66" style="fill: url(#linear-gradient); stroke-width: 0px;"/>
        <g id="Forground">
          <path id="Sun" d="m548.54,390.07c4.34-16.55,6.67-33.95,6.67-51.9.03-110.64-87.77-200.31-196.09-200.28-108.32.03-196.18,89.75-196.21,200.39,0,17.94,2.3,35.34,6.64,51.89l378.98-.11" style="fill: #fbb000; stroke: #000; stroke-miterlimit: 10; stroke-width: 1.25px;"/>
          <g id="Birds">
            <path id="Bird1" d="m414.51,273.82l43.59-.33s3.41-21.57,6.17-42.16c-17.36,21.86-15.79,30.24-15.79,30.24l-33.97,12.25Z" style="fill: #2f272a; stroke-width: 0px;"/>
            <path id="Bird2" d="m318.73,186.26l14.38,43.44s20.45-3.56,39.79-7.45c-25.21-10.28-32.21-6.02-32.21-6.02l-21.96-29.97Z" style="fill: #2f272a; stroke-width: 0px;"/>
            <path id="Bird3" d="m401.59,206.16l25.86,5.15s4.39-12.37,8.29-24.22c-12.67,10.82-12.67,15.97-12.67,15.97l-21.47,3.1Z" style="fill: #2f272a; stroke-width: 0px;"/>
          </g>
          <g id="Mountains">
            <path d="m676.1,489.71c-.38-3.62-.34-7.27.08-10.89-.1-1.07,0-2.15-.04-3.22-.58-5.32-.29-10.73.84-15.97-.28-1.42-.61-2.83-.77-4.27h.04c-2.72-8.07-3.29-16.79-1.75-25.14-1.28-3.39-2.12-6.93-2.62-10.51-13.73-11.34-32.01-52.16-32.01-52.16l-9.89,13.73-44.48-68.66-13.68,35.27c-9.06-13.97-14.44-9.67-16.16-7.57-.38.48-.59.87-.59.87l-48.92-77.34-44.48,68.66-9.89-13.73v.02c-.46,1.03-27.79,62.06-40.53,54.91-.85-.48-2.46-.25-4.71.58-13.66-22.62-25.24-48.63-25.24-48.63l-14.51,20.15-65.27-100.74-20.07,51.74c-13.31-20.51-21.19-14.2-23.68-11.11-.59.71-.87,1.25-.87,1.25l-71.8-113.48-65.25,100.76-14.51-20.15v.02c-.69,1.53-57.02,83.79-59.47,80.58-1.77,4.3-6.77,13.88-35.26,52.11,0,.21.88,66.49.39,65.33.17,1.96.31,38.16.25,40.12" style="fill: #192a2c; stroke-width: 0px;"/>
            <path d="m448.76,374.63h.02c5.88-9.11,4.17-16.19,8.82-29.15.43-1.22.68-2.65.78-4.23l6.99,9.69,36.1-55.64c-1.52,12.19-1.9,26.36,1.26,39.34,7.73,31.78-7.38,40.99,1.63,49.46,8.98,8.45-4.34,23.22,4.02,28.95,8.37,5.71,18.98-37.42,29.14-28.95,7.28,6.07,17.68-18.35,26.19-31.01l8.94,13.79,5.71-9.02c.21,5.06.93,9.9,2.39,14.2,7.73,22.62-13.52,27.24-7.73,35.88,3.51,5.2,7.94,25.48,13.37,40.31l-92.9-9.52c-17.13-18.05-39.94-40.65-49.03-35.54-3.98,2.24-8.92-.17-14.29-5.3,6.97-11.78,13.87-25.57,18.57-23.26" style="fill: #4c7b6f; stroke-width: 0px;"/>
            <path d="m55.76,393.63c22.75-32.69,38.64-61.88,51.4-55.66l5.08-12.04c8.63-13.35,1.06-11.69,7.86-30.72.64-1.78,1.01-3.89,1.19-6.21l10.24,14.25,52.96-81.65c-2.25,17.9-2.78,38.66,1.85,57.71,11.33,46.64-10.86,60.15,2.37,72.57,13.21,12.42-6.37,34.06,5.9,42.47,12.28,8.4,27.86-54.89,42.74-42.47,10.69,8.92,25.97-26.92,38.45-45.5l13.13,20.23,8.37-13.23c.29,7.4,1.36,14.52,3.53,20.86,11.33,33.17-19.84,39.94-11.35,52.61,3.15,4.68,48.86,28.63,57.25,66.12l-69-21-61.6-11.49-85.47,11.49-53.36-35.93-43.92,11.48c6.87-9.69,14.03-20.83,22.36-13.88" style="fill: #4c7b6f; stroke-width: 0px;"/>
          </g>
        </g>
      </g>
      <g id="Screen" fill="currentColor">
        <rect id="Left" y="11.74" width="20.18" height="478.28" style="stroke-width: 0px;"/>
        <rect id="Right" x="664.62" y="12.09" width="20.18" height="479.12" style="stroke-width: 0px;"/>
        <g id="ToolBar">
          <g id="Navbar">
            <path id="Searchbar" d="m220.94,36.31h259.15c4.1,0,7.42,3.61,7.42,8.06h0c0,4.46-3.32,8.07-7.42,8.07H220.94c-4.1,0-7.42-3.61-7.42-8.06h0c0-4.46,3.32-8.07,7.42-8.07Z" style="stroke-width: 0px;"/>
            <g id="Menu">
              <path d="m601.03,33.05h33.56c1.86,0,3.37,1.55,3.37,3.45v1.16c0,1.91-1.51,3.45-3.37,3.45h-33.56c-1.86,0-3.37-1.55-3.37-3.45v-1.16c0-1.91,1.51-3.45,3.37-3.45Z" style="stroke-width: 0px;"/>
              <path d="m601.03,49.44h33.56c1.86,0,3.37,1.55,3.37,3.45v1.16c0,1.91-1.51,3.45-3.37,3.45h-33.56c-1.86,0-3.37-1.55-3.37-3.45v-1.16c0-1.91,1.51-3.45,3.37-3.45Z" style="stroke-width: 0px;"/>
            </g>
            <g id="Buttons">
              <circle cx="50.8" cy="45.12" r="10" style="stroke-width: 0px;"/>
              <ellipse cx="92.06" cy="45.12" rx="10" ry="10.08" style="stroke-width: 0px;"/>
              <ellipse cx="133.34" cy="45.12" rx="10.07" ry="10.08" style="stroke-width: 0px;"/>
            </g>
          </g>
          <path id="Top" d="m9.31,0h666.39c5.14,0,9.31,4.19,9.31,9.37v1.85c0,5.17-4.17,9.37-9.31,9.37H9.31C4.17,20.59,0,16.39,0,11.22v-1.85C0,4.19,4.17,0,9.31,0Z" style="stroke-width: 0px;"/>
          <path id="Bottom" d="m9.7,71.71h667.17c4.18,0,7.56,3.41,7.56,7.61h0c0,4.2-3.38,7.6-7.56,7.6H9.7c-4.18,0-7.56-3.41-7.56-7.61h0c0-4.2,3.38-7.6,7.56-7.6Z" style="stroke-width: 0px;"/>
        </g>
        <path id="Bottom-2" data-name="Bottom" d="m10.69,478.85h663.71c5.8,0,10.5,4.73,10.5,10.57h0c0,5.85-4.7,10.58-10.5,10.58H10.69c-5.8,0-10.5-4.73-10.5-10.57H.19c0-5.85,4.7-10.58,10.5-10.58Z" style="stroke-width: 0px;"/>
      </g>
    </g>
  </g>
</svg>