<?xml version="1.0" encoding="UTF-8"?><svg id="Layer_2" xmlns="http://www.w3.org/2000/svg" width="812.1" height="811.7" xmlns:xlink="http://www.w3.org/1999/xlink" viewBox="0 0 812.1 811.7"><defs><linearGradient id="linear-gradient" x1="406" y1="2635.6" x2="406" y2="3125.6" gradientTransform="translate(0 -2563.4)" gradientUnits="userSpaceOnUse"><stop offset="0" stop-color="#d6562b"/><stop offset="0" stop-color="#df642d"/><stop offset=".2" stop-color="#e97530"/><stop offset=".3" stop-color="#ed7c31"/><stop offset=".7" stop-color="#f4bb3a"/></linearGradient></defs><g id="Layer_1-2"><g id="Icon"><g id="Base"><path id="Bottom" d="m639.1,713.8c6.8,0,44.1,4.3,64.3,27.3,11.3,12.9,23.8,37.7,11.5,53-9.8,12.1-28.5,12-31.8,11.5H121.6c-2.7-.2-21.8-2-27.9-14.8-6.3-13.4,6-29.5,12.6-38.2,21.5-28.2,55.6-36.3,72.8-38.9h460Z" fill="#e6e6e6" stroke="#000" stroke-miterlimit="10" stroke-width="12"/><rect id="Neck" x="312" y="633.8" width="188" height="80" fill="#ccc" stroke="#000" stroke-miterlimit="10" stroke-width="12"/></g><path id="Speaker" d="m6,561.7h800v53.2c0,14.8-12,26.8-26.8,26.8H32.8c-14.8,0-26.8-12-26.8-26.8v-53.2h0Z" fill="#f2f2f2" stroke="#000" stroke-miterlimit="10" stroke-width="12"/><g id="Screen"><rect id="Monitor" x="6" y="72.2" width="800" height="490" fill="url(#linear-gradient)" stroke="#212121" stroke-miterlimit="10" stroke-width="12"/><g id="Display"><path id="Sun" d="m677.5,525.3c6.2-23.7,9.6-48.6,9.6-74.3,0-158.5-125.8-286.9-281-286.9S125,292.7,124.9,451.1c0,25.2,3.2,49.6,9.2,72.9.2.8,1,1.4,1.8,1.4l545.3-.2" fill="#fbb000" stroke="#000" stroke-miterlimit="10" stroke-width="9"/><g id="Forground"><g id="Birds"><path id="Bird1" d="m477.7,338.5l51.5-.4c1.1,0,2-.8,2.1-1.8,1.1-6.2,4.7-27.9,8.1-50.4.4-2.2-2.5-3.4-3.9-1.6-16.9,21-19.2,31.9-19.4,35.5,0,.9-.6,1.6-1.5,1.9l-37.7,12.5c-2.2.7-1.6,4.2.8,4.2h0Z" fill="#2f272a" stroke-width="0"/><path id="Bird2" d="m360.8,217.3l14.6,40.7c.3.8,1.1,1.4,2,1.2,5.4-.9,24.4-4,44.1-7.5,1.9-.3,2.1-3,.3-3.6-22.2-7.5-31.8-6.2-34.8-5.4-.7.2-1.5-.1-1.9-.6l-21.1-26.6c-1.3-1.7-3.9-.2-3.2,1.8h0Z" fill="#2f272a" stroke-width="0"/><path id="Bird3" d="m477.2,251.1l26.3,4.9c1.1.3,2.1-.4,2.6-1.5,1.6-4.1,5.8-15,10-26.9.9-2.3-1.9-4.1-3.8-2.5-10.3,9.1-13.2,14.9-13.9,17.3-.3.9-1,1.5-1.9,1.6l-19.2,2.5c-2.8.3-2.8,4.1-.3,4.6h0Z" fill="#2f272a" stroke-width="0"/></g><g id="Mountains"><path d="m693.6,400.8c14.2-15.2,28.3-30.3,42.5-45.5,21.3,35.4,42.6,70.7,63.9,106.1,0,31.6,0,63.2,0,94.8-262.9.6-525.7,1.3-788.6,1.9,0-3.3-.4-132.2-.4-132.3,0,0,0-4,0-4,27-44.3,54-88.6,80.9-132.9,8.6,9.7,17.2,19.4,25.7,29.1,28.2-40.4,56.4-80.9,84.7-121.3,30.6,45.4,61.1,90.7,91.7,136.1,3.1-4.5,6.2-8.9,9.4-13.4,14.3,14.5,22.2,22.6,22.5,23.1,0,0,.2.4.4.4,0,0,.2,0,.5-.3.7-1,27.3-55.6,27.5-56,0-.1.2-.4.4-.4.2,0,.3.3.4.5,27.6,38.8,55.2,77.7,82.8,116.5.2-.2,16.4-16.4,16.4-16.4h0s42.8,40.7,42.8,40.7h0c17-18.9,33.9-37.8,50.9-56.7,4.1,5,8.3,10.1,12.4,15.1h0s60.6-81.4,62.4-83.8c23.6,32.9,47.2,65.9,70.8,98.8Z" fill="#192a2c" stroke-width="0"/><path d="m548,441.3h1.8c.6,0,1.2-.3,1.5-.8,7.1-10.7,5.1-19.2,11.1-34.6,0-.4.3-.7.4-1.1.4-1.5,2.3-1.9,3.2-.7l5.1,6.5c.8,1,2.3.9,3-.1l41.9-59.7c1.1-1.6,3.5-.6,3.4,1.3-1.2,13-1,27.3,2.5,40.6,10.2,38.6-9.7,49.8,2.1,60.1,11.8,10.3-5.7,28.2,5.3,35.2,11,6.9,25-45.5,38.4-35.2,9.2,7,22.1-19.7,33-35.5.7-1.1,2.3-1.1,3,0l8.7,12.4c.7,1.1,2.3,1,3,0l3.1-4.4c1-1.4,3.2-.9,3.4.9.5,4.3,1.4,8.3,2.7,12.1,10.2,27.5-17.8,33.1-10.2,43.6,4.4,6,9.9,28.5,16.5,46.2.5,1.3-.5,2.6-1.9,2.5l-118.8-11.2c-.4,0-.8-.2-1.1-.5-22.4-22.1-52.1-49.1-64-42.9-4.9,2.6-11,.1-17.6-5.3-.7-.6-.9-1.7-.4-2.5,8.9-14,17.6-29.6,23.6-26.9" fill="#4c7b6f" stroke-width="0"/><path d="m34.8,466.2s48.8-73.2,66.2-68.2c0,0,.6.2,1.2,0,.4-.2.8-.5,1-1l5.9-12.9c0,0,0-.2.2-.3,11.2-16.1,1.3-14.1,10.3-37.2.4-1,.7-2.2,1-3.4.3-1.5,2.3-2,3.3-.7l9.3,11.9c.8,1,2.3.9,3-.1l64.1-91.1c1.1-1.6,3.6-.6,3.4,1.3-2.1,20-2.1,42.2,3.3,62.8,14.9,56.7-14.3,73.1,3.1,88.2s-8.4,41.4,7.8,51.6c16.2,10.2,36.7-66.7,56.3-51.6,13.7,10.5,33-30.1,49.1-53.1.7-1.1,2.3-1.1,3,0l14.3,20.3c.7,1.1,2.3,1,3,0l6.5-9.5c1-1.4,3.2-.8,3.4.9.6,7.1,2,13.9,4.3,20,14.9,40.3-26.1,48.5-15,63.9,4.1,5.5,61.6,33.4,74.6,77.1.4,1.4-.9,2.7-2.3,2.3l-87.6-24.6h-.2l-80.8-14h-.5l-111.7,13.9c-.4,0-.8,0-1.2-.3l-69.1-42.9c-.4-.3-.9-.3-1.4-.2l-37.7,13.7s-.7-18.7,3.7-19.9c0,0,.6-.2,6.2,3.1Z" fill="#4c7b6f" stroke-width="0"/></g></g></g></g><g id="ToolBar"><path id="Navbar" d="m777.7,6H33.7c-1.9,0-11.7.2-19.6,9.5-7.9,9.3-8.1,20.9-8.1,23,.2,13.2.4,26.4.6,39.5h799.4c-.2-13.1-.4-26.3-.6-39.5,0-17.9-12.4-32.5-27.7-32.5Z" fill="#fff" stroke="#212121" stroke-miterlimit="10" stroke-width="12"/><g id="Navitems"><g id="Buttons"><circle cx="158.2" cy="41.2" r="16" fill="#00ca4e" stroke="#000" stroke-miterlimit="10" stroke-width="4"/><circle cx="105.9" cy="41.2" r="16" fill="#ffbd44" stroke="#000" stroke-miterlimit="10" stroke-width="4"/><circle cx="53.6" cy="41.2" r="16" fill="#ff605c" stroke="#000" stroke-miterlimit="10" stroke-width="4"/></g><path id="SearchBar" d="m273.5,30.2h304c4.4,0,8,4.4,8,9.8v2.4c0,5.4-3.6,9.8-8,9.8h-304c-4.4,0-8-4.4-8-9.8v-2.4c0-5.5,3.5-9.8,8-9.8Z" fill="#212121" stroke-width="0"/><g id="Menu"><path d="m731.9,24.4h36.1c3.3,0,5.9,2.4,5.9,5.4v1.3c0,3-2.7,5.4-5.9,5.4h-36.1c-3.3,0-5.9-2.4-5.9-5.4v-1.3c0-3,2.7-5.4,5.9-5.4Z" fill="#212121" stroke-width="0"/><path d="m731.9,46h36.1c3.3,0,5.9,2.4,5.9,5.4v1.3c0,3-2.7,5.4-5.9,5.4h-36.1c-3.3,0-5.9-2.4-5.9-5.4v-1.3c0-3,2.7-5.4,5.9-5.4Z" fill="#212121" stroke-width="0"/></g></g></g></g></g></svg>