<?xml version="1.0" encoding="UTF-8"?>
<svg id="Layer_2" data-name="Layer 2" xmlns="http://www.w3.org/2000/svg" width="812.09" height="812.01" xmlns:xlink="http://www.w3.org/1999/xlink" viewBox="0 0 812.09 812.01">
  <defs>
    <linearGradient id="linear-gradient" x1="406" y1="2662.91" x2="406" y2="3095.36" gradientTransform="translate(0 -2563.37)" gradientUnits="userSpaceOnUse">
      <stop offset=".01" stop-color="#d6562b"/>
      <stop offset=".15" stop-color="#da642d"/>
      <stop offset=".42" stop-color="#e58a32"/>
      <stop offset=".72" stop-color="#f4bb3a"/>
    </linearGradient>
  </defs>
  <g id="Icon">
    <g id="Base">
      <path id="Bottom" d="m639.12,713.85c6.8,0,44.1,4.31,64.3,27.36,11.3,12.93,23.8,37.78,11.5,53.11-9.8,12.12-28.5,12.02-31.8,11.52H121.64c-2.7-.2-21.8-2-27.9-14.83-6.3-13.43,6-29.56,12.6-38.28,21.5-28.26,55.6-36.37,72.8-38.98l459.98.1h0Z" fill="#e6e6e6" stroke="#000" stroke-miterlimit="10" stroke-width="12.02"/>
      <rect id="Neck" x="312" y="633.8" width="188" height="80" fill="#ccc" stroke="#000" stroke-miterlimit="10" stroke-width="12"/>
    </g>
    <path id="Speaker" d="m6,561.7h800v53.2c0,14.8-12,26.8-26.8,26.8H32.8c-14.8.1-26.8-12-26.8-26.8v-53.2h0Z" fill="#f2f2f2" stroke="#000" stroke-miterlimit="10" stroke-width="12"/>
    <g id="Screen">
      <rect id="Monitor" x="6" y="72.25" width="800" height="490" fill="url(#linear-gradient)" stroke="#212121" stroke-miterlimit="10" stroke-width="12"/>
      <g id="Display">
        <path id="Sun" d="m677.5,525.3c6.2-23.7,9.6-48.6,9.6-74.3,0-158.5-125.8-286.9-281-286.9S125,292.7,124.9,451.1c0,25.2,3.2,49.6,9.2,72.9.2.8,1,1.4,1.8,1.4l545.3-.2" fill="#fbb000" stroke="#000" stroke-miterlimit="10" stroke-width="9"/>
        <g id="Forground">
          <g id="Birds">
            <path id="Bird1" d="m477.74,338.47l51.54-.35c1.05,0,1.99-.82,2.1-1.75,1.05-6.19,4.67-27.93,8.06-50.37.35-2.22-2.45-3.39-3.86-1.64-16.95,21.04-19.17,31.91-19.4,35.53,0,.93-.58,1.64-1.52,1.87l-37.75,12.51c-2.22.7-1.64,4.21.82,4.21h0Z" fill="#2f272a" stroke-width="0"/>
            <path id="Bird2" d="m360.76,217.26l14.6,40.7c.3.8,1.1,1.4,2,1.2,5.4-.9,24.4-4,44.1-7.5,1.9-.3,2.1-3,.3-3.6-22.2-7.5-31.8-6.2-34.8-5.4-.7.2-1.5-.1-1.9-.6l-21.1-26.6c-1.3-1.7-3.9-.2-3.2,1.8h0Z" fill="#2f272a" stroke-width="0"/>
            <path id="Bird3" d="m477.23,251.09l26.31,4.89c1.13.25,2.13-.38,2.63-1.5,1.63-4.14,5.76-15.04,10.02-26.94.88-2.26-1.88-4.14-3.76-2.51-10.28,9.15-13.16,14.91-13.91,17.29-.25.88-1,1.5-1.88,1.63l-19.17,2.51c-2.76.25-2.76,4.14-.25,4.64h0Z" fill="#2f272a" stroke-width="0"/>
          </g>
          <g id="Mountains">
            <path d="m693.57,400.81c14.17-15.17,28.35-30.34,42.52-45.51,21.3,35.36,42.61,70.71,63.91,106.07,0,31.59,0,63.19,0,94.78-262.87.63-525.74,1.27-788.61,1.9,0-3.33-.39-132.19-.39-132.29,0-.04-.01-4.04-.01-4.04,26.98-44.29,53.97-88.57,80.95-132.86,8.58,9.72,17.15,19.43,25.73,29.15,28.22-40.45,56.45-80.89,84.67-121.34,30.57,45.35,61.15,90.7,91.72,136.05,3.12-4.45,6.24-8.9,9.36-13.35,14.31,14.46,22.22,22.57,22.5,23.09.02.04.18.38.43.4,0,0,.22.02.47-.31.74-.98,27.28-55.58,27.51-56.04.05-.1.2-.4.39-.39.18,0,.32.28.39.47,27.6,38.84,55.19,77.69,82.79,116.53.16-.16,16.4-16.4,16.4-16.4h0s42.77,40.7,42.77,40.7h0c16.95-18.9,33.9-37.8,50.85-56.71,4.14,5.03,8.29,10.06,12.43,15.08h0s60.55-81.37,62.38-83.82c23.61,32.95,47.22,65.9,70.83,98.85Z" fill="#192a2c" stroke-width="0"/>
            <path d="m548,441.3c4.41-13,8.82-25.99,13.22-38.99,4.29,2.73,8.58,5.46,12.88,8.19,14.84-20.77,29.68-41.55,44.52-62.32,0,0,3.28,44.49,3.28,44.52,10.2,38.6-9.7,49.8,2.1,60.1,11.8,10.3-5.7,28.2,5.3,35.2,11,6.9,25-45.5,38.4-35.2,5.89,5.44,15.01-17.32,33.93-36.46,4.06,4.86,8.12,9.72,12.18,14.58,11.5-13.12,6.73-1.19,10.79,7.39,9.1,24.54-12.22,31.64-11.51,40.35,7.08,14.31,15.37,46.1,18.9,49.89,2.58,1.65,5.78,2.54,7.48,4.08-78.7-8.04-129.26-13.21-129.27-13.21-61.42-78.26-114.61-14.02-62.2-78.1Z" fill="#4c7b6f" stroke-width="0"/>
            <path d="m40.64,467.35c9.87-11.36,19.89-22.78,30.05-34.24,13.4-16.41,30.46-29.65,38.61-49.31,4.32-6.36,5.46-9.15,5.97-14.02,1.23-12.22,6.87-28.99,6.4-28.11,0,0,10.16,11.13,12.36,13.53.34-.13,1.14-.13,1.47,0,21.6-30.67,43.2-61.34,64.8-92,1.1-1.6,3.6-.6,3.4,1.3-2.1,20-2.1,42.2,3.3,62.8,14.9,56.7-14.3,73.1,3.1,88.2s-8.4,41.4,7.8,51.6c14.96,9.42,33.58-55.42,51.78-53.53,9,2.84,11.4,7.58,54.52-52.32,6.92,5.49,13.76,13.61,17.15,23.42,3.96-4.15,7.93-8.3,11.89-12.45,0,0,3.68,10.3,4.56,21.88,1.74,23.02,3.42,20.15,2.48,24.37-4.52,20.36-25.87,27.89-17.48,39.53,4.1,5.5,61.6,33.4,74.6,77.1.4,1.4-.9,2.7-2.3,2.3-41.62-13.47-125.81-33.55-169.1-38.6-37.59,4.2-75.43,10.39-112.9,13.6-23.16-14.36-46.31-28.72-69.47-43.08-8.88,3.16-23.55,5.79-34.13,5.68-.45-4.87,5.86-10.61,11.14-7.66Z" fill="#4c7b6f" stroke-width="0"/>
          </g>
        </g>
      </g>
    </g>
    <g id="ToolBar">
      <path id="Navbar" d="m777.7,6H33.7c-1.9,0-11.7.2-19.6,9.55-7.9,9.35-8.1,20.88-8.1,22.97.2,13.23.4,26.35.6,39.48h799.4c-.2-13.13-.4-26.25-.6-39.48,0-17.9-12.4-32.52-27.7-32.52Z" fill="#fff" stroke="#212121" stroke-miterlimit="10" stroke-width="12"/>
      <g id="Navitems">
        <g id="Buttons">
          <circle cx="158.2" cy="41.2" r="16" fill="#00ca4e" stroke="#000" stroke-miterlimit="10" stroke-width="4"/>
          <circle cx="105.9" cy="41.2" r="16" fill="#ffbd44" stroke="#000" stroke-miterlimit="10" stroke-width="4"/>
          <circle cx="53.6" cy="41.2" r="16" fill="#ff605c" stroke="#000" stroke-miterlimit="10" stroke-width="4"/>
        </g>
        <path id="SearchBar" d="m273.5,30.2h304c4.4,0,8,4.4,8,9.78v2.44c0,5.38-3.6,9.78-8,9.78h-304c-4.4,0-8-4.4-8-9.78v-2.44c0-5.5,3.5-9.78,8-9.78Z" fill="#212121" stroke-width="0"/>
        <g id="Menu">
          <path d="m731.95,24.42h36.1c3.28,0,5.95,2.4,5.95,5.35v1.29c0,2.95-2.67,5.35-5.95,5.35h-36.1c-3.28,0-5.95-2.4-5.95-5.35v-1.29c0-2.95,2.67-5.35,5.95-5.35Z" fill="#212121" stroke-width="0"/>
          <path d="m731.95,45.98h36.1c3.28,0,5.95,2.4,5.95,5.35v1.29c0,2.95-2.67,5.35-5.95,5.35h-36.1c-3.28,0-5.95-2.4-5.95-5.35v-1.29c0-2.95,2.67-5.35,5.95-5.35Z" fill="#212121" stroke-width="0"/>
        </g>
      </g>
    </g>
  </g>
</svg>