<?xml version="1.0" encoding="UTF-8"?><svg id="Layer_2" xmlns="http://www.w3.org/2000/svg" width="457.1" height="456.6" viewBox="0 0 457.1 456.6"><g id="Layer_1-2"><g id="freepik--Shadows--inject-115"><path id="freepik--shadow--inject-115" d="m181,456l-42.7-24.6c-1.4-.8-1.4-2.2,0-3l79.6-45.9c1.6-.8,3.6-.8,5.2,0l42.7,24.8c1.4.8,1.4,2.2,0,3l-79.6,45.8c-1.6.8-3.6.8-5.2,0Z" isolation="isolate" opacity=".1" stroke-width="0"/><path id="freepik--shadow--inject-115-2" d="m366.3,374.4c-2,0-3.7-1.5-4.1-3.4l-.7-3.7c-1.6-.3-3.2-.7-4.7-1.2l-7.2,3.3c-1.4.6-3.1.6-4.5-.2l-7.4-4.2c-1.8-1-2.4-3.2-1.5-4.9.3-.5.7-.9,1.1-1.3l3.9-2.8c-.2-.3-.4-.5-.5-.8l-9-.6c-2.2-.1-3.8-1.9-3.8-4.1v-5.5c0-2.2,1.7-3.9,3.8-4.1l9-.6c.2-.3.3-.5.5-.8l-3.9-2.8c-1.7-1.1-2.1-3.4-1-5.1.3-.5.8-.9,1.3-1.1l7.4-4.2c.8-.4,1.6-.6,2.5-.6.7,0,1.4.1,2,.4l7.2,3.3c1.5-.5,3.1-.9,4.7-1.2l.7-3.7c.4-2,2.1-3.4,4.1-3.4h10.8c2,0,3.7,1.5,4.1,3.4l.7,3.7c1.6.3,3.2.7,4.7,1.2l7.2-3.3c.6-.3,1.3-.4,2-.4.9,0,1.7.2,2.5.6l7.4,4.2c1.8,1,2.4,3.2,1.5,5-.3.5-.7.9-1.1,1.3l-3.9,2.8c.2.3.4.5.5.8l9,.6c2.2.1,3.8,1.9,3.8,4.1v5.5c0,2.2-1.7,3.9-3.8,4.1l-9,.6c-.2.3-.3.5-.5.8l3.9,2.8c1.7,1.1,2.1,3.4,1,5.1-.3.5-.8.9-1.3,1.1l-7.4,4.2c-.8.4-1.6.6-2.5.6h0c-.7,0-1.4-.1-2-.4l-7.2-3.3c-1.6.5-3.1.9-4.7,1.2l-.7,3.7c-.4,2-2.1,3.4-4.1,3.4h-10.9Zm5.4-33.6c-3.8,0-7.5.8-10.9,2.6-2.3,1.3-3.6,3-3.6,4.5s1.3,3.2,3.6,4.5c6.8,3.4,14.9,3.4,21.8,0,2.3-1.3,3.6-3,3.6-4.5s-1.3-3.2-3.6-4.5c-3.3-1.8-7.1-2.6-10.9-2.6Z" isolation="isolate" opacity=".1" stroke-width="0"/><path id="freepik--shadow--inject-115-3" d="m422,327h-.5l-6.8-.7c-2.5-.3-4.3-2.5-4-5v-1.1c-.4-.2-1-.4-1.5-.7h-.2l-5.2,1.6c-.5.2-1,.2-1.6.2-1.3,0-2.6-.4-3.6-1.3l-3.5-2.9c-1.8-1.3-2.1-3.8-.8-5.6.4-.5.9-1,1.6-1.2l1.2-.6-3.2-.5c-2.4-.4-4-2.6-3.6-5,0-.2,0-.4.2-.6l.9-3c.7-2,2.6-3.4,4.7-3.4l5.8.2-.7-.8c-1.6-1.6-1.6-4.2,0-5.8.4-.4.9-.7,1.4-.9l5.5-2.2c.6-.2,1.3-.4,2-.4,1.1,0,2.2.3,3.2.9l3.5,2.3h0c1-.2,2.1-.3,3.1-.4l1-2c.9-1.7,2.7-2.7,4.6-2.8.2,0,.3,0,.5,0l6.8.7c2.5.3,4.3,2.5,4,4.9,0,0,0,0,0,0v1.1c.5.2,1,.4,1.6.7h0l5.2-1.6c.5-.2,1-.2,1.6-.2,1.3,0,2.6.4,3.6,1.3l3.5,2.9c1.8,1.3,2.1,3.8.8,5.6-.4.5-.9,1-1.6,1.2l-1.2.6,3.2.5c1.2.2,2.3.9,3,2,.7,1.1.8,2.4.4,3.6l-1,3c-.7,2-2.5,3.4-4.7,3.4l-5.8-.2.8.8c1.6,1.6,1.6,4.2,0,5.8-.4.4-.9.7-1.4.9l-5.5,2.2c-.6.2-1.3.4-2,.4-1.1,0-2.2-.3-3.2-.9l-3.4-2.3h0c-1,.2-2,.3-3.1.4l-1.1,2c-.9,1.7-2.6,2.8-4.6,2.8Zm1.8-25c-2.1,0-4.2.4-6.2,1.1-2.4,1-3.4,2.2-3.5,2.9s.6,1.5,1.1,1.9c1.8,1.5,5.1,2.5,8.6,2.5,2.1,0,4.2-.4,6.2-1.1,2.4-1,3.4-2.2,3.5-2.9s-.6-1.5-1.1-1.9c-1.9-1.5-5.1-2.5-8.6-2.5h0Z" isolation="isolate" opacity=".1" stroke-width="0"/></g><g id="freepik--Plants--inject-115"><g id="freepik--plants--inject-115"><path d="m26.6,363.7l6.2-3.6s3.7-15.3,2.2-29.1c-2-19.4-14.8-26.7-19.7-25.1s-6.3,7.3,1.8,18.9c4.7,6.9,10.6,21,9.5,38.9Z" fill="#263238" stroke-width="0"/><g opacity=".6"><path d="m26.6,363.7l6.2-3.6s3.7-15.3,2.2-29.1c-2-19.4-14.8-26.7-19.7-25.1s-6.3,7.3,1.8,18.9c4.7,6.9,10.6,21,9.5,38.9Z" fill="#126a00" opacity=".6" stroke-width="0"/></g><path d="m29.1,356.2h0c-.2,0-.4-.3-.3-.5,0,0,0,0,0,0,3.4-17.9-2.9-38-10.6-46.4-.2-.2-.2-.4,0-.6.2-.2.4-.2.6,0,7.9,8.5,14.3,29,10.8,47.2,0,.2-.2.3-.4.3Z" fill="#fff" stroke-width="0"/><path d="m11,372.8c-.9.5-3.4-1.6-4.1-2.1-1.2-.9-2.1-2.1-2.7-3.4-.7-1.5-.8-3.2-.5-4.9.2-.9.4-1.7.7-2.5l.9-2.5c.3-.8.5-1.6.5-2.5-.1-1.7-1.6-3-2.9-4.1S-.1,347.9,0,345.9c.2-1.6.9-3.1,2-4.2,1-1.2,2.3-2.2,3.2-3.5.7-.9,1.2-2,1.2-3.1,0-.7-.3-1.4-.6-2-.8-1.3-1.4-2.7-2-4.1-.5-1.5-.2-3.1.9-4.2,1-.7,2.3-1,3.6-.7,1.2.2,2.3.7,3.2,1.3,3.2,2,4.8,6,8.2,7.5,1.4.5,2.8.9,4.2,1.2,1.4.3,2.6,1.3,3.3,2.5,1.1,2.6-1.4,5.6-.6,8.4.7,2.4,2.9,3.5,4.1,5.7.5,1,.6,2.1.5,3.2-.2,1.8-.7,3.6-1.6,5.2-.9,1.7-2,3.3-3.1,4.8l-15.6,9.1Z" fill="#263238" stroke-width="0"/><path d="m11,372.8c-.9.5-3.4-1.6-4.1-2.1-1.2-.9-2.1-2.1-2.7-3.4-.7-1.5-.8-3.2-.5-4.9.2-.9.4-1.7.7-2.5l.9-2.5c.3-.8.5-1.6.5-2.5-.1-1.7-1.6-3-2.9-4.1S-.1,347.9,0,345.9c.2-1.6.9-3.1,2-4.2,1-1.2,2.3-2.2,3.2-3.5.7-.9,1.2-2,1.2-3.1,0-.7-.3-1.4-.6-2-.8-1.3-1.4-2.7-2-4.1-.5-1.5-.2-3.1.9-4.2,1-.7,2.3-1,3.6-.7,1.2.2,2.3.7,3.2,1.3,3.2,2,4.8,6,8.2,7.5,1.4.5,2.8.9,4.2,1.2,1.4.3,2.6,1.3,3.3,2.5,1.1,2.6-1.4,5.6-.6,8.4.7,2.4,2.9,3.5,4.1,5.7.5,1,.6,2.1.5,3.2-.2,1.8-.7,3.6-1.6,5.2-.9,1.7-2,3.3-3.1,4.8l-15.6,9.1Z" fill="#126a00" stroke-width="0"/><path d="m20,368.1h0c-.2,0-.4-.2-.4-.4,0,0,0,0,0,0,1.5-16.1-5.2-34.3-10.5-39.8-.2-.2-.2-.4,0-.6,0,0,0,0,0,0,.2-.2.4-.2.6,0,5.4,5.6,12.2,24.1,10.7,40.4,0,.2-.2.4-.4.4Z" fill="#fff" stroke-width="0"/><path d="m18.3,348.2h-.1c-3.8-1.3-7.7-2.1-11.6-2.5-.2,0-.4-.2-.4-.4,0-.2.2-.4.4-.4,0,0,0,0,0,0,4,.4,8,1.2,11.8,2.5.2,0,.3.3.2.5,0,0,0,0,0,0,0,.2-.2.3-.4.3Z" fill="#fff" stroke-width="0"/></g></g><g id="freepik--Gears--inject-115"><g id="freepik--Gear--inject-115"><g id="freepik--gear--inject-115"><path d="m434.3,289.2c-.6-.2-1.1-.9-1-1.5l.3-2.6c0-.6-.4-1.2-1-1.3,0,0,0,0,0,0l-6.8-.7c-.7,0-1.4.4-1.8,1l-1.4,2.6c-.4.6-1,1.1-1.8,1.1-1.2,0-2.4.2-3.5.4-.8,0-1.5,0-2.2-.4l-3.7-2.4c-.6-.4-1.4-.5-2.1-.2l-5.5,2.2c-.3,0-.5.4-.6.7h0v5.6h0c0,.2,0,.4.3.6l.3.3c-.4.3-1,.5-1.5.5l-6.2-.2c-.7,0-1.3.4-1.6,1.1l-.9,3c0,.1,0,.2,0,.4h0v5.6h0c0,.5.4.9.9,1l4.8.8-1.9,1c-.3.1-.5.4-.5.7h0v5.6h0c0,.2.1.5.3.6l3.5,2.9c.6.4,1.4.6,2.1.4l5.3-1.7c.7-.2,1.5-.1,2.2.1.9.4,1.9.7,2.8,1,.3,0,.5.3.7.5v3.8h0c0,.6.4,1.1,1,1.2l6.8.7c.7,0,1.4-.3,1.8-1l1.4-2.6c.4-.6,1-1.1,1.8-1.1,1.2,0,2.4-.2,3.5-.4.8-.1,1.5,0,2.2.4l3.7,2.4c.6.4,1.4.5,2.1.2l5.5-2.2c.3-.1.5-.4.6-.7h0v-5.6h0c0-.2-.1-.4-.3-.6l-.3-.3c.4-.3,1-.4,1.5-.5l6.2.2c.7,0,1.3-.4,1.6-1.1l1-3c0-.1,0-.2,0-.3h0v-5.6h0c0-.5-.4-.9-.9-1l-4.8-.8,1.9-.9c.3-.1.5-.4.5-.7h0v-5.6h0c0-.3-.1-.5-.3-.6l-3.5-2.9c-.6-.4-1.4-.6-2.1-.4l-5.3,1.7c-.8.2-1.5.1-2.3-.1-.9-.4-1.9-.8-2.9-1.1Zm-22.6,14.1c1.2-1.6,2.8-2.7,4.6-3.4,5.9-2.4,14-1.5,18.1,1.9.5.4,1,.9,1.4,1.5-1.2,1.6-2.8,2.7-4.7,3.4-5.9,2.4-14,1.5-18.1-1.9-.5-.4-1-.9-1.4-1.5Z" fill="#263238" stroke-width="0"/><path d="m434.3,289.2c-.6-.2-1.1-.9-1-1.5l.3-2.6c0-.6-.4-1.2-1-1.3,0,0,0,0,0,0l-6.8-.7c-.7,0-1.4.4-1.8,1l-1.4,2.6c-.4.6-1,1.1-1.8,1.1-1.2,0-2.4.2-3.5.4-.8,0-1.5,0-2.2-.4l-3.7-2.4c-.6-.4-1.4-.5-2.1-.2l-5.5,2.2c-.3,0-.5.4-.6.7h0v5.6h0c0,.2,0,.4.3.6l.3.3c-.4.3-1,.5-1.5.5l-6.2-.2c-.7,0-1.3.4-1.6,1.1l-.9,3c0,.1,0,.2,0,.4h0v5.6h0c0,.5.4.9.9,1l4.8.8-1.9,1c-.3.1-.5.4-.5.7h0v5.6h0c0,.2.1.5.3.6l3.5,2.9c.6.4,1.4.6,2.1.4l5.3-1.7c.7-.2,1.5-.1,2.2.1.9.4,1.9.7,2.8,1,.3,0,.5.3.7.5v3.8h0c0,.6.4,1.1,1,1.2l6.8.7c.7,0,1.4-.3,1.8-1l1.4-2.6c.4-.6,1-1.1,1.8-1.1,1.2,0,2.4-.2,3.5-.4.8-.1,1.5,0,2.2.4l3.7,2.4c.6.4,1.4.5,2.1.2l5.5-2.2c.3-.1.5-.4.6-.7h0v-5.6h0c0-.2-.1-.4-.3-.6l-.3-.3c.4-.3,1-.4,1.5-.5l6.2.2c.7,0,1.3-.4,1.6-1.1l1-3c0-.1,0-.2,0-.3h0v-5.6h0c0-.5-.4-.9-.9-1l-4.8-.8,1.9-.9c.3-.1.5-.4.5-.7h0v-5.6h0c0-.3-.1-.5-.3-.6l-3.5-2.9c-.6-.4-1.4-.6-2.1-.4l-5.3,1.7c-.8.2-1.5.1-2.3-.1-.9-.4-1.9-.8-2.9-1.1Zm-22.6,14.1c1.2-1.6,2.8-2.7,4.6-3.4,5.9-2.4,14-1.5,18.1,1.9.5.4,1,.9,1.4,1.5-1.2,1.6-2.8,2.7-4.7,3.4-5.9,2.4-14,1.5-18.1-1.9-.5-.4-1-.9-1.4-1.5Z" fill="#fff" isolation="isolate" opacity=".2" stroke-width="0"/><path d="m401.8,302.6c-.2-.7-.7-1.2-1.4-1.4l-5.9-1c-.5,0-.8-.4-.9-.9v5.5c0,.5.4.9.9,1l4.8.8,2.5-1.3c.6-.3.8-1,.5-1.6,0,0,0,0,0,0-.2-.4-.3-.8-.4-1.2Zm1.5-9h0c0,.2,0,.4.3.6l.3.3c.2-.1.4-.2.5-.4.5-.5,1-.9,1.5-1.3.5-.3.6-1,.3-1.5,0,0,0,0-.1-.1l-2.5-2.6c-.2-.2-.3-.4-.3-.6v5.6Z" isolation="isolate" opacity=".1" stroke-width="0"/><path d="m416.3,294.3c-5.1,2-6.9,5.8-4.6,9,1.2-1.5,2.8-2.7,4.6-3.4,5.9-2.4,14-1.5,18.1,1.9.5.4,1,.9,1.4,1.5,1.6-2.3,1.2-4.9-1.4-7.1-4.1-3.5-12.2-4.3-18.1-1.9Z" isolation="isolate" opacity=".1" stroke-width="0"/><path d="m425.5,313.7c-.2.2-.4.4-.6.6l-1.4,2.6c-.2.4-.6.7-1,.8v5.6c.4-.1.8-.4,1-.8l1.4-2.6c.1-.3.3-.5.6-.6v-5.6Zm18.7-.7h0c0,.3-.2.6-.6.7l-5.4,2.2c-.5.2-1,.2-1.4,0v5.6c.5.1,1,.1,1.4,0l5.5-2.2c.3,0,.5-.4.6-.7v-5.6Zm-36.2-2.4l-5.2,1.6c-.4.1-.9.1-1.3,0v5.6c.4.1.9.1,1.3,0l5.2-1.6v-5.6Zm45.9-8.9c0,.1,0,.2,0,.3l-.9,3c-.2.7-.9,1.1-1.6,1.1l-6.2-.2c-.3,0-.7,0-1,.2v5.6c.3-.1.7-.2,1-.2l6.2.2c.7,0,1.3-.4,1.6-1.1l.9-3c0-.1,0-.2,0-.3v-5.6Zm-3.3-9.1c0,0,0,.1,0,.2,0,.1-.1.2-.2.3,0,0-.2.1-.3.2l-4.4,2.2c-.1,0-.2.1-.3.2-.1.1-.2.3-.3.5,0,.1,0,.3,0,.4v.2c0,.1,0,.2.1.3.2.4.3.8.5,1.2.2.7.7,1.2,1.4,1.4l1.1.2,1.9-.9c.3-.1.5-.4.5-.7h0v-5.6Z" fill="#263238" stroke-width="0"/><path d="m425.5,313.7c-.2.2-.4.4-.6.6l-1.4,2.6c-.2.4-.6.7-1,.8v5.6c.4-.1.8-.4,1-.8l1.4-2.6c.1-.3.3-.5.6-.6v-5.6Zm18.7-.7h0c0,.3-.2.6-.6.7l-5.4,2.2c-.5.2-1,.2-1.4,0v5.6c.5.1,1,.1,1.4,0l5.5-2.2c.3,0,.5-.4.6-.7v-5.6Zm-36.2-2.4l-5.2,1.6c-.4.1-.9.1-1.3,0v5.6c.4.1.9.1,1.3,0l5.2-1.6v-5.6Zm45.9-8.9c0,.1,0,.2,0,.3l-.9,3c-.2.7-.9,1.1-1.6,1.1l-6.2-.2c-.3,0-.7,0-1,.2v5.6c.3-.1.7-.2,1-.2l6.2.2c.7,0,1.3-.4,1.6-1.1l.9-3c0-.1,0-.2,0-.3v-5.6Zm-3.3-9.1c0,0,0,.1,0,.2,0,.1-.1.2-.2.3,0,0-.2.1-.3.2l-4.4,2.2c-.1,0-.2.1-.3.2-.1.1-.2.3-.3.5,0,.1,0,.3,0,.4v.2c0,.1,0,.2.1.3.2.4.3.8.5,1.2.2.7.7,1.2,1.4,1.4l1.1.2,1.9-.9c.3-.1.5-.4.5-.7h0v-5.6Z" fill="#fff" isolation="isolate" opacity=".7" stroke-width="0"/><path d="m444.7,288.7l-5.3,1.7c-.8.2-1.5.1-2.3-.1-.9-.4-1.9-.8-2.8-1-.6-.2-1.1-.9-1-1.5l.3-2.6c0-.6-.4-1.2-1-1.3,0,0,0,0,0,0l-6.8-.7c-.7,0-1.4.4-1.8,1l-1.4,2.6c-.4.6-1,1.1-1.8,1.1-1.2,0-2.4.2-3.5.4-.8,0-1.5,0-2.2-.4l-3.7-2.4c-.6-.4-1.4-.5-2.1-.2l-5.5,2.2c-.4.1-.6.5-.5.9,0,.1.1.3.2.4l2.5,2.6c.4.4.4,1,0,1.4,0,0-.1.1-.2.2-.5.4-1,.9-1.5,1.3-.5.5-1.2.8-2,.9l-6.2-.2c-.7,0-1.3.4-1.6,1.1l-.9,3c-.2.5,0,1.1.6,1.3,0,0,.2,0,.3,0l5.9,1c.7.2,1.3.7,1.5,1.4.1.4.3.8.5,1.2.3.6,0,1.3-.5,1.6l-4.4,2.2c-.4.1-.6.6-.4.9,0,.2.2.3.3.4l3.5,2.9c.6.4,1.4.6,2.1.4l5.3-1.7c.7-.2,1.5-.1,2.2.1.9.4,1.9.7,2.8,1,.6.2,1.1.8,1,1.5l-.3,2.6c0,.6.4,1.2,1,1.3,0,0,0,0,0,0l6.8.7c.7,0,1.4-.3,1.8-1l1.4-2.6c.4-.6,1-1.1,1.8-1.1,1.2,0,2.4-.2,3.5-.4.8-.1,1.5,0,2.2.4l3.7,2.4c.6.4,1.4.5,2.1.2l5.5-2.2c.4-.1.6-.5.5-.9,0-.1-.1-.3-.2-.4l-2.5-2.7c-.4-.4-.4-1.1,0-1.5,0,0,0,0,.1-.1.5-.4,1-.8,1.5-1.3.5-.5,1.3-.8,2-.9l6.2.2c.7,0,1.3-.4,1.6-1.1l.9-3c.2-.5,0-1.1-.6-1.3,0,0-.2,0-.3,0l-5.9-1c-.7-.2-1.2-.7-1.4-1.4-.1-.4-.3-.8-.5-1.2-.3-.6,0-1.3.5-1.6h0s4.4-2.2,4.4-2.2c.4-.1.6-.5.5-.9,0-.2-.2-.3-.3-.4l-3.5-2.9c-.6-.4-1.4-.6-2.1-.4Zm-10.2,7.5c4.1,3.4,2.6,8.1-3.3,10.5s-14,1.5-18.1-1.9-2.6-8.1,3.3-10.5,14-1.6,18.1,1.8h0Z" fill="#263238" stroke-width="0"/></g><g opacity=".6"><path d="m444.7,288.7l-5.3,1.7c-.8.2-1.5.1-2.3-.1-.9-.4-1.9-.8-2.8-1-.6-.2-1.1-.9-1-1.5l.3-2.6c0-.6-.4-1.2-1-1.3,0,0,0,0,0,0l-6.8-.7c-.7,0-1.4.4-1.8,1l-1.4,2.6c-.4.6-1,1.1-1.8,1.1-1.2,0-2.4.2-3.5.4-.8,0-1.5,0-2.2-.4l-3.7-2.4c-.6-.4-1.4-.5-2.1-.2l-5.5,2.2c-.4.1-.6.5-.5.9,0,.1.1.3.2.4l2.5,2.6c.4.4.4,1,0,1.4,0,0-.1.1-.2.2-.5.4-1,.9-1.5,1.3-.5.5-1.2.8-2,.9l-6.2-.2c-.7,0-1.3.4-1.6,1.1l-.9,3c-.2.5,0,1.1.6,1.3,0,0,.2,0,.3,0l5.9,1c.7.2,1.3.7,1.5,1.4.1.4.3.8.5,1.2.3.6,0,1.3-.5,1.6l-4.4,2.2c-.4.1-.6.6-.4.9,0,.2.2.3.3.4l3.5,2.9c.6.4,1.4.6,2.1.4l5.3-1.7c.7-.2,1.5-.1,2.2.1.9.4,1.9.7,2.8,1,.6.2,1.1.8,1,1.5l-.3,2.6c0,.6.4,1.2,1,1.3,0,0,0,0,0,0l6.8.7c.7,0,1.4-.3,1.8-1l1.4-2.6c.4-.6,1-1.1,1.8-1.1,1.2,0,2.4-.2,3.5-.4.8-.1,1.5,0,2.2.4l3.7,2.4c.6.4,1.4.5,2.1.2l5.5-2.2c.4-.1.6-.5.5-.9,0-.1-.1-.3-.2-.4l-2.5-2.7c-.4-.4-.4-1.1,0-1.5,0,0,0,0,.1-.1.5-.4,1-.8,1.5-1.3.5-.5,1.3-.8,2-.9l6.2.2c.7,0,1.3-.4,1.6-1.1l.9-3c.2-.5,0-1.1-.6-1.3,0,0-.2,0-.3,0l-5.9-1c-.7-.2-1.2-.7-1.4-1.4-.1-.4-.3-.8-.5-1.2-.3-.6,0-1.3.5-1.6h0s4.4-2.2,4.4-2.2c.4-.1.6-.5.5-.9,0-.2-.2-.3-.3-.4l-3.5-2.9c-.6-.4-1.4-.6-2.1-.4Zm-10.2,7.5c4.1,3.4,2.6,8.1-3.3,10.5s-14,1.5-18.1-1.9-2.6-8.1,3.3-10.5,14-1.6,18.1,1.8h0Z" fill="#fff" stroke-width="0"/><path d="m425.5,283.7h0l6.8.7c.1,0,.3,0,.4.2,0,.1.1.2.1.4l-.3,2.6c0,1,.5,2,1.5,2.3.9.3,1.9.6,2.8,1,.5.2,1.1.3,1.7.3.4,0,.7,0,1-.1l5.3-1.7c.1,0,.3,0,.4,0,.4,0,.8.1,1.1.3l3.5,2.9c0,0,0,.1.1.1s0,0-.1,0l-4.4,2.2c-.9.5-1.3,1.6-.8,2.5,0,0,0,0,0,0,.2.4.3.7.4,1.1.3.9,1,1.6,2,1.9l5.9,1c.2,0,.3.2.3.3,0,0,0,0,0,.1l-.9,3c-.1.4-.5.6-.9.6h0l-6.2-.2h0c-.9,0-1.8.4-2.4,1.1-.4.5-.9.9-1.4,1.3-.4.3-.7.8-.7,1.3,0,.5.1,1,.5,1.3l2.5,2.6s0,0,0,.1c0,0,0,0-.1.1l-5.4,2.2c-.2,0-.4,0-.5,0-.3,0-.7,0-1-.2l-3.7-2.4c-.7-.4-1.4-.6-2.1-.6-.2,0-.4,0-.5,0-1.1.2-2.3.3-3.5.4-1,.1-1.8.7-2.3,1.5l-1.3,2.7c-.2.3-.6.6-1,.6h0l-6.8-.7c-.1,0-.3,0-.4-.2,0-.1-.1-.3-.1-.4l.3-2.6c0-1-.5-2-1.5-2.3-.9-.3-1.9-.6-2.8-1-.5-.2-1.1-.3-1.7-.3-.3,0-.7,0-1,.1l-5.3,1.7c-.1,0-.3,0-.4,0-.4,0-.8-.1-1.1-.3l-3.5-2.9s0,0-.1-.1c0,0,0,0,.1,0l4.4-2.2c.9-.5,1.3-1.6.8-2.5-.2-.3-.3-.7-.4-1.1-.3-.9-1-1.7-2-1.9l-5.9-1c-.1,0-.2,0-.3-.2,0-.1,0-.2,0-.3l1-3c.1-.4.5-.6.9-.6h0l6.2.2h0c.9,0,1.8-.4,2.4-1.1.4-.4.9-.9,1.4-1.3.4-.3.7-.8.7-1.3,0-.5-.1-1-.5-1.3l-2.5-2.6c0,0,0-.1,0-.1s0,0,.1-.1l5.5-2.2c.2,0,.4,0,.5,0,.4,0,.7,0,1,.2l3.7,2.4c.6.4,1.4.6,2.1.6.2,0,.4,0,.5,0,1.1-.2,2.3-.3,3.5-.4,1,0,1.8-.7,2.3-1.5l1.4-2.6c.2-.4.6-.6,1-.6m-1.8,25c2.6,0,5.2-.4,7.7-1.4,3.4-1.4,5.6-3.5,6-6,.3-2-.6-4-2.5-5.6-2.5-2.1-6.7-3.4-11.1-3.4-2.6,0-5.2.5-7.7,1.4-3.4,1.4-5.6,3.6-6,6-.3,2.2.7,4.3,2.5,5.6,2.5,2.1,6.7,3.4,11.1,3.4m1.8-25.7c-.7,0-1.3.4-1.6,1l-1.4,2.6c-.4.6-1,1.1-1.8,1.1-1.2,0-2.4.2-3.5.4-.1,0-.3,0-.4,0-.6,0-1.2-.2-1.8-.5l-3.7-2.4c-.4-.2-.9-.4-1.3-.4-.3,0-.5,0-.8.1l-5.5,2.2c-.4.1-.6.5-.5.9,0,.1.1.3.2.4l2.5,2.6c.4.4.4,1,0,1.4,0,0-.1.1-.2.2-.5.4-1,.9-1.5,1.3-.5.5-1.3.8-2,.9h0l-6.2-.2h0c-.7,0-1.3.5-1.5,1.1l-.9,3c-.2.5,0,1.1.6,1.3,0,0,.2,0,.3,0l5.9,1c.7.2,1.3.7,1.5,1.4.1.4.3.8.5,1.2.3.6,0,1.3-.5,1.6l-4.4,2.2c-.4.1-.6.6-.4.9,0,.2.2.3.3.4l3.5,2.9c.4.3,1,.5,1.5.5.2,0,.4,0,.6,0l5.3-1.7c.3,0,.6-.1.8-.1.5,0,1,0,1.4.3.9.4,1.9.7,2.8,1,.6.2,1.1.8,1,1.5l-.3,2.6c0,.6.4,1.2,1,1.3,0,0,0,0,0,0l6.8.7h.1c.7,0,1.3-.4,1.6-1l1.4-2.6c.4-.6,1-1.1,1.8-1.1,1.2,0,2.4-.2,3.5-.4.1,0,.3,0,.4,0,.6,0,1.2.2,1.8.5l3.7,2.4c.4.2.9.4,1.3.4.3,0,.5,0,.8-.1l5.5-2.2c.4-.1.6-.5.5-.9,0-.1-.1-.3-.2-.4l-2.5-2.7c-.4-.4-.4-1.1,0-1.5,0,0,0,0,.1-.1.5-.4,1-.8,1.5-1.3.5-.5,1.2-.8,2-.9h0l6.2.2h0c.7,0,1.3-.5,1.5-1.1l.9-3c.2-.5,0-1.1-.6-1.3,0,0-.2,0-.3,0l-5.9-1c-.7-.2-1.2-.7-1.4-1.4-.1-.4-.3-.8-.5-1.2-.3-.6,0-1.3.5-1.6h0s4.4-2.2,4.4-2.2c.4-.1.6-.6.5-.9,0-.2-.2-.3-.3-.4l-3.5-2.9c-.4-.3-1-.5-1.5-.5-.2,0-.4,0-.6,0l-5.3,1.7c-.3,0-.6.1-.9.1-.5,0-1,0-1.4-.3-.9-.4-1.9-.8-2.8-1-.6-.2-1.1-.9-1-1.5l.3-2.6c0-.6-.4-1.2-1-1.3,0,0,0,0,0,0l-6.8-.7h0Zm-1.8,25c-4.1,0-8.2-1.1-10.7-3.2-4.1-3.4-2.6-8.1,3.3-10.5,2.4-.9,4.9-1.4,7.4-1.3,4.1,0,8.2,1.1,10.7,3.2,4.1,3.4,2.6,8.1-3.3,10.5-2.4.9-4.9,1.4-7.4,1.3h0Z" fill="#fff" stroke-width="0"/></g><g opacity=".6"><path d="m425.5,283.5h0l6.8.7c.2,0,.3.1.5.2.1.1.2.3.1.5l-.3,2.6c0,.9.5,1.8,1.4,2.1.9.3,1.9.6,2.8,1,.5.2,1.1.3,1.6.3.3,0,.7,0,1-.1l5.3-1.7c.1,0,.3,0,.4,0,.4,0,.8.1,1.2.4l3.5,2.9c0,0,.1.1.2.2,0,0,0,.1-.2.2l-4.4,2.2c-.8.4-1.2,1.4-.8,2.3,0,0,0,0,0,0,.2.4.3.7.4,1.1.3.9,1,1.6,1.9,1.8l5.9,1c.2,0,.3.1.4.2,0,.1,0,.3,0,.5l-.9,3c-.2.4-.6.7-1,.7h0l-6.2-.2h0c-.9,0-1.7.4-2.3,1-.5.5-.9.9-1.4,1.3-.4.3-.6.7-.6,1.2,0,.4.1.9.4,1.2l2.5,2.6c0,0,.1.2.1.3,0,0-.1.2-.2.2l-5.5,2.3c-.2,0-.4.1-.6.1-.4,0-.7,0-1-.3l-3.6-2.5c-.6-.4-1.3-.6-2.1-.6-.2,0-.3,0-.5,0-1.1.2-2.3.3-3.5.4-.9.1-1.7.6-2.2,1.4l-1.4,2.7c-.2.4-.7.7-1.1.7h0l-6.8-.7c-.2,0-.3-.1-.5-.2-.1-.1-.2-.3-.1-.5l.3-2.6c0-.9-.5-1.8-1.4-2.1-1-.3-1.9-.6-2.8-1-.5-.2-1.1-.3-1.6-.3-.3,0-.7,0-1,.1l-5.3,1.7c-.1,0-.3,0-.4,0-.4,0-.8-.1-1.2-.4l-3.5-2.9c0,0-.1-.1-.2-.2,0,0,0-.1.2-.2l4.4-2.2c.8-.4,1.2-1.5.7-2.3-.2-.4-.3-.7-.4-1.1-.3-.9-1-1.6-1.9-1.8l-5.9-1c-.3,0-.5-.3-.5-.6,0,0,0,0,0-.1l.9-3c.2-.4.6-.7,1-.7h0l6.2.2h0c.9,0,1.7-.4,2.3-1,.4-.5.9-.9,1.4-1.3.4-.3.6-.7.6-1.2,0-.4-.1-.9-.4-1.2l-2.4-2.7c0,0-.1-.2-.1-.3,0-.1.1-.2.2-.2l5.4-2.2c.2,0,.4-.1.6-.1.4,0,.7,0,1,.3l3.7,2.4c.6.4,1.3.6,2.1.6.2,0,.3,0,.5,0,1.1-.2,2.3-.3,3.5-.4.9-.1,1.7-.6,2.2-1.4l1.4-2.6c.2-.4.7-.7,1.1-.7m-1.8,25c2.6,0,5.2-.4,7.6-1.4,3.4-1.3,5.5-3.5,5.9-5.9.2-2.1-.7-4.2-2.5-5.5-2.5-2.1-6.6-3.4-11-3.4-2.6,0-5.2.4-7.6,1.4-3.3,1.3-5.5,3.5-5.9,5.9-.3,1.9.6,3.9,2.5,5.4,2.5,2.1,6.6,3.4,11,3.4m1.8-25.5c-.7,0-1.3.4-1.6,1l-1.4,2.6c-.4.6-1,1.1-1.8,1.1-1.2,0-2.4.2-3.5.4-.1,0-.3,0-.4,0-.6,0-1.2-.2-1.8-.5l-3.7-2.4c-.4-.2-.9-.4-1.3-.4-.3,0-.5,0-.8.1l-5.5,2.2c-.4.1-.6.5-.5.9,0,.1.1.3.2.4l2.5,2.6c.4.4.4,1,0,1.4,0,0-.1.1-.2.2-.5.4-1,.9-1.5,1.3-.5.5-1.2.8-2,.9h0l-6.2-.2h0c-.7,0-1.3.5-1.5,1.1l-.9,3c-.2.5,0,1.1.6,1.3,0,0,.2,0,.3,0l5.9,1c.7.2,1.3.7,1.5,1.4.1.4.3.8.5,1.2.3.6,0,1.3-.5,1.6l-4.4,2.2c-.4.1-.6.6-.4.9,0,.2.2.3.3.4l3.5,2.9c.4.3,1,.5,1.5.5.2,0,.4,0,.6,0l5.3-1.7c.3,0,.6-.1.9-.1.5,0,1,0,1.4.3.9.4,1.9.7,2.8,1,.6.2,1.1.8,1,1.5l-.3,2.6c0,.6.4,1.2,1,1.3,0,0,0,0,0,0l6.8.7h.3c.7,0,1.3-.4,1.6-1l1.4-2.6c.4-.6,1-1.1,1.8-1.1,1.2,0,2.4-.2,3.5-.4.1,0,.3,0,.4,0,.6,0,1.2.2,1.8.5l3.7,2.4c.4.2.9.4,1.3.4.3,0,.5,0,.8-.1l5.5-2.2c.4-.1.6-.5.5-.9,0-.1-.1-.3-.2-.4l-2.5-2.6c-.4-.4-.4-1.1,0-1.5,0,0,0,0,.1-.1.5-.4,1-.8,1.5-1.3.5-.5,1.2-.8,2-.9h0l6.2.2h0c.7,0,1.3-.5,1.5-1.1l.9-3c.2-.5,0-1.1-.6-1.3,0,0-.2,0-.3,0l-5.9-1c-.7-.2-1.2-.7-1.4-1.4-.1-.4-.3-.8-.5-1.2-.3-.6,0-1.3.5-1.6h0s4.4-2.2,4.4-2.2c.4-.1.6-.5.5-.9,0-.2-.2-.3-.3-.4l-3.5-2.9c-.4-.3-1-.5-1.5-.5-.2,0-.4,0-.6,0l-5.3,1.7c-.3,0-.6.1-.9.1-.5,0-1,0-1.4-.3-.9-.4-1.9-.8-2.8-1-.6-.2-1.1-.9-1-1.5l.3-2.6c0-.6-.4-1.2-1-1.3,0,0,0,0,0,0l-6.8-.7h-.2Zm-1.8,25c-4.1,0-8.2-1.1-10.7-3.2-4.1-3.4-2.6-8.1,3.3-10.5,2.4-.9,4.9-1.4,7.4-1.3,4.1,0,8.2,1.1,10.7,3.2,4.1,3.4,2.6,8.1-3.3,10.5-2.4.9-4.9,1.4-7.4,1.3h0Z" fill="#fff" stroke-width="0"/></g></g><g id="freepik--gear--inject-115-2"><g id="freepik--gear--inject-115-3"><path d="m404.2,326.9l-7.4-4.2c-.5-.3-1.1-.3-1.6,0l-7.5,3.5c-.5.2-1.1.2-1.7.1-1.9-.6-3.8-1-5.8-1.4-.5-.1-.9-.5-1.1-1l-.9-4.9c-.1-.5-.6-.9-1.1-.9h-10.8c-.5,0-1,.4-1.1.9l-.9,4.9c-.1.5-.6.9-1.1,1-2,.3-3.9.8-5.8,1.4-.6.1-1.2.1-1.7-.1l-7.5-3.5c-.5-.2-1.1-.2-1.6,0l-7.4,4.2c-.2,0-.3.3-.3.5h0v6.4h0c0,.2.1.4.3.5l3.4,2.4c-.2.2-.5.3-.8.4l-9.8.6c-.5,0-.9.5-.9,1v4.2h0v7.7c0,.5.4,1,.9,1l9.8.6c.3,0,.6.2.9.4l-3.4,2.4c-.2.1-.3.3-.3.5h0v6.4h0c0,.2.1.4.3.5l7.4,4.2c.5.3,1.1.3,1.6,0l7.5-3.5c.5-.2,1.1-.3,1.7-.1,1.9.6,3.8,1,5.8,1.4.5.1.9.5,1.1,1l.9,4.9c.1.5.6.9,1.1.9h10.8c.5,0,1-.4,1.1-.9l.9-4.9c.1-.5.6-.9,1.1-1,2-.3,3.9-.8,5.8-1.4.6-.2,1.2-.1,1.7.1l7.5,3.5c.5.2,1.1.2,1.6,0l7.4-4.2c.2,0,.3-.3.3-.5h0v-6.4h0c0-.2-.1-.4-.3-.5l-3.4-2.4c.2-.2.5-.3.8-.4l9.8-.6c.5,0,.9-.5.9-1v-6.4h0v-5.5c0-.5-.4-1-.9-1l-9.8-.6c-.3,0-.6-.2-.9-.4l3.4-2.4c.2-.1.3-.3.3-.5h0v-6.4h0c0-.2-.1-.4-.3-.5Zm-49.7,16.5c.5-1.8,2.1-3.5,4.8-5,6.9-4,18-4,24.9,0,2.5,1.5,4.2,3,4.9,4.7-.6,2-2.2,3.9-4.9,5.5-6.9,4-18,4-24.9,0-2.2-1.1-3.9-2.9-4.8-5.2Z" fill="#263238" stroke-width="0"/><path d="m404.2,326.9l-7.4-4.2c-.5-.3-1.1-.3-1.6,0l-7.5,3.5c-.5.2-1.1.2-1.7.1-1.9-.6-3.8-1-5.8-1.4-.5-.1-.9-.5-1.1-1l-.9-4.9c-.1-.5-.6-.9-1.1-.9h-10.8c-.5,0-1,.4-1.1.9l-.9,4.9c-.1.5-.6.9-1.1,1-2,.3-3.9.8-5.8,1.4-.6.1-1.2.1-1.7-.1l-7.5-3.5c-.5-.2-1.1-.2-1.6,0l-7.4,4.2c-.2,0-.3.3-.3.5h0v6.4h0c0,.2.1.4.3.5l3.4,2.4c-.2.2-.5.3-.8.4l-9.8.6c-.5,0-.9.5-.9,1v4.2h0v7.7c0,.5.4,1,.9,1l9.8.6c.3,0,.6.2.9.4l-3.4,2.4c-.2.1-.3.3-.3.5h0v6.4h0c0,.2.1.4.3.5l7.4,4.2c.5.3,1.1.3,1.6,0l7.5-3.5c.5-.2,1.1-.3,1.7-.1,1.9.6,3.8,1,5.8,1.4.5.1.9.5,1.1,1l.9,4.9c.1.5.6.9,1.1.9h10.8c.5,0,1-.4,1.1-.9l.9-4.9c.1-.5.6-.9,1.1-1,2-.3,3.9-.8,5.8-1.4.6-.2,1.2-.1,1.7.1l7.5,3.5c.5.2,1.1.2,1.6,0l7.4-4.2c.2,0,.3-.3.3-.5h0v-6.4h0c0-.2-.1-.4-.3-.5l-3.4-2.4c.2-.2.5-.3.8-.4l9.8-.6c.5,0,.9-.5.9-1v-6.4h0v-5.5c0-.5-.4-1-.9-1l-9.8-.6c-.3,0-.6-.2-.9-.4l3.4-2.4c.2-.1.3-.3.3-.5h0v-6.4h0c0-.2-.1-.4-.3-.5Zm-49.7,16.5c.5-1.8,2.1-3.5,4.8-5,6.9-4,18-4,24.9,0,2.5,1.5,4.2,3,4.9,4.7-.6,2-2.2,3.9-4.9,5.5-6.9,4-18,4-24.9,0-2.2-1.1-3.9-2.9-4.8-5.2Z" fill="#fff" isolation="isolate" opacity=".2" stroke-width="0"/><path d="m343.1,346.6c-.3-.5-.8-.8-1.3-.9l-9.8-.6c-.5,0-.9-.5-.9-1v-1.3,7.7c0,.5.4,1,.9,1l9.8.6c.3,0,.6.2.9.4l2.4-1.7c.4-.2.4-.7.2-1.1,0,0,0,0,0-.1-.8-.9-1.5-1.9-2.1-2.9Zm-4.1-12.9h0c0,.2.1.4.3.5l3.4,2.4c.2-.1.4-.3.5-.5.6-1,1.3-2,2.1-2.9.3-.3.3-.8,0-1.1,0,0,0,0-.1-.1l-5.8-4.2c-.1,0-.3-.2-.3-.4v6.3Z" isolation="isolate" opacity=".1" stroke-width="0"/><path d="m384.2,334.2c-6.9-4-18-4-24.9,0-4.3,2.5-5.9,6-4.8,9.2.5-1.8,2.1-3.5,4.8-5,6.9-4,18-4,24.9,0,2.5,1.5,4.2,3,4.9,4.7.9-3.2-.7-6.5-4.9-8.9Z" isolation="isolate" opacity=".1" stroke-width="0"/><path d="m412.4,344.2c0,.5-.4.8-.9.9l-9.8.6c-.2,0-.3,0-.5.1v6.4c.2,0,.3-.1.5-.1l9.8-.6c.5,0,.9-.5.9-1v-6.2Zm-7.9-16.9h0c0,0,0,.1,0,.2,0,0,0,.1-.1.2,0,0,0,0-.1.1l-5.8,4.2c0,0-.1,0-.1.1,0,0-.2.2-.2.4,0,0,0,.2,0,.2h0c0,.3.1.4.2.5h.1c.8,1,1.4,1.9,2,2.9.1.2.3.4.5.5l3.4-2.4c.2-.1.3-.3.3-.5h0v-6.4Zm0,28c0,.2-.2.4-.3.5l-7.4,4.2c-.3.2-.7.3-1.1.2v6.4c.4,0,.8,0,1.1-.2l7.4-4.2c.2,0,.3-.3.3-.5v-6.4Zm-48.1,1.1c-.3,0-.5,0-.7.2l-7.5,3.5c-.2,0-.4.1-.7.1v6.4c.2,0,.5,0,.7-.1l7.5-3.5c.2-.1.5-.2.7-.2v-6.4Zm21.6,7.8c-.2.3-.5.5-.9.5h-10.8c-.2,0-.5,0-.7-.2v6.4c.2.2.4.2.7.2h10.8c.4,0,.7-.2,1-.5v-6.3Z" fill="#263238" stroke-width="0"/><path d="m412.4,344.2c0,.5-.4.8-.9.9l-9.8.6c-.2,0-.3,0-.5.1v6.4c.2,0,.3-.1.5-.1l9.8-.6c.5,0,.9-.5.9-1v-6.2Zm-7.9-16.9h0c0,0,0,.1,0,.2,0,0,0,.1-.1.2,0,0,0,0-.1.1l-5.8,4.2c0,0-.1,0-.1.1,0,0-.2.2-.2.4,0,0,0,.2,0,.2h0c0,.3.1.4.2.5h.1c.8,1,1.4,1.9,2,2.9.1.2.3.4.5.5l3.4-2.4c.2-.1.3-.3.3-.5h0v-6.4Zm0,28c0,.2-.2.4-.3.5l-7.4,4.2c-.3.2-.7.3-1.1.2v6.4c.4,0,.8,0,1.1-.2l7.4-4.2c.2,0,.3-.3.3-.5v-6.4Zm-48.1,1.1c-.3,0-.5,0-.7.2l-7.5,3.5c-.2,0-.4.1-.7.1v6.4c.2,0,.5,0,.7-.1l7.5-3.5c.2-.1.5-.2.7-.2v-6.4Zm21.6,7.8c-.2.3-.5.5-.9.5h-10.8c-.2,0-.5,0-.7-.2v6.4c.2.2.4.2.7.2h10.8c.4,0,.7-.2,1-.5v-6.3Z" fill="#fff" isolation="isolate" opacity=".7" stroke-width="0"/><path d="m395.2,322.6l-7.5,3.5c-.5.2-1.1.2-1.7.1-1.9-.6-3.8-1-5.8-1.4-.5-.1-.9-.5-1.1-1l-.9-4.9c-.1-.5-.6-.9-1.1-.9h-10.8c-.5,0-1,.4-1.1.9l-.9,4.9c-.1.5-.6.9-1.1,1-2,.3-3.9.8-5.8,1.4-.6.1-1.2.1-1.7-.1l-7.5-3.5c-.5-.2-1.1-.2-1.6,0l-7.4,4.2c-.3,0-.4.4-.3.7,0,.1.2.3.3.3l5.8,4.2c.4.2.4.7.2,1.1,0,0,0,0,0,.1-.8.9-1.5,1.8-2.1,2.9-.3.5-.8.8-1.3.9l-9.8.6c-.5,0-.9.5-.9,1v5.5c0,.5.4,1,.9,1l9.8.6c.6,0,1,.4,1.3.9.6,1,1.3,2,2.1,2.9.3.3.3.8,0,1.1,0,0,0,0-.1,0l-5.8,4.2c-.3.1-.4.4-.3.7,0,.1.2.2.3.3l7.4,4.2c.5.3,1.1.3,1.6,0l7.5-3.5c.5-.2,1.1-.3,1.7-.1,1.9.6,3.8,1,5.8,1.4.5.1.9.5,1.1,1l.9,4.9c.1.5.6.9,1.1.9h10.8c.5,0,1-.4,1.1-.9l.9-4.9c.1-.5.5-.9,1.1-1,2-.3,3.9-.8,5.8-1.4.6-.2,1.2-.1,1.7.1l7.5,3.5c.5.2,1.1.2,1.6,0l7.4-4.2c.3-.1.4-.4.3-.7,0-.1-.1-.2-.3-.3l-5.8-4.2c-.4-.2-.4-.7-.2-1.1,0,0,0,0,0-.1.8-.9,1.5-1.8,2.1-2.9.3-.5.8-.8,1.3-.9l9.8-.6c.5,0,.9-.5.9-1v-5.5c0-.5-.4-1-.9-1l-9.8-.6c-.5,0-1-.4-1.3-.9-.6-1-1.3-2-2.1-2.9-.3-.3-.3-.8,0-1.1,0,0,0,0,.1,0l5.8-4.2c.3-.1.4-.5.2-.7,0-.1-.2-.2-.3-.3l-7.4-4.2c-.5-.3-1.1-.3-1.6,0Zm-11,11.6c6.9,4,6.9,10.4,0,14.4s-18,4-24.9,0-6.9-10.4,0-14.4,18-4,24.8,0h0Z" fill="#263238" stroke-width="0"/><g opacity=".6"><path d="m395.2,322.6l-7.5,3.5c-.5.2-1.1.2-1.7.1-1.9-.6-3.8-1-5.8-1.4-.5-.1-.9-.5-1.1-1l-.9-4.9c-.1-.5-.6-.9-1.1-.9h-10.8c-.5,0-1,.4-1.1.9l-.9,4.9c-.1.5-.6.9-1.1,1-2,.3-3.9.8-5.8,1.4-.6.1-1.2.1-1.7-.1l-7.5-3.5c-.5-.2-1.1-.2-1.6,0l-7.4,4.2c-.3,0-.4.4-.3.7,0,.1.2.3.3.3l5.8,4.2c.4.2.4.7.2,1.1,0,0,0,0,0,.1-.8.9-1.5,1.8-2.1,2.9-.3.5-.8.8-1.3.9l-9.8.6c-.5,0-.9.5-.9,1v5.5c0,.5.4,1,.9,1l9.8.6c.6,0,1,.4,1.3.9.6,1,1.3,2,2.1,2.9.3.3.3.8,0,1.1,0,0,0,0-.1,0l-5.8,4.2c-.3.1-.4.4-.3.7,0,.1.2.2.3.3l7.4,4.2c.5.3,1.1.3,1.6,0l7.5-3.5c.5-.2,1.1-.3,1.7-.1,1.9.6,3.8,1,5.8,1.4.5.1.9.5,1.1,1l.9,4.9c.1.5.6.9,1.1.9h10.8c.5,0,1-.4,1.1-.9l.9-4.9c.1-.5.5-.9,1.1-1,2-.3,3.9-.8,5.8-1.4.6-.2,1.2-.1,1.7.1l7.5,3.5c.5.2,1.1.2,1.6,0l7.4-4.2c.3-.1.4-.4.3-.7,0-.1-.1-.2-.3-.3l-5.8-4.2c-.4-.2-.4-.7-.2-1.1,0,0,0,0,0-.1.8-.9,1.5-1.8,2.1-2.9.3-.5.8-.8,1.3-.9l9.8-.6c.5,0,.9-.5.9-1v-5.5c0-.5-.4-1-.9-1l-9.8-.6c-.5,0-1-.4-1.3-.9-.6-1-1.3-2-2.1-2.9-.3-.3-.3-.8,0-1.1,0,0,0,0,.1,0l5.8-4.2c.3-.1.4-.5.2-.7,0-.1-.2-.2-.3-.3l-7.4-4.2c-.5-.3-1.1-.3-1.6,0Zm-11,11.6c6.9,4,6.9,10.4,0,14.4s-18,4-24.9,0-6.9-10.4,0-14.4,18-4,24.8,0h0Z" fill="#fff" stroke-width="0"/><path d="m377.1,318.6h0c.2,0,.4.2.4.4l.9,4.9c.2.8.8,1.4,1.6,1.6,1.9.3,3.8.8,5.7,1.4.3,0,.6.1.9.1.5,0,.9,0,1.3-.3l7.5-3.5c.1,0,.3,0,.4,0,.2,0,.4,0,.6.1l7.2,4.2-5.7,4.1c-.3.2-.6.6-.6,1,0,.4.1.8.4,1.2.8.8,1.5,1.8,2,2.8.4.7,1.1,1.2,1.9,1.2l9.8.6c.2,0,.3.1.3.3v5.5c0,.2-.1.3-.3.3l-9.8.6c-.8,0-1.5.5-1.9,1.2-.5,1-1.2,1.9-2,2.8-.3.3-.4.7-.4,1.2,0,.4.3.8.6,1l5.7,4.1-7.2,4.2c-.2,0-.4.1-.6.1-.2,0-.3,0-.4,0l-7.5-3.5c-.4-.2-.9-.3-1.3-.2-.3,0-.6,0-.9.1-1.9.6-3.8,1-5.7,1.4-.8.2-1.4.8-1.6,1.6l-.9,4.9c0,.2-.2.3-.4.4h-10.8c-.2,0-.4-.2-.4-.4l-.9-4.8c-.2-.8-.8-1.4-1.6-1.6-1.9-.3-3.8-.8-5.7-1.4-.3,0-.6-.1-.9-.1-.4,0-.9,0-1.3.2l-7.5,3.5c-.1,0-.3,0-.4,0-.2,0-.4,0-.6-.1l-7.2-4.2,5.7-4.1c.3-.2.6-.6.6-1,0-.4-.1-.9-.4-1.2-.8-.8-1.5-1.8-2-2.8-.4-.7-1.1-1.1-1.9-1.2l-9.8-.6c-.2,0-.3-.1-.3-.3v-5.5c0-.2.1-.3.3-.3l9.8-.6c.8,0,1.5-.5,1.9-1.2.6-1,1.2-1.9,2-2.8.3-.3.4-.7.4-1.2,0-.4-.3-.8-.6-1l-5.7-4.1,7.2-4.2c.2,0,.4-.1.6-.1.2,0,.3,0,.4,0l7.5,3.5c.4.2.9.3,1.3.3.3,0,.6,0,.9-.1,1.9-.6,3.8-1,5.7-1.4.8-.2,1.5-.8,1.6-1.6l.9-4.9c0-.2.2-.3.4-.4h10.8m-5.4,33.6c4.5,0,8.9-1,12.8-3.1,3.5-2,5.5-4.8,5.5-7.8s-2-5.7-5.5-7.8c-8-4.1-17.5-4.1-25.5,0-3.5,2-5.5,4.8-5.5,7.8s2,5.7,5.5,7.8c3.9,2.1,8.3,3.2,12.8,3.1m5.4-34.3h-10.8c-.5,0-1,.4-1.1.9l-.9,4.9c-.1.5-.6.9-1.1,1-2,.3-3.9.8-5.8,1.4-.2,0-.5,0-.7,0-.3,0-.7,0-1-.2l-7.5-3.5c-.2,0-.5-.1-.7-.1-.3,0-.6,0-.9.2l-7.4,4.2c-.3,0-.4.4-.3.7,0,.1.2.3.3.3l5.8,4.2c.4.2.4.7.2,1.1,0,0,0,0,0,.1-.8.9-1.5,1.8-2.1,2.9-.3.5-.8.8-1.3.9l-9.8.6c-.5,0-.9.5-.9,1v5.5c0,.5.4,1,.9,1l9.8.6c.6,0,1,.4,1.3.9.6,1,1.3,2,2.1,2.9.3.3.3.8,0,1.1,0,0,0,0-.1,0l-5.8,4.2c-.3.1-.4.4-.3.7,0,.1.2.2.3.3l7.4,4.2c.3.1.6.2.9.2.2,0,.5,0,.7-.1l7.5-3.5c.3-.1.7-.2,1-.2.2,0,.5,0,.7.1,1.9.6,3.8,1,5.8,1.4.5.1.9.5,1.1,1l.9,4.9c.1.5.6.9,1.1.9h10.8c.5,0,1-.4,1.1-.9l.9-4.9c.1-.5.5-.9,1.1-1,2-.3,3.9-.8,5.8-1.4.2,0,.4-.1.7-.1.3,0,.7,0,1,.2l7.5,3.5c.2.1.5.1.7.1.3,0,.6,0,.9-.2l7.4-4.2c.3-.1.4-.4.3-.7,0-.1-.1-.2-.3-.3l-5.8-4.2c-.4-.2-.4-.7-.2-1.1,0,0,0,0,0-.1.8-.9,1.5-1.8,2.1-2.9.3-.5.8-.8,1.3-.9l9.8-.6c.5,0,.9-.5.9-1v-5.5c0-.5-.4-1-.9-1l-9.8-.6c-.5,0-1-.4-1.3-.9-.6-1-1.3-2-2.1-2.9-.3-.3-.3-.8,0-1.1,0,0,0,0,.1,0l5.8-4.2c.3-.1.4-.5.2-.7,0-.1-.2-.2-.3-.3l-7.4-4.2c-.3-.1-.6-.2-.9-.2-.2,0-.5,0-.7.1l-7.5,3.5c-.3.1-.7.2-1,.2-.2,0-.5,0-.7,0-1.9-.6-3.8-1-5.8-1.4-.5-.1-.9-.5-1.1-1l-.9-4.9c-.1-.5-.6-.9-1.1-.9h0Zm-5.4,33.6c-4.3,0-8.6-1-12.4-3-6.9-4-6.9-10.4,0-14.4,7.8-4,17.1-4,24.9,0,6.9,4,6.9,10.4,0,14.4-3.8,2-8.1,3.1-12.4,3Z" fill="#fff" stroke-width="0"/></g></g><g opacity=".6"><path d="m377.1,318.4h0c.3,0,.5.2.6.5l.9,4.9c.2.7.8,1.3,1.5,1.5,1.9.3,3.8.8,5.7,1.4.3,0,.6.1.8.1.4,0,.9,0,1.2-.2l7.5-3.5c.2,0,.3,0,.5,0,.2,0,.4,0,.6.1l7.4,4.2h0s0,.1,0,.1l-5.8,4.2c-.3.2-.5.6-.5.9,0,.4.1.7.4,1,.8.8,1.4,1.8,2,2.8.4.6,1,1.1,1.8,1.1l9.8.6c.2,0,.4.2.4.5v5.5c0,.2-.2.4-.4.5l-9.8.6c-.7,0-1.4.5-1.8,1.1-.6,1-1.2,1.9-2,2.8-.3.3-.4.7-.4,1,0,.4.2.7.5.9l5.8,4.2h0c0,0,0,.1,0,.1l-7.4,4.2c-.2,0-.4.1-.6.1-.2,0-.3,0-.5,0l-7.5-3.4c-.4-.2-.8-.2-1.2-.2-.3,0-.6,0-.8.1-1.9.6-3.8,1-5.7,1.4-.7.1-1.3.7-1.5,1.5l-.9,4.9c0,.3-.3.5-.6.5h-10.8c-.3,0-.5-.2-.6-.5l-.9-4.9c-.2-.7-.8-1.3-1.5-1.5-1.9-.3-3.9-.8-5.7-1.4-.3,0-.5-.1-.8-.1-.4,0-.9,0-1.2.2l-7.5,3.5c-.2,0-.3,0-.5,0-.2,0-.4,0-.6-.1l-7.4-4.2h0s0-.1,0-.1l5.8-4.2c.3-.2.5-.5.5-.9,0-.4,0-.8-.4-1-.8-.8-1.4-1.8-2-2.8-.4-.6-1-1.1-1.8-1.1l-9.8-.6c-.2,0-.4-.2-.4-.5v-5.5c0-.2.2-.4.4-.5l9.8-.6c.7,0,1.4-.5,1.8-1.1.5-1,1.2-1.9,2-2.8.3-.3.4-.6.4-1,0-.4-.2-.7-.5-.9l-5.8-4.2h0c0,0,0-.1,0-.1l7.4-4.2c.2,0,.4-.1.6-.1.2,0,.3,0,.5,0l7.5,3.5c.4.2.8.2,1.2.2.3,0,.6,0,.8-.1,1.9-.6,3.8-1,5.7-1.4.7-.1,1.3-.7,1.5-1.5l.9-4.9c0-.3.3-.5.6-.5h10.8m-5.4,33.7c4.4,0,8.8-1,12.7-3,3.5-2,5.4-4.7,5.4-7.6s-1.9-5.7-5.4-7.7c-8-4.1-17.4-4.1-25.4,0-3.5,2-5.4,4.7-5.4,7.6s1.9,5.6,5.4,7.6c3.9,2.1,8.3,3.1,12.7,3m5.4-34.2h-10.8c-.5,0-1,.4-1.1.9l-.9,4.9c-.1.5-.6.9-1.1,1-2,.3-3.9.8-5.8,1.4-.2,0-.5,0-.7,0-.3,0-.7,0-1-.2l-7.5-3.5c-.2,0-.5-.1-.7-.1-.3,0-.6,0-.9.2l-7.4,4.2c-.3,0-.4.4-.3.7,0,.1.2.3.3.3l5.8,4.2c.4.2.4.7.2,1.1,0,0,0,0,0,.1-.8.9-1.5,1.8-2.1,2.9-.3.5-.8.8-1.3.9l-9.8.6c-.5,0-.9.5-.9,1v5.5c0,.5.4,1,.9,1l9.8.6c.6,0,1,.4,1.3.9.6,1,1.3,2,2.1,2.9.3.3.3.8,0,1.1,0,0,0,0-.1,0l-5.8,4.2c-.3.1-.4.4-.3.7,0,.1.2.2.3.3l7.4,4.2c.3.1.6.2.9.2.2,0,.5,0,.7-.1l7.5-3.5c.3-.1.7-.2,1-.2.2,0,.5,0,.7.1,1.9.6,3.8,1,5.8,1.4.5.1.9.5,1.1,1l.9,4.9c.1.5.6.9,1.1.9h10.8c.5,0,1-.4,1.1-.9l.9-4.9c.1-.5.5-.9,1.1-1,2-.3,3.9-.8,5.8-1.4.2,0,.4-.1.7-.1.3,0,.7,0,1,.2l7.5,3.5c.2.1.5.1.7.1.3,0,.6,0,.9-.2l7.4-4.2c.3-.1.4-.4.3-.7,0-.1-.1-.2-.3-.3l-5.8-4.2c-.4-.2-.4-.7-.2-1.1,0,0,0,0,0-.1.8-.9,1.5-1.8,2.1-2.9.3-.5.8-.8,1.3-.9l9.8-.6c.5,0,.9-.5.9-1v-5.5c0-.5-.4-1-.9-1l-9.8-.6c-.5,0-1-.4-1.3-.9-.6-1-1.3-2-2.1-2.9-.3-.3-.3-.8,0-1.1,0,0,0,0,.1,0l5.8-4.2c.3-.1.4-.5.2-.7,0-.1-.2-.2-.3-.3l-7.4-4.2c-.3-.1-.6-.2-.9-.2-.2,0-.5,0-.7.1l-7.5,3.5c-.3.1-.7.2-1,.2-.2,0-.5,0-.7,0-1.9-.6-3.8-1-5.8-1.4-.5-.1-.9-.5-1.1-1l-.9-4.9c-.1-.5-.6-.9-1.1-.9h0Zm-5.4,33.6c-4.3,0-8.6-1-12.4-3-6.9-4-6.9-10.4,0-14.4,7.8-4,17.1-4,24.9,0,6.9,4,6.9,10.4,0,14.4-3.8,2-8.1,3.1-12.4,3Z" fill="#fff" stroke-width="0"/></g></g></g><g id="freepik--tab-2--inject-115"><g id="freepik--Window--inject-115"><g id="freepik--window--inject-115"><path d="m312.4,6.6c0-.1,0-.2,0-.4,0,0,0,0,0,0,0-.1,0-.2,0-.3,0-.2-.1-.3-.2-.5,0,0,0-.1-.1-.2,0,0,0,0-.1-.1,0,0-.2-.2-.2-.2h0c-.1,0-.2-.1-.3-.2-.9-.3-1.9-.2-2.6.3L84.1,134.1c-2.1,1.2-3.9,4.3-3.9,8.6v188.1c0,1,.5,1.9,1.4,2.3h.2c0,.1.2.2.2.2.1,0,.2,0,.3.1.2,0,.3,0,.5,0,.5,0,.9-.1,1.3-.4h.1c0,0,3.7-2.2,3.7-2.2l220.6-127.2c2.3-1.5,3.8-4,3.9-6.7V7.1c0-.2,0-.4,0-.5Z" fill="#fafafa" stroke-width="0"/><path d="m310.3,5.4c.2,0,.3,0,.4.1h.2c0,.1,0,.3,0,.3,0,0,0,.1,0,.2h0v.3h.1v190.8c-.1,2.3-1.4,4.5-3.3,5.8l-220.5,127.1-3.6,2.1h0s0,.1,0,.1c-.2.1-.4.2-.7.2h-.5c0,0,0-.1,0-.1h0c-.5-.3-.8-.8-.8-1.4v-188.1c0-4.2,1.7-6.7,3.3-7.6L309.1,5.8c.4-.2.8-.4,1.2-.4m0-1.1c-.6,0-1.2.2-1.7.5L84.1,134.1c-2.1,1.2-3.9,4.3-3.9,8.6v188.1c0,1,.5,1.9,1.4,2.3h.2c0,.1.2.2.2.2.1,0,.2,0,.3.1.2,0,.3,0,.5,0h0c.4,0,.9-.1,1.2-.4h.1c0,0,3.7-2.2,3.7-2.2l220.6-127.2c2.3-1.5,3.8-4,3.9-6.7V6.6c0-.1,0-.2,0-.4,0,0,0,0,0,0,0-.1,0-.2,0-.3,0-.2-.1-.3-.2-.5,0,0,0-.1-.1-.2,0,0,0,0-.1-.1,0,0-.2-.2-.2-.2h0c-.1,0-.2-.1-.3-.2-.3-.1-.6-.2-.9-.2h0Z" fill="#263238" stroke-width="0"/><path d="m311.2,4.5c-.9-.3-1.9-.2-2.6.3L84.1,134.1c-2.3,1.5-3.7,4-3.9,6.7v7.5l-7.6-4.4v-7.5c.1-2.7,1.6-5.3,3.9-6.8L301,.5c.8-.6,1.9-.7,2.8-.2.7.4,6.6,3.8,7.4,4.2Z" fill="#263238" stroke-width="0"/><path d="m312.4,7.1c0-2.5-1.8-3.4-3.9-2.2L84.1,134.1c-2.3,1.5-3.7,4-3.9,6.7v7.6L312.4,14.7v-7.6Z" fill="#dd6d1f" stroke-width="0"/><g opacity=".2"><path d="m308.6,4.9L84.1,134.1c-1.1.7-2.1,1.7-2.7,2.9l-7.6-4.4c.6-1.2,1.6-2.2,2.7-2.9L301,.5c.8-.6,1.9-.7,2.8-.2.7.4,6.5,3.8,7.4,4.2-.9-.3-1.8-.2-2.6.4Z" fill="#fff" stroke-width="0"/></g><path d="m72.6,144v-7.5c0-1.4.5-2.7,1.2-3.9l7.6,4.4c-.7,1.2-1.1,2.5-1.2,3.9v7.6l-7.6-4.4Z" isolation="isolate" opacity=".2" stroke-width="0"/><path d="m295.6,16.2c-1,.7-1.6,1.9-1.6,3.2,0,1.2.7,1.8,1.6,1.2,1-.7,1.6-1.9,1.6-3.1,0-1.2-.8-1.8-1.7-1.3Z" fill="#fafafa" stroke-width="0"/><path d="m301.5,12.7c-1,.7-1.6,1.9-1.6,3.2,0,1.2.7,1.8,1.6,1.2,1-.7,1.6-1.9,1.6-3.1,0-1.2-.7-1.8-1.6-1.2Z" fill="#fafafa" stroke-width="0"/><path d="m307.4,9.3c-1,.7-1.6,1.9-1.6,3.2,0,1.2.7,1.8,1.6,1.2,1-.7,1.6-1.9,1.7-3.2,0-1.2-.7-1.8-1.7-1.2Z" fill="#fafafa" stroke-width="0"/><path d="m81.6,333.1h-.2c0-.1-6.7-4-6.7-4-1.1-.6-1.8-1.7-2-3,0-.2,0-.4,0-.6v-181.5l7.6,4.4v182.4c0,.9.4,1.7,1.2,2.2,0,0,0,0,.1,0h0Z" fill="#263238" stroke-width="0"/><path d="m81.6,333.1h-.2c0-.1-6.7-4-6.7-4-1.1-.6-1.8-1.7-2-3,0-.2,0-.4,0-.6v-181.5l7.6,4.4v182.4c0,.9.4,1.7,1.2,2.2,0,0,0,0,.1,0h0Z" fill="#fff" isolation="isolate" opacity=".5" stroke-width="0"/></g><path d="m166.2,271.7l60.3-34.8v-75.9l-60.4,34.8v75.9Zm-74.8,43.2l60.3-34.9v-75.9l-60.3,34.8v75.9Zm149.6-86.4l60.3-34.8v-75.9l-60.3,34.8v75.9Zm-149.6-69.4v68.1l209.9-121.2V38l-209.9,121.2Z" fill="#f0f0f0" stroke-width="0"/></g></g><g id="freepik--tab-1--inject-115"><g id="freepik--window--inject-115-2"><g opacity=".2"><path d="m31.3,191.1l116.4-67.2c2.3-1.3,4.1-.2,4.1,2.4v76.7c-.2,2.9-1.7,5.5-4.1,7.1l-116.4,67.2c-2.3,1.3-4.1.2-4.1-2.4v-76.7c.2-2.9,1.7-5.5,4.1-7.1Z" stroke-width="0"/></g><g id="freepik--window--inject-115-3"><path d="m155.6,132.9c0-.1,0-.2,0-.4,0,0,0,0,0,0,0-.1,0-.2,0-.3,0-.2-.1-.3-.2-.5,0,0,0-.1-.1-.2,0,0,0-.1-.1-.1,0,0-.2-.2-.2-.2h0c-.1,0-.2-.1-.3-.2-.9-.3-1.8-.2-2.6.3l-112.8,64.9c-2.1,1.2-3.9,4.2-3.9,8.5v76.5c0-1.8,0-1.8,0-1.8v.8c0,1,.5,1.9,1.4,2.3h.2c0,.1.2.2.2.2.1,0,.2,0,.3.1.2,0,.3,0,.5,0,.5,0,.9-.1,1.3-.4h0c0,0,3.7-2.2,3.7-2.2l109-62.8c2.3-1.5,3.7-4,3.9-6.7v-77.4c0-.2,0-.3,0-.5Z" fill="#455a64" stroke-width="0"/><path d="m154.4,130.8c-.9-.3-1.8-.2-2.6.3l-112.8,64.9c-2.3,1.5-3.7,4-3.9,6.7v7.5l-4.8-2.8v-7.4c.1-2.7,1.6-5.2,3.8-6.7l112.8-64.9c.8-.6,1.9-.7,2.8-.2.7.4,3.7,2.1,4.6,2.5Z" fill="#263238" stroke-width="0"/><path d="m155.7,133.3c0-2.4-1.7-3.4-3.9-2.2l-112.8,64.9c-2.3,1.5-3.7,4-3.8,6.7v7.5l120.4-69.4v-7.5Z" fill="#dd6d1f" stroke-width="0"/><g opacity=".2"><path d="m151.8,131.1l-112.8,64.9c-1.1.7-2.1,1.7-2.7,2.9l-4.7-2.7c.6-1.2,1.6-2.1,2.7-2.8l112.8-64.9c.8-.6,1.9-.7,2.8-.2.7.4,3.7,2.1,4.5,2.6-.9-.3-1.8-.2-2.6.3Z" fill="#dd6d1f" stroke-width="0"/></g><path d="m30.4,207.4v-7.4c0-1.4.5-2.7,1.2-3.8l4.8,2.7c-.7,1.2-1.1,2.5-1.1,3.9v7.5l-4.8-2.8Z" isolation="isolate" opacity=".2" stroke-width="0"/><path d="m140.5,141.2c-.9.7-1.5,1.9-1.5,3.1,0,1.2.6,1.9,1.5,1.4.9-.7,1.5-1.9,1.5-3.1,0-1.2-.7-1.9-1.5-1.4Z" fill="#fff" stroke-width="0"/><path d="m145.8,138.2c-.9.7-1.5,1.9-1.5,3.1,0,1.2.7,1.9,1.5,1.4.9-.7,1.5-1.9,1.5-3.1,0-1.2-.7-1.9-1.5-1.4Z" fill="#fff" stroke-width="0"/><path d="m151,135.1c-.9.7-1.5,1.9-1.5,3.1,0,1.2.6,1.9,1.5,1.4.9-.7,1.5-1.9,1.5-3.1,0-1.2-.7-1.9-1.5-1.4Z" fill="#fff" stroke-width="0"/><path d="m36.6,282.4h-.2c0-.1-3.9-2.4-3.9-2.4-1.1-.6-1.8-1.7-2-3,0-.2,0-.4,0-.6v-69.1l4.8,2.8v69.9c0,.9.4,1.7,1.2,2.2,0,0,0,0,.1,0h0Z" fill="#263238" stroke-width="0"/></g><g opacity=".6"><path d="m42.5,246l5-2.9c.5-.3.9,0,.9.5v1.8c0,.6-.4,1.2-.9,1.6l-5,2.9c-.5.3-.9,0-.9-.5v-1.8c0-.6.4-1.2.9-1.6Z" fill="#fff" stroke-width="0"/><path d="m42.5,253.3l5-2.9c.5-.3.9,0,.9.5v1.8c0,.6-.4,1.2-.9,1.6l-5,2.9c-.5.3-.9,0-.9-.5v-1.8c0-.6.4-1.2.9-1.6Z" fill="#fff" stroke-width="0"/><path d="m42.5,260.6l5-2.9c.5-.3.9,0,.9.5v1.8c0,.6-.4,1.2-.9,1.6l-5,2.9c-.5.3-.9,0-.9-.5v-1.8c0-.6.4-1.2.9-1.6Z" fill="#fff" stroke-width="0"/><path d="m42.5,267.8l5-2.9c.5-.3.9,0,.9.5v1.8c0,.6-.4,1.2-.9,1.6l-5,2.9c-.5.3-.9,0-.9-.5v-1.8c0-.6.4-1.2.9-1.6Z" fill="#fff" stroke-width="0"/></g><g opacity=".6"><path d="m42.5,213.5l5-2.9c.5-.3.9,0,.9.5v1.8c0,.6-.4,1.2-.9,1.6l-5,2.9c-.5.3-.9,0-.9-.5v-1.8c0-.6.4-1.2.9-1.6Z" fill="#fff" stroke-width="0"/><path d="m42.5,220.8l5-2.9c.5-.3.9,0,.9.5v1.8c0,.6-.4,1.2-.9,1.6l-5,2.9c-.5.3-.9,0-.9-.5v-1.8c0-.6.4-1.2.9-1.6Z" fill="#fff" stroke-width="0"/><path d="m42.5,228.1l5-2.9c.5-.3.9,0,.9.5v1.8c0,.6-.4,1.2-.9,1.6l-5,2.9c-.5.3-.9,0-.9-.5v-1.8c0-.6.4-1.2.9-1.6Z" fill="#fff" stroke-width="0"/><path d="m42.5,235.4l5-2.9c.5-.3.9,0,.9.5v1.8c0,.6-.4,1.2-.9,1.6l-5,2.9c-.5.3-.9,0-.9-.5v-1.8c0-.6.4-1.2.9-1.6Z" fill="#fff" stroke-width="0"/></g><path d="m55.4,207.4l27.9-16.1c.5-.3.9,0,.9.5,0,.6-.4,1.2-.9,1.5l-27.9,16.1c-.5.3-.9,0-.9-.5,0-.6.4-1.2.9-1.5Z" fill="#263238" stroke-width="0"/><path d="m55.4,231.4l42.7-24.7c.5-.3.9,0,.9.5,0,.6-.4,1.2-.9,1.5l-42.7,24.7c-.5.3-.9,0-.9-.5,0-.6.4-1.2.9-1.5Z" fill="#263238" stroke-width="0"/><path d="m86.8,189.3l11.8-6.8c.5-.3.9,0,.9.5,0,.6-.4,1.2-.9,1.5l-11.8,6.8c-.5.3-.9,0-.9-.5,0-.6.4-1.2.9-1.5Z" fill="#263238" stroke-width="0"/><path d="m55.4,213.1l10-5.8c.5-.3.9,0,.9.5,0,.6-.4,1.2-.9,1.5l-10,5.8c-.5.3-.9,0-.9-.5,0-.6.4-1.2.9-1.5Z" fill="#263238" stroke-width="0"/><path d="m55.4,213.1l10-5.8c.5-.3.9,0,.9.5,0,.6-.4,1.2-.9,1.5l-10,5.8c-.5.3-.9,0-.9-.5,0-.6.4-1.2.9-1.5Z" fill="#fff" isolation="isolate" opacity=".6" stroke-width="0"/><path d="m55.4,218.8l11-6.3c.5-.3.9,0,.9.5,0,.6-.4,1.2-.9,1.5l-11,6.3c-.5.3-.9,0-.9-.5,0-.6.4-1.2.9-1.5Z" fill="#263238" stroke-width="0"/><path d="m55.4,218.8l11-6.3c.5-.3.9,0,.9.5,0,.6-.4,1.2-.9,1.5l-11,6.3c-.5.3-.9,0-.9-.5,0-.6.4-1.2.9-1.5Z" fill="#fff" isolation="isolate" opacity=".6" stroke-width="0"/><path d="m69,205.3l8.3-4.8c.5-.3.9,0,.9.5,0,.6-.4,1.2-.9,1.5l-8.3,4.8c-.5.3-.9,0-.9-.5,0-.6.4-1.2.9-1.5Z" fill="#263238" stroke-width="0"/><path d="m69,205.3l8.3-4.8c.5-.3.9,0,.9.5,0,.6-.4,1.2-.9,1.5l-8.3,4.8c-.5.3-.9,0-.9-.5,0-.6.4-1.2.9-1.5Z" fill="#fff" isolation="isolate" opacity=".6" stroke-width="0"/><path d="m65,240.2l33.7-19.7c.5-.3.9,0,.9.5,0,.6-.4,1.2-.9,1.5l-33.7,19.7c-.5.3-.9,0-.9-.5,0-.6.4-1.2.9-1.5Z" fill="#ffa8a7" stroke-width="0"/><path d="m65,234.5l33.7-19.7c.5-.3.9,0,.9.5,0,.6-.4,1.2-.9,1.5l-33.7,19.7c-.5.3-.9,0-.9-.5,0-.6.4-1.2.9-1.5Z" fill="#ffa8a7" stroke-width="0"/><path d="m69.3,210.8l9.8-5.8c.5-.3.9,0,.9.5,0,.6-.4,1.2-.9,1.5l-9.8,5.8c-.5.3-.9,0-.9-.5,0-.6.4-1.2.9-1.5Z" fill="#263238" stroke-width="0"/><path d="m69.3,210.8l9.8-5.8c.5-.3.9,0,.9.5,0,.6-.4,1.2-.9,1.5l-9.8,5.8c-.5.3-.9,0-.9-.5,0-.6.4-1.2.9-1.5Z" fill="#fff" isolation="isolate" opacity=".6" stroke-width="0"/><path d="m82.7,203l15.4-8.7c.5-.3.9,0,.9.5,0,.6-.4,1.2-.9,1.5l-15.4,8.7c-.5.3-.9,0-.9-.5,0-.6.4-1.2.9-1.5Z" fill="#263238" stroke-width="0"/><path d="m82.7,203l15.4-8.7c.5-.3.9,0,.9.5,0,.6-.4,1.2-.9,1.5l-15.4,8.7c-.5.3-.9,0-.9-.5,0-.6.4-1.2.9-1.5Z" fill="#fff" isolation="isolate" opacity=".6" stroke-width="0"/><path d="m55.4,224.8l23.8-13.7c.5-.3.9,0,.9.5,0,.6-.4,1.2-.9,1.5l-23.8,13.6c-.5.3-.9,0-.9-.5,0-.6.4-1.2.9-1.5Z" fill="#263238" stroke-width="0"/><path d="m55.4,224.8l23.8-13.7c.5-.3.9,0,.9.5,0,.6-.4,1.2-.9,1.5l-23.8,13.6c-.5.3-.9,0-.9-.5,0-.6.4-1.2.9-1.5Z" fill="#fff" isolation="isolate" opacity=".6" stroke-width="0"/><path d="m82.7,209.1l15.4-8.7c.5-.3.9,0,.9.5,0,.6-.4,1.2-.9,1.5l-15.4,8.7c-.5.3-.9,0-.9-.5,0-.6.4-1.2.9-1.5Z" fill="#263238" stroke-width="0"/><path d="m82.7,209.1l15.4-8.7c.5-.3.9,0,.9.5,0,.6-.4,1.2-.9,1.5l-15.4,8.7c-.5.3-.9,0-.9-.5,0-.6.4-1.2.9-1.5Z" fill="#fff" isolation="isolate" opacity=".6" stroke-width="0"/><path d="m65,245.9l33.7-19.5c.5-.3.9,0,.9.5,0,.6-.4,1.2-.9,1.5l-33.7,19.5c-.5.3-.9,0-.9-.5,0-.6.4-1.2.9-1.5Z" fill="#f28f8f" stroke-width="0"/><path d="m65,251.6l33.7-19.5c.5-.3.9,0,.9.5,0,.6-.4,1.2-.9,1.5l-33.7,19.5c-.5.3-.9,0-.9-.5,0-.6.4-1.2.9-1.5Z" fill="#f28f8f" stroke-width="0"/><path d="m65,257.3l33.7-19.5c.5-.3.9,0,.9.5,0,.6-.4,1.2-.9,1.5l-33.7,19.5c-.5.3-.9,0-.9-.5,0-.6.4-1.2.9-1.5Z" fill="#f28f8f" stroke-width="0"/><path d="m55.6,239.1l4.2-2.4c.5-.3.9,0,.9.5,0,.6-.4,1.2-.9,1.5l-4.2,2.4c-.5.3-.9,0-.9-.5,0-.6.4-1.2.9-1.5Z" fill="#263238" stroke-width="0"/><path d="m55.6,239.1l4.2-2.4c.5-.3.9,0,.9.5,0,.6-.4,1.2-.9,1.5l-4.2,2.4c-.5.3-.9,0-.9-.5,0-.6.4-1.2.9-1.5Z" fill="#fff" isolation="isolate" opacity=".6" stroke-width="0"/><path d="m55.6,251.3l4.2-2.4c.5-.3.9,0,.9.5,0,.6-.4,1.2-.9,1.5l-4.2,2.4c-.5.3-.9,0-.9-.5,0-.6.4-1.2.9-1.5Z" fill="#263238" stroke-width="0"/><path d="m55.6,251.3l4.2-2.4c.5-.3.9,0,.9.5,0,.6-.4,1.2-.9,1.5l-4.2,2.4c-.5.3-.9,0-.9-.5,0-.6.4-1.2.9-1.5Z" fill="#fff" isolation="isolate" opacity=".6" stroke-width="0"/><path d="m55.6,257l4.2-2.4c.5-.3.9,0,.9.5,0,.6-.4,1.2-.9,1.5l-4.2,2.4c-.5.3-.9,0-.9-.5,0-.6.4-1.2.9-1.5Z" fill="#263238" stroke-width="0"/><path d="m55.6,257l4.2-2.4c.5-.3.9,0,.9.5,0,.6-.4,1.2-.9,1.5l-4.2,2.4c-.5.3-.9,0-.9-.5,0-.6.4-1.2.9-1.5Z" fill="#fff" isolation="isolate" opacity=".6" stroke-width="0"/><path d="m55.6,262.7l4.2-2.4c.5-.3.9,0,.9.5,0,.6-.4,1.2-.9,1.5l-4.2,2.4c-.5.3-.9,0-.9-.5,0-.6.4-1.2.9-1.5Z" fill="#263238" stroke-width="0"/><path d="m55.6,262.7l4.2-2.4c.5-.3.9,0,.9.5,0,.6-.4,1.2-.9,1.5l-4.2,2.4c-.5.3-.9,0-.9-.5,0-.6.4-1.2.9-1.5Z" fill="#fff" isolation="isolate" opacity=".6" stroke-width="0"/><path d="m145.8,154.1l-35.7,20.7c-1.4.9-2.3,2.5-2.4,4.2v53.8c0,1.5,1.1,2.1,2.4,1.4l35.7-20.6c1.4-.9,2.3-2.5,2.4-4.2v-53.9c0-1.5-1.1-2.2-2.4-1.4Z" fill="#37474f" stroke-width="0"/><path d="m142.4,195l-3.3,1.9c-.7.4-1.1,1.2-1.2,2,0,.7.5,1,1.2.6l3.3-1.9c.7-.4,1.2-1.2,1.2-2,0-.7-.6-1-1.2-.6Z" fill="#263238" stroke-width="0"/><path d="m142.4,195l-3.3,1.9c-.7.4-1.1,1.2-1.2,2,0,.7.5,1,1.2.6l3.3-1.9c.7-.4,1.2-1.2,1.2-2,0-.7-.6-1-1.2-.6Z" fill="#fff" isolation="isolate" opacity=".6" stroke-width="0"/><path d="m142.4,161.2l-3.3,1.9c-.7.4-1.1,1.2-1.2,2,0,.7.5,1,1.2.6l3.3-1.9c.7-.4,1.2-1.2,1.2-2,0-.7-.6-1-1.2-.6Z" fill="#263238" stroke-width="0"/><path d="m142.4,161.2l-3.3,1.9c-.7.4-1.1,1.2-1.2,2,0,.7.5,1,1.2.6l3.3-1.9c.7-.4,1.2-1.2,1.2-2,0-.7-.6-1-1.2-.6Z" fill="#fff" isolation="isolate" opacity=".6" stroke-width="0"/><path d="m137.8,170.6l-3.3,1.9c-.7.4-1.1,1.2-1.2,2,0,.7.5,1,1.2.6l3.3-1.9c.7-.4,1.1-1.2,1.2-2,0-.7-.5-1-1.2-.6Z" fill="#263238" stroke-width="0"/><path d="m137.8,170.6l-3.3,1.9c-.7.4-1.1,1.2-1.2,2,0,.7.5,1,1.2.6l3.3-1.9c.7-.4,1.1-1.2,1.2-2,0-.7-.5-1-1.2-.6Z" fill="#fff" isolation="isolate" opacity=".6" stroke-width="0"/><path d="m137.8,177.3l-3.3,1.9c-.7.4-1.1,1.2-1.2,2,0,.7.5,1,1.2.6l3.3-1.9c.7-.4,1.1-1.2,1.2-2,0-.7-.5-1-1.2-.6Z" fill="#263238" stroke-width="0"/><path d="m137.8,177.3l-3.3,1.9c-.7.4-1.1,1.2-1.2,2,0,.7.5,1,1.2.6l3.3-1.9c.7-.4,1.1-1.2,1.2-2,0-.7-.5-1-1.2-.6Z" fill="#fff" isolation="isolate" opacity=".6" stroke-width="0"/><path d="m142.4,181.4l-3.3,1.9c-.7.4-1.1,1.2-1.2,2,0,.7.5,1,1.2.6l3.3-1.9c.7-.4,1.2-1.2,1.2-2,0-.7-.6-1-1.2-.6Z" fill="#263238" stroke-width="0"/><path d="m142.4,181.4l-3.3,1.9c-.7.4-1.1,1.2-1.2,2,0,.7.5,1,1.2.6l3.3-1.9c.7-.4,1.2-1.2,1.2-2,0-.7-.6-1-1.2-.6Z" fill="#fff" isolation="isolate" opacity=".6" stroke-width="0"/><path d="m137.8,190.8l-3.3,1.9c-.7.4-1.1,1.2-1.2,2,0,.7.5,1,1.2.6l3.3-1.9c.7-.4,1.1-1.2,1.2-2,0-.7-.5-1-1.2-.6Z" fill="#263238" stroke-width="0"/><path d="m137.8,190.8l-3.3,1.9c-.7.4-1.1,1.2-1.2,2,0,.7.5,1,1.2.6l3.3-1.9c.7-.4,1.1-1.2,1.2-2,0-.7-.5-1-1.2-.6Z" fill="#fff" isolation="isolate" opacity=".6" stroke-width="0"/><path d="m133.4,166.4l-20.1,11.6c-.7.4-1.2,1.2-1.2,2,0,.7.6,1,1.2.6l20.1-11.6c.7-.4,1.1-1.2,1.2-2,0-.7-.5-1-1.2-.6Z" fill="#263238" stroke-width="0"/><path d="m133.4,166.4l-20.1,11.6c-.7.4-1.2,1.2-1.2,2,0,.7.6,1,1.2.6l20.1-11.6c.7-.4,1.1-1.2,1.2-2,0-.7-.5-1-1.2-.6Z" fill="#fff" isolation="isolate" opacity=".8" stroke-width="0"/><path d="m133.4,200.2l-20.1,11.6c-.7.4-1.2,1.2-1.2,2,0,.7.6,1,1.2.6l20.1-11.6c.7-.4,1.1-1.2,1.2-2,0-.7-.5-1-1.2-.6Z" fill="#263238" stroke-width="0"/><path d="m133.4,200.2l-20.1,11.6c-.7.4-1.2,1.2-1.2,2,0,.7.6,1,1.2.6l20.1-11.6c.7-.4,1.1-1.2,1.2-2,0-.7-.5-1-1.2-.6Z" fill="#fff" isolation="isolate" opacity=".8" stroke-width="0"/><path d="m128.8,175.7l-15.5,9c-.7.4-1.2,1.2-1.2,2,0,.7.6,1,1.2.6l15.5-8.9c.7-.4,1.2-1.2,1.2-2,0-.7-.6-1-1.2-.7Z" fill="#263238" stroke-width="0"/><path d="m128.8,175.7l-15.5,9c-.7.4-1.2,1.2-1.2,2,0,.7.6,1,1.2.6l15.5-8.9c.7-.4,1.2-1.2,1.2-2,0-.7-.6-1-1.2-.7Z" fill="#fff" isolation="isolate" opacity=".8" stroke-width="0"/><path d="m128.8,182.5l-15.5,8.9c-.7.4-1.2,1.2-1.2,2,0,.7.6,1,1.2.6l15.5-8.9c.7-.4,1.2-1.2,1.2-2,0-.7-.6-1-1.2-.6Z" fill="#263238" stroke-width="0"/><path d="m128.8,182.5l-15.5,8.9c-.7.4-1.2,1.2-1.2,2,0,.7.6,1,1.2.6l15.5-8.9c.7-.4,1.2-1.2,1.2-2,0-.7-.6-1-1.2-.6Z" fill="#fff" isolation="isolate" opacity=".8" stroke-width="0"/><path d="m133.4,186.6l-20.1,11.6c-.7.4-1.2,1.2-1.2,2,0,.7.6,1,1.2.6l20.1-11.6c.7-.4,1.1-1.2,1.2-2,0-.7-.5-1-1.2-.6Z" fill="#263238" stroke-width="0"/><path d="m133.4,186.6l-20.1,11.6c-.7.4-1.2,1.2-1.2,2,0,.7.6,1,1.2.6l20.1-11.6c.7-.4,1.1-1.2,1.2-2,0-.7-.5-1-1.2-.6Z" fill="#fff" isolation="isolate" opacity=".8" stroke-width="0"/><path d="m128.8,196.1l-15.5,8.9c-.7.4-1.2,1.2-1.2,2,0,.7.6,1,1.2.6l15.5-8.9c.7-.4,1.2-1.2,1.2-2,0-.8-.6-1.1-1.2-.7Z" fill="#263238" stroke-width="0"/><path d="m128.8,196.1l-15.5,8.9c-.7.4-1.2,1.2-1.2,2,0,.7.6,1,1.2.6l15.5-8.9c.7-.4,1.2-1.2,1.2-2,0-.8-.6-1.1-1.2-.7Z" fill="#fff" isolation="isolate" opacity=".8" stroke-width="0"/><path d="m142.4,208.5l-3.3,1.9c-.7.4-1.1,1.2-1.2,2,0,.7.5,1,1.2.6l3.3-1.9c.7-.4,1.2-1.2,1.2-2,0-.7-.6-1-1.2-.6Z" fill="#263238" stroke-width="0"/><path d="m142.4,208.5l-3.3,1.9c-.7.4-1.1,1.2-1.2,2,0,.7.5,1,1.2.6l3.3-1.9c.7-.4,1.2-1.2,1.2-2,0-.7-.6-1-1.2-.6Z" fill="#fff" isolation="isolate" opacity=".6" stroke-width="0"/><path d="m137.8,204.4l-3.3,1.9c-.7.4-1.1,1.2-1.2,2,0,.7.5,1,1.2.6l3.3-1.9c.7-.4,1.1-1.2,1.2-2,0-.7-.5-1-1.2-.6Z" fill="#263238" stroke-width="0"/><path d="m137.8,204.4l-3.3,1.9c-.7.4-1.1,1.2-1.2,2,0,.7.5,1,1.2.6l3.3-1.9c.7-.4,1.1-1.2,1.2-2,0-.7-.5-1-1.2-.6Z" fill="#fff" isolation="isolate" opacity=".6" stroke-width="0"/><path d="m133.4,213.7l-20.1,11.6c-.7.4-1.2,1.2-1.2,2,0,.7.6,1,1.2.6l20.1-11.6c.7-.4,1.1-1.2,1.2-2,0-.7-.5-1-1.2-.6Z" fill="#263238" stroke-width="0"/><path d="m133.4,213.7l-20.1,11.6c-.7.4-1.2,1.2-1.2,2,0,.7.6,1,1.2.6l20.1-11.6c.7-.4,1.1-1.2,1.2-2,0-.7-.5-1-1.2-.6Z" fill="#fff" isolation="isolate" opacity=".8" stroke-width="0"/><path d="m128.8,209.6l-15.5,8.9c-.7.4-1.2,1.2-1.2,2,0,.7.6,1,1.2.6l15.5-8.9c.7-.4,1.2-1.2,1.2-2,0-.7-.6-1-1.2-.6Z" fill="#263238" stroke-width="0"/><path d="m128.8,209.6l-15.5,8.9c-.7.4-1.2,1.2-1.2,2,0,.7.6,1,1.2.6l15.5-8.9c.7-.4,1.2-1.2,1.2-2,0-.7-.6-1-1.2-.6Z" fill="#fff" isolation="isolate" opacity=".8" stroke-width="0"/></g></g><g id="freepik--Image--inject-115"><g id="freepik--image--inject-115"><g opacity=".2"><path d="m260.1,198.7l73.6-42.5c.5-.3,1,0,1,.6v66.7c0,.7-.4,1.3-1,1.6l-73.6,42.6c-.5.3-1,0-1-.5v-66.8c0-.7.4-1.3,1-1.7Z" stroke-width="0"/></g><path d="m340.4,160.2c-.4-.1-.8,0-1.1.2l-72.2,41.7c-1,.7-1.6,1.7-1.7,2.9v65.2c0,.4.1.8.5,1.1-.3-.2-2.8-1.6-3.1-1.8-.3-.3-.5-.7-.5-1.1v-65.2c0-1.2.7-2.3,1.7-2.9l72.2-41.7c.4-.3.8-.3,1.2-.1.3.2,2.5,1.4,3.1,1.8Z" fill="#263238" stroke-width="0"/><g opacity=".2"><path d="m340.4,160.2c-.6-.4-2.8-1.6-3.1-1.8-.4-.2-.8-.2-1.2.1l-72.2,41.7c-.5.3-.9.7-1.2,1.2l3.1,1.8c.3-.5.7-.9,1.2-1.3l72.2-41.7c.3-.2.7-.3,1.1-.2Z" fill="#fff" stroke-width="0"/></g><path d="m267,202l72.2-41.7c.9-.5,1.7-.1,1.7,1v65.2c0,1.2-.7,2.3-1.7,2.9l-72.2,41.7c-.9.5-1.7.1-1.7-1v-65.2c0-1.2.7-2.3,1.7-2.9Z" fill="#263238" stroke-width="0"/><path d="m267,202l72.2-41.7c.9-.5,1.7-.1,1.7,1v65.2c0,1.2-.7,2.3-1.7,2.9l-72.2,41.7c-.9.5-1.7.1-1.7-1v-65.2c0-1.2.7-2.3,1.7-2.9Z" fill="#dd6d1f" stroke-width="0"/><path d="m265.8,203.3l-3.1-1.8c-.3.5-.5,1.1-.5,1.6v65.2c0,.4.1.8.5,1.1.3.2,2.9,1.6,3.1,1.8-.3-.3-.5-.7-.5-1.1v-65.2c0-.6.2-1.2.5-1.6Z" fill="#263238" stroke-width="0"/><path d="m265.8,203.3l-3.1-1.8c-.3.5-.5,1.1-.5,1.6v65.2c0,.4.1.8.5,1.1.3.2,2.9,1.6,3.1,1.8-.3-.3-.5-.7-.5-1.1v-65.2c0-.6.2-1.2.5-1.6Z" isolation="isolate" opacity=".2" stroke-width="0"/><path d="m312.6,223.6l5.7,8-25.8-23.5-27.2,46v15.9c0,1.1.8,1.5,1.7,1l72.2-41.7c1-.6,1.6-1.7,1.7-2.9v-8.7l-19.2-13.8-9.1,19.7Z" fill="#fafafa" isolation="isolate" opacity=".9" stroke-width="0"/><path d="m309.6,194.5c3.4-1.9,6.1-.4,6.1,3.5-.2,4.3-2.5,8.2-6.1,10.6-3.4,2-6.1.4-6.1-3.5.2-4.3,2.5-8.2,6.1-10.6Z" fill="#fafafa" isolation="isolate" opacity=".9" stroke-width="0"/><path d="m340,160.9c.1,0,.1.4.1.4v65.2c0,.9-.5,1.7-1.3,2.2l-72.2,41.7c-.1,0-.2.1-.4.1-.1,0-.1-.4-.1-.4v-65.2c0-.9.5-1.7,1.3-2.2l72.2-41.7c.1,0,.2-.1.4-.1m0-.8c-.3,0-.5,0-.8.2l-72.2,41.7c-1,.6-1.6,1.7-1.7,2.9v65.2c0,.8.4,1.2.9,1.2.3,0,.5,0,.8-.2l72.2-41.7c1-.6,1.6-1.7,1.7-2.9v-65.2c0-.8-.4-1.2-.9-1.2h0Z" fill="#263238" stroke-width="0"/></g></g><g id="freepik--chart-2--inject-115"><g id="freepik--donut-chart--inject-115"><g opacity=".2"><path d="m234.2,74.8l64.6-37.2c.6-.4,1.1,0,1.1.7v83.8c0,.8-.4,1.6-1.1,2l-64.5,37.2c-.6.4-1.1,0-1.1-.6v-83.9c0-.8.5-1.5,1.1-1.9Z" stroke-width="0"/></g><path d="m297.1,42.7l-59.9,34.5c-.7.5-1.2,1.3-1.2,2.2v81.6c0,.9.5,1.7,1.3,2.1l2.4,1.4c.8.4,1.7.4,2.5,0l59.9-34.5c.7-.5,1.2-1.3,1.2-2.2V46.2c0-.9-.5-1.7-1.3-2.1l-2.3-1.4c-.8-.4-1.7-.4-2.5,0Z" fill="#263238" stroke-width="0"/><path d="m242.2,164.5c-.8.4-1.7.4-2.5,0l-2.4-1.4c-.7-.5-1.2-1.3-1.3-2.1v-81.6c0-.5.2-.9.4-1.3l4.9,2.8c-.2.4-.4.8-.4,1.2v81.6c0,.7.5,1.2,1.2.7Z" isolation="isolate" opacity=".2" stroke-width="0"/><g opacity=".2"><path d="m303.2,46c-.1-.6-.6-.8-1.2-.5l-59.8,34.5c-.4.2-.7.5-.9.9l-4.9-2.8c.2-.4.5-.7.9-.9l59.9-34.5c.8-.4,1.7-.4,2.5,0l2.3,1.4c.7.4,1.2,1.1,1.3,1.9Z" fill="#fff" stroke-width="0"/></g><path d="m302,45.5l-59.8,34.5c-.7.5-1.2,1.3-1.2,2.2v81.6c0,.8.6,1.1,1.2.7l59.9-34.5c.7-.5,1.2-1.3,1.2-2.2V46.2c0-.8-.6-1.1-1.3-.7Z" fill="#fff" stroke-width="0"/><path d="m302.3,46.5v81.3c0,.5-.3,1-.8,1.3l-59.5,34.4v-81.3c0-.5.3-1,.8-1.3l59.6-34.4m.3-1.2c-.2,0-.4,0-.6.2l-59.9,34.5c-.7.5-1.2,1.3-1.2,2.2v81.6c0,.6.3.9.7.9.2,0,.4,0,.5-.2l59.9-34.5c.7-.5,1.2-1.3,1.2-2.2V46.2c0-.6-.3-.9-.7-.9h0Z" fill="#263238" stroke-width="0"/><path d="m261.3,84.4v8.6c-3.7,2.2-6.8,7.9-6.8,12.9l-6.5,3.7c0-9.7,5.9-21,13.2-25.2Z" fill="#dd6d1f" stroke-width="0"/><path d="m256.5,111l-4.6,8.7c-2.4-2-3.7-5.4-3.7-10.1l6.5-3.7c0,2.4.7,4.2,1.9,5.1Z" fill="#263238" stroke-width="0"/><path d="m274.5,94.4c0,9.7-5.9,21-13.2,25.2-3.8,2.2-6.9,2.2-9.5.1l4.6-8.7c1.2,1,2.9,1,4.9,0,3.7-2.2,6.7-7.9,6.7-12.9s-3-7.2-6.7-5.1v-8.7c7.3-4.2,13.2.3,13.2,10Z" fill="#263238" stroke-width="0"/><g opacity=".4"><path d="m274.5,94.4c0,9.7-5.9,21-13.2,25.2-3.8,2.2-6.9,2.2-9.5.1l4.6-8.7c1.2,1,2.9,1,4.9,0,3.7-2.2,6.7-7.9,6.7-12.9s-3-7.2-6.7-5.1v-8.7c7.3-4.2,13.2.3,13.2,10Z" fill="#fff" stroke-width="0"/></g><path d="m264.8,107.6c-.9,1.4-2.1,2.5-3.5,3.4-1.9,1.1-3.6,1-4.9,0s-1.9-2.7-1.9-5.2l-6.5,3.7c0,4.7,1.3,8.1,3.7,10.1,2.6,2.1,5.7,2.1,9.5-.1,2.8-1.7,5.2-4,7-6.7l-3.5-5.2Z" fill="#263238" stroke-width="0"/><path d="m264.8,107.6c-.9,1.4-2.1,2.5-3.5,3.4-1.9,1.1-3.6,1-4.9,0s-1.9-2.7-1.9-5.2l-6.5,3.7c0,4.7,1.3,8.1,3.7,10.1,2.6,2.1,5.7,2.1,9.5-.1,2.8-1.7,5.2-4,7-6.7l-3.5-5.2Z" isolation="isolate" opacity=".3" stroke-width="0"/><path d="m282.7,79l-3.9,2.2s0,0,0,.1v4.4s0,0,0,0c0,0,0,0,0,0l3.9-2.2s0,0,0-.1v-4.4s0,0,0,0c0,0,0,0,0,0Z" fill="#263238" stroke-width="0"/><path d="m282.7,79l-3.9,2.2s0,0,0,.1v4.4s0,0,0,0c0,0,0,0,0,0l3.9-2.2s0,0,0-.1v-4.4s0,0,0,0c0,0,0,0,0,0Z" fill="#fff" isolation="isolate" opacity=".4" stroke-width="0"/><path d="m285.5,79c0,0-.2,0-.2-.1,0-.1,0-.3,0-.4,0,0,0,0,0,0l10.8-6.2c.1,0,.3,0,.4,0,0,0,0,0,0,0,0,.1,0,.3,0,.4,0,0,0,0,0,0l-10.8,6.2s0,0-.1,0Z" fill="#455a64" stroke-width="0"/><path d="m285.5,81.4c0,0-.2,0-.2-.1,0-.1,0-.3,0-.4,0,0,0,0,0,0l10.8-6.2c.1,0,.3,0,.4,0,0,.1,0,.3,0,.4,0,0,0,0,0,0l-10.8,6.2s0,0-.1,0Z" fill="#455a64" stroke-width="0"/><path d="m282.7,88.1l-3.9,2.2s0,0,0,.1v4.4s0,0,0,0,0,0,0,0l3.9-2.2s0,0,0-.1v-4.4s0,0,0,0c0,0,0,0,0,0Z" fill="#263238" stroke-width="0"/><path d="m285.5,88.1c0,0-.2,0-.2-.1,0-.1,0-.3,0-.4,0,0,0,0,0,0l10.8-6.2c.1,0,.3,0,.4,0,0,0,0,0,0,0,0,.1,0,.3,0,.4,0,0,0,0,0,0l-10.8,6.2s0,0-.1,0Z" fill="#455a64" stroke-width="0"/><path d="m285.5,90.5c0,0-.2,0-.2-.1,0-.1,0-.3,0-.4,0,0,0,0,0,0l10.8-6.2c.1,0,.3,0,.4,0,0,.1,0,.3,0,.4,0,0,0,0,0,0l-10.8,6.2s0,0-.1,0Z" fill="#455a64" stroke-width="0"/><path d="m282.7,97.2l-3.9,2.2s0,0,0,.1v4.4s0,0,0,0,0,0,0,0l3.9-2.2s0,0,0-.1v-4.4s0,0,0,0,0,0,0,0Z" fill="#263238" stroke-width="0"/><path d="m282.7,97.2l-3.9,2.2s0,0,0,.1v4.4s0,0,0,0,0,0,0,0l3.9-2.2s0,0,0-.1v-4.4s0,0,0,0,0,0,0,0Z" isolation="isolate" opacity=".3" stroke-width="0"/><path d="m285.5,97.2c-.1,0-.2,0-.2-.2,0-.1,0-.3,0-.4,0,0,0,0,0,0l10.8-6.2c.1,0,.3,0,.4,0,0,0,0,0,0,0,0,.1,0,.3,0,.4,0,0,0,0,0,0l-10.8,6.2s0,0-.1,0Z" fill="#455a64" stroke-width="0"/><path d="m285.5,99.6c0,0-.2,0-.2-.1,0-.1,0-.3,0-.4,0,0,0,0,0,0l10.8-6.2c.1,0,.3,0,.4,0,0,.1,0,.3,0,.4,0,0,0,0,0,0l-10.8,6.2s0,0-.1,0Z" fill="#455a64" stroke-width="0"/><path d="m248.1,138.5c-.1,0-.2,0-.2-.1,0-.1,0-.3.1-.4l48.1-27.8c.1,0,.3,0,.4.1,0,.1,0,.3-.1.4l-48.1,27.8s0,0-.2,0Z" fill="#455a64" stroke-width="0"/><path d="m248.1,143.4c0,0-.2,0-.2-.1,0-.1,0-.3.1-.4l48.1-27.8c.1,0,.3,0,.4,0,0,.1,0,.3,0,.4,0,0,0,0,0,0l-48.1,27.8s0,0-.2,0Z" fill="#455a64" stroke-width="0"/><path d="m248.1,148.4c-.1,0-.2,0-.2-.1,0-.1,0-.3.1-.4l48.1-27.8c.2,0,.3,0,.4.2,0,.1,0,.3,0,.3l-48.1,27.8s0,0-.1,0Z" fill="#455a64" stroke-width="0"/></g></g><g id="freepik--Browser--inject-115"><g id="freepik--browser--inject-115"><g id="freepik--donut-chart--inject-115-2"><g opacity=".2"><path d="m3.3,117.7L165.1,24.5c.6-.4,1.1,0,1.1.7v23.6c0,.8-.5,1.6-1.1,2L3.3,143.8c-.6.4-1.1,0-1.1-.6v-23.6c0-.8.5-1.5,1.1-1.9Z" stroke-width="0"/></g><path d="m163.5,29.7L6.4,120.1c-.7.5-1.2,1.3-1.2,2.2v21.4c0,.9.5,1.7,1.3,2.1l2.4,1.4c.8.4,1.7.4,2.5,0L168.4,56.7c.7-.5,1.2-1.3,1.2-2.2v-21.4c0-.9-.5-1.7-1.3-2.2l-2.4-1.3c-.8-.4-1.7-.3-2.5,0Z" fill="#263238" stroke-width="0"/><path d="m11.2,147.1c-.8.4-1.7.4-2.5,0l-2.4-1.4c-.7-.5-1.2-1.3-1.3-2.1v-21.4c0-.5.2-.9.4-1.3l4.8,2.8c-.2.4-.4.8-.4,1.2v21.4c0,.7.5,1.2,1.2.7Z" isolation="isolate" opacity=".2" stroke-width="0"/><g opacity=".2"><path d="m169.6,32.9c-.1-.6-.6-.8-1.2-.5L11.2,122.9c-.4.2-.7.5-.9.9l-4.9-2.8c.2-.4.5-.7.9-.9L163.5,29.7c.8-.4,1.7-.4,2.5,0l2.4,1.3c.7.4,1.1,1.1,1.2,1.9Z" fill="#fff" stroke-width="0"/></g><path d="m168.4,32.4L11.2,122.9c-.8.5-1.2,1.3-1.3,2.2v21.4c0,.8.5,1.1,1.2.7L168.4,56.7c.7-.5,1.2-1.3,1.2-2.2v-21.4c0-.8-.6-1.1-1.2-.7Z" fill="#fff" stroke-width="0"/><path d="m168.6,33.5v21.1c0,.5-.3,1-.8,1.3L11,146.1v-21.1c0-.5.3-1,.8-1.3L168.6,33.5m.3-1.2c-.2,0-.4,0-.6.2L11.2,122.9c-.8.5-1.2,1.3-1.3,2.2v21.4c0,.6.3.9.7.9.2,0,.4,0,.5-.2L168.4,56.7c.7-.5,1.2-1.3,1.2-2.2v-21.4c0-.6-.3-.9-.7-.9h0Z" fill="#dd6d1f" stroke-width="0"/></g><path d="m22.2,121c-2.8,1.6-5,5.9-5,9.6,0,1,.2,2.1.7,3l-2.3,4.4c-.5.9-.5,1.9,0,2.2.3.2.6.2.8,0,.4-.2.6-.6.8-.9l2.3-4.4c.9.2,1.8,0,2.6-.5,2.8-1.6,5-5.9,5-9.6s-2.3-5.3-5-3.8Zm0,10.2c-1.5.9-2.7,0-2.7-2,0-2,1-3.9,2.7-5.1,1.5-.8,2.7,0,2.7,2,0,2-1,3.9-2.7,5.1Z" fill="#455a64" stroke-width="0"/><path d="m87.2,97.8l-50.8,29.3c-2.7,1.5-4.8-.1-4.8-3.6h0c0-3.5,2.2-7.7,4.8-9.2l50.8-29.3c2.7-1.5,4.8,0,4.8,3.6h0c0,3.5-2.1,7.7-4.8,9.2Z" fill="#e0e0e0" stroke-width="0"/><path d="m159.8,55.7l-59.7,34.4c-2.7,1.5-4.8,0-4.8-3.6h0c0-3.6,2.2-7.7,4.8-9.2l59.7-34.4c2.7-1.5,4.8,0,4.8,3.6h0c0,3.5-2.2,7.6-4.8,9.2Z" fill="#f0f0f0" stroke-width="0"/></g></g><g id="freepik--chart-1--inject-115"><g id="freepik--Screen--inject-115"><g id="freepik--Computer--inject-115"><polygon points="154.2 431.1 150.3 428.8 150.3 360.9 154.2 363.2 154.2 431.1" fill="#e6e6e6" stroke-width="0"/><polygon points="239.6 313.8 235.7 311.5 150.3 360.9 154.2 363.2 239.6 313.8" fill="#fafafa" stroke-width="0"/><polygon points="239.6 381.7 154.2 431.1 154.2 363.2 239.6 313.8 239.6 381.7" fill="#f0f0f0" stroke-width="0"/><polygon points="154.2 363.2 150.3 360.9 150.3 252.7 154.2 255 154.2 363.2" fill="#263238" isolation="isolate" opacity=".4" stroke-width="0"/><polygon points="154.2 255 239.6 205.6 235.7 203.4 150.3 252.7 154.2 255" fill="#263238" isolation="isolate" opacity=".2" stroke-width="0"/><polygon points="239.6 205.6 239.6 313.8 154.2 363.2 154.2 255 239.6 205.6" fill="#263238" isolation="isolate" opacity=".2" stroke-width="0"/><polygon points="239.6 205.6 239.6 313.8 154.2 363.2 154.2 255 239.6 205.6" fill="#fff" isolation="isolate" opacity=".3" stroke-width="0"/><g id="freepik--Ultrasound--inject-115"><path d="m240.2,328.6c0-.4-.3-.7-.6-.9l-16.9-9.8c-1-.5-2.1-.5-3.1,0l-42.5,24.5c-.4.2-.6.5-.6.9v86.4c0,.4.3.7.6.9l17,9.8c1,.5,2.1.5,3.1,0l42.5-24.4c.4-.2.6-.5.6-.9v-86.4Z" fill="#f0f0f0" stroke-width="0"/><path d="m194,353.9l-17-9.7c-.5-.2-.8-.7-.6-1.2,0-.3.3-.5.6-.6l42.5-24.5c1-.5,2.1-.5,3.1,0l17,9.8c.5.2.8.7.6,1.2,0,.3-.3.5-.6.6l-42.6,24.4c-.9.5-2.1.5-3,0Z" fill="#f0f0f0" stroke-width="0"/><path d="m195.3,354.3v86.4c-.5,0-1-.1-1.4-.4l-16.9-9.8c-.4-.2-.6-.5-.6-.9v-86.4c0,.4.3.7.6.9l17,9.7c.4.2.9.3,1.4.4Z" fill="#e0e0e0" stroke-width="0"/><path d="m255.6,328.8c0-.4-.3-.7-.6-.9l-25.3-14.6c-1-.5-2.1-.5-3.1,0l-58.9,34c-.4.2-.6.5-.6.9v2.8c0,.4.3.7.6.9l25.3,14.6c1,.5,2.1.5,3.1,0l59-33.9c.4-.2.6-.5.6-.9,0-.3,0-2.5,0-2.8Z" fill="#263238" stroke-width="0"/><path d="m193,363.6l-25.3-14.6c-.5-.2-.8-.7-.6-1.2,0-.3.3-.5.6-.6l58.9-34c1-.5,2.1-.5,3.1,0l25.3,14.7c.5.2.8.7.6,1.2,0,.3-.3.5-.6.6l-59,33.9c-.9.5-2.1.5-3,0Z" fill="#263238" stroke-width="0"/><path d="m193,363.6l-25.3-14.6c-.5-.2-.8-.7-.6-1.2,0-.3.3-.5.6-.6l58.9-34c1-.5,2.1-.5,3.1,0l25.3,14.7c.5.2.8.7.6,1.2,0,.3-.3.5-.6.6l-59,33.9c-.9.5-2.1.5-3,0Z" fill="#fff" isolation="isolate" opacity=".4" stroke-width="0"/><path d="m194.4,364v2.8c-.5,0-1-.1-1.4-.4l-25.3-14.6c-.4-.2-.6-.5-.6-.9v-2.8c0,.4.3.7.6.9l25.3,14.6c.4.2.9.4,1.4.4Z" fill="#263238" stroke-width="0"/><path d="m194.4,364v2.8c-.5,0-1-.1-1.4-.4l-25.3-14.6c-.4-.2-.6-.5-.6-.9v-2.8c0,.4.3.7.6.9l25.3,14.6c.4.2.9.4,1.4.4Z" fill="#fff" isolation="isolate" opacity=".2" stroke-width="0"/><g id="freepik--Keyboard--inject-115"><g id="freepik--keyboard--inject-115"><path d="m242.2,329.3c0-.2-.2-.4-.4-.5l-14.4-8.3c-.5-.3-1.2-.3-1.7,0l-44,25.4c-.2,0-.3.3-.4.5v1.5c0,.2.2.4.4.5l14.4,8.3c.5.3,1.2.3,1.7,0l44-25.4c.2,0,.3-.3.4-.5v-1.5Z" fill="#263238" stroke-width="0"/><path d="m242.2,329.3c0-.2-.2-.4-.4-.5l-14.4-8.3c-.5-.3-1.2-.3-1.7,0l-44,25.4c-.2,0-.3.3-.4.5v1.5c0,.2.2.4.4.5l14.4,8.3c.5.3,1.2.3,1.7,0l44-25.4c.2,0,.3-.3.4-.5v-1.5Z" fill="#fff" isolation="isolate" opacity=".2" stroke-width="0"/><path d="m196.1,355.2l-14.4-8.3c-.3,0-.4-.4-.4-.6,0-.2.2-.3.4-.4l44-25.4c.5-.3,1.2-.3,1.7,0l14.4,8.3c.3,0,.4.4.4.6,0,.2-.2.3-.4.4l-44,25.4c-.5.3-1.2.3-1.7,0Z" fill="#263238" stroke-width="0"/><path d="m196.1,355.2l-14.4-8.3c-.3,0-.4-.4-.4-.6,0-.2.2-.3.4-.4l44-25.4c.5-.3,1.2-.3,1.7,0l14.4,8.3c.3,0,.4.4.4.6,0,.2-.2.3-.4.4l-44,25.4c-.5.3-1.2.3-1.7,0Z" fill="#fff" isolation="isolate" opacity=".7" stroke-width="0"/><path d="m197,355.4v1.5c-.3,0-.6,0-.8-.2l-14.4-8.3c-.2,0-.3-.3-.4-.5v-1.5c0,.2.2.4.4.5l14.4,8.3c.2.1.5.2.8.2Z" fill="#263238" stroke-width="0"/><path d="m197.1,353.8h0l-1.4-.8,1.9-1.1,1.5.8-1.9,1.1h0Zm-2.2-1.3h0l-1.4-.8,1.5-.9,1.5.8-1.5.9h0Zm4.9-.3h0l-1.4-.8,1.5-.9,1.5.8-1.5.9h0Zm-7.2-1h0l-1.4-.8,2.4-1.4,1.5.8-2.5,1.4h0Zm4.5,0h0l-1.4-.8,1.2-.7,1.5.8-1.2.7h0Zm4.9-.3h0l-1.4-.8,1.5-.9,1.5.8-1.5.9h0Zm-3-.9h0l-1.4-.8,1.2-.7,1.5.8-1.2.7h0Zm-8.7-.1h0l-1.4-.8,1.9-1.1,1.5.8-1.9,1.1h0Zm14-.3h0l-1.4-.8,11-6.3,1.5.8-11,6.3h0Zm-8.5-.2h0l-1.4-.8,1.2-.7,1.5.8-1.2.7h0Zm5.2-.5h0l-1.4-.8,1.2-.7,1.5.8-1.2.7h0Zm-12.9-.3h0l-1.4-.8,1.2-.7,1.5.8-1.2.7h0Zm4.9-.3h0l-1.4-.8,1.2-.7,1.5.8-1.2.7h0Zm4.7-.2h0l-1.4-.8,1.2-.7,1.5.8-1.2.7h0Zm5.2-.5h0l-1.4-.8,1.2-.7,1.5.8-1.2.7h0Zm-12.9-.3h0l-1.4-.8,1.2-.7,1.5.8-1.2.7h0Zm4.9-.3h0l-1.4-.8,1.2-.7,1.5.8-1.2.7h0Zm4.7-.1h0l-1.4-.8,1.2-.7,1.5.8-1.2.7h0Zm-14.4,0h0l-1.4-.8,1.5-.9,1.5.8-1.5.9h0Zm19.6-.5h0l-1.4-.8,1.2-.7,1.5.8-1.2.7h0Zm-12.9-.3h0l-1.4-.8,1.2-.7,1.5.8-1.2.7h0Zm4.9-.3h0l-1.4-.8,1.2-.7,1.5.8-1.2.7h0Zm4.7-.2h0l-1.4-.8,1.2-.7,1.5.8-1.2.7h0Zm5.2-.5h0l-1.4-.8,1.2-.7,1.5.8-1.2.7h0Zm-18.4-.2h0l-1.4-.8,1.2-.7,1.5.8-1.2.7h0Zm5.5,0h0l-1.4-.8,1.2-.7,1.5.8-1.2.7h0Zm4.9-.3h0l-1.4-.8,1.2-.7,1.5.8-1.2.7h0Zm4.7-.2h0l-1.4-.8,1.2-.7,1.5.8-1.2.7h0Zm5.2-.5h0l-1.4-.8,1.2-.7,1.5.8-1.2.7h0Zm-18.4-.2h0l-1.4-.8,1.2-.7,1.5.8-1.2.7h0Zm5.5,0h0l-1.4-.8,1.2-.7,1.5.8-1.2.7h0Zm4.9-.3h0l-1.4-.8,1.2-.7,1.5.8-1.2.7h0Zm4.7-.2h0l-1.4-.8,1.2-.7,1.5.8-1.2.7h0Zm5.2-.5h0l-1.4-.8,1.2-.7,1.5.8-1.2.7h0Zm-18.4-.2h0l-1.4-.8,1.2-.7,1.5.8-1.2.7h0Zm5.5,0h0l-1.4-.8,1.2-.7,1.5.8-1.2.7h0Zm18.1-.1h0l-1.4-.8,1.5-.9,1.5.8-1.5.9h0Zm-13.2-.3h0l-1.4-.8,1.2-.7,1.5.8-1.2.7h0Zm4.7-.2h0l-1.4-.8,1.2-.7,1.5.8-1.2.7h0Zm5.2-.5h0l-1.4-.8,1.2-.7,1.5.8-1.2.7h0Zm-18.4-.2h0l-1.4-.8,1.2-.7,1.5.8-1.2.7h0Zm5.5,0h0l-1.4-.8,1.2-.7,1.5.8-1.2.7h0Zm4.9-.3h0l-1.4-.8,1.2-.7,1.5.8-1.2.7h0Zm13.5,0h0l-1.4-.9,1.5-.9,1.5.8-1.5.9h0Zm-8.7-.1h0l-1.4-.8,1.2-.7,1.5.7-1.2.7h0Zm5.2-.5h0l-1.4-.8,1.2-.7,1.5.8-1.2.7h0Zm-13-.3h0l-1.4-.8,1.2-.7,1.5.8-1.2.7h0Zm4.9-.3h0l-1.4-.8,1.2-.7,1.5.8-1.2.7h0Zm4.7-.1h0l-1.4-.8,1.2-.7,1.5.8-1.2.7h0Zm-14.3,0h0l-1.4-.8,1.2-.7,1.5.8-1.2.7h0Zm23.3,0h0l-1.4-.8,1.5-.9,1.5.8-1.5.9h0Zm-3.7-.5h0l-1.4-.8,1.2-.7,1.5.8-1.2.7h0Zm-13-.3h0l-1.4-.8,1.2-.7,1.5.8-1.2.7h0Zm4.9-.3h0l-1.4-.8,1.2-.7,1.5.8-1.2.7h0Zm4.7-.1h0l-1.4-.8,1.2-.7,1.5.8-1.2.7h0Zm-14.3,0h0l-1.4-.8,1.2-.7,1.5.8-1.2.7h0Zm23.6-.2h0l-1.4-.8,1.9-1.1,1.5.8-1.9,1.1h0Zm-4.1-.2h0l-1.4-.8,3.8-2.2,1.5.8-3.8,2.2h0Zm-12.9-.3h0l-1.4-.8,1.2-.7,1.5.8-1.2.7h0Zm4.9-.3h0l-1.4-.8,1.2-.7,1.5.8-1.2.7h0Zm4.7-.1h0l-1.4-.8,1.2-.7,1.5.8-1.2.7h0Zm-14.3,0h0l-1.4-.8,1.2-.7,1.5.8-1.2.7h0Zm6.6-.7h0l-1.4-.8,1.2-.7,1.5.8-1.2.7h0Zm18.2-.2h0l-1.4-.8,1.2-.7,1.5.8-1.2.7h0Zm-13.2,0h0l-1.4-.8,1.2-.7,1.5.8-1.2.7h0Zm4.7-.1h0l-1.4-.8,1.1-.6c0,0,.1-.1.1-.2,0,0,0-.2-.1-.2l-1.9-1.1,1.4-.8,3.7,2.1-2.9,1.7h0Zm-14.3,0h0l-1.4-.8,1.2-.7,1.5.8-1.2.7h0Zm6.6-.7h0l-1.4-.8,1.2-.7,1.5.8-1.2.7h0Zm18.2-.2h0l-1.4-.8,1.2-.7,1.5.8-1.2.7h0Zm-13.2,0h0l-1.4-.8,1.2-.7,1.5.8-1.2.7h0Zm-8.7-.7h0l-1.4-.8,1.2-.7,1.5.8-1.2.7h0Zm5.7-.2h0l-1.4-.8,1.2-.7,1.5.8-1.2.7h0Zm18.2-.2h0l-1.4-.8,1.2-.7,1.5.8-1.2.7h0Zm-4.2-.1h0l-1.4-.8,1.2-.7,1.5.8-1.2.7h0Zm-17.7-.6h0l-1.4-.8,1.2-.7,1.5.8-1.2.7h0Zm5.7-.2h0l-1.4-.8,2.1-1.2,1.5.8-2.1,1.2h0Zm18.6-.4h0l-1.4-.8,3.2-1.8,1.5.8-3.2,1.8h0Zm-13-.2h0l-1.4-.8,1.2-.7,1.5.8-1.2.7h0Zm-9.3-.3h0l-1.4-.8,1.2-.7,1.5.8-1.2.7h0Zm20.1-.8h0l-1.4-.8,1.2-.7,1.5.8-1.2.7h0Zm-8.8,0h0l-1.4-.8,1.2-.7,1.5.8-1.2.7h0Zm-4.2-.1h0l-1.4-.8,1.2-.7,1.5.8-1.2.7h0Zm-5.2-.3h0l-1.4-.8,1.2-.7,1.5.8-1.2.7h0Zm24.3-.6h0l-1.4-.8,1.2-.7,1.5.8-1.2.7h0Zm-4.2-.1h0l-1.4-.8,1.2-.7,1.5.8-1.2.7h0Zm-8.8,0h0l-1.4-.8,1.2-.7,1.5.8-1.2.7h0Zm4.6,0h0l-1.4-.8,1.2-.7,1.5.8-1.2.7h0Zm-8.8,0h0l-1.4-.8,1.2-.7,1.5.8-1.2.7h0Zm-4.7-.4h0l-1.4-.8,1.2-.7,1.5.8-1.2.7h0Zm23.9-.4h0l-3.7-2.1,1.2-.7,3.7,2.1-1.2.7h0Zm-4.2-.1h0l-1.4-.8,1.2-.7,1.5.8-1.2.7h0Zm-4.2-.1h0l-1.4-.8,1.2-.7,1.5.8-1.2.7h0Zm-8.8,0h0l-1.4-.8,1.2-.7,1.5.8-1.2.7h0Zm4.6,0h0l-1.4-.8,1.2-.7,1.5.8-1.2.7h0Zm-9.3-.3h0l-1.4-.8,1.2-.7,1.5.8-1.2.7h0Zm15.5-.7h0l-1.4-.8,1.2-.7,1.5.8-1.2.7h0Zm-4.2-.1h0l-1.4-.8,1.2-.7,1.4.8-1.2.7h0Zm-4.2-.1h0l-1.4-.8,1.2-.7,1.5.8-1.2.7h0Zm-5.1-.2h0l-1.4-.8,1.2-.7,1.5.8-1.2.7h0Zm15.5-.7h0l-3.7-2.1,1.2-.7,3.7,2.1-1.2.7h0Zm-4.2-.1h0l-1.4-.8,1.2-.7,1.5.8-1.2.7h0Zm-4.2-.1h0l-1.4-.8,1.2-.7,1.5.8-1.2.7h0Zm-5.3-.8h0l-.6-.4,1.2-.7.7.4-1.2.7h0Zm7.2-.4h0l-1.4-.8,1.2-.7,1.5.8-1.2.7h0Zm-5.3-.8h0l-.6-.4,1.2-.7.7.4-1.2.7h0Zm7.2-.4h0l-1.5-.8,1.2-.7,1.5.8-1.2.7h0Zm-5.3-.8h0l-.6-.4,1.2-.7.7.4-1.2.7h0Zm2-1.1h0l-.6-.4,1.2-.7.7.4-1.2.7h0Z" fill="#fafafa" stroke-width="0"/></g></g></g></g><g id="freepik--bar-graph--inject-115"><polygon points="215.4 305.9 215.4 258.1 211.2 255.6 211.2 303.5 215.4 305.9" fill="#263238" stroke-width="0"/><polygon points="215.4 305.9 215.4 258.1 211.2 255.6 211.2 303.5 215.4 305.9" isolation="isolate" opacity=".2" stroke-width="0"/><polygon points="215.4 305.9 227.8 298.8 227.8 251 215.4 258.1 215.4 305.9" fill="#263238" stroke-width="0"/><polygon points="227.8 251 223.5 248.5 211.2 255.6 215.4 258.1 227.8 251" fill="#263238" stroke-width="0"/><polygon points="227.8 251 223.5 248.5 211.2 255.6 215.4 258.1 227.8 251" fill="#fff" isolation="isolate" opacity=".2" stroke-width="0"/><path d="m227.8,251l-12.4,7-4.3-2.3,4.1,2.7c-.1,1.4,0,46.1.2,47.5.2-1.4.3-46.2.2-47.6l12.2-7.4Z" fill="#fff" isolation="isolate" opacity=".3" stroke-width="0"/><polygon points="192.2 319.3 192.2 280.9 187.9 278.5 187.9 316.9 192.2 319.3" fill="#263238" stroke-width="0"/><polygon points="192.2 319.3 192.2 280.9 187.9 278.5 187.9 316.9 192.2 319.3" fill="#fff" isolation="isolate" opacity=".1" stroke-width="0"/><polygon points="192.2 319.3 204.6 312.2 204.6 273.8 192.2 280.9 192.2 319.3" fill="#263238" stroke-width="0"/><polygon points="192.2 319.3 204.6 312.2 204.6 273.8 192.2 280.9 192.2 319.3" fill="#fff" isolation="isolate" opacity=".3" stroke-width="0"/><polygon points="204.6 273.8 200.3 271.3 187.9 278.5 192.2 280.9 204.6 273.8" fill="#263238" stroke-width="0"/><polygon points="204.6 273.8 200.3 271.3 187.9 278.5 192.2 280.9 204.6 273.8" fill="#fff" isolation="isolate" opacity=".6" stroke-width="0"/><path d="m192.4,281l12.2-7.3-12.4,7c-1.4-.8-4.3-2.3-4.3-2.3,0,0,2.7,1.8,4.1,2.5,0,1.5,0,36.9.2,38.3,0-1.5.2-36.9.2-38.3Z" fill="#fff" isolation="isolate" opacity=".3" stroke-width="0"/><polygon points="169 332.7 169 300.5 164.7 298 164.7 330.3 169 332.7" fill="#263238" stroke-width="0"/><polygon points="169 332.7 169 300.5 164.7 298 164.7 330.3 169 332.7" isolation="isolate" opacity=".4" stroke-width="0"/><polygon points="169 332.7 181.4 325.6 181.4 293.3 169 300.5 169 332.7" fill="#263238" stroke-width="0"/><polygon points="169 332.7 181.4 325.6 181.4 293.3 169 300.5 169 332.7" isolation="isolate" opacity=".3" stroke-width="0"/><polygon points="181.4 293.3 177.1 290.9 164.7 298 169 300.5 181.4 293.3" fill="#263238" stroke-width="0"/><polygon points="181.4 293.3 177.1 290.9 164.7 298 169 300.5 181.4 293.3" isolation="isolate" opacity=".2" stroke-width="0"/><path d="m181.4,293.3l-12.4,7-4.3-2.3,4.1,2.7s0,31.2.2,32c.2-.9.2-32,.2-32l12.2-7.4Z" fill="#fff" isolation="isolate" opacity=".3" stroke-width="0"/></g><g id="freepik--Arrow--inject-115"><polygon points="226 224.1 224.9 223.5 215.4 226.9 217.5 228.9 190.6 257.6 185 252.3 183.9 251.7 162.9 274.1 165.4 276.4 166.5 277.1 184.8 257.6 190 262.3 191.6 263.3 220.9 232.1 222.1 233.2 223.2 233.8 226 224.1" fill="#263238" stroke-width="0"/><polygon points="226 224.1 224.9 223.5 215.4 226.9 217.5 228.9 190.6 257.6 185 252.3 183.9 251.7 162.9 274.1 165.4 276.4 166.5 277.1 184.8 257.6 190 262.3 191.6 263.3 220.9 232.1 222.1 233.2 223.2 233.8 226 224.1" fill="#fff" isolation="isolate" opacity=".2" stroke-width="0"/><polygon points="226 224.1 223.2 233.8 221.1 231.9 191.6 263.3 185.1 257.2 166.5 277.1 164 274.7 185 252.3 191.5 258.4 218.6 229.5 216.5 227.5 226 224.1" fill="#dd6d1f" stroke-width="0"/><polygon points="185.1 257.2 184.8 257.6 190 262.3 191.6 263.3 185.1 257.2" fill="#263238" stroke-width="0"/><polygon points="185.1 257.2 184.8 257.6 190 262.3 191.6 263.3 185.1 257.2" isolation="isolate" opacity=".2" stroke-width="0"/><polygon points="217.5 228.9 218.6 229.5 216.5 227.5 215.4 226.9 217.5 228.9" fill="#263238" stroke-width="0"/><polygon points="217.5 228.9 218.6 229.5 216.5 227.5 215.4 226.9 217.5 228.9" isolation="isolate" opacity=".2" stroke-width="0"/><polygon points="220.9 232.1 221.1 231.9 223.2 233.8 222.1 233.2 220.9 232.1" fill="#263238" stroke-width="0"/><polygon points="220.9 232.1 221.1 231.9 223.2 233.8 222.1 233.2 220.9 232.1" isolation="isolate" opacity=".2" stroke-width="0"/><polygon points="162.9 274.1 164 274.7 166.5 277.1 165.4 276.4 162.9 274.1" fill="#263238" stroke-width="0"/><polygon points="162.9 274.1 164 274.7 166.5 277.1 165.4 276.4 162.9 274.1" isolation="isolate" opacity=".2" stroke-width="0"/><polygon points="170.9 267.3 185 252.8 191.5 258.4 185 252.3 170.9 267.3" fill="#fff" isolation="isolate" opacity=".5" stroke-width="0"/><polygon points="203.9 245.2 218.9 229.5 216.9 227.6 226 224.1 216.5 227.5 218.6 229.5 203.9 245.2" fill="#fff" isolation="isolate" opacity=".5" stroke-width="0"/></g></g></g><g id="freepik--character-3--inject-115"><g id="freepik--Character--inject-115"><g id="freepik--Bottom--inject-115"><path d="m276.9,408.1c-.5-.1-.6,1.4-.5,2s1.9,2.9,5.3,4,8.4,1,10.5,1.1,5.2,1.5,7.2,2.1c4.7,1.5,7.5,0,8.9-1,.5-.4.7-1,.7-1.7.1-1.4,0-1.7-.1-1.7l-31.9-5Z" fill="#37474f" stroke-width="0"/><path d="m308.6,408.6c.2,1,.3,2,.4,2.9.1,1.2.2,2.7-.7,3.5-1.3,1.2-3.1,1.8-4.9,1.6-2.1,0-4.1-.5-6-1.3-1.6-.9-3.3-1.4-5.1-1.6-2.4,0-4.9-.2-7.3-.5-1.8-.3-3.6-.9-5.2-1.7-1.3-.7-2.3-1.9-2.9-3.3,0-2,1.3-3.8,3.3-4.5,1.8-.6,3.7-.8,5.5-.5,2,.2,3.5.7,5.3.8,1.2.1,2.5,0,3.7-.4.6-.4,1-.9,1.3-1.5.4-.6.5-1.2,1.1-1.2,0,0,9.5,1.1,10.4,1.2s.7,1.5.7,2.2,0,.6,0,1.2c0,.7.1,1.4.3,2.1,0,.3,0,.6.1.9Z" fill="#455a64" stroke-width="0"/><path d="m289.5,403.6c-.1,0-.3-.2-.4-.2-.8-.2-1.5.5-2,1.1-.2.4-.4.8-.6,1.2-.2.5-.3,1.1-.2,1.6,0,.1.1.3.2.3s.2-.2.2-.3c.2-.7.5-1.5.9-2.1.2-.3.4-.5.6-.7.3-.2.6-.3.9-.4.1,0,.7,0,.6-.2,0,0,0,0-.1-.1h0Z" fill="#fafafa" stroke-width="0"/><path d="m291.8,403.8c-.4,0-.8,0-1.1.2-.3.3-.6.6-.8,1-.5.8-.7,1.8-.4,2.8.1.3.4.2.5,0,.1-.3.2-.6.2-.9.2-.6.4-1.2.7-1.8.1-.2.3-.4.4-.6.1-.1.2-.2.4-.3,0,0,.2,0,.2,0h.2c0-.1-.1-.2-.2-.2h-.2Z" fill="#fafafa" stroke-width="0"/><path d="m294.3,403.4c-.3,0-.5.2-.8.4-.2.2-.3.4-.4.7-.3.6-.4,1.2-.5,1.8,0,.4,0,.9.2,1.3,0,.2.2.3.4.3s.2-.3.2-.5,0-.6.1-.9c.1-1.1.6-2.1,1.3-2.9,0,0,0,0,0-.1s-.1,0-.2,0c-.1,0-.3,0-.4,0Z" fill="#fafafa" stroke-width="0"/><path d="m287,403.5c-.8-.1-2.7.8-3.9,3.3-.7,1.8-1.1,3.8-1,5.8-1.7-.4-3.3-1.4-4.4-2.7-.4-.5-.8-1-1-1.6-.1-1.4.4-2.8,1.3-3.8,1.4-1.3,3.4-2.1,6.4-1.9,3.4.2,3.5,1.1,3.5,1.1l-.9-.2Z" fill="#fafafa" stroke-width="0"/><path d="m309.5,387.6s-1.8,13.2-2.1,16c-.1,1.2-2.7,2.4-6.2,2.1-2.5-.2-4-1.8-4.3-3s-1-16.9-1-16.9l13.5,1.9Z" fill="#ffa8a7" stroke-width="0"/><path d="m346.4,388.3l-4-12.8-12,2.3s7.3,13.8,8.2,15c1.6,2.1,7.7-4.5,7.7-4.5Z" fill="#ffa8a7" stroke-width="0"/><path d="m351.1,392c.2,1.2.1,2.4-.2,3.6-.2,1.2-.3,2.4-.4,3.5,0,.7-.1,1.4-.3,2.2-.1.9-.2,1.7-.1,2.6,0,.9,0,1.8,0,2.7,0,.4,0,.8,0,1.2,0,.4-5.8,3.7-8.1,5l-.4.2c-1.3.5-2.8.1-3.8-.9-1-2.5-.4-5.3,1.6-7.2,0,0,.3,0,.2-2.3,0-1.6,0-3.3-.2-5-.1-1-.4-2-.8-3-.5-.8-.9-1.8-1-2.8.1-.7.5-1.4.9-1.9,1.1-1.5,2.6-2.7,4.3-3.4.9-.4,2.3-.8,3.2-.3.5.3.7.9,1.1,1.3.4.5,1,.9,1.5,1.3,1.1.7,2,1.7,2.5,2.9,0,0,0,.2.1.3Z" fill="#455a64" stroke-width="0"/><path d="m339.2,405c-.3.3-.5.7-.8,1.1h0c-1,1.8-1.3,4-.8,6.1-4.1-.4-5.2-2.8-5.2-2.8,0-1.5.8-2.9,2.1-3.6.3-.2.6-.3.9-.5h0c1.2-.5,2.5-.7,3.8-.4Z" fill="#fafafa" stroke-width="0"/><path d="m352,392.7c1.1.4.8,3.4.1,6.3s-1.1,3.9-.7,6.3.5,3.5-.4,4.3-8.7,4.5-8.7,4.5c1.1-2.9,1.6-5.9,1.7-9,.2-5.3.6-8.7,3-11.1,1.3-1.4,3.2-1.9,5-1.3Z" fill="#263238" stroke-width="0"/><path d="m332.4,409.4c1.9,1.5,4.1,2.4,6.5,2.8,3.5.4,3.6-.9,4-5s.5-9.8,2.1-12.3,4.3-3.6,5.4-3.4c.2-.1,1.3.7,1.6,1.1-1.7,0-3.4.6-4.5,1.8-2.2,2.1-2.5,6.6-2.6,10.6s-.3,8.8-3.5,9.2c-3.2.3-6.4-.6-8.8-2.7-.7-.6-.8-1.6-.2-2.3,0,0,0,0,0,0Z" fill="#37474f" stroke-width="0"/><path d="m339.5,403.4c-.3.2-.4.4-.5.8,0,.9.4,1.7,1.2,2.1.4.2.8.1.1-.7-.5-.6-.7-1.4-.8-2.2Z" fill="#fafafa" stroke-width="0"/><path d="m339.4,400.6c-.2.2-.3.4-.3.6.2.9.7,1.7,1.4,2.2.8.3.4-.5,0-.9-.4-.6-.8-1.3-1.1-2Z" fill="#fafafa" stroke-width="0"/><path d="m339.2,397.4c-.2.1-.3.3-.4.5,0,.3,1.5,1.5,2,1.5s.6-.2,0-.6c-.6-.4-1.1-.9-1.6-1.4Z" fill="#fafafa" stroke-width="0"/><path d="m335.4,387.6s-9.2-16.7-14.7-28c-1.9-3.9-2.7-5.5-3.3-8.5s-2.8-11.2-2.8-11.2l-3,17.3c.7,3.2,1.2,6.4,1.4,9.6.2,3.6-.4,7.9-1.7,15.8-1.9,11.5-2.7,14.3-2.7,14.3-.8.6-2.9.8-5,.8-4.9.2-7.2-2.1-7.2-2.1,0,0-1.3-20.2-1.7-24.8-1.5-15.8-1.6-22.5-1.2-40.9.3-15.7,2-34.6,2-34.6l34.9-8.4s6.4,11.2,5.8,22.2c-.7,12-1.1,38.3-1.1,38.3,1.9,3.1,3.6,6.2,5.4,13.8,1,4.4,3.1,14,4.5,21-3.9,0-7.5,1.9-9.4,5.2Z" fill="#37474f" stroke-width="0"/><path d="m314.6,340l4.5-24.6s4.8-.6,11.1-6.1c0,0-.4,4.3-8.8,8l-4.8,21.8.9,12-2.8-11.2Z" fill="#263238" stroke-width="0"/></g><g id="freepik--Top--inject-115"><polygon points="306.9 243.7 308.2 257.4 319.8 256.6 317.9 241.4 306.9 243.7" fill="#ffa8a7" stroke-width="0"/><path d="m300,229.5s-3.3,3.9-3,4.3c.7.5,1.5.8,2.3,1l.7-5.3Z" fill="#f28f8f" stroke-width="0"/><path d="m308.5,218.2c-2.5,1.1-6.9,3-8.7,11.9-1.8,9.1-.9,12.4.2,13.7.8.9,6.8,1.9,8.5,1.5,2.9-.5,9.1-3.7,12.4-8.2,3.8-5.3,5.1-12.7,1.5-15.9-5.2-4.5-11.7-3.9-13.9-3Z" fill="#ffa8a7" stroke-width="0"/><path d="m307.1,245.4v-1.4c-1.4.2-2.6.3-3.9.1-1.2,0-2.4-.3-3.5-.8.1.2.2.3.3.4.7.7,4.6,1.6,7,1.7Z" fill="#f28f8f" stroke-width="0"/><path d="m312.8,246c-1.3-.5-2.4-1.3-3.3-2.3-1-1.1-2.2-5.4-2-6.5,0,0,1.5,1.4,3.8-.4s2.9-5.5.2-6.7c-2-.8-3.6.6-4.6,2.1-.2.2-.4.5-.7.5-.5,0-.7-.5-.8-.9,0-.5-.2-1-.5-1.5-.6-.7-.9-1.6-.9-2.5,0-.8.2-1.5.5-2.3-1,.7-1.9,1.6-2.5,2.7-.5-1.5-.2-3,.6-4.3-1.1,1-2,2.2-2.5,3.6-.7-.8-1-1.9-1-2.9,0-2.9,1.4-5.5,3.7-7.3,2.2-1.7,4.9-2.8,7.6-3.2,2.7-.5,5.4-.4,8.1.1,5.6,1.1,8.4,4.3,9.1,5.5.6,1.3,1,2.7.9,4.1,3.2,2.2,2.7,6.5,1.5,9.7-1.1,2.8-3.3,5.1-5.5,7.1-1.1,1-2.3,2-3.4,3.1-.5.5-1,1-1.5,1.6-.7.9-1.2,1.7-1.2,1.7-2,0-3.9-.4-5.8-1Z" fill="#37474f" stroke-width="0"/><path d="m325,250c4.9-.6,8.3,1.1,11.8,7.7,3.2,6.2,7.8,15.2,9.6,19.7.9,2.2,2.3,4.2-1.7,8.5-3.7,3.9-7.8,7.3-12.3,10.1l-4.9-8.8,5.4-7.2-2.6-5.5-5.3-24.5Z" fill="#37474f" stroke-width="0"/><path d="m332.8,280c1.3,1.5,3.1,2.7,5,3.4-1.8.6-5.1-1.1-5.8-2.2l.8-1.2Z" fill="#263238" stroke-width="0"/><path d="m330.9,255.1c-.9-3.5-2.1-5.8-8.7-5.5h-.9c-2.4.3-5.7.5-11.7,1-.8.1-8,1.4-9.2,1.5,0,0-5.4,3.2-8.1,14.7-.8,3.2-.4,6.6,3.6,9.8-.1,3.3.6,6.1.2,9.3-.7,5.1-1.2,10.3-1.3,15.5,0,0,8.3,4.1,22,2.7,8.4-.8,16.5-5.5,18-7-1.5-4.9-3.5-9.7-5.9-14.2,1.3-11.3,5-15.8,1.9-27.8Z" fill="#263238" stroke-width="0"/><g id="freepik--Arm--inject-115"><path d="m274,269.4c-1.8-1.5-3.6-3.1-5.3-4.8-.5-.8-.7-1.7-.6-2.6,0-2.5-1.3-4.3-2-6.5-.2-.6-.5-1.6-1.1-1.5-.3,0-.6.2-.8.4-.2.2-.3.5-.4.8-.1.7-.1,1.4.1,2.1,0,.3.7,1.6.4,1.8-.1,0-.3,0-.4,0-.6-.4-1.1-.8-1.6-1.2-.5-.5-1-1-1.5-1.5-1.1-1.1-2.1-2.3-3-3.6-.8-1-1.5-1.2-2.1-.9s.1,1.8.1,1.8c-.4-.7-1-1.3-1.6-1.7-.9-.4-1.8-.2-1.8.5,0,.3.1.6.2.9-.8.5-1.1,1.6-.6,2.4,0,0,0,0,0,.1,0,0-1,.2-.2,2.5,1.6,4.1,4.3,7.6,7.9,10.2,1.5,1.1,2.9,2.4,4.1,3.9,3.3,3.8,6.6,7.8,10,11.5v-14.3Z" fill="#ffa8a7" stroke-width="0"/><path d="m255.8,253.7c.8,2.1,2.2,4.1,3.9,5.6-1.4-1.8-2.7-3.7-3.9-5.6Zm-3.2-.5c1.2,3.1,2.9,6.3,5.6,8.4-2.3-2.5-4.1-5.4-5.6-8.4h0Zm3.5,9.1c-1.6-2-3-4.3-4-6.6.7,2.5,2.1,4.8,4,6.6Z" fill="#f28f8f" stroke-width="0"/><path d="m300.3,252.2c-4.4.7-7.4,4.5-8.7,6.2-4,5.5-11.1,14.6-11.1,14.6l-8.3-5.4s-1.4.2-3.2,2.8-1.6,6.4-1.6,6.4c0,0,6.2,6.9,7.5,8.1,5.7,5.6,8.8,3.8,10.5,2.4,5.6-4.6,13.5-14.6,15-16.2,2.9-3,4-14-.1-19Z" fill="#37474f" stroke-width="0"/></g></g></g></g><g id="freepik--character-2--inject-115"><g id="freepik--character--inject-115"><g id="freepik--bottom--inject-115"><g id="freepik--bottom--inject-115-2"><polygon points="387.2 256.4 384.9 255.4 387.1 254.6 387.2 256.4" fill="#263238" stroke-width="0"/><path d="m365,261.8s26-13.6,26.5-11.8c0,.4,0,.7,0,1.1h0c0-.1-.3,3.3-.3,3.3-1.1,1-2.5,1.7-4.1,2,0-.2,0-1.2-.1-1.8-.8.4-1.6.9-2.3,1.4-1.6,1.2-2.6,3.3-4.3,5.7-1.2,1.8-3.5,2.7-7,3.4-3.7.8-7.1.2-8.1-.8-.5-.7-.7-1.7-.4-2.5Z" fill="#263238" stroke-width="0"/><path d="m365.7,261c.7-.9,1.5-1.8,2.4-2.6,1.2-1.2,2.4-2.4,3.7-3.5,1.1-1,2.1-2.2,3.1-3.4,1.3-1.7,2.4-3.6,3.3-5.5.4-1,.6-2.1.4-5.5-.3-4.8-.5-5.9-.7-9.6l13.5-.9c-.3,2.1-.8,5-1.1,7.8-.4,3.5-1.5,3.9,0,7.4.6,1,1,2,1.2,3.1.2,1.8-1.1,3.5-2.7,4.4-1.3.8-2.8,1.2-4,2.1-1.2,1-2.3,2.1-3.1,3.5-.8,1.2-1.5,2.6-2.7,3.5-1.3.9-2.7,1.5-4.3,1.8-1.9.5-3.9.7-5.8.6-2.8,0-4.9-1-3.1-3Z" fill="#c8856a" stroke-width="0"/><path d="m375.9,255c-1.3-.7-2.8-.7-4.2-.1-1.9,1.7-3.4,3.2-4.5,4.2-1.3,1.3-2.5,2.4-2.4,3.8.2,2.1,8.4,2.3,12.9,0,1.4-.6,2.5-1.6,3.1-3,0,0-.8-2.9-4.9-4.8Zm15.2-8.5c-.8-1.3-1.1-2-1.1-2-2.6,2.2-3.7,5.8-2.6,9.1,1.7-.4,3.1-1.5,3.9-3,.7-1.3.6-2.9-.2-4.1h0Z" fill="#37474f" stroke-width="0"/><path d="m412.9,247.7c-.7,1.2.6,7.2.7,10.3,0,2.8,0,7.9,1.2,10.5,1.4,3.2,3.9,6.8,7.8,3.3,2.4-2.1,3.7-4.8,3.7-8.8,0-2.8-1.5-6.6-2.8-9.9-1.5-3.9-2.1-6-2.1-6l-8.5.6Z" fill="#263238" stroke-width="0"/><path d="m420.1,228.1c.8,6.5.8,10.2,1.1,14.4.2,2.2.5,4.4,1,6.5.6,2.7,1.7,6.2,2.3,7.9.8,2.4,1.4,3.9.7,6.6,0,.2-.1.4-.2.6-1.1,2.4-4.1,4.4-5.2,4.2-.4.6-1.1.8-1.7.8-.1,0-.2,0-.4,0-.1,0-.2,0-.4,0-.9-.3-1.5-1-1.9-1.9,0-.2-.2-.4-.2-.6-.7-2.2-1-4.5-1-6.8,0-1.5-.3-4.2-.6-6.6s-2.2-9.1-3.2-12.8c-.8-3-2.5-9.2-2.5-9.2l12.1-3.1Z" fill="#c8856a" stroke-width="0"/><path d="m425.4,260.1c-2.6-.8-10.1-.1-11,3.3.2,3.1.6,5.1,2.9,7.6,3.1,3.3,6.5-.8,7.7-3.4,1-2.4,1.1-5,.5-7.5Z" fill="#37474f" stroke-width="0"/><path d="m410.8,142.2c2.6,6.4,5.1,13.4,5.5,27,.5,17.9,1.4,24.3,1.5,26.5.3,3.7,1.9,7,3.6,17.5s.8,29.9.8,29.9c-1.8,1.6-4.1,2.7-6.5,3-3.7.5-5.4-.9-5.4-.9,0,0-7.1-28.5-8.9-34.8s-7.1-27-7.1-27l-2.1,17.4s2.1,5.5,1.5,14.9-3.9,26.9-3.9,26.9c0,0-2,1.5-6,1.3s-5.6-1.6-5.6-1.6c0,0-3.6-34.7-4.2-45.3s-2.1-38.2,1.8-54.7h34.9Z" fill="#455a64" stroke-width="0"/><path d="m378.7,159.3c1.8,4.3,7.8,7,10.4,7.4l3.9,16.4-.7,17.6,2.1-17.4-4.5-20s-7.1-.1-11.2-4Zm26-5c.3,1.7.6,3.5,1,5.2s.6,3.5,1,5.2c.1-1.8,0-3.6-.1-5.4-.1-1.8-.4-3.5-.7-5.3-.3-1.8-.8-3.5-1.3-5.2-.5-1.7-1.2-3.4-2.1-4.9.5,1.7.9,3.4,1.2,5.2s.7,3.4,1,5.2h0Zm3-4.2c.5,1.1,1,2.1,1.5,3.2l1.4,3.3c0-1.2-.3-2.4-.6-3.6-.3-1.2-.8-2.3-1.3-3.4-.5-1.1-1.1-2.2-1.8-3.2-.7-1-1.4-2-2.2-2.9.5,1.1,1,2.2,1.5,3.3s1.1,2.1,1.6,3.2h0Zm-2.2,50.5c-1.3-5.4-2.4-10.9-3.4-16.4s-2-11-3.1-16.4c.7,5.6,1.4,11.1,2.2,16.6s1.9,11,3.2,16.5,2.8,10.8,4.2,16.2,3,10.8,4.5,16.1c-1.2-5.5-2.4-10.9-3.7-16.3-1.2-5.5-2.6-10.9-3.9-16.3h0Zm-27.6-16.9l.2-14.6c-.5,4.8-.9,9.7-1.1,14.6s-.4,9.7-.2,14.6c.4,4.9,1,9.7,1.6,14.5s1.3,9.6,2.1,14.4c-.3-4.9-.8-9.7-1.2-14.5l-.7-7.2c-.2-2.4-.5-4.8-.6-7.2s-.1-4.8-.1-7.2,0-4.8,0-7.3Z" fill="#37474f" stroke-width="0"/></g></g><g id="freepik--top--inject-115"><path d="m341,103.4c-.7-.2-.9.6-.4,1.1,1.1,1.2,3.1,1.2,4.1,1.7.2.2,3,2.6,3,3.3-.8-.3-3.1-1.6-3.9-1.9-.2,0-.9-.2-2.9-.5-.3,0-.7-.1-1,0-.2,0-.5.6,0,1.1.8.9,2.2.8,3.3,1.3,1.1.3,2.1,1.1,2.7,2-1.6-.5-2.7-.4-5.2-.1-.3,0-.3.2-.3.4,0,.3.3.6.6.8.9.2,1.9.4,2.8.3,1.1.2,2.2.7,3.1,1.4.3.2.6.6.9.9.3.4.4,1,.6,1.4.9,2,3,3.1,5.1,3,.1,0,.3,0,.4-.1.2-.2.2-.4.2-.7-.1-2.4-1.3-4.6-2.2-6.8-.3-.7-2.6-6.2-2.7-6.4s-5.8-1.6-6-1.6c-.6-.1-1.7-.3-2.3-.5Z" fill="#af6152" stroke-width="0"/><path d="m376.8,112.4c-1.2,1.6-6.9,8.9-6.9,8.9,0,0-7.7-3.7-10-5.1-2.5-1.5-4.5-3.7-5.6-6.4-1.3-2.8-1.7-3-3.1-3.9-.9-.5-2.8-2.1-2.8-2.1-.3-.2-.6-.3-1-.4l-1.1-.3c-1.1-.2-1.7-.3-2.8-.6-.3,0-.7-.1-1-.2,0,0-.1,0-.2,0-.1,0-.1.2,0,.4.2.6.6,1.2,1.2,1.5.6.3,1.2.5,1.9.7.4.1.6.1,1.4.4.3.1.6.3.8.6,1.2,1.1,2.2,2.3,3.1,3.6-1.4-.3-2.6-1-3.6-2-.9-.9-1.8.3-.9,1.8,1,1.7,2.5,1.9,3.8,4.2,1.3,2.3-.6,4.6,2.4,6.4,1.8,1.2,3.5,2.5,5.1,3.9,2.6,2.2,9.5,7.2,11.2,8.4,3.7,2.6,5.9,2.3,10.8-3.8,6.5-8.1,7.3-9,7.3-9v-14.4c-4.3.7-5.5,1.9-9.8,7.5Z" fill="#c8856a" stroke-width="0"/><path d="m350.4,109.5c.8.3,1.5.7,2.2,1.2.2.2.2-.5-.9-1.3s-1.9-.7-2.2-1.1l.9,1.2Z" fill="#af6152" stroke-width="0"/><path d="m410.8,142.2c1.8-1.1-.5-2.8-.2-5.7.7-5.8,3.2-9.9,4-13.2,1.6-7.3-1.7-14.1-3.4-15.7l-3.9-1.2c-1.3-.4-3.3-.8-5.2-1.2-2.5-.6-5.1-1-7.7-.9-.8,0-4.6.4-4.6.4-1.2.2-3.3.4-3.3.4-2.5,1.6-4.5,3.7-6.1,6.2-2.1,3.2-4.3,5.9-4.4,13.1-.2,14.5-2.6,16.2,0,18,7.2,5.1,24.8,5,35,0Z" fill="#263238" stroke-width="0"/><g opacity=".4"><path d="m410.8,142.2c1.8-1.1-.5-2.8-.2-5.7.7-5.8,3.2-9.9,4-13.2,1.6-7.3-1.7-14.1-3.4-15.7l-3.9-1.2c-1.3-.4-3.3-.8-5.2-1.2-2.5-.6-5.1-1-7.7-.9-.8,0-4.6.4-4.6.4-1.2.2-3.3.4-3.3.4-2.5,1.6-4.5,3.7-6.1,6.2-2.1,3.2-4.3,5.9-4.4,13.1-.2,14.5-2.6,16.2,0,18,7.2,5.1,24.8,5,35,0Z" fill="#fff" stroke-width="0"/></g><g id="freepik--Head--inject-115"><path d="m406,103.2c-1.3.3-2.7.3-4,.1-1.1-.2-2.2-.3-3.3-.4-1,0-1.8.4-2.8.3-1.9,0-3.7-.3-5.5-.5-1.4-.2-2.8-.7-4-1.4-.7-.4-1.3-.8-1.9-1.4-.4-.4-.7-1-.9-1.6-.2.9,0,1.9.6,2.7-1.6-.9-2.8-2.2-3.6-3.8-.8-1.6-.9-3.5-.4-5.2.6-1.8,2-3.4,2.5-5.2.7-2.5-.2-5.2,0-7.7.3-2.3,1.4-4.4,3-5.9,1.6-1.6,3.6-2.7,5.8-3.4,4.7-1.7,9.9-.7,13.6,2.6.4.4.8.7,1.2,1,.4.3.9.4,1.4.7,2.4,1.2,4.2,3.3,5,5.8.6,1.9.8,3.8.7,5.7-.1,1.9-.7,3.7-.7,5.7,0,3,1.1,6.1,0,8.9-.5,1.3-1.4,2.3-2.6,3,.5-.8.4-1.9-.2-2.6-.8,1.5-2.2,2.5-3.9,2.8Z" fill="#263238" stroke-width="0"/><path d="m404.5,102.8c0-1.6.2-6.1.2-6.1,0,.5,2.5,2.4,4.9.2s2.8-4.8,1.8-6.6c-1.2-2-4.2-2.3-5.8.6-.6,1.2-2-.3-2.2-1-.3-1.5.7-2.5-.2-3.9-.9-1.6-1.3-3.3-1.2-5.1-2-.8-3.6-2.5-4.2-4.6-1.2.9-2.7,1.6-4.3,1.8-1.6.2-3.1.6-4.6,1.1-.9.4-1.7,1-2.4,1.7-.6.9-.9,2.1-.7,3.2,0,1.5-.2,2.9-.6,4.3-.9,5.1.9,9.2,2.7,10.9,1.3,1.2,3.1,1.9,4.9,1.8,0,0,0,.6,0,1.6s-.5,1.4-1.6,1.6l-2.5.5s-2.8,3.7,3.8,4.9c10.5,1.9,15.4-3.1,15.4-3.1,0,0-.4-.2-2.1-.7-1.5-.5-1.4-1.4-1.4-3Z" fill="#c8856a" stroke-width="0"/><path d="m392.9,101c4.6,0,8.9-1.2,10.2-4.4,0,1.8-1.1,3.5-2.7,4.4-2.6,1.5-7.6,1.7-7.6,1.7v-1.6Z" fill="#af6152" stroke-width="0"/><path d="m396.3,92.6l-4.1,1.2c.3,1.1,1.4,1.8,2.6,1.5,0,0,0,0,0,0,1.1-.4,1.8-1.6,1.4-2.7Z" fill="#af6152" stroke-width="0"/><path d="m396,93.5c-1.1,0-2.1.7-2.4,1.8.4.1.8.1,1.2,0,.8-.3,1.4-.9,1.5-1.8h-.3Z" fill="#f0997a" stroke-width="0"/><path d="m386.7,83.6l2.7-1c-.2-.7-1-1.1-1.8-.9,0,0,0,0,0,0-.7.3-1.1,1.1-.9,1.9Z" fill="#263238" stroke-width="0"/><path d="m399.1,85.1l-2.5-1.5c.4-.7,1.2-1,1.9-.6,0,0,0,0,.1,0,.7.4.9,1.3.5,2Z" fill="#263238" stroke-width="0"/><path d="m395.7,86.6c0,.6.5,1.1,1.1,1.1,0,0,0,0,0,0,.6,0,1.1-.5,1.1-1.1,0-.6-.5-1.1-1.1-1.1s-1.1.5-1.1,1.1c0,0,0,0,0,0Z" fill="#263238" stroke-width="0"/><path d="m387.4,85.8c0,.6.5,1.1,1.1,1.1s1.1-.5,1.1-1.1-.5-1.1-1.1-1.1c0,0,0,0,0,0-.6,0-1.1.5-1.1,1.1s0,0,0,0Z" fill="#263238" stroke-width="0"/><polygon points="389 89.8 393 91.3 393.4 83.8 389 89.8" fill="#af6152" stroke-width="0"/></g><g id="freepik--Glass--inject-115"><path d="m374.7,173.4h0c0,0-33.6-37.6-33.6-37.6h0c-.7-.9-.9-2.1-.5-3.1,1-3,3.4-5.2,6.4-6.1,1.1-.4,2.3-.2,3.1.6h0l37.2,34.1h0c0,0,.1.2.1.2,3.4,3.4,3.4,8.8,0,12.2,0,0,0,0-.1.1-3.5,3.4-9.1,3.3-12.5-.2h-.1Z" fill="#263238" stroke-width="0"/><path d="m347,126.5c2.8-.7,4.4,1,3.6,3.7-1,2.9-3.4,5.2-6.4,6.1-2.8.7-4.4-1-3.6-3.6,1-3,3.4-5.2,6.4-6.2Z" isolation="isolate" opacity=".2" stroke-width="0"/><path d="m381.7,163.4l-32.4-30.8c.6-.7,1-1.6,1.2-2.4.4-1,.2-2.2-.5-3.1l37.2,34.1h0c0,0,.1.2.1.2,3.4,3.4,3.4,8.8,0,12.2,0,0,0,0-.1.1,1.5-2.4-1.4-6.2-5.6-10.3Z" isolation="isolate" opacity=".1" stroke-width="0"/><path d="m330.3,119.9c.6-1.8,2.1-3.2,3.9-3.7.6-.2,1.4-.1,1.9.3h0l12.2,12.3h0c.4.5.5,1.2.3,1.9-.6,1.8-2.1,3.2-3.9,3.7-.6.2-1.4.1-1.9-.3l-12.2-12.3h0c-.4-.5-.5-1.2-.3-1.9Z" fill="#e0e0e0" stroke-width="0"/><path d="m342.8,123.3l-4.5-4.6c-1.4,2.2-2.9,4.3-4.4,6.3l4.5,4.5c1.6-2,3.1-4.1,4.5-6.2Z" isolation="isolate" opacity=".2" stroke-width="0"/><path d="m342.7,67l-7.7-4.4c-5.8-3.4-13.9-2.9-22.8,2.3-17.8,10.3-32.3,35.3-32.3,55.9s3.6,17.5,9.5,20.9l7.7,4.4c2.6,1.4,5.5,2.2,8.4,2.1,4.3,0,9.2-1.4,14.4-4.4,17.8-10.3,32.3-35.3,32.3-55.9,0-10.3-3.6-17.5-9.4-20.9Zm-41.2,28.9c5.7-9.8,13.1-17.7,21-22.2,3.5-2.2,7.5-3.5,11.6-3.7.6,0,1.2,0,1.8,0,2.5,3.1,3.8,7.8,3.8,13.7,0,9.1-3.1,19.5-8.8,29.3-5.6,9.8-13.1,17.7-21,22.2-4.2,2.4-8.3,3.7-11.9,3.7-.5,0-1,0-1.5,0-.5-.6-.9-1.2-1.2-1.8-1.7-3-2.6-7-2.6-11.9,0-9.1,3.1-19.5,8.8-29.2Z" fill="#455a64" stroke-width="0"/><path d="m288.3,90.8l12.1,7c.3-.6.7-1.2,1-1.8,1.7-3,3.7-5.9,5.8-8.7l-12.2-7c-2.5,3.3-4.8,6.8-6.8,10.5Zm14.7-19.1c-1.5,1.4-3,2.8-4.4,4.4l12.2,7c1.4-1.5,2.9-3,4.5-4.3l-12.4-7.1Z" fill="#fff" isolation="isolate" opacity=".1" stroke-width="0"/><path d="m297,146.1l-7.6-4.4c-5.8-3.4-9.5-10.6-9.5-20.9v-1.2l7.7,4.4v1.2c0,10.3,3.6,17.5,9.4,20.9Z" fill="#37474f" stroke-width="0"/><path d="m343.6,74.7c-1.8-2.6-4.7-4.3-7.8-4.6,2.5,3.1,3.8,7.8,3.8,13.7,0,9.1-3.1,19.5-8.8,29.3-5.6,9.8-13.1,17.7-21,22.2-4.2,2.4-8.3,3.7-11.9,3.7-.5,0-1,0-1.5,0,2,2.6,5,4.1,8.3,4.2h.7c3.5,0,7.6-1.3,11.9-3.7,7.9-4.5,15.3-12.4,21-22.2s8.8-20.2,8.8-29.3c0-5.6-1.2-10.1-3.4-13.2Z" fill="#263238" stroke-width="0"/><path d="m319.8,69.3c-17.8,10.3-32.3,35.3-32.3,55.9s14.5,28.9,32.3,18.6,32.3-35.3,32.3-55.9-14.5-28.9-32.3-18.6Zm-2.6,70.1c-4.2,2.4-8.3,3.7-11.9,3.7-4.3.1-8.2-2.2-10.1-6-1.7-3-2.6-7-2.6-11.9,0-9.1,3.1-19.5,8.8-29.2s13.1-17.7,20.9-22.2c3.5-2.2,7.5-3.5,11.6-3.7h.3c8,0,12.7,6.7,12.7,17.9s-3.1,19.5-8.8,29.3-13.1,17.7-21,22.2h0Z" fill="#37474f" stroke-width="0"/><path d="m295.4,96.4c-3,5.8-5.2,12-6.5,18.4-.7,3.2-1,6.4-1.1,9.7,0,3.2.3,6.5,1.1,9.6.8,3.2,2.2,6.1,4.3,8.6,2.1,2.5,4.9,4.2,8.1,5,3.2.7,6.5.7,9.6-.1,3.2-.8,6.2-2,9-3.6-2.8,1.7-5.8,3-9,3.8-3.2.8-6.5.9-9.7.2-3.2-.8-6.1-2.5-8.3-5.1-2.1-2.5-3.6-5.5-4.4-8.7-.8-3.2-1.1-6.5-1-9.7,0-3.3.5-6.5,1.2-9.7.7-3.2,1.6-6.3,2.8-9.4,1.2-3.1,2.5-6,4.1-8.9Z" fill="#455a64" stroke-width="0"/><path d="m334.3,70c1.6,0,3.2.3,4.7.9,1.5.6,2.9,1.6,4,2.8,1.1,1.2,1.9,2.6,2.5,4.1.6,1.5,1.1,3.1,1.4,4.7.5,3.2.6,6.5.3,9.7-.3,3.2-.9,6.4-1.8,9.5-.9,3.1-2,6.2-3.3,9.1-1.3,3-2.9,5.8-4.6,8.6-3.4,5.6-7.5,10.6-12.4,14.9-2.4,2.2-5.1,4.1-7.9,5.7-2.8,1.7-6,2.8-9.2,3.3-1.7.3-3.3.3-5,0-2.5-.5-4.8-1.8-6.4-3.7-.5-.6-1-1.3-1.4-2-.8-1.4-1.4-3-1.8-4.6-.8-3.2-1-6.5-.8-9.7.2-3.3.7-6.5,1.6-9.7.8-3.1,1.9-6.2,3.1-9.2,1.3-3,2.7-5.8,4.4-8.6-3.2,5.6-5.5,11.6-7,17.9-.8,3.1-1.2,6.3-1.4,9.5-.2,3.2.1,6.4.9,9.5.4,1.5,1,3,1.8,4.3.8,1.4,1.8,2.5,3.1,3.5,1.2.9,2.7,1.5,4.2,1.8,1.5.3,3.1.3,4.7,0,3.1-.5,6.1-1.6,8.9-3.3,2.8-1.6,5.4-3.5,7.8-5.6,4.8-4.3,8.9-9.2,12.3-14.7,3.4-5.4,6.1-11.3,7.9-17.4.9-3.1,1.6-6.2,1.9-9.4.4-3.2.3-6.4-.1-9.6-.2-1.6-.6-3.1-1.2-4.6-.6-1.5-1.4-2.9-2.4-4.1-1-1.2-2.3-2.2-3.8-2.8-1.5-.6-3.1-1-4.7-1Z" fill="#455a64" stroke-width="0"/><path d="m338,70.6c-1.2-.4-2.5-.6-3.7-.6h-.3c-4.1.3-8.1,1.5-11.6,3.7-7.9,4.5-15.3,12.4-21,22.2s-8.8,20.2-8.8,29.2.9,8.9,2.6,11.9c.7,1.3,1.7,2.5,2.8,3.5,1.2.4,2.5.6,3.7.6,3.5,0,7.6-1.3,11.9-3.7,7.9-4.5,15.3-12.4,21-22.2s8.8-20.2,8.8-29.3-1.9-12.4-5.4-15.4Z" fill="#dd6d1f" isolation="isolate" opacity=".3" stroke-width="0"/></g><g id="freepik--arm--inject-115"><path d="m411.6,108c-5.2,1.8-8.4,8.8-8.4,8.8l-10.5,15.8s-13,6.1-17.5,7.8c-1.9.7-3.8.4-6.4.4-.7,0-2.9.3-3.5.3l2,2.4c1,.8-1.3,2-4.2,2.6s-6.4.3-7.4,2c-.5.9,0,1.2,1.3,1.4-.1.5,0,1.1,1.5,1.4.6.9,1.5,1.5,2.5,1.9,3,.6,6,.3,8.9-.7,2.9-1.3,4.9-3,8-3.9s13.1-3.2,17-4.8,5.2-2.2,6.8-4.2,10.8-13.4,13.4-18.4c2.9-5.6,1.7-10.7-3.5-12.8Z" fill="#c8856a" stroke-width="0"/></g></g></g></g><g id="freepik--character-1--inject-115"><g id="freepik--Chartacter--inject-115"><g id="freepik--bottom--inject-115-3"><path d="m83.3,407l-1.1-10.2,11.8.8s-.2,5.5-.3,8.7c0,1.9,2.4,5.3,2.4,5.3,0,0-5.5,2.9-8.5,1.9-2.3-1-4-3-4.5-5.5,0-.8.2-1,.2-1Z" fill="#ffbda7" stroke-width="0"/><path d="m111.7,422.9c.4.9.2,2-.5,2.7-2.7,1.8-5.9,2.5-9.1,2.1-4.5-.5-7-1.7-8.8-3.1s-4.4-3.3-6.5-3.7c-1.6-.3-3.2-.8-4.6-1.6-.6-.5-.6-3-.6-3l30,6.6Z" fill="#263238" stroke-width="0"/><path d="m83.3,407c-.3,0-.6.3-.7.6-.1.7-.2,2.6-.5,3.7-.4,1.9-.6,3.9-.3,5.9.3,1.2,3.4,2,5.4,2.7,2.3.9,4.5,2.1,6.5,3.6,2.9,1.9,6.2,3,9.6,3.1,3.5,0,7.4-1.2,8.3-2.7,1.1-1.9,1.9-4-3.4-6.2-1-.4-4.5-2.2-5.6-2.9-3.2-1.8-5.5-3.5-7-6.7-.1-.4-.4-.8-.8-1-.3-.1-.7-.1-1,0-1.7.2-3.4.5-5.1,1-.7.3-1.7.7-1.7,1.5,0,.3,0,.6.2.8,0,.2.1.4,0,.5s-.3,0-.5-.1c-.5-.5-1-1-1.4-1.5-.2-.3-.5-.5-.8-.8-.3-.2-.6-.3-.9-.5-.3-.3-.3-.6-.3-1Z" fill="#455a64" stroke-width="0"/><path d="m93.6,423.5c-.9-.7-1.9-1.3-2.8-1.9h0s6.1,3.3,8.6,1.7c.9-.5,1.2-1.7.8-2.6,0-.4,5.5-3.2,7-3.4h0c.4.2.8.4,1,.5,5.2,2.1,4.4,4.3,3.4,6.2-.9,1.5-3.7,2.7-8.2,2.8-3.4-.2-6.7-1.3-9.6-3.2Z" fill="#37474f" stroke-width="0"/><path d="m99.6,419.6c3.2,1.1,1.9,1.7,1,1.9s-6.4-2.7-9.7-5.1c-3.5-2.5-5.7-5.2-7-6.1-.5-.3-1-.8-1.5-1.1,0-.7.1-1.3.2-1.6,0-.3.3-.6.7-.6,0,.4,0,.8.3,1,.3.2.6.4.9.5.3.2.6.5.8.8.4.5.9,1.1,1.4,1.5,2.8,3.3,9.6,7.6,12.9,8.8Z" fill="#37474f" stroke-width="0"/><path d="m100.4,421c0,0-.1,0-.2,0-.1,0-.1-.3,0-.4,0,0,0,0,0,0,.9-1,5.2-3.6,7.5-3.4.2,0,.3.1.3.3,0,0,0,0,0,0,0,.2-.2.3-.3.3,0,0,0,0,0,0-2.2-.2-6.3,2.3-7,3.1,0,0-.2.1-.3.1Z" fill="#263238" stroke-width="0"/><path d="m97.5,419.4c0,0-.1,0-.2,0-.1,0-.1-.3,0-.4,0,0,0,0,0,0,.9-1,5.2-3.6,7.5-3.4.2,0,.3.1.3.3,0,0,0,0,0,0,0,.2-.2.3-.3.3-2.2-.2-6.3,2.3-7,3.1,0,0-.2.1-.3.1Z" fill="#263238" stroke-width="0"/><path d="m94.7,418c0,0-.1,0-.2,0-.1,0-.1-.3,0-.4,0,0,0,0,0,0,.9-1,5.2-3.6,7.5-3.4.2,0,.3.1.3.3s-.1.3-.3.3c0,0,0,0,0,0-2.2-.2-6.3,2.3-7,3.1,0,0-.2.1-.3.1Z" fill="#263238" stroke-width="0"/><path d="m92.1,416.3c0,0-.1,0-.2,0-.1,0-.1-.3,0-.4,0,0,0,0,0,0,.9-1,5.2-3.6,7.5-3.4.2,0,.3.1.3.3,0,0,0,0,0,0,0,.2-.2.3-.3.3-2.2-.2-6.3,2.3-7,3.1,0,0-.2.1-.3.1Z" fill="#263238" stroke-width="0"/><path d="m89.5,414.6c0,0-.1,0-.2,0-.1,0-.2-.3,0-.4,0,0,0,0,0,0,1.2-1.5,5.7-3.6,8.1-3.4.2,0,.3.1.3.3,0,0,0,0,0,0,0,.2-.2.3-.3.3-2.1-.2-6.4,1.9-7.5,3.2,0,0-.2.1-.2.1Z" fill="#263238" stroke-width="0"/><path d="m60,412.6l2.7-9.6-12-1.8-.5,9.3s-1.3,3.3-.5,4.6,8.7,2.6,9.5,1.8.9-4.2.9-4.2Z" fill="#ffbda7" stroke-width="0"/><path d="m58.8,433.6c-.4,3-1,4.9-2.4,6.5s-3.7,1.9-6,1-5.2-2.6-5.7-5.3c-.5-2.4-.3-4.9.4-7.2l13.6,5Z" fill="#263238" stroke-width="0"/><path d="m50.1,410.4c-1,0-.8,4-1.6,8-.9,4.3-2.5,5.9-3.2,9.4-.9,4-.7,5.8.7,8.5s7.1,5.9,10.1,2.7c2.5-2.6,2.8-5.7,2.8-9.8,0-3.5,0-6.9.4-10.4.4-3,1.3-5.7.5-6.1,0,.4-.2,1-.3,1.4s-.3,2-.8,1.9c0-.4,0-.8,0-1.1,0-.3,0-.7-.2-1-.5-.4-1-.6-1.5-.8-.9-.3-2.6-.7-3.6-.9-.5-.1-1-.2-1.4-.2-.4,0-.8,0-1.2,0-.2,0-.4.2-.5.3,0,.1,0,.3,0,.5,0,.3,0,.6-.2.8,0,.1-.1.2-.3.2,0,0-.2-.2-.1-.3,0-.5.1-.8.2-1.4,0-.3.1-.6.1-.9s0-.5,0-.8Z" fill="#455a64" stroke-width="0"/><path d="m45.6,426.7c-.1.6-1,4.4.2,5.2s2.2-2,2.2-2c0,0,3.1-.4,7.5,1.9-.3.6.3,2.8,1.5,2.5s2-4.7,2-4.7c0,3.9-.4,7-2.8,9.5-3.1,3.1-8.7,0-10.1-2.7s-1.6-4.5-.7-8.5c0-.4.2-.8.3-1.1Z" fill="#37474f" stroke-width="0"/><path d="m48.3,430.2c-.1,1.5-1.7.8-1.7-1.3s1.7-6.9,1.9-10.4c.3-4.9.6-8.1,1.6-8h0c0,.1-.3,2.1-.3,2.1,0,.3,0,.6-.1.9-.2,3-.3,8.8-.8,11.5-.3,1.7-.5,3.5-.6,5.2Z" fill="#37474f" stroke-width="0"/><path d="m55,431.7c.5-1.6.9-3.3,1.2-5,.5-2.7,2.2-8,3-10.9.2-.5.4-1.1.4-1.6,0-.4.2-.9.3-1.3,0,0,0,0,0,0,.6.3.3,2.7,0,3.9s-.7,2.5-1.1,4.2c-1,3.4-1.2,8.5-1.9,10.5s-2.3,1.8-1.9.4Z" fill="#37474f" stroke-width="0"/><path d="m55.6,431.9s0,0-.1,0c-2.2-1.3-4.8-1.8-7.3-1.7-.2,0-.4,0-.4-.3,0-.2,0-.3.2-.3,0,0,0,0,0,0,2.7-.2,5.5.4,7.9,1.8.2,0,.2.3.1.4,0,0,0,0,0,0,0,.1-.2.2-.4.1Z" fill="#263238" stroke-width="0"/><path d="m56.6,428.9h-.1c-2.5-1.4-5.4-2-8.2-1.9-.2,0-.4-.1-.4-.3,0-.2,0-.3.3-.3,0,0,0,0,0,0,3-.1,6,.6,8.7,2,.2,0,.2.2.2.4,0,0,0,0,0,0,0,.1-.2.2-.4.1Z" fill="#263238" stroke-width="0"/><path d="m48.6,423.9c-.1,0-.2-.1-.3-.2,0-.2,0-.3.2-.4,0,0,0,0,0,0,4.4-.7,8.5,1.8,8.7,1.9.2,0,.2.3.1.4,0,0,0,0,0,0-.1.1-.3.2-.5,0,0,0-4.1-2.5-8.1-1.8h-.2Z" fill="#263238" stroke-width="0"/><path d="m49.1,421.1c-.1,0-.2-.1-.3-.2,0-.1,0-.3.2-.4,0,0,0,0,0,0,3.1-.5,6.2.2,8.9,1.9.1,0,.2.3.1.4,0,0,0,0,0,0-.1.1-.4.1-.5,0-2.5-1.5-5.4-2.2-8.3-1.8,0,0-.1,0-.2,0Z" fill="#263238" stroke-width="0"/><path d="m49.6,417.9c-.1,0-.2-.1-.3-.2,0-.2,0-.3.2-.4,0,0,0,0,0,0,4.5-.9,8.8,1.9,8.9,2,.1,0,.2.3.1.4,0,0,0,0,0,0-.1.1-.3.2-.5,0,0,0-4.1-2.7-8.3-1.9h-.2Z" fill="#263238" stroke-width="0"/><path d="m57.5,310.7c-2.7,22.8-5,55.6-5,55.6-.2,1.8-1.5,4.9-2.5,13.7-1.1,9.3-1.6,33.7-1.6,33.7,1.1,3.6,9.9,5.3,12.6,1.9,0,0,8-29.2,10.5-40.3,2.6-11.4,5.3-28.3,5.3-28.3l1.5,16.9s-.5,5.8-.4,10.5c.1,5.5,4.2,36.8,4.2,36.8,0,0,8.5,2.1,14-2,0,0,1.5-37.7,1.8-44.3.5-13-1.3-39.6-1.5-56.4l-38.9,2.1Z" fill="#37474f" stroke-width="0"/><path d="m76.8,347l3-16.8s6.4-.8,9.7-3.7c0,0-2.2,3.9-8.2,5.3l-3,15.3v16.9l-1.5-16.9Z" isolation="isolate" opacity=".2" stroke-width="0"/></g><g id="freepik--top--inject-115-2"><path d="m128.1,284.7c-1.5,1.2-3.1,3.2-5.7,5.4s-6.5,6.1-10.3,8.5-5.7,3.3-10.6-1.5c-4.5-4.7-8.6-9.6-12.4-14.9l-.3-18.4c4.1,1.1,6.4,3.2,9,7,4.8,7.1,8.1,11.7,10.9,15.8,0,0,11.2-6.9,12.6-8,1.1-.8,1.9-2,2.2-3.3.3-1.1.7-2.2,1.1-3.2.4-1.1.6-1.5,1.1-3s.9-3.8,1-4.3c.3-.6,1.2-.6,2,.9.4.9.5,1.9.4,2.8,0,.9-.2,1.9,0,2s1.5-.5,2.7-.9,2.3-.9,3.6-.5c.9.2,1.4,1.1,1.2,1.9,0,0,0,.1,0,.2-.2.3-.4.6-.7.8.5,0,.9,0,1.3.4.6.7.6,1.7,0,2.4.5,0,1,.4,1.1.9.2.8.1,1.6-.7,1.9,0,0,.7.1.7.5.1.7,0,1.3-.6,1.8-.7.3-1.5.5-2.3.6,0,0-.1.3-.9.7-.8.5-1.6,1-2.5,1.5-1.5.5-2.9,1.1-4.2,2Z" fill="#ffbda7" stroke-width="0"/><path d="m108.8,286.6c-2,1.4-3.4,3.6-3.7,6-.4-2.7.9-5.3,3.2-6.8l.5.8Z" fill="#f0997a" stroke-width="0"/><path d="m88.9,263.7c2.3.5,4.4,1.7,6.1,3.4,1.7,1.7,4.9,6.5,6.7,9.1s3.9,5.5,3.9,5.5c0,0,.2,7-8.5,10.9l-8.2-10.1v-18.7Z" fill="#37474f" stroke-width="0"/><path d="m133.8,278.9c.3,0,.7-.2,1-.4.3-.1.7-.2,1-.3.7-.2,1.4-.3,2-.5-.7,0-1.4.1-2.1.3-.3,0-.7.1-1,.2-.3.1-.7.3-1,.3-.3,0-.6,0-.9-.2-.3,0-.6-.3-.8-.5,0-.1-.2-.3-.2-.4,0-.1,0-.3,0-.4.1-.2.3-.3.6-.4.2,0,.5.1.7.1.4,0,.8-.1,1.1-.3.4-.1.7-.3,1-.5.7-.3,1.4-.7,2-1-.7.2-1.4.5-2.1.8-.7.3-1.4.6-2.1.7-.4,0-.7,0-1.1-.2-.3-.1-.7-.3-1-.5-.3-.2-.5-.5-.5-.9,0-.2.1-.4.3-.5h.3c.4-.1.9-.2,1.3-.2.5,0,.9-.2,1.3-.4.8-.4,1.5-.9,2.2-1.5-.4.3-.7.5-1.1.7-.4.2-.8.4-1.2.6-.4.2-.8.3-1.2.4-.4,0-.9,0-1.3.2-.2,0-.4.1-.6.1s-.3,0-.4-.2c-.1-.4,0-.8.2-1.1.5-.7,1.3-1.2,2.1-1.4h0c0-.2.1-.4.3-.5.1-.2.3-.3.4-.5-.2.1-.3.3-.4.4-.1.1-.2.3-.3.5-.9.2-1.7.7-2.3,1.4-.1.2-.2.4-.3.6,0,.2,0,.5,0,.8,0,.1.2.2.3.3h0c.5,1.3.4,2.9-.2,4.1-.4.8-1.1,1.5-1.9,2,.9-.3,1.6-.9,2.2-1.6.5-.6.9-1.3,1.1-2l.2.4c0,0,0,.1,0,.2,0,.2.1.4.2.5.2.3.6.5.9.6.2,0,.4.2.6.2,0,0,0,.2,0,.3,0,.2,0,.3.1.5.2.2.4.5.6.6.1,0,.2.2.4.3.1,0,.3.1.4.2.3,0,.6,0,.9,0l-.8-.3c-.1,0-.2,0-.3-.2l-.3-.3c-.2-.2-.4-.4-.6-.5-.1-.2-.2-.4-.2-.6.2,0,.4,0,.5,0Z" fill="#f0997a" stroke-width="0"/><g id="freepik--Chest--inject-115"><path d="m68.9,262.2c-2.4.5-5.4,1.1-8.4,1.9-2.7.6-5.3,1.6-7.7,2.9.1,7.3.9,14.7,2.3,21.9.5,2.4,2.3,9,2.6,14.1.4,5.3.2,10.6-.4,15.8,0,0,7.8,5.8,24.5,4.5,13.1-1,14.8-5.8,14.8-5.8,0,0-.2-21.9-.6-31.5-.4-12.7-4.3-20-7.1-22.2l-8.6-1.4h-11.3Z" fill="#fafafa" stroke-width="0"/><path d="m69,263.2h11.2c0,.1,8.3,1.5,8.3,1.5,2.2,1.9,6.1,8.5,6.6,21.3.3,9,.6,28.9.6,31.3-.4.7-3,4.2-13.9,5-1.6.1-3.1.2-4.6.2-11,0-17.1-3.2-18.8-4.2.6-5.1.7-10.2.4-15.4-.4-4.2-1.1-8.4-2.2-12.6-.2-.7-.3-1.2-.4-1.7-1.4-6.9-2.1-14-2.3-21.1,2.2-1.1,4.5-1.9,6.8-2.5h.2c2.9-.8,5.7-1.4,8-1.9h.2m0-1c-2.4.5-5.4,1.1-8.4,1.9-2.7.6-5.3,1.6-7.7,2.9.1,7.3.9,14.7,2.3,21.9.5,2.4,2.3,9,2.6,14.1.4,5.3.3,10.5-.4,15.8,0,0,6.4,4.7,19.9,4.7s3,0,4.7-.2c13.1-1,14.8-5.8,14.8-5.8,0,0-.2-21.9-.6-31.5-.4-12.7-4.3-20-7.1-22.2l-8.6-1.4h-11.3c0-.1,0,0,0,0Z" fill="#e0e0e0" stroke-width="0"/></g><g id="freepik--head--inject-115"><path d="m64.1,234.7c-1.5.3-2.8,1.3-3.4,2.8-.7,1.3-1.2,3.7.7,10.6.7,2.7,1.8,5.2,3.3,7.6.4.8,1.2,1.3,2,1.6v-5.3c-.1,0-.3-3.7-.3-3.7,0,0,3-2.7,3.2-5.3.3-1.8,0-3.7-1-5.3l-4.4-2.9Z" fill="#263238" stroke-width="0"/><path d="m63.4,234.9c.5-3,4.3-6.5,11.5-6.9,6-.3,9.3,2.8,11.4,6.3,1.2,2,1.4,4.5.3,6.6l-18.2-.9-5-5Z" fill="#263238" stroke-width="0"/><path d="m61.7,253.5c2.7,1.3,4-.8,4-.8v11.1c5.2,7,19.7,4.2,13.9-1v-2.5c.8,0,1.6,0,2.4-.2,2.3-.2,4.2-1.9,4.6-4.1.4-1.8.7-3.6.8-5.5.2-2.8.2-5.3-.5-7.2-.5-1.4,0-3.1-.3-4.8-.2-1.3-.9-2.5-2-3.2-2.9-1.4-5.6.6-9.6,2.2-1.7.6-5.7.9-6.8.4,1.4,1.6,1.4,6.5-.7,8.5-.2.5-.6,1-1,1.4-.9.8-1.6-1.2-2.3-2-1.2-1.1-3.1-1-4.2.3-.2.2-.4.5-.5.8-1.2,2.5-.2,5.4,2.2,6.7Z" fill="#ffbda7" stroke-width="0"/><path d="m79.6,260.3c-2.7,0-5.3-.3-7.9-1.2-1.9-.8-3.5-3.3-4.1-5.8,0,2,.9,5.6,3.7,7.1s6.2,1.6,8.2,1.6v-1.7Z" fill="#f0997a" stroke-width="0"/><path d="m74.6,241.7l-2.7,1.1c-.3-.8,0-1.7.8-2,.7-.3,1.5,0,1.8.8,0,0,0,0,0,0Z" fill="#37474f" stroke-width="0"/><path d="m85.6,242.1l-2.7-1.1c.3-.7,1.1-1.1,1.8-.9,0,0,0,0,0,0,.8.3,1.1,1.2.9,1.9Z" fill="#37474f" stroke-width="0"/><path d="m73.4,244.9c0,.7.6,1.2,1.2,1.1.7,0,1.2-.6,1.1-1.2,0,0,0,0,0,0,0-.6-.6-1.1-1.2-1.1-.6,0-1.2.5-1.1,1.2Z" fill="#263238" stroke-width="0"/><path d="m82.6,244.4c0,.7.6,1.2,1.2,1.1.7,0,1.1-.7,1-1.3,0-.6-.5-1-1.1-1-.7,0-1.2.6-1.2,1.2,0,0,0,0,0,0Z" fill="#263238" stroke-width="0"/><path d="m78.5,242.7l1,7.5,4-1.5c-1.2-2.4-2.9-4.4-5-6.1Z" fill="#f0997a" stroke-width="0"/><path d="m76.3,251.3l4.3.8c-.1,1.2-1.2,2-2.4,1.9,0,0,0,0,0,0-1.2-.2-2-1.4-1.8-2.6Z" fill="#b16668" stroke-width="0"/><path d="m76.8,252c-.2,0-.4,0-.5,0,.1,1,.9,1.7,1.8,1.9.2,0,.5,0,.7,0,0-1.1-.9-1.9-2-1.9Z" fill="#f28f8f" stroke-width="0"/></g><polygon points="110.7 294.4 84.3 301.2 74.5 331 75 331.6 100.2 324.7 111.2 295.1 110.7 294.4" fill="#263238" stroke-width="0"/><polygon points="84.8 301.8 75 331.6 74.5 331 84.3 301.2 84.8 301.8" isolation="isolate" opacity=".3" stroke-width="0"/><polygon points="111.2 295.1 84.8 301.8 75 331.6 100.2 324.7 111.2 295.1" isolation="isolate" opacity=".2" stroke-width="0"/><g opacity=".1"><path d="m103,300.6s.1-.4.3-1-1.4-.4-3.4.4l-4.7,1c-2,.8-4,1.3-4.1,1.8l-.3,1,12.3-3.2Z" stroke-width="0"/></g><path d="m104.8,296.1c.1-.4-.5-.3-1.3-.2l-1.5.4s.7-1.4-2.8-.8c-3.9.7-4.2,2.6-4.2,2.6-.6.2-1.3.4-1.9.5-1.3.3-1.5.5-1.6.9l-.2.6,13.4-3.4.2-.6Z" fill="#37474f" stroke-width="0"/><path d="m103.3,298c-1.3.4-1.8.7-2,1.5s-.4,1.4-.4,1.4l-7,2.1s.5-1.4.6-1.9-.8-.6-2-.1l.4-1.2,10.9-3-.6,1.2Z" fill="#37474f" stroke-width="0"/><path d="m103.3,300.7s.1-.5.3-1-1.4-.4-3.4.4l-4.7,1c-2,.8-4,1.3-4.1,1.8l-.3,1,12.3-3.2Z" fill="#37474f" stroke-width="0"/><path d="m45.4,279c2.4-9.6,5.1-11.8,10.6-12.8,4.9,7.8,2.1,19.9,2.1,19.9l-3.3,14.8c.9.8,14.4,9.5,16.8,10.3,1.1.2,2.3,0,3.4-.3,2.3-.7,4-.5,6.2-.3l-1,3.2c.9.3,1.9.6,2.9.7,1.6.2,3.2.3,4.7,0,1.4-.1,3-.4,4.2.4.3.2.6.5.5.8-.1.2-.3.4-.5.5-.5.3-.9.8-1.1,1.4-.3,1.1-1,2-2,2.6-.8.6-1.6,1.1-2.4,1.6-1.5.7-3.1,1.1-4.8,1.4-.6.1-1.2.2-1.8.2-2.3-.2-4.6-.7-6.7-1.5-2.7-.8-4.3-1.5-6.5-2.3-1.5-.5-4.3-1.5-5.8-2.1-8.5-3.2-20-7.3-20.5-11.4s2.5-17.1,5-27.1Z" fill="#ffbda7" stroke-width="0"/><path d="m56,265.5c-6.2,1.9-7.4,2.8-9.2,7.7-2.4,7.7-4.3,15.5-5.8,23.3,2.9,2.8,11.6,4.6,14.7,2.6l2.9-12.8c1-4.3,3-14-2.6-20.8Z" fill="#37474f" stroke-width="0"/></g></g></g><g id="freepik--speech-bubble--inject-115"><g id="freepik--speech-bubble--inject-115-2"><g id="freepik--speech-bubble--inject-115-3"><path d="m420.6,77.2l2.5-4.7-2-5.8v-3.5l6.1,3.5v3.5l-2.6,4.5c0,0,0,.1-.2.2h0l-3.8,2.2Z" fill="#263238" stroke-width="0"/><path d="m420.6,77.2l2.5-4.7-2-5.8v-3.5l6.1,3.5v3.5l-2.6,4.5c0,0,0,.1-.2.2h0l-3.8,2.2Z" isolation="isolate" opacity=".2" stroke-width="0"/><path d="m398.5,30.9c0-1.3.8-2.5,1.8-3.2l1.5-.9c1.2-.6,2.5-.6,3.7,0l30.4,17.6c1.1.7,1.8,1.9,1.8,3.2v25.1c0,1.3-.7,2.5-1.8,3.2l-1.5.9c-1.2.6-2.5.6-3.7,0l-7.3-4.2-2.6,4.5c-.1.2-.3.3-.5.1,0,0-.1-.1-.2-.2l-2.8-8-16.9-9.8c-1.1-.7-1.8-1.9-1.8-3.2v-25.1Z" fill="#dd6d1f" stroke-width="0"/><path d="m437.7,72.7c0,1.3-.7,2.5-1.8,3.2l-1.5.9c-1,.5-2.3.6-3.4.2.9.3,1.5-.2,1.5-1.2v-25.1c0-.7-.2-1.3-.6-1.8l5.1-3c.3.5.5,1.2.5,1.8v25.2Z" isolation="isolate" opacity=".2" stroke-width="0"/><path d="m398.6,30.4c.2-.8.9-1,1.8-.5l30.4,17.6c.5.3,1,.8,1.2,1.3l5.1-3c-.3-.6-.8-1-1.3-1.4l-30.3-17.5c-1.2-.6-2.5-.6-3.7,0l-1.5.8c-.9.6-1.6,1.6-1.8,2.7Z" fill="#fff" isolation="isolate" opacity=".3" stroke-width="0"/></g><g id="freepik----inject-115"><path d="m403,45.5c0-.2,0-.4.1-.5,0-.1.2-.2.3-.2l6.4-3h.2c.1,0,.2.2.2.3,0,.1,0,.3,0,.4v4c0,.3,0,.5-.2.6-.1,0-.2.1-.3.2l-2.8,1.1,2.8,4.3c.1.2.2.3.3.5.1.3.2.5.2.8v4c0,.1,0,.2,0,.3,0,0-.2,0-.2,0h-.2c0-.1-6.4-10.4-6.4-10.4-.1-.2-.2-.4-.3-.6,0-.2-.1-.4-.1-.7v-1.1Z" fill="#fff" stroke-width="0"/><path d="m417,44.1c0-.1.1-.3.2-.4.1,0,.3,0,.5,0l2.1,1.2c.1,0,.2.2.2.3,0,.1.1.3.1.4,0,0,0,.1,0,.2l-5.4,16.8c0,.1-.1.3-.2.4-.1,0-.3,0-.5,0l-2.1-1.2c-.1,0-.2-.2-.2-.3,0-.1-.1-.3-.1-.4,0,0,0-.1,0-.2l5.4-16.8Z" fill="#fff" stroke-width="0"/><path d="m428.7,61.3c0,.2,0,.4-.1.5,0,.1-.2.2-.3.2l-6.4,2.9h-.2c-.1,0-.2-.2-.2-.3,0-.1,0-.3-.1-.4v-4c0-.3,0-.5.2-.6,0,0,.2-.1.3-.2l2.8-1.1-2.8-4.3c0-.1-.2-.3-.3-.6-.1-.3-.2-.5-.2-.8v-4c0-.1,0-.2.1-.3,0,0,.2,0,.2,0h0s.1.2.1.2l6.4,10.3c.1.2.2.4.3.6,0,.2.1.4.1.7v1Z" fill="#fff" stroke-width="0"/></g></g></g><g id="freepik--Text--inject-115"><g id="freepik--SEO--inject-115"><path d="m221.8,177.5c0-13,8.5-28.9,18.5-34.6,4.5-2.6,8.6-2.8,11.8-1.1-1.4-.8-4.6-2.7-5.5-3.2-3.3-1.9-7.6-1.8-12.3.9-10,5.8-18.5,21.6-18.5,34.6s2.5,12,6.3,14.2c.9.5,4.3,2.5,5.7,3.3-3.7-2.3-6-7.2-6-14.1Z" fill="#37474f" stroke-width="0"/><path d="m243.7,150.7c1,2,1.5,4.2,1.4,6.4,0,8.1-5,17.9-10.8,21.2-1,.6-2.2,1-3.4,1.2,1.9,3.4,5.4,4.6,9.4,2.3,5.9-3.4,10.8-13.1,10.8-21.2,0-6.4-3.2-10.3-7.4-9.8Z" fill="#263238" stroke-width="0"/><path d="m221.8,177.5c0-13,8.5-28.9,18.5-34.6,10-5.8,18.5.3,18.5,13.3s-8.4,28.9-18.5,34.7-18.5-.3-18.5-13.4Zm29.3-16.9c0-8-5-12-10.8-8.7s-10.8,13.1-10.8,21.1,5,12.1,10.8,8.8,10.8-13.1,10.8-21.2Z" fill="#fff" stroke-width="0"/><path d="m247.6,140.6v.7c6.3,0,10.4,5.8,10.4,14.8,0,12.8-8.3,28.4-18.1,34.1-2.1,1.3-4.5,2-6.9,2.1-6.4,0-10.5-5.8-10.5-14.8,0-12.8,8.3-28.3,18.1-34,2.1-1.3,4.5-2,7-2.1v-.7m-11.4,43.1c1.5,0,3-.5,4.4-1.3,6.1-3.5,11.2-13.5,11.2-21.9s-3-10.6-7.5-10.6c-1.6,0-3.1.5-4.4,1.3-6,3.5-11.1,13.5-11.1,21.8s3,10.7,7.5,10.7m11.4-43.1c-2.6,0-5.1.8-7.4,2.2-10,5.8-18.5,21.6-18.5,34.6s4.7,15.5,11.2,15.5c2.6,0,5.1-.8,7.3-2.2,10.1-5.8,18.5-21.7,18.5-34.7s-4.6-15.5-11.1-15.5h0Zm-11.4,42.4c-3.9,0-6.8-3.8-6.8-9.9s5-17.8,10.8-21.1c1.2-.8,2.6-1.2,4-1.2,3.9,0,6.8,3.8,6.8,9.9s-5,17.9-10.8,21.2c-1.2.7-2.6,1.2-4,1.2Z" fill="#263238" stroke-width="0"/><path d="m198.2,176.9v9.2l17.5-10.1v9l-17.5,10.1v10.2l19.3-11.1v9l-26.8,15.5v-46.4l26.8-15.5v9l-19.3,11.1Z" fill="#fff" stroke-width="0"/><path d="m216.8,158.1v7.3l-18.9,10.9-.4.2v10.9l1.1-.6,16.4-9.4v7.3l-17.1,9.9-.4.2v11.9l1.1-.6,18.2-10.5v7.2l-25.3,14.6v-44.6l25.3-14.6m.7-1.3l-26.8,15.5v46.4l26.8-15.5v-9l-19.3,11.1v-10.2l17.5-10.1v-9l-17.5,10.1v-9.2l19.3-11.1v-9h0Z" fill="#263238" stroke-width="0"/><polygon points="190.7 218.7 184.7 215.2 184.7 168.8 190.7 172.3 190.7 218.7" fill="#263238" stroke-width="0"/><polygon points="217.5 156.8 211.5 153.4 184.7 168.8 190.7 172.3 217.5 156.8" fill="#37474f" stroke-width="0"/><polygon points="209.7 172.7 198.2 179.3 198.2 186.2 215.7 176.1 209.7 172.7" fill="#37474f" stroke-width="0"/><polygon points="211.5 190.8 198.2 198.5 198.2 205.4 217.5 194.2 211.5 190.8" fill="#37474f" stroke-width="0"/><path d="m176.8,197.6c-2.2-1.4-5.6-.9-9.9.3l-1.4.4c1.5-5.8,7.4-9.3,13.2-7.8.6.1,1.2.3,1.7.6l3.9-9.4c-2-1.1-6-3.4-6-3.4-3.5-2-8-1.8-13.6,1.4-7.6,4.4-12.9,13.3-12.9,21.9s.9,6,2.6,7c1.1.7,5.2,3,6.1,3.5,2.2,1.3,5.7.8,9.8-.4l1.2-.3c-.8,3-2.8,5.6-5.5,7.1-4.4,2.5-8.1,2.4-11.4.5l-4.3,9.3c2,1.3,6,3.4,6,3.4,4.1,2.7,9.4,2.3,15.4-1.2,8.2-4.6,13.3-13.1,13.5-22.5,0-3.8-.9-5.9-2.6-6.9-1-.6-5-2.8-5.9-3.3Z" fill="#37474f" stroke-width="0"/><path d="m156.4,231.6l4.3-9.3c3.3,1.9,7,2,11.4-.5,3.8-2.2,5.7-5.6,5.7-8.5s-2-3.1-7.4-1.7c-7.3,2-12.6,2.3-12.6-6.7s5.3-17.5,12.9-21.9c5.7-3.3,10.1-3.4,13.6-1.4l-3.9,9.4c-3.2-1.5-6.9-1.3-9.9.6-3.2,1.8-5.1,5.2-5.1,7.9s2.1,3.3,7.4,1.8c7.5-2.1,12.5-2,12.5,6.6-.2,9.4-5.3,17.9-13.5,22.5-6,3.5-11.4,3.9-15.4,1.2Z" fill="#fff" stroke-width="0"/><path d="m179.4,181c1.4,0,2.8.3,4.1.9l-3.4,8.1c-1.2-.5-2.6-.8-3.9-.8-2.1,0-4.2.6-6,1.7-3.2,1.9-5.5,5.4-5.5,8.6s1,3.5,3.1,3.5c1.8-.1,3.5-.5,5.2-1,2-.6,4.1-1,6.2-1.1,2.6,0,5.3.8,5.3,7,0,8.8-5,17.2-13.2,21.9-2.7,1.7-5.9,2.7-9.1,2.9-1.7,0-3.5-.4-5-1.3l3.7-8c1.5.7,3.1,1.1,4.7,1.1,2.4,0,4.7-.7,6.8-2,3.7-2.1,6-5.7,6-9.1s-1-3.4-3.1-3.4c-1.8.1-3.5.5-5.2,1-2.1.6-4.2,1-6.3,1.1-2.6,0-5.3-.9-5.3-7.1s5.1-17,12.5-21.2c2.5-1.6,5.3-2.5,8.3-2.7m0-.7c-3.1.1-6.1,1.1-8.6,2.8-7.6,4.4-12.9,13.3-12.9,21.9s2.3,7.9,6,7.9c2.2-.1,4.4-.5,6.5-1.1,1.6-.5,3.3-.9,5-1,1.6,0,2.3.8,2.3,2.7,0,2.9-1.9,6.3-5.7,8.5-1.9,1.2-4.1,1.9-6.4,1.9-1.8,0-3.5-.5-5.1-1.4l-4.3,9.3c1.8,1.2,3.9,1.8,6,1.7,3.4-.2,6.6-1.2,9.5-3,8.2-4.6,13.3-13.1,13.5-22.5,0-5.8-2.3-7.7-6-7.7-2.2,0-4.3.5-6.4,1.1-1.6.5-3.3.9-5,1-1.7,0-2.4-.8-2.4-2.8s1.9-6.1,5.1-7.9c1.7-1,3.7-1.6,5.6-1.6,1.5,0,3,.3,4.3,1l3.9-9.4c-1.5-.9-3.2-1.3-5-1.3h0Z" fill="#263238" stroke-width="0"/><polygon points="160.7 222.3 154.7 218.9 150.4 228.2 156.4 231.6 160.7 222.3" fill="#263238" stroke-width="0"/></g></g></g></svg>